G04 #@! TF.GenerationSoftware,KiCad,Pcbnew,(5.99.0-11522-g728b160719)*
G04 #@! TF.CreationDate,2021-08-06T10:17:42+10:00*
G04 #@! TF.ProjectId,Stencil,5374656e-6369-46c2-9e6b-696361645f70,0.2*
G04 #@! TF.SameCoordinates,Original*
G04 #@! TF.FileFunction,Legend,Top*
G04 #@! TF.FilePolarity,Positive*
%FSLAX46Y46*%
G04 Gerber Fmt 4.6, Leading zero omitted, Abs format (unit mm)*
G04 Created by KiCad (PCBNEW (5.99.0-11522-g728b160719)) date 2021-08-06 10:17:42*
%MOMM*%
%LPD*%
G01*
G04 APERTURE LIST*
%ADD10C,0.150000*%
G04 #@! TA.AperFunction,Profile*
%ADD11C,0.100000*%
G04 #@! TD*
%ADD12C,0.120000*%
G04 APERTURE END LIST*
D10*
X104140000Y-70866000D02*
X107950000Y-70866000D01*
X107950000Y-70866000D02*
X107950000Y-72644000D01*
D11*
X113259000Y-96114000D02*
X93193000Y-96114000D01*
X93193000Y-96114000D02*
X93193000Y-76048000D01*
X93193000Y-76048000D02*
X113259000Y-76048000D01*
X113259000Y-76048000D02*
X113259000Y-96114000D01*
X113259000Y-76048000D02*
X93193000Y-76048000D01*
X93193000Y-76048000D02*
X93193000Y-55982000D01*
X93193000Y-55982000D02*
X113259000Y-55982000D01*
X113259000Y-55982000D02*
X113259000Y-76048000D01*
X133325000Y-96114000D02*
X113259000Y-96114000D01*
X113259000Y-96114000D02*
X113259000Y-76048000D01*
X113259000Y-76048000D02*
X133325000Y-76048000D01*
X133325000Y-76048000D02*
X133325000Y-96114000D01*
X133325000Y-76048000D02*
X113259000Y-76048000D01*
X113259000Y-76048000D02*
X113259000Y-55982000D01*
X113259000Y-55982000D02*
X133325000Y-55982000D01*
X133325000Y-55982000D02*
X133325000Y-76048000D01*
D10*
G04 #@! TO.C,C5*
X108545333Y-66905142D02*
X108497714Y-66952761D01*
X108354857Y-67000380D01*
X108259619Y-67000380D01*
X108116761Y-66952761D01*
X108021523Y-66857523D01*
X107973904Y-66762285D01*
X107926285Y-66571809D01*
X107926285Y-66428952D01*
X107973904Y-66238476D01*
X108021523Y-66143238D01*
X108116761Y-66048000D01*
X108259619Y-66000380D01*
X108354857Y-66000380D01*
X108497714Y-66048000D01*
X108545333Y-66095619D01*
X109450095Y-66000380D02*
X108973904Y-66000380D01*
X108926285Y-66476571D01*
X108973904Y-66428952D01*
X109069142Y-66381333D01*
X109307238Y-66381333D01*
X109402476Y-66428952D01*
X109450095Y-66476571D01*
X109497714Y-66571809D01*
X109497714Y-66809904D01*
X109450095Y-66905142D01*
X109402476Y-66952761D01*
X109307238Y-67000380D01*
X109069142Y-67000380D01*
X108973904Y-66952761D01*
X108926285Y-66905142D01*
G04 #@! TO.C,C4*
X101703142Y-61507666D02*
X101750761Y-61555285D01*
X101798380Y-61698142D01*
X101798380Y-61793380D01*
X101750761Y-61936238D01*
X101655523Y-62031476D01*
X101560285Y-62079095D01*
X101369809Y-62126714D01*
X101226952Y-62126714D01*
X101036476Y-62079095D01*
X100941238Y-62031476D01*
X100846000Y-61936238D01*
X100798380Y-61793380D01*
X100798380Y-61698142D01*
X100846000Y-61555285D01*
X100893619Y-61507666D01*
X101131714Y-60650523D02*
X101798380Y-60650523D01*
X100750761Y-60888619D02*
X101465047Y-61126714D01*
X101465047Y-60507666D01*
G04 #@! TO.C,J2*
X131950666Y-56602380D02*
X131950666Y-57316666D01*
X131903047Y-57459523D01*
X131807809Y-57554761D01*
X131664952Y-57602380D01*
X131569714Y-57602380D01*
X132379238Y-56697619D02*
X132426857Y-56650000D01*
X132522095Y-56602380D01*
X132760190Y-56602380D01*
X132855428Y-56650000D01*
X132903047Y-56697619D01*
X132950666Y-56792857D01*
X132950666Y-56888095D01*
X132903047Y-57030952D01*
X132331619Y-57602380D01*
X132950666Y-57602380D01*
G04 #@! TO.C,J1*
X113941666Y-76668380D02*
X113941666Y-77382666D01*
X113894047Y-77525523D01*
X113798809Y-77620761D01*
X113655952Y-77668380D01*
X113560714Y-77668380D01*
X114941666Y-77668380D02*
X114370238Y-77668380D01*
X114655952Y-77668380D02*
X114655952Y-76668380D01*
X114560714Y-76811238D01*
X114465476Y-76906476D01*
X114370238Y-76954095D01*
G04 #@! TO.C,R2*
X97709380Y-90184666D02*
X97233190Y-90518000D01*
X97709380Y-90756095D02*
X96709380Y-90756095D01*
X96709380Y-90375142D01*
X96757000Y-90279904D01*
X96804619Y-90232285D01*
X96899857Y-90184666D01*
X97042714Y-90184666D01*
X97137952Y-90232285D01*
X97185571Y-90279904D01*
X97233190Y-90375142D01*
X97233190Y-90756095D01*
X96804619Y-89803714D02*
X96757000Y-89756095D01*
X96709380Y-89660857D01*
X96709380Y-89422761D01*
X96757000Y-89327523D01*
X96804619Y-89279904D01*
X96899857Y-89232285D01*
X96995095Y-89232285D01*
X97137952Y-89279904D01*
X97709380Y-89851333D01*
X97709380Y-89232285D01*
G04 #@! TO.C,J1*
X93875666Y-56602380D02*
X93875666Y-57316666D01*
X93828047Y-57459523D01*
X93732809Y-57554761D01*
X93589952Y-57602380D01*
X93494714Y-57602380D01*
X94875666Y-57602380D02*
X94304238Y-57602380D01*
X94589952Y-57602380D02*
X94589952Y-56602380D01*
X94494714Y-56745238D01*
X94399476Y-56840476D01*
X94304238Y-56888095D01*
G04 #@! TO.C,C2*
X98147142Y-63285666D02*
X98194761Y-63333285D01*
X98242380Y-63476142D01*
X98242380Y-63571380D01*
X98194761Y-63714238D01*
X98099523Y-63809476D01*
X98004285Y-63857095D01*
X97813809Y-63904714D01*
X97670952Y-63904714D01*
X97480476Y-63857095D01*
X97385238Y-63809476D01*
X97290000Y-63714238D01*
X97242380Y-63571380D01*
X97242380Y-63476142D01*
X97290000Y-63333285D01*
X97337619Y-63285666D01*
X97337619Y-62904714D02*
X97290000Y-62857095D01*
X97242380Y-62761857D01*
X97242380Y-62523761D01*
X97290000Y-62428523D01*
X97337619Y-62380904D01*
X97432857Y-62333285D01*
X97528095Y-62333285D01*
X97670952Y-62380904D01*
X98242380Y-62952333D01*
X98242380Y-62333285D01*
G04 #@! TO.C,J1*
X113941666Y-56602380D02*
X113941666Y-57316666D01*
X113894047Y-57459523D01*
X113798809Y-57554761D01*
X113655952Y-57602380D01*
X113560714Y-57602380D01*
X114941666Y-57602380D02*
X114370238Y-57602380D01*
X114655952Y-57602380D02*
X114655952Y-56602380D01*
X114560714Y-56745238D01*
X114465476Y-56840476D01*
X114370238Y-56888095D01*
G04 #@! TO.C,C4*
X131117142Y-89295666D02*
X131164761Y-89343285D01*
X131212380Y-89486142D01*
X131212380Y-89581380D01*
X131164761Y-89724238D01*
X131069523Y-89819476D01*
X130974285Y-89867095D01*
X130783809Y-89914714D01*
X130640952Y-89914714D01*
X130450476Y-89867095D01*
X130355238Y-89819476D01*
X130260000Y-89724238D01*
X130212380Y-89581380D01*
X130212380Y-89486142D01*
X130260000Y-89343285D01*
X130307619Y-89295666D01*
X130545714Y-88438523D02*
X131212380Y-88438523D01*
X130164761Y-88676619D02*
X130879047Y-88914714D01*
X130879047Y-88295666D01*
G04 #@! TO.C,Q1*
X127461119Y-70199238D02*
X127413500Y-70294476D01*
X127318261Y-70389714D01*
X127175404Y-70532571D01*
X127127785Y-70627809D01*
X127127785Y-70723047D01*
X127365880Y-70675428D02*
X127318261Y-70770666D01*
X127223023Y-70865904D01*
X127032547Y-70913523D01*
X126699214Y-70913523D01*
X126508738Y-70865904D01*
X126413500Y-70770666D01*
X126365880Y-70675428D01*
X126365880Y-70484952D01*
X126413500Y-70389714D01*
X126508738Y-70294476D01*
X126699214Y-70246857D01*
X127032547Y-70246857D01*
X127223023Y-70294476D01*
X127318261Y-70389714D01*
X127365880Y-70484952D01*
X127365880Y-70675428D01*
X127365880Y-69294476D02*
X127365880Y-69865904D01*
X127365880Y-69580190D02*
X126365880Y-69580190D01*
X126508738Y-69675428D01*
X126603976Y-69770666D01*
X126651595Y-69865904D01*
G04 #@! TO.C,U1*
X122149095Y-59719380D02*
X122149095Y-60528904D01*
X122196714Y-60624142D01*
X122244333Y-60671761D01*
X122339571Y-60719380D01*
X122530047Y-60719380D01*
X122625285Y-60671761D01*
X122672904Y-60624142D01*
X122720523Y-60528904D01*
X122720523Y-59719380D01*
X123720523Y-60719380D02*
X123149095Y-60719380D01*
X123434809Y-60719380D02*
X123434809Y-59719380D01*
X123339571Y-59862238D01*
X123244333Y-59957476D01*
X123149095Y-60005095D01*
G04 #@! TO.C,Q2*
X127461119Y-67405238D02*
X127413500Y-67500476D01*
X127318261Y-67595714D01*
X127175404Y-67738571D01*
X127127785Y-67833809D01*
X127127785Y-67929047D01*
X127365880Y-67881428D02*
X127318261Y-67976666D01*
X127223023Y-68071904D01*
X127032547Y-68119523D01*
X126699214Y-68119523D01*
X126508738Y-68071904D01*
X126413500Y-67976666D01*
X126365880Y-67881428D01*
X126365880Y-67690952D01*
X126413500Y-67595714D01*
X126508738Y-67500476D01*
X126699214Y-67452857D01*
X127032547Y-67452857D01*
X127223023Y-67500476D01*
X127318261Y-67595714D01*
X127365880Y-67690952D01*
X127365880Y-67881428D01*
X126461119Y-67071904D02*
X126413500Y-67024285D01*
X126365880Y-66929047D01*
X126365880Y-66690952D01*
X126413500Y-66595714D01*
X126461119Y-66548095D01*
X126556357Y-66500476D01*
X126651595Y-66500476D01*
X126794452Y-66548095D01*
X127365880Y-67119523D01*
X127365880Y-66500476D01*
G04 #@! TO.C,C1*
X118147333Y-78310142D02*
X118099714Y-78357761D01*
X117956857Y-78405380D01*
X117861619Y-78405380D01*
X117718761Y-78357761D01*
X117623523Y-78262523D01*
X117575904Y-78167285D01*
X117528285Y-77976809D01*
X117528285Y-77833952D01*
X117575904Y-77643476D01*
X117623523Y-77548238D01*
X117718761Y-77453000D01*
X117861619Y-77405380D01*
X117956857Y-77405380D01*
X118099714Y-77453000D01*
X118147333Y-77500619D01*
X119099714Y-78405380D02*
X118528285Y-78405380D01*
X118814000Y-78405380D02*
X118814000Y-77405380D01*
X118718761Y-77548238D01*
X118623523Y-77643476D01*
X118528285Y-77691095D01*
G04 #@! TO.C,C3*
X99925142Y-60999666D02*
X99972761Y-61047285D01*
X100020380Y-61190142D01*
X100020380Y-61285380D01*
X99972761Y-61428238D01*
X99877523Y-61523476D01*
X99782285Y-61571095D01*
X99591809Y-61618714D01*
X99448952Y-61618714D01*
X99258476Y-61571095D01*
X99163238Y-61523476D01*
X99068000Y-61428238D01*
X99020380Y-61285380D01*
X99020380Y-61190142D01*
X99068000Y-61047285D01*
X99115619Y-60999666D01*
X99020380Y-60666333D02*
X99020380Y-60047285D01*
X99401333Y-60380619D01*
X99401333Y-60237761D01*
X99448952Y-60142523D01*
X99496571Y-60094904D01*
X99591809Y-60047285D01*
X99829904Y-60047285D01*
X99925142Y-60094904D01*
X99972761Y-60142523D01*
X100020380Y-60237761D01*
X100020380Y-60523476D01*
X99972761Y-60618714D01*
X99925142Y-60666333D01*
G04 #@! TO.C,R2*
X126349880Y-64936666D02*
X125873690Y-65270000D01*
X126349880Y-65508095D02*
X125349880Y-65508095D01*
X125349880Y-65127142D01*
X125397500Y-65031904D01*
X125445119Y-64984285D01*
X125540357Y-64936666D01*
X125683214Y-64936666D01*
X125778452Y-64984285D01*
X125826071Y-65031904D01*
X125873690Y-65127142D01*
X125873690Y-65508095D01*
X125445119Y-64555714D02*
X125397500Y-64508095D01*
X125349880Y-64412857D01*
X125349880Y-64174761D01*
X125397500Y-64079523D01*
X125445119Y-64031904D01*
X125540357Y-63984285D01*
X125635595Y-63984285D01*
X125778452Y-64031904D01*
X126349880Y-64603333D01*
X126349880Y-63984285D01*
G04 #@! TO.C,R3*
X106370380Y-72048666D02*
X105894190Y-72382000D01*
X106370380Y-72620095D02*
X105370380Y-72620095D01*
X105370380Y-72239142D01*
X105418000Y-72143904D01*
X105465619Y-72096285D01*
X105560857Y-72048666D01*
X105703714Y-72048666D01*
X105798952Y-72096285D01*
X105846571Y-72143904D01*
X105894190Y-72239142D01*
X105894190Y-72620095D01*
X105370380Y-71715333D02*
X105370380Y-71096285D01*
X105751333Y-71429619D01*
X105751333Y-71286761D01*
X105798952Y-71191523D01*
X105846571Y-71143904D01*
X105941809Y-71096285D01*
X106179904Y-71096285D01*
X106275142Y-71143904D01*
X106322761Y-71191523D01*
X106370380Y-71286761D01*
X106370380Y-71572476D01*
X106322761Y-71667714D01*
X106275142Y-71715333D01*
G04 #@! TO.C,D1*
X97290380Y-75160095D02*
X96290380Y-75160095D01*
X96290380Y-74922000D01*
X96338000Y-74779142D01*
X96433238Y-74683904D01*
X96528476Y-74636285D01*
X96718952Y-74588666D01*
X96861809Y-74588666D01*
X97052285Y-74636285D01*
X97147523Y-74683904D01*
X97242761Y-74779142D01*
X97290380Y-74922000D01*
X97290380Y-75160095D01*
X97290380Y-73636285D02*
X97290380Y-74207714D01*
X97290380Y-73922000D02*
X96290380Y-73922000D01*
X96433238Y-74017238D01*
X96528476Y-74112476D01*
X96576095Y-74207714D01*
G04 #@! TO.C,J2*
X111909666Y-56602380D02*
X111909666Y-57316666D01*
X111862047Y-57459523D01*
X111766809Y-57554761D01*
X111623952Y-57602380D01*
X111528714Y-57602380D01*
X112338238Y-56697619D02*
X112385857Y-56650000D01*
X112481095Y-56602380D01*
X112719190Y-56602380D01*
X112814428Y-56650000D01*
X112862047Y-56697619D01*
X112909666Y-56792857D01*
X112909666Y-56888095D01*
X112862047Y-57030952D01*
X112290619Y-57602380D01*
X112909666Y-57602380D01*
G04 #@! TO.C,U1*
X104115095Y-87946380D02*
X104115095Y-88755904D01*
X104162714Y-88851142D01*
X104210333Y-88898761D01*
X104305571Y-88946380D01*
X104496047Y-88946380D01*
X104591285Y-88898761D01*
X104638904Y-88851142D01*
X104686523Y-88755904D01*
X104686523Y-87946380D01*
X105686523Y-88946380D02*
X105115095Y-88946380D01*
X105400809Y-88946380D02*
X105400809Y-87946380D01*
X105305571Y-88089238D01*
X105210333Y-88184476D01*
X105115095Y-88232095D01*
G04 #@! TO.C,C2*
X103694333Y-90629142D02*
X103646714Y-90676761D01*
X103503857Y-90724380D01*
X103408619Y-90724380D01*
X103265761Y-90676761D01*
X103170523Y-90581523D01*
X103122904Y-90486285D01*
X103075285Y-90295809D01*
X103075285Y-90152952D01*
X103122904Y-89962476D01*
X103170523Y-89867238D01*
X103265761Y-89772000D01*
X103408619Y-89724380D01*
X103503857Y-89724380D01*
X103646714Y-89772000D01*
X103694333Y-89819619D01*
X104075285Y-89819619D02*
X104122904Y-89772000D01*
X104218142Y-89724380D01*
X104456238Y-89724380D01*
X104551476Y-89772000D01*
X104599095Y-89819619D01*
X104646714Y-89914857D01*
X104646714Y-90010095D01*
X104599095Y-90152952D01*
X104027666Y-90724380D01*
X104646714Y-90724380D01*
G04 #@! TO.C,L1*
X105218333Y-81326380D02*
X104742142Y-81326380D01*
X104742142Y-80326380D01*
X106075476Y-81326380D02*
X105504047Y-81326380D01*
X105789761Y-81326380D02*
X105789761Y-80326380D01*
X105694523Y-80469238D01*
X105599285Y-80564476D01*
X105504047Y-80612095D01*
G04 #@! TO.C,J1*
X93875666Y-76668380D02*
X93875666Y-77382666D01*
X93828047Y-77525523D01*
X93732809Y-77620761D01*
X93589952Y-77668380D01*
X93494714Y-77668380D01*
X94875666Y-77668380D02*
X94304238Y-77668380D01*
X94589952Y-77668380D02*
X94589952Y-76668380D01*
X94494714Y-76811238D01*
X94399476Y-76906476D01*
X94304238Y-76954095D01*
G04 #@! TO.C,U1*
X116242380Y-80492904D02*
X117051904Y-80492904D01*
X117147142Y-80445285D01*
X117194761Y-80397666D01*
X117242380Y-80302428D01*
X117242380Y-80111952D01*
X117194761Y-80016714D01*
X117147142Y-79969095D01*
X117051904Y-79921476D01*
X116242380Y-79921476D01*
X117242380Y-78921476D02*
X117242380Y-79492904D01*
X117242380Y-79207190D02*
X116242380Y-79207190D01*
X116385238Y-79302428D01*
X116480476Y-79397666D01*
X116528095Y-79492904D01*
G04 #@! TO.C,R1*
X95956380Y-69762666D02*
X95480190Y-70096000D01*
X95956380Y-70334095D02*
X94956380Y-70334095D01*
X94956380Y-69953142D01*
X95004000Y-69857904D01*
X95051619Y-69810285D01*
X95146857Y-69762666D01*
X95289714Y-69762666D01*
X95384952Y-69810285D01*
X95432571Y-69857904D01*
X95480190Y-69953142D01*
X95480190Y-70334095D01*
X95956380Y-68810285D02*
X95956380Y-69381714D01*
X95956380Y-69096000D02*
X94956380Y-69096000D01*
X95099238Y-69191238D01*
X95194476Y-69286476D01*
X95242095Y-69381714D01*
G04 #@! TO.C,R4*
X107640380Y-72048666D02*
X107164190Y-72382000D01*
X107640380Y-72620095D02*
X106640380Y-72620095D01*
X106640380Y-72239142D01*
X106688000Y-72143904D01*
X106735619Y-72096285D01*
X106830857Y-72048666D01*
X106973714Y-72048666D01*
X107068952Y-72096285D01*
X107116571Y-72143904D01*
X107164190Y-72239142D01*
X107164190Y-72620095D01*
X106973714Y-71191523D02*
X107640380Y-71191523D01*
X106592761Y-71429619D02*
X107307047Y-71667714D01*
X107307047Y-71048666D01*
G04 #@! TO.C,C1*
X97614142Y-85358666D02*
X97661761Y-85406285D01*
X97709380Y-85549142D01*
X97709380Y-85644380D01*
X97661761Y-85787238D01*
X97566523Y-85882476D01*
X97471285Y-85930095D01*
X97280809Y-85977714D01*
X97137952Y-85977714D01*
X96947476Y-85930095D01*
X96852238Y-85882476D01*
X96757000Y-85787238D01*
X96709380Y-85644380D01*
X96709380Y-85549142D01*
X96757000Y-85406285D01*
X96804619Y-85358666D01*
X97709380Y-84406285D02*
X97709380Y-84977714D01*
X97709380Y-84692000D02*
X96709380Y-84692000D01*
X96852238Y-84787238D01*
X96947476Y-84882476D01*
X96995095Y-84977714D01*
G04 #@! TO.C,U1*
X104394095Y-69556380D02*
X104394095Y-70365904D01*
X104441714Y-70461142D01*
X104489333Y-70508761D01*
X104584571Y-70556380D01*
X104775047Y-70556380D01*
X104870285Y-70508761D01*
X104917904Y-70461142D01*
X104965523Y-70365904D01*
X104965523Y-69556380D01*
X105965523Y-70556380D02*
X105394095Y-70556380D01*
X105679809Y-70556380D02*
X105679809Y-69556380D01*
X105584571Y-69699238D01*
X105489333Y-69794476D01*
X105394095Y-69842095D01*
G04 #@! TO.C,Y1*
X128759809Y-89195190D02*
X128759809Y-89671380D01*
X128426476Y-88671380D02*
X128759809Y-89195190D01*
X129093142Y-88671380D01*
X129950285Y-89671380D02*
X129378857Y-89671380D01*
X129664571Y-89671380D02*
X129664571Y-88671380D01*
X129569333Y-88814238D01*
X129474095Y-88909476D01*
X129378857Y-88957095D01*
G04 #@! TO.C,C3*
X105869142Y-83580666D02*
X105916761Y-83628285D01*
X105964380Y-83771142D01*
X105964380Y-83866380D01*
X105916761Y-84009238D01*
X105821523Y-84104476D01*
X105726285Y-84152095D01*
X105535809Y-84199714D01*
X105392952Y-84199714D01*
X105202476Y-84152095D01*
X105107238Y-84104476D01*
X105012000Y-84009238D01*
X104964380Y-83866380D01*
X104964380Y-83771142D01*
X105012000Y-83628285D01*
X105059619Y-83580666D01*
X104964380Y-83247333D02*
X104964380Y-82628285D01*
X105345333Y-82961619D01*
X105345333Y-82818761D01*
X105392952Y-82723523D01*
X105440571Y-82675904D01*
X105535809Y-82628285D01*
X105773904Y-82628285D01*
X105869142Y-82675904D01*
X105916761Y-82723523D01*
X105964380Y-82818761D01*
X105964380Y-83104476D01*
X105916761Y-83199714D01*
X105869142Y-83247333D01*
G04 #@! TO.C,C2*
X118934333Y-60555142D02*
X118886714Y-60602761D01*
X118743857Y-60650380D01*
X118648619Y-60650380D01*
X118505761Y-60602761D01*
X118410523Y-60507523D01*
X118362904Y-60412285D01*
X118315285Y-60221809D01*
X118315285Y-60078952D01*
X118362904Y-59888476D01*
X118410523Y-59793238D01*
X118505761Y-59698000D01*
X118648619Y-59650380D01*
X118743857Y-59650380D01*
X118886714Y-59698000D01*
X118934333Y-59745619D01*
X119315285Y-59745619D02*
X119362904Y-59698000D01*
X119458142Y-59650380D01*
X119696238Y-59650380D01*
X119791476Y-59698000D01*
X119839095Y-59745619D01*
X119886714Y-59840857D01*
X119886714Y-59936095D01*
X119839095Y-60078952D01*
X119267666Y-60650380D01*
X119886714Y-60650380D01*
G04 #@! TO.C,C1*
X95861142Y-67984666D02*
X95908761Y-68032285D01*
X95956380Y-68175142D01*
X95956380Y-68270380D01*
X95908761Y-68413238D01*
X95813523Y-68508476D01*
X95718285Y-68556095D01*
X95527809Y-68603714D01*
X95384952Y-68603714D01*
X95194476Y-68556095D01*
X95099238Y-68508476D01*
X95004000Y-68413238D01*
X94956380Y-68270380D01*
X94956380Y-68175142D01*
X95004000Y-68032285D01*
X95051619Y-67984666D01*
X95956380Y-67032285D02*
X95956380Y-67603714D01*
X95956380Y-67318000D02*
X94956380Y-67318000D01*
X95099238Y-67413238D01*
X95194476Y-67508476D01*
X95242095Y-67603714D01*
G04 #@! TO.C,C2*
X126275333Y-78310142D02*
X126227714Y-78357761D01*
X126084857Y-78405380D01*
X125989619Y-78405380D01*
X125846761Y-78357761D01*
X125751523Y-78262523D01*
X125703904Y-78167285D01*
X125656285Y-77976809D01*
X125656285Y-77833952D01*
X125703904Y-77643476D01*
X125751523Y-77548238D01*
X125846761Y-77453000D01*
X125989619Y-77405380D01*
X126084857Y-77405380D01*
X126227714Y-77453000D01*
X126275333Y-77500619D01*
X126656285Y-77500619D02*
X126703904Y-77453000D01*
X126799142Y-77405380D01*
X127037238Y-77405380D01*
X127132476Y-77453000D01*
X127180095Y-77500619D01*
X127227714Y-77595857D01*
X127227714Y-77691095D01*
X127180095Y-77833952D01*
X126608666Y-78405380D01*
X127227714Y-78405380D01*
G04 #@! TO.C,R5*
X108545333Y-69032380D02*
X108212000Y-68556190D01*
X107973904Y-69032380D02*
X107973904Y-68032380D01*
X108354857Y-68032380D01*
X108450095Y-68080000D01*
X108497714Y-68127619D01*
X108545333Y-68222857D01*
X108545333Y-68365714D01*
X108497714Y-68460952D01*
X108450095Y-68508571D01*
X108354857Y-68556190D01*
X107973904Y-68556190D01*
X109450095Y-68032380D02*
X108973904Y-68032380D01*
X108926285Y-68508571D01*
X108973904Y-68460952D01*
X109069142Y-68413333D01*
X109307238Y-68413333D01*
X109402476Y-68460952D01*
X109450095Y-68508571D01*
X109497714Y-68603809D01*
X109497714Y-68841904D01*
X109450095Y-68937142D01*
X109402476Y-68984761D01*
X109307238Y-69032380D01*
X109069142Y-69032380D01*
X108973904Y-68984761D01*
X108926285Y-68937142D01*
G04 #@! TO.C,L1*
X106259333Y-62428380D02*
X105783142Y-62428380D01*
X105783142Y-61428380D01*
X107116476Y-62428380D02*
X106545047Y-62428380D01*
X106830761Y-62428380D02*
X106830761Y-61428380D01*
X106735523Y-61571238D01*
X106640285Y-61666476D01*
X106545047Y-61714095D01*
G04 #@! TO.C,J2*
X123870380Y-95304333D02*
X124584666Y-95304333D01*
X124727523Y-95351952D01*
X124822761Y-95447190D01*
X124870380Y-95590047D01*
X124870380Y-95685285D01*
X123965619Y-94875761D02*
X123918000Y-94828142D01*
X123870380Y-94732904D01*
X123870380Y-94494809D01*
X123918000Y-94399571D01*
X123965619Y-94351952D01*
X124060857Y-94304333D01*
X124156095Y-94304333D01*
X124298952Y-94351952D01*
X124870380Y-94923380D01*
X124870380Y-94304333D01*
G04 #@! TO.C,C3*
X129069333Y-94820142D02*
X129021714Y-94867761D01*
X128878857Y-94915380D01*
X128783619Y-94915380D01*
X128640761Y-94867761D01*
X128545523Y-94772523D01*
X128497904Y-94677285D01*
X128450285Y-94486809D01*
X128450285Y-94343952D01*
X128497904Y-94153476D01*
X128545523Y-94058238D01*
X128640761Y-93963000D01*
X128783619Y-93915380D01*
X128878857Y-93915380D01*
X129021714Y-93963000D01*
X129069333Y-94010619D01*
X129402666Y-93915380D02*
X130021714Y-93915380D01*
X129688380Y-94296333D01*
X129831238Y-94296333D01*
X129926476Y-94343952D01*
X129974095Y-94391571D01*
X130021714Y-94486809D01*
X130021714Y-94724904D01*
X129974095Y-94820142D01*
X129926476Y-94867761D01*
X129831238Y-94915380D01*
X129545523Y-94915380D01*
X129450285Y-94867761D01*
X129402666Y-94820142D01*
G04 #@! TO.C,R1*
X126349880Y-62396666D02*
X125873690Y-62730000D01*
X126349880Y-62968095D02*
X125349880Y-62968095D01*
X125349880Y-62587142D01*
X125397500Y-62491904D01*
X125445119Y-62444285D01*
X125540357Y-62396666D01*
X125683214Y-62396666D01*
X125778452Y-62444285D01*
X125826071Y-62491904D01*
X125873690Y-62587142D01*
X125873690Y-62968095D01*
X126349880Y-61444285D02*
X126349880Y-62015714D01*
X126349880Y-61730000D02*
X125349880Y-61730000D01*
X125492738Y-61825238D01*
X125587976Y-61920476D01*
X125635595Y-62015714D01*
G04 #@! TO.C,J3*
X131950666Y-76668380D02*
X131950666Y-77382666D01*
X131903047Y-77525523D01*
X131807809Y-77620761D01*
X131664952Y-77668380D01*
X131569714Y-77668380D01*
X132331619Y-76668380D02*
X132950666Y-76668380D01*
X132617333Y-77049333D01*
X132760190Y-77049333D01*
X132855428Y-77096952D01*
X132903047Y-77144571D01*
X132950666Y-77239809D01*
X132950666Y-77477904D01*
X132903047Y-77573142D01*
X132855428Y-77620761D01*
X132760190Y-77668380D01*
X132474476Y-77668380D01*
X132379238Y-77620761D01*
X132331619Y-77573142D01*
G04 #@! TO.C,J2*
X111884666Y-76668380D02*
X111884666Y-77382666D01*
X111837047Y-77525523D01*
X111741809Y-77620761D01*
X111598952Y-77668380D01*
X111503714Y-77668380D01*
X112313238Y-76763619D02*
X112360857Y-76716000D01*
X112456095Y-76668380D01*
X112694190Y-76668380D01*
X112789428Y-76716000D01*
X112837047Y-76763619D01*
X112884666Y-76858857D01*
X112884666Y-76954095D01*
X112837047Y-77096952D01*
X112265619Y-77668380D01*
X112884666Y-77668380D01*
G04 #@! TO.C,R2*
X105100380Y-72048666D02*
X104624190Y-72382000D01*
X105100380Y-72620095D02*
X104100380Y-72620095D01*
X104100380Y-72239142D01*
X104148000Y-72143904D01*
X104195619Y-72096285D01*
X104290857Y-72048666D01*
X104433714Y-72048666D01*
X104528952Y-72096285D01*
X104576571Y-72143904D01*
X104624190Y-72239142D01*
X104624190Y-72620095D01*
X104195619Y-71667714D02*
X104148000Y-71620095D01*
X104100380Y-71524857D01*
X104100380Y-71286761D01*
X104148000Y-71191523D01*
X104195619Y-71143904D01*
X104290857Y-71096285D01*
X104386095Y-71096285D01*
X104528952Y-71143904D01*
X105100380Y-71715333D01*
X105100380Y-71096285D01*
G04 #@! TO.C,C1*
X118934333Y-59031142D02*
X118886714Y-59078761D01*
X118743857Y-59126380D01*
X118648619Y-59126380D01*
X118505761Y-59078761D01*
X118410523Y-58983523D01*
X118362904Y-58888285D01*
X118315285Y-58697809D01*
X118315285Y-58554952D01*
X118362904Y-58364476D01*
X118410523Y-58269238D01*
X118505761Y-58174000D01*
X118648619Y-58126380D01*
X118743857Y-58126380D01*
X118886714Y-58174000D01*
X118934333Y-58221619D01*
X119886714Y-59126380D02*
X119315285Y-59126380D01*
X119601000Y-59126380D02*
X119601000Y-58126380D01*
X119505761Y-58269238D01*
X119410523Y-58364476D01*
X119315285Y-58412095D01*
G04 #@! TO.C,C4*
X107647142Y-83580666D02*
X107694761Y-83628285D01*
X107742380Y-83771142D01*
X107742380Y-83866380D01*
X107694761Y-84009238D01*
X107599523Y-84104476D01*
X107504285Y-84152095D01*
X107313809Y-84199714D01*
X107170952Y-84199714D01*
X106980476Y-84152095D01*
X106885238Y-84104476D01*
X106790000Y-84009238D01*
X106742380Y-83866380D01*
X106742380Y-83771142D01*
X106790000Y-83628285D01*
X106837619Y-83580666D01*
X107075714Y-82723523D02*
X107742380Y-82723523D01*
X106694761Y-82961619D02*
X107409047Y-83199714D01*
X107409047Y-82580666D01*
D12*
G04 #@! TO.C,C5*
X106240252Y-65813000D02*
X105717748Y-65813000D01*
X106240252Y-67283000D02*
X105717748Y-67283000D01*
G04 #@! TO.C,C4*
X101856000Y-64008580D02*
X101856000Y-63727420D01*
X100836000Y-64008580D02*
X100836000Y-63727420D01*
G04 #@! TO.C,J2*
X134655000Y-60960000D02*
X134655000Y-73720000D01*
X131995000Y-60960000D02*
X131995000Y-73720000D01*
X131995000Y-73720000D02*
X134655000Y-73720000D01*
X131995000Y-60960000D02*
X134655000Y-60960000D01*
X133325000Y-58360000D02*
X134655000Y-58360000D01*
X134655000Y-58360000D02*
X134655000Y-59690000D01*
G04 #@! TO.C,J1*
X114589000Y-81026000D02*
X114589000Y-93786000D01*
X114589000Y-78426000D02*
X114589000Y-79756000D01*
X111929000Y-81026000D02*
X111929000Y-93786000D01*
X113259000Y-78426000D02*
X114589000Y-78426000D01*
X111929000Y-93786000D02*
X114589000Y-93786000D01*
X111929000Y-81026000D02*
X114589000Y-81026000D01*
G04 #@! TO.C,R2*
X98048000Y-89557258D02*
X98048000Y-89082742D01*
X99093000Y-89557258D02*
X99093000Y-89082742D01*
G04 #@! TO.C,J1*
X94523000Y-60960000D02*
X94523000Y-73720000D01*
X94523000Y-58360000D02*
X94523000Y-59690000D01*
X91863000Y-60960000D02*
X91863000Y-73720000D01*
X93193000Y-58360000D02*
X94523000Y-58360000D01*
X91863000Y-73720000D02*
X94523000Y-73720000D01*
X91863000Y-60960000D02*
X94523000Y-60960000D01*
G04 #@! TO.C,C2*
X98300000Y-65913580D02*
X98300000Y-65632420D01*
X97280000Y-65913580D02*
X97280000Y-65632420D01*
G04 #@! TO.C,J1*
X114589000Y-60960000D02*
X114589000Y-73720000D01*
X114589000Y-58360000D02*
X114589000Y-59690000D01*
X111929000Y-60960000D02*
X111929000Y-73720000D01*
X113259000Y-58360000D02*
X114589000Y-58360000D01*
X111929000Y-73720000D02*
X114589000Y-73720000D01*
X111929000Y-60960000D02*
X114589000Y-60960000D01*
G04 #@! TO.C,C4*
X129742000Y-91528420D02*
X129742000Y-91809580D01*
X130762000Y-91528420D02*
X130762000Y-91809580D01*
G04 #@! TO.C,Q1*
X128773500Y-71264000D02*
X130183500Y-71264000D01*
X130183500Y-68944000D02*
X130183500Y-69604000D01*
X130183500Y-70604000D02*
X130183500Y-71264000D01*
X130183500Y-68944000D02*
X128153500Y-68944000D01*
G04 #@! TO.C,U1*
X120052000Y-71227000D02*
X118102000Y-71227000D01*
X120052000Y-61107000D02*
X122002000Y-61107000D01*
X120052000Y-61107000D02*
X116602000Y-61107000D01*
X120052000Y-71227000D02*
X122002000Y-71227000D01*
G04 #@! TO.C,Q2*
X128773500Y-68470000D02*
X130183500Y-68470000D01*
X130183500Y-67810000D02*
X130183500Y-68470000D01*
X130183500Y-66150000D02*
X128153500Y-66150000D01*
X130183500Y-66150000D02*
X130183500Y-66810000D01*
G04 #@! TO.C,C1*
X120713420Y-77443000D02*
X120994580Y-77443000D01*
X120713420Y-78463000D02*
X120994580Y-78463000D01*
G04 #@! TO.C,C3*
X100303000Y-63827252D02*
X100303000Y-63304748D01*
X98833000Y-63827252D02*
X98833000Y-63304748D01*
G04 #@! TO.C,R2*
X128218436Y-65680000D02*
X129672564Y-65680000D01*
X128218436Y-63860000D02*
X129672564Y-63860000D01*
G04 #@! TO.C,R3*
X101077500Y-71547258D02*
X101077500Y-71072742D01*
X102122500Y-71547258D02*
X102122500Y-71072742D01*
X116804500Y-85302258D02*
X116804500Y-84827742D01*
X115759500Y-85302258D02*
X115759500Y-84827742D01*
G04 #@! TO.C,D1*
X97573000Y-70397000D02*
X96103000Y-70397000D01*
X97573000Y-72682000D02*
X97573000Y-70397000D01*
X96103000Y-70397000D02*
X96103000Y-72682000D01*
G04 #@! TO.C,J2*
X114614000Y-60960000D02*
X114614000Y-73720000D01*
X111954000Y-60960000D02*
X111954000Y-73720000D01*
X111954000Y-73720000D02*
X114614000Y-73720000D01*
X111954000Y-60960000D02*
X114614000Y-60960000D01*
X113284000Y-58360000D02*
X114614000Y-58360000D01*
X114614000Y-58360000D02*
X114614000Y-59690000D01*
G04 #@! TO.C,R2*
X115759500Y-81779742D02*
X115759500Y-82254258D01*
X116804500Y-81779742D02*
X116804500Y-82254258D01*
G04 #@! TO.C,U1*
X100619500Y-88453000D02*
X100389500Y-88453000D01*
X100389500Y-85233000D02*
X100389500Y-86208000D01*
X103609500Y-87478000D02*
X103609500Y-88453000D01*
X103609500Y-88453000D02*
X103379500Y-88453000D01*
X100619500Y-85233000D02*
X100389500Y-85233000D01*
X100389500Y-87478000D02*
X100389500Y-88453000D01*
X103609500Y-85203000D02*
X103609500Y-86208000D01*
G04 #@! TO.C,C2*
X100956920Y-90655000D02*
X101238080Y-90655000D01*
X100956920Y-89635000D02*
X101238080Y-89635000D01*
G04 #@! TO.C,L1*
X99845500Y-80196000D02*
X104153500Y-80196000D01*
X104153500Y-84504000D02*
X99845500Y-84504000D01*
G04 #@! TO.C,J1*
X94523000Y-81026000D02*
X94523000Y-93786000D01*
X94523000Y-78426000D02*
X94523000Y-79756000D01*
X91863000Y-81026000D02*
X91863000Y-93786000D01*
X93193000Y-78426000D02*
X94523000Y-78426000D01*
X91863000Y-93786000D02*
X94523000Y-93786000D01*
X91863000Y-81026000D02*
X94523000Y-81026000D01*
G04 #@! TO.C,R1*
X115759500Y-88350258D02*
X115759500Y-87875742D01*
X116804500Y-88350258D02*
X116804500Y-87875742D01*
D10*
G04 #@! TO.C,U1*
X126511000Y-80678000D02*
X126511000Y-81003000D01*
X119261000Y-80678000D02*
X119261000Y-81003000D01*
X126511000Y-80678000D02*
X126186000Y-80678000D01*
X119486000Y-87928000D02*
X119486000Y-89353000D01*
X119261000Y-87928000D02*
X119486000Y-87928000D01*
X126511000Y-87928000D02*
X126511000Y-87603000D01*
X119261000Y-87928000D02*
X119261000Y-87603000D01*
X126511000Y-87928000D02*
X126186000Y-87928000D01*
X119261000Y-80678000D02*
X119586000Y-80678000D01*
D12*
G04 #@! TO.C,R1*
X97425742Y-69073500D02*
X97900258Y-69073500D01*
X97425742Y-70118500D02*
X97900258Y-70118500D01*
G04 #@! TO.C,R4*
X103646500Y-71073742D02*
X103646500Y-71548258D01*
X102601500Y-71073742D02*
X102601500Y-71548258D01*
G04 #@! TO.C,C1*
X98060500Y-85826420D02*
X98060500Y-86107580D01*
X99080500Y-85826420D02*
X99080500Y-86107580D01*
G04 #@! TO.C,U1*
X100895000Y-69167000D02*
X100420000Y-69167000D01*
X103640000Y-65947000D02*
X103640000Y-66422000D01*
X103640000Y-69167000D02*
X103640000Y-68692000D01*
X100420000Y-69167000D02*
X100420000Y-68692000D01*
X103165000Y-69167000D02*
X103640000Y-69167000D01*
X100895000Y-65947000D02*
X100420000Y-65947000D01*
X103165000Y-65947000D02*
X103640000Y-65947000D01*
G04 #@! TO.C,Y1*
X125204000Y-90019000D02*
X125204000Y-93319000D01*
X125204000Y-93319000D02*
X129204000Y-93319000D01*
G04 #@! TO.C,C3*
X105938500Y-85800420D02*
X105938500Y-86081580D01*
X104918500Y-85800420D02*
X104918500Y-86081580D01*
G04 #@! TO.C,C2*
X116420420Y-59688000D02*
X116701580Y-59688000D01*
X116420420Y-60708000D02*
X116701580Y-60708000D01*
G04 #@! TO.C,C1*
X97509420Y-68582000D02*
X97790580Y-68582000D01*
X97509420Y-67562000D02*
X97790580Y-67562000D01*
G04 #@! TO.C,C2*
X124042580Y-77443000D02*
X123761420Y-77443000D01*
X124042580Y-78463000D02*
X123761420Y-78463000D01*
G04 #@! TO.C,R5*
X105489742Y-68057500D02*
X105964258Y-68057500D01*
X105489742Y-69102500D02*
X105964258Y-69102500D01*
G04 #@! TO.C,L1*
X102876000Y-65122000D02*
X102876000Y-63622000D01*
X110276000Y-58322000D02*
X102876000Y-58322000D01*
X102876000Y-65122000D02*
X110276000Y-65122000D01*
X110276000Y-65122000D02*
X110276000Y-63622000D01*
X110276000Y-58322000D02*
X110276000Y-59822000D01*
X102876000Y-58322000D02*
X102876000Y-59822000D01*
G04 #@! TO.C,J2*
X123454000Y-95539000D02*
X122124000Y-95539000D01*
X123454000Y-90339000D02*
X123454000Y-92939000D01*
X115714000Y-90339000D02*
X115714000Y-95539000D01*
X123454000Y-90339000D02*
X115714000Y-90339000D01*
X120854000Y-92939000D02*
X120854000Y-95539000D01*
X120854000Y-95539000D02*
X115714000Y-95539000D01*
X123454000Y-92939000D02*
X120854000Y-92939000D01*
X123454000Y-94209000D02*
X123454000Y-95539000D01*
G04 #@! TO.C,C3*
X126868580Y-93767000D02*
X126587420Y-93767000D01*
X126868580Y-94787000D02*
X126587420Y-94787000D01*
G04 #@! TO.C,R1*
X128218436Y-63140000D02*
X129672564Y-63140000D01*
X128218436Y-61320000D02*
X129672564Y-61320000D01*
G04 #@! TO.C,J3*
X134655000Y-81026000D02*
X134655000Y-93786000D01*
X131995000Y-81026000D02*
X131995000Y-93786000D01*
X131995000Y-93786000D02*
X134655000Y-93786000D01*
X131995000Y-81026000D02*
X134655000Y-81026000D01*
X133325000Y-78426000D02*
X134655000Y-78426000D01*
X134655000Y-78426000D02*
X134655000Y-79756000D01*
G04 #@! TO.C,J2*
X114589000Y-81026000D02*
X114589000Y-93786000D01*
X111929000Y-81026000D02*
X111929000Y-93786000D01*
X111929000Y-93786000D02*
X114589000Y-93786000D01*
X111929000Y-81026000D02*
X114589000Y-81026000D01*
X113259000Y-78426000D02*
X114589000Y-78426000D01*
X114589000Y-78426000D02*
X114589000Y-79756000D01*
G04 #@! TO.C,R2*
X100598500Y-71547258D02*
X100598500Y-71072742D01*
X99553500Y-71547258D02*
X99553500Y-71072742D01*
G04 #@! TO.C,C1*
X116407420Y-59184000D02*
X116688580Y-59184000D01*
X116407420Y-58164000D02*
X116688580Y-58164000D01*
G04 #@! TO.C,C4*
X107843500Y-85800420D02*
X107843500Y-86081580D01*
X106823500Y-85800420D02*
X106823500Y-86081580D01*
G04 #@! TD*
M02*
