M48
; DRILL file {KiCad (5.99.0-11522-g728b160719)} date Fri Aug  6 10:17:42 2021
; FORMAT={-:-/ absolute / metric / decimal}
; #@! TF.CreationDate,2021-08-06T10:17:42+10:00
; #@! TF.GenerationSoftware,Kicad,Pcbnew,(5.99.0-11522-g728b160719)
; #@! TF.FileFunction,MixedPlating,1,2
FMAT,2
METRIC
; #@! TA.AperFunction,Plated,PTH,ComponentDrill
T1C0.200
; #@! TA.AperFunction,Plated,PTH,ViaDrill
T2C0.400
; #@! TA.AperFunction,Plated,PTH,ComponentDrill
T3C1.000
%
G90
G05
T1
X101.049Y-86.843
X101.999Y-86.268
X101.999Y-87.418
X102.95Y-86.843
T2
X95.123Y-68.072
X96.774Y-72.644
X96.901Y-68.072
X97.79Y-65.024
X98.57Y-85.192
X98.57Y-88.494
X99.06Y-62.611
X99.949Y-62.611
X100.076Y-72.135
X101.727Y-67.818
X102.362Y-67.183
X103.124Y-72.136
X103.269Y-89.129
X104.369Y-85.192
X105.029Y-66.04
X105.029Y-66.802
X106.553Y-68.58
X115.799Y-63.246
X116.282Y-86.081
X116.282Y-87.351
X118.314Y-92.685
X119.29Y-62.865
X119.29Y-64.389
X120.079Y-77.953
X120.437Y-85.364
X121.616Y-83.541
X121.886Y-85.161
X122.632Y-82.271
X123.127Y-77.953
X123.316Y-89.69
X124.04Y-86.552
X124.749Y-85.848
X126.104Y-90.819
X127.483Y-62.23
X127.483Y-64.77
T3
X93.193Y-59.69
X93.193Y-62.23
X93.193Y-64.77
X93.193Y-67.31
X93.193Y-69.85
X93.193Y-72.39
X93.193Y-79.756
X93.193Y-82.296
X93.193Y-84.836
X93.193Y-87.376
X93.193Y-89.916
X93.193Y-92.456
X113.259Y-59.69
X113.259Y-62.23
X113.259Y-64.77
X113.259Y-67.31
X113.259Y-69.85
X113.259Y-72.39
X113.259Y-79.756
X113.259Y-79.756
X113.259Y-82.296
X113.259Y-82.296
X113.259Y-84.836
X113.259Y-84.836
X113.259Y-87.376
X113.259Y-87.376
X113.259Y-89.916
X113.259Y-89.916
X113.259Y-92.456
X113.259Y-92.456
X113.284Y-59.69
X113.284Y-62.23
X113.284Y-64.77
X113.284Y-67.31
X113.284Y-69.85
X113.284Y-72.39
X117.044Y-91.669
X117.044Y-94.209
X119.584Y-91.669
X119.584Y-94.209
X122.124Y-91.669
X122.124Y-94.209
X133.325Y-59.69
X133.325Y-62.23
X133.325Y-64.77
X133.325Y-67.31
X133.325Y-69.85
X133.325Y-72.39
X133.325Y-79.756
X133.325Y-82.296
X133.325Y-84.836
X133.325Y-87.376
X133.325Y-89.916
X133.325Y-92.456
T0
M30
