G04 #@! TF.GenerationSoftware,KiCad,Pcbnew,(5.99.0-11522-g728b160719)*
G04 #@! TF.CreationDate,2021-08-06T10:17:42+10:00*
G04 #@! TF.ProjectId,Stencil,5374656e-6369-46c2-9e6b-696361645f70,0.2*
G04 #@! TF.SameCoordinates,Original*
G04 #@! TF.FileFunction,Soldermask,Bot*
G04 #@! TF.FilePolarity,Negative*
%FSLAX46Y46*%
G04 Gerber Fmt 4.6, Leading zero omitted, Abs format (unit mm)*
G04 Created by KiCad (PCBNEW (5.99.0-11522-g728b160719)) date 2021-08-06 10:17:42*
%MOMM*%
%LPD*%
G01*
G04 APERTURE LIST*
G04 #@! TA.AperFunction,Profile*
%ADD10C,0.100000*%
G04 #@! TD*
%ADD11R,1.700000X1.700000*%
%ADD12O,1.700000X1.700000*%
G04 APERTURE END LIST*
D10*
X113259000Y-96114000D02*
X93193000Y-96114000D01*
X93193000Y-96114000D02*
X93193000Y-76048000D01*
X93193000Y-76048000D02*
X113259000Y-76048000D01*
X113259000Y-76048000D02*
X113259000Y-96114000D01*
X113259000Y-76048000D02*
X93193000Y-76048000D01*
X93193000Y-76048000D02*
X93193000Y-55982000D01*
X93193000Y-55982000D02*
X113259000Y-55982000D01*
X113259000Y-55982000D02*
X113259000Y-76048000D01*
X133325000Y-96114000D02*
X113259000Y-96114000D01*
X113259000Y-96114000D02*
X113259000Y-76048000D01*
X113259000Y-76048000D02*
X133325000Y-76048000D01*
X133325000Y-76048000D02*
X133325000Y-96114000D01*
X133325000Y-76048000D02*
X113259000Y-76048000D01*
X113259000Y-76048000D02*
X113259000Y-55982000D01*
X113259000Y-55982000D02*
X133325000Y-55982000D01*
X133325000Y-55982000D02*
X133325000Y-76048000D01*
D11*
G04 #@! TO.C,J2*
X133325000Y-59690000D03*
D12*
X133325000Y-62230000D03*
X133325000Y-64770000D03*
X133325000Y-67310000D03*
X133325000Y-69850000D03*
X133325000Y-72390000D03*
G04 #@! TD*
D11*
G04 #@! TO.C,J1*
X113259000Y-79756000D03*
D12*
X113259000Y-82296000D03*
X113259000Y-84836000D03*
X113259000Y-87376000D03*
X113259000Y-89916000D03*
X113259000Y-92456000D03*
G04 #@! TD*
D11*
G04 #@! TO.C,J1*
X93193000Y-59690000D03*
D12*
X93193000Y-62230000D03*
X93193000Y-64770000D03*
X93193000Y-67310000D03*
X93193000Y-69850000D03*
X93193000Y-72390000D03*
G04 #@! TD*
D11*
G04 #@! TO.C,J1*
X113259000Y-59690000D03*
D12*
X113259000Y-62230000D03*
X113259000Y-64770000D03*
X113259000Y-67310000D03*
X113259000Y-69850000D03*
X113259000Y-72390000D03*
G04 #@! TD*
D11*
G04 #@! TO.C,J2*
X113284000Y-59690000D03*
D12*
X113284000Y-62230000D03*
X113284000Y-64770000D03*
X113284000Y-67310000D03*
X113284000Y-69850000D03*
X113284000Y-72390000D03*
G04 #@! TD*
D11*
G04 #@! TO.C,J1*
X93193000Y-79756000D03*
D12*
X93193000Y-82296000D03*
X93193000Y-84836000D03*
X93193000Y-87376000D03*
X93193000Y-89916000D03*
X93193000Y-92456000D03*
G04 #@! TD*
D11*
G04 #@! TO.C,J2*
X122124000Y-94209000D03*
D12*
X122124000Y-91669000D03*
X119584000Y-94209000D03*
X119584000Y-91669000D03*
X117044000Y-94209000D03*
X117044000Y-91669000D03*
G04 #@! TD*
D11*
G04 #@! TO.C,J3*
X133325000Y-79756000D03*
D12*
X133325000Y-82296000D03*
X133325000Y-84836000D03*
X133325000Y-87376000D03*
X133325000Y-89916000D03*
X133325000Y-92456000D03*
G04 #@! TD*
D11*
G04 #@! TO.C,J2*
X113259000Y-79756000D03*
D12*
X113259000Y-82296000D03*
X113259000Y-84836000D03*
X113259000Y-87376000D03*
X113259000Y-89916000D03*
X113259000Y-92456000D03*
G04 #@! TD*
M02*
