G04 #@! TF.GenerationSoftware,KiCad,Pcbnew,(5.99.0-11522-g728b160719)*
G04 #@! TF.CreationDate,2021-08-06T10:17:42+10:00*
G04 #@! TF.ProjectId,Stencil,5374656e-6369-46c2-9e6b-696361645f70,0.2*
G04 #@! TF.SameCoordinates,Original*
G04 #@! TF.FileFunction,Copper,L1,Top*
G04 #@! TF.FilePolarity,Positive*
%FSLAX46Y46*%
G04 Gerber Fmt 4.6, Leading zero omitted, Abs format (unit mm)*
G04 Created by KiCad (PCBNEW (5.99.0-11522-g728b160719)) date 2021-08-06 10:17:42*
%MOMM*%
%LPD*%
G01*
G04 APERTURE LIST*
G04 Aperture macros list*
%AMRoundRect*
0 Rectangle with rounded corners*
0 $1 Rounding radius*
0 $2 $3 $4 $5 $6 $7 $8 $9 X,Y pos of 4 corners*
0 Add a 4 corners polygon primitive as box body*
4,1,4,$2,$3,$4,$5,$6,$7,$8,$9,$2,$3,0*
0 Add four circle primitives for the rounded corners*
1,1,$1+$1,$2,$3*
1,1,$1+$1,$4,$5*
1,1,$1+$1,$6,$7*
1,1,$1+$1,$8,$9*
0 Add four rect primitives between the rounded corners*
20,1,$1+$1,$2,$3,$4,$5,0*
20,1,$1+$1,$4,$5,$6,$7,0*
20,1,$1+$1,$6,$7,$8,$9,0*
20,1,$1+$1,$8,$9,$2,$3,0*%
%AMFreePoly0*
4,1,21,-0.125000,1.200000,0.125000,1.200000,0.125000,1.700000,0.375000,1.700000,0.375000,1.200000,0.825000,1.200000,0.825000,-1.200000,0.375000,-1.200000,0.375000,-1.700000,0.125000,-1.700000,0.125000,-1.200000,-0.125000,-1.200000,-0.125000,-1.700000,-0.375000,-1.700000,-0.375000,-1.200000,-0.825000,-1.200000,-0.825000,1.200000,-0.375000,1.200000,-0.375000,1.700000,-0.125000,1.700000,
-0.125000,1.200000,-0.125000,1.200000,$1*%
G04 Aperture macros list end*
G04 #@! TA.AperFunction,Profile*
%ADD10C,0.100000*%
G04 #@! TD*
G04 #@! TA.AperFunction,SMDPad,CuDef*
%ADD11RoundRect,0.250000X0.250000X0.475000X-0.250000X0.475000X-0.250000X-0.475000X0.250000X-0.475000X0*%
G04 #@! TD*
G04 #@! TA.AperFunction,SMDPad,CuDef*
%ADD12RoundRect,0.225000X0.250000X-0.225000X0.250000X0.225000X-0.250000X0.225000X-0.250000X-0.225000X0*%
G04 #@! TD*
G04 #@! TA.AperFunction,ComponentPad*
%ADD13R,1.700000X1.700000*%
G04 #@! TD*
G04 #@! TA.AperFunction,ComponentPad*
%ADD14O,1.700000X1.700000*%
G04 #@! TD*
G04 #@! TA.AperFunction,SMDPad,CuDef*
%ADD15RoundRect,0.200000X0.275000X-0.200000X0.275000X0.200000X-0.275000X0.200000X-0.275000X-0.200000X0*%
G04 #@! TD*
G04 #@! TA.AperFunction,SMDPad,CuDef*
%ADD16RoundRect,0.225000X-0.250000X0.225000X-0.250000X-0.225000X0.250000X-0.225000X0.250000X0.225000X0*%
G04 #@! TD*
G04 #@! TA.AperFunction,SMDPad,CuDef*
%ADD17R,0.700000X0.450000*%
G04 #@! TD*
G04 #@! TA.AperFunction,SMDPad,CuDef*
%ADD18RoundRect,0.150000X-0.825000X-0.150000X0.825000X-0.150000X0.825000X0.150000X-0.825000X0.150000X0*%
G04 #@! TD*
G04 #@! TA.AperFunction,SMDPad,CuDef*
%ADD19RoundRect,0.225000X-0.225000X-0.250000X0.225000X-0.250000X0.225000X0.250000X-0.225000X0.250000X0*%
G04 #@! TD*
G04 #@! TA.AperFunction,SMDPad,CuDef*
%ADD20RoundRect,0.250000X0.475000X-0.250000X0.475000X0.250000X-0.475000X0.250000X-0.475000X-0.250000X0*%
G04 #@! TD*
G04 #@! TA.AperFunction,SMDPad,CuDef*
%ADD21RoundRect,0.250000X-0.312500X-0.625000X0.312500X-0.625000X0.312500X0.625000X-0.312500X0.625000X0*%
G04 #@! TD*
G04 #@! TA.AperFunction,SMDPad,CuDef*
%ADD22RoundRect,0.218750X-0.256250X0.218750X-0.256250X-0.218750X0.256250X-0.218750X0.256250X0.218750X0*%
G04 #@! TD*
G04 #@! TA.AperFunction,SMDPad,CuDef*
%ADD23RoundRect,0.200000X-0.275000X0.200000X-0.275000X-0.200000X0.275000X-0.200000X0.275000X0.200000X0*%
G04 #@! TD*
G04 #@! TA.AperFunction,SMDPad,CuDef*
%ADD24R,0.240000X0.600000*%
G04 #@! TD*
G04 #@! TA.AperFunction,ComponentPad*
%ADD25C,0.500000*%
G04 #@! TD*
G04 #@! TA.AperFunction,SMDPad,CuDef*
%ADD26FreePoly0,270.000000*%
G04 #@! TD*
G04 #@! TA.AperFunction,SMDPad,CuDef*
%ADD27R,0.980000X3.400000*%
G04 #@! TD*
G04 #@! TA.AperFunction,SMDPad,CuDef*
%ADD28R,0.550000X1.600000*%
G04 #@! TD*
G04 #@! TA.AperFunction,SMDPad,CuDef*
%ADD29R,1.600000X0.550000*%
G04 #@! TD*
G04 #@! TA.AperFunction,SMDPad,CuDef*
%ADD30RoundRect,0.200000X-0.200000X-0.275000X0.200000X-0.275000X0.200000X0.275000X-0.200000X0.275000X0*%
G04 #@! TD*
G04 #@! TA.AperFunction,SMDPad,CuDef*
%ADD31RoundRect,0.062500X-0.375000X-0.062500X0.375000X-0.062500X0.375000X0.062500X-0.375000X0.062500X0*%
G04 #@! TD*
G04 #@! TA.AperFunction,SMDPad,CuDef*
%ADD32RoundRect,0.062500X-0.062500X-0.375000X0.062500X-0.375000X0.062500X0.375000X-0.062500X0.375000X0*%
G04 #@! TD*
G04 #@! TA.AperFunction,SMDPad,CuDef*
%ADD33R,1.600000X1.600000*%
G04 #@! TD*
G04 #@! TA.AperFunction,SMDPad,CuDef*
%ADD34R,1.400000X1.200000*%
G04 #@! TD*
G04 #@! TA.AperFunction,SMDPad,CuDef*
%ADD35RoundRect,0.225000X0.225000X0.250000X-0.225000X0.250000X-0.225000X-0.250000X0.225000X-0.250000X0*%
G04 #@! TD*
G04 #@! TA.AperFunction,SMDPad,CuDef*
%ADD36RoundRect,0.235000X-0.940000X-1.465000X0.940000X-1.465000X0.940000X1.465000X-0.940000X1.465000X0*%
G04 #@! TD*
G04 #@! TA.AperFunction,ViaPad*
%ADD37C,0.800000*%
G04 #@! TD*
G04 #@! TA.AperFunction,Conductor*
%ADD38C,0.250000*%
G04 #@! TD*
G04 #@! TA.AperFunction,Conductor*
%ADD39C,0.200000*%
G04 #@! TD*
G04 APERTURE END LIST*
D10*
X113259000Y-96114000D02*
X93193000Y-96114000D01*
X93193000Y-96114000D02*
X93193000Y-76048000D01*
X93193000Y-76048000D02*
X113259000Y-76048000D01*
X113259000Y-76048000D02*
X113259000Y-96114000D01*
X113259000Y-76048000D02*
X93193000Y-76048000D01*
X93193000Y-76048000D02*
X93193000Y-55982000D01*
X93193000Y-55982000D02*
X113259000Y-55982000D01*
X113259000Y-55982000D02*
X113259000Y-76048000D01*
X133325000Y-96114000D02*
X113259000Y-96114000D01*
X113259000Y-96114000D02*
X113259000Y-76048000D01*
X113259000Y-76048000D02*
X133325000Y-76048000D01*
X133325000Y-76048000D02*
X133325000Y-96114000D01*
X133325000Y-76048000D02*
X113259000Y-76048000D01*
X113259000Y-76048000D02*
X113259000Y-55982000D01*
X113259000Y-55982000D02*
X133325000Y-55982000D01*
X133325000Y-55982000D02*
X133325000Y-76048000D01*
D11*
G04 #@! TO.P,C5,1*
G04 #@! TO.N,+BATT*
X106929000Y-66548000D03*
G04 #@! TO.P,C5,2*
G04 #@! TO.N,GND*
X105029000Y-66548000D03*
G04 #@! TD*
D12*
G04 #@! TO.P,C4,1*
G04 #@! TO.N,Net-(C4-Pad1)*
X101346000Y-64643000D03*
G04 #@! TO.P,C4,2*
G04 #@! TO.N,Net-(C4-Pad2)*
X101346000Y-63093000D03*
G04 #@! TD*
D13*
G04 #@! TO.P,J2,1,Pin_1*
G04 #@! TO.N,N/C*
X133325000Y-59690000D03*
D14*
G04 #@! TO.P,J2,2,Pin_2*
X133325000Y-62230000D03*
G04 #@! TO.P,J2,3,Pin_3*
X133325000Y-64770000D03*
G04 #@! TO.P,J2,4,Pin_4*
X133325000Y-67310000D03*
G04 #@! TO.P,J2,5,Pin_5*
X133325000Y-69850000D03*
G04 #@! TO.P,J2,6,Pin_6*
X133325000Y-72390000D03*
G04 #@! TD*
D13*
G04 #@! TO.P,J1,1,Pin_1*
G04 #@! TO.N,N/C*
X113259000Y-79756000D03*
D14*
G04 #@! TO.P,J1,2,Pin_2*
X113259000Y-82296000D03*
G04 #@! TO.P,J1,3,Pin_3*
X113259000Y-84836000D03*
G04 #@! TO.P,J1,4,Pin_4*
X113259000Y-87376000D03*
G04 #@! TO.P,J1,5,Pin_5*
G04 #@! TO.N,GND*
X113259000Y-89916000D03*
G04 #@! TO.P,J1,6,Pin_6*
G04 #@! TO.N,N/C*
X113259000Y-92456000D03*
G04 #@! TD*
D15*
G04 #@! TO.P,R2,1*
G04 #@! TO.N,N/C*
X98570500Y-90145000D03*
G04 #@! TO.P,R2,2*
X98570500Y-88495000D03*
G04 #@! TD*
D13*
G04 #@! TO.P,J1,1,Pin_1*
G04 #@! TO.N,N/C*
X93193000Y-59690000D03*
D14*
G04 #@! TO.P,J1,2,Pin_2*
G04 #@! TO.N,VBUS*
X93193000Y-62230000D03*
G04 #@! TO.P,J1,3,Pin_3*
X93193000Y-64770000D03*
G04 #@! TO.P,J1,4,Pin_4*
G04 #@! TO.N,GND*
X93193000Y-67310000D03*
G04 #@! TO.P,J1,5,Pin_5*
X93193000Y-69850000D03*
G04 #@! TO.P,J1,6,Pin_6*
G04 #@! TO.N,/STAT*
X93193000Y-72390000D03*
G04 #@! TD*
D12*
G04 #@! TO.P,C2,1*
G04 #@! TO.N,VBUS*
X97790000Y-66548000D03*
G04 #@! TO.P,C2,2*
G04 #@! TO.N,GND*
X97790000Y-64998000D03*
G04 #@! TD*
D13*
G04 #@! TO.P,J1,1,Pin_1*
G04 #@! TO.N,N/C*
X113259000Y-59690000D03*
D14*
G04 #@! TO.P,J1,2,Pin_2*
X113259000Y-62230000D03*
G04 #@! TO.P,J1,3,Pin_3*
X113259000Y-64770000D03*
G04 #@! TO.P,J1,4,Pin_4*
X113259000Y-67310000D03*
G04 #@! TO.P,J1,5,Pin_5*
G04 #@! TO.N,GND*
X113259000Y-69850000D03*
G04 #@! TO.P,J1,6,Pin_6*
G04 #@! TO.N,N/C*
X113259000Y-72390000D03*
G04 #@! TD*
D16*
G04 #@! TO.P,C4,1*
G04 #@! TO.N,N/C*
X130252000Y-90894000D03*
G04 #@! TO.P,C4,2*
G04 #@! TO.N,GND*
X130252000Y-92444000D03*
G04 #@! TD*
D17*
G04 #@! TO.P,Q1,1,B*
G04 #@! TO.N,N/C*
X128453500Y-69454000D03*
G04 #@! TO.P,Q1,2,E*
X128453500Y-70754000D03*
G04 #@! TO.P,Q1,3,C*
X130453500Y-70104000D03*
G04 #@! TD*
D18*
G04 #@! TO.P,U1,1,GND*
G04 #@! TO.N,GND*
X117577000Y-61722000D03*
G04 #@! TO.P,U1,2,TXD*
G04 #@! TO.N,N/C*
X117577000Y-62992000D03*
G04 #@! TO.P,U1,3,RXD*
X117577000Y-64262000D03*
G04 #@! TO.P,U1,4,V3*
X117577000Y-65532000D03*
G04 #@! TO.P,U1,5,UD+*
X117577000Y-66802000D03*
G04 #@! TO.P,U1,6,UD-*
X117577000Y-68072000D03*
G04 #@! TO.P,U1,7,NC*
X117577000Y-69342000D03*
G04 #@! TO.P,U1,8,NC*
X117577000Y-70612000D03*
G04 #@! TO.P,U1,9,~{CTS}*
X122527000Y-70612000D03*
G04 #@! TO.P,U1,10,~{DSR}*
X122527000Y-69342000D03*
G04 #@! TO.P,U1,11,~{RI}*
X122527000Y-68072000D03*
G04 #@! TO.P,U1,12,~{DCD}*
X122527000Y-66802000D03*
G04 #@! TO.P,U1,13,~{DTR}*
X122527000Y-65532000D03*
G04 #@! TO.P,U1,14,~{RTS}*
X122527000Y-64262000D03*
G04 #@! TO.P,U1,15,R232*
X122527000Y-62992000D03*
G04 #@! TO.P,U1,16,VCC*
X122527000Y-61722000D03*
G04 #@! TD*
D17*
G04 #@! TO.P,Q2,1,B*
G04 #@! TO.N,N/C*
X128453500Y-66660000D03*
G04 #@! TO.P,Q2,2,E*
X128453500Y-67960000D03*
G04 #@! TO.P,Q2,3,C*
X130453500Y-67310000D03*
G04 #@! TD*
D19*
G04 #@! TO.P,C1,1*
G04 #@! TO.N,GND*
X120079000Y-77953000D03*
G04 #@! TO.P,C1,2*
G04 #@! TO.N,N/C*
X121629000Y-77953000D03*
G04 #@! TD*
D20*
G04 #@! TO.P,C3,1*
G04 #@! TO.N,Net-(C3-Pad1)*
X99568000Y-64516000D03*
G04 #@! TO.P,C3,2*
G04 #@! TO.N,GND*
X99568000Y-62616000D03*
G04 #@! TD*
D21*
G04 #@! TO.P,R2,1*
G04 #@! TO.N,N/C*
X127483000Y-64770000D03*
G04 #@! TO.P,R2,2*
X130408000Y-64770000D03*
G04 #@! TD*
D15*
G04 #@! TO.P,R3,1*
G04 #@! TO.N,/REGN*
X101600000Y-72135000D03*
G04 #@! TO.P,R3,2*
G04 #@! TO.N,Net-(R3-Pad2)*
X101600000Y-70485000D03*
G04 #@! TD*
G04 #@! TO.P,R3,1*
G04 #@! TO.N,N/C*
X116282000Y-85890000D03*
G04 #@! TO.P,R3,2*
X116282000Y-84240000D03*
G04 #@! TD*
D22*
G04 #@! TO.P,D1,1,K*
G04 #@! TO.N,/STAT*
X96838000Y-71094500D03*
G04 #@! TO.P,D1,2,A*
G04 #@! TO.N,GND*
X96838000Y-72669500D03*
G04 #@! TD*
D13*
G04 #@! TO.P,J2,1,Pin_1*
G04 #@! TO.N,N/C*
X113284000Y-59690000D03*
D14*
G04 #@! TO.P,J2,2,Pin_2*
G04 #@! TO.N,+BATT*
X113284000Y-62230000D03*
G04 #@! TO.P,J2,3,Pin_3*
X113284000Y-64770000D03*
G04 #@! TO.P,J2,4,Pin_4*
G04 #@! TO.N,GND*
X113284000Y-67310000D03*
G04 #@! TO.P,J2,5,Pin_5*
X113284000Y-69850000D03*
G04 #@! TO.P,J2,6,Pin_6*
G04 #@! TO.N,N/C*
X113284000Y-72390000D03*
G04 #@! TD*
D23*
G04 #@! TO.P,R2,1*
G04 #@! TO.N,N/C*
X116282000Y-81192000D03*
G04 #@! TO.P,R2,2*
X116282000Y-82842000D03*
G04 #@! TD*
D24*
G04 #@! TO.P,U1,1,VOUT*
G04 #@! TO.N,N/C*
X102999500Y-85443000D03*
G04 #@! TO.P,U1,2,L2*
X102499500Y-85443000D03*
G04 #@! TO.P,U1,3,PGND*
G04 #@! TO.N,GND*
X101999500Y-85443000D03*
G04 #@! TO.P,U1,4,L1*
G04 #@! TO.N,N/C*
X101499500Y-85443000D03*
G04 #@! TO.P,U1,5,VIN*
X100999500Y-85443000D03*
G04 #@! TO.P,U1,6,EN*
X100999500Y-88243000D03*
G04 #@! TO.P,U1,7,PS/SYNC*
X101499500Y-88243000D03*
G04 #@! TO.P,U1,8,VINA*
X101999500Y-88243000D03*
G04 #@! TO.P,U1,9,GND*
G04 #@! TO.N,GND*
X102499500Y-88243000D03*
G04 #@! TO.P,U1,10,FB*
G04 #@! TO.N,N/C*
X102999500Y-88243000D03*
D25*
G04 #@! TO.P,U1,11,PGND*
G04 #@! TO.N,GND*
X102949500Y-86843000D03*
X101999500Y-87418000D03*
X101999500Y-86268000D03*
D26*
X101999500Y-86843000D03*
D25*
X101049500Y-86843000D03*
G04 #@! TD*
D19*
G04 #@! TO.P,C2,1*
G04 #@! TO.N,N/C*
X100322500Y-90145000D03*
G04 #@! TO.P,C2,2*
G04 #@! TO.N,GND*
X101872500Y-90145000D03*
G04 #@! TD*
D27*
G04 #@! TO.P,L1,1*
G04 #@! TO.N,N/C*
X100814500Y-82350000D03*
G04 #@! TO.P,L1,2*
X103184500Y-82350000D03*
G04 #@! TD*
D13*
G04 #@! TO.P,J1,1,Pin_1*
G04 #@! TO.N,N/C*
X93193000Y-79756000D03*
D14*
G04 #@! TO.P,J1,2,Pin_2*
X93193000Y-82296000D03*
G04 #@! TO.P,J1,3,Pin_3*
X93193000Y-84836000D03*
G04 #@! TO.P,J1,4,Pin_4*
G04 #@! TO.N,GND*
X93193000Y-87376000D03*
G04 #@! TO.P,J1,5,Pin_5*
X93193000Y-89916000D03*
G04 #@! TO.P,J1,6,Pin_6*
G04 #@! TO.N,N/C*
X93193000Y-92456000D03*
G04 #@! TD*
D15*
G04 #@! TO.P,R1,1*
G04 #@! TO.N,N/C*
X116282000Y-88938000D03*
G04 #@! TO.P,R1,2*
X116282000Y-87288000D03*
G04 #@! TD*
D28*
G04 #@! TO.P,U1,1,PD3*
G04 #@! TO.N,N/C*
X120086000Y-88553000D03*
G04 #@! TO.P,U1,2,PD4*
X120886000Y-88553000D03*
G04 #@! TO.P,U1,3,GND*
G04 #@! TO.N,GND*
X121686000Y-88553000D03*
G04 #@! TO.P,U1,4,VCC*
G04 #@! TO.N,N/C*
X122486000Y-88553000D03*
G04 #@! TO.P,U1,5,GND*
G04 #@! TO.N,GND*
X123286000Y-88553000D03*
G04 #@! TO.P,U1,6,VCC*
G04 #@! TO.N,N/C*
X124086000Y-88553000D03*
G04 #@! TO.P,U1,7,XTAL1/PB6*
X124886000Y-88553000D03*
G04 #@! TO.P,U1,8,XTAL2/PB7*
X125686000Y-88553000D03*
D29*
G04 #@! TO.P,U1,9,PD5*
X127136000Y-87103000D03*
G04 #@! TO.P,U1,10,PD6*
X127136000Y-86303000D03*
G04 #@! TO.P,U1,11,PD7*
X127136000Y-85503000D03*
G04 #@! TO.P,U1,12,PB0*
X127136000Y-84703000D03*
G04 #@! TO.P,U1,13,PB1*
X127136000Y-83903000D03*
G04 #@! TO.P,U1,14,PB2*
X127136000Y-83103000D03*
G04 #@! TO.P,U1,15,PB3*
X127136000Y-82303000D03*
G04 #@! TO.P,U1,16,PB4*
X127136000Y-81503000D03*
D28*
G04 #@! TO.P,U1,17,PB5*
X125686000Y-80053000D03*
G04 #@! TO.P,U1,18,AVCC*
X124886000Y-80053000D03*
G04 #@! TO.P,U1,19,ADC6*
X124086000Y-80053000D03*
G04 #@! TO.P,U1,20,AREF*
X123286000Y-80053000D03*
G04 #@! TO.P,U1,21,GND*
G04 #@! TO.N,GND*
X122486000Y-80053000D03*
G04 #@! TO.P,U1,22,ADC7*
G04 #@! TO.N,N/C*
X121686000Y-80053000D03*
G04 #@! TO.P,U1,23,PC0*
X120886000Y-80053000D03*
G04 #@! TO.P,U1,24,PC1*
X120086000Y-80053000D03*
D29*
G04 #@! TO.P,U1,25,PC2*
X118636000Y-81503000D03*
G04 #@! TO.P,U1,26,PC3*
X118636000Y-82303000D03*
G04 #@! TO.P,U1,27,PC4*
X118636000Y-83103000D03*
G04 #@! TO.P,U1,28,PC5*
X118636000Y-83903000D03*
G04 #@! TO.P,U1,29,~RESET~/PC6*
X118636000Y-84703000D03*
G04 #@! TO.P,U1,30,PD0*
X118636000Y-85503000D03*
G04 #@! TO.P,U1,31,PD1*
X118636000Y-86303000D03*
G04 #@! TO.P,U1,32,PD2*
X118636000Y-87103000D03*
G04 #@! TD*
D30*
G04 #@! TO.P,R1,1*
G04 #@! TO.N,/STAT*
X96838000Y-69596000D03*
G04 #@! TO.P,R1,2*
G04 #@! TO.N,Net-(R1-Pad2)*
X98488000Y-69596000D03*
G04 #@! TD*
D23*
G04 #@! TO.P,R4,1*
G04 #@! TO.N,Net-(R3-Pad2)*
X103124000Y-70486000D03*
G04 #@! TO.P,R4,2*
G04 #@! TO.N,GND*
X103124000Y-72136000D03*
G04 #@! TD*
D16*
G04 #@! TO.P,C1,1*
G04 #@! TO.N,N/C*
X98570500Y-85192000D03*
G04 #@! TO.P,C1,2*
G04 #@! TO.N,GND*
X98570500Y-86742000D03*
G04 #@! TD*
D31*
G04 #@! TO.P,U1,1,VBUS*
G04 #@! TO.N,VBUS*
X100592500Y-66807000D03*
G04 #@! TO.P,U1,2,REGN*
G04 #@! TO.N,/REGN*
X100592500Y-67307000D03*
G04 #@! TO.P,U1,3,STAT*
G04 #@! TO.N,Net-(R1-Pad2)*
X100592500Y-67807000D03*
G04 #@! TO.P,U1,4,ICHG*
G04 #@! TO.N,Net-(R2-Pad2)*
X100592500Y-68307000D03*
D32*
G04 #@! TO.P,U1,5,POL*
G04 #@! TO.N,N/C*
X101280000Y-68994500D03*
G04 #@! TO.P,U1,6,~{EN}*
X101780000Y-68994500D03*
G04 #@! TO.P,U1,7,TS*
G04 #@! TO.N,Net-(R3-Pad2)*
X102280000Y-68994500D03*
G04 #@! TO.P,U1,8,NC*
G04 #@! TO.N,N/C*
X102780000Y-68994500D03*
D31*
G04 #@! TO.P,U1,9,VSET*
G04 #@! TO.N,Net-(R5-Pad1)*
X103467500Y-68307000D03*
G04 #@! TO.P,U1,10,BAT*
G04 #@! TO.N,+BATT*
X103467500Y-67807000D03*
G04 #@! TO.P,U1,11,GND*
G04 #@! TO.N,GND*
X103467500Y-67307000D03*
G04 #@! TO.P,U1,12,GND*
X103467500Y-66807000D03*
D32*
G04 #@! TO.P,U1,13,SW*
G04 #@! TO.N,Net-(C4-Pad2)*
X102780000Y-66119500D03*
G04 #@! TO.P,U1,14,SW*
X102280000Y-66119500D03*
G04 #@! TO.P,U1,15,BTST*
G04 #@! TO.N,Net-(C4-Pad1)*
X101780000Y-66119500D03*
G04 #@! TO.P,U1,16,PMID*
G04 #@! TO.N,Net-(C3-Pad1)*
X101280000Y-66119500D03*
D33*
G04 #@! TO.P,U1,17,Thermal_Pad*
G04 #@! TO.N,GND*
X102030000Y-67557000D03*
G04 #@! TD*
D34*
G04 #@! TO.P,Y1,1,1*
G04 #@! TO.N,N/C*
X126104000Y-92519000D03*
G04 #@! TO.P,Y1,2,2*
G04 #@! TO.N,GND*
X128304000Y-92519000D03*
G04 #@! TO.P,Y1,3,3*
G04 #@! TO.N,N/C*
X128304000Y-90819000D03*
G04 #@! TO.P,Y1,4,4*
G04 #@! TO.N,GND*
X126104000Y-90819000D03*
G04 #@! TD*
D16*
G04 #@! TO.P,C3,1*
G04 #@! TO.N,N/C*
X105428500Y-85166000D03*
G04 #@! TO.P,C3,2*
G04 #@! TO.N,GND*
X105428500Y-86716000D03*
G04 #@! TD*
D19*
G04 #@! TO.P,C2,1*
G04 #@! TO.N,N/C*
X115786000Y-60198000D03*
G04 #@! TO.P,C2,2*
G04 #@! TO.N,GND*
X117336000Y-60198000D03*
G04 #@! TD*
G04 #@! TO.P,C1,1*
G04 #@! TO.N,GND*
X96875000Y-68072000D03*
G04 #@! TO.P,C1,2*
G04 #@! TO.N,/REGN*
X98425000Y-68072000D03*
G04 #@! TD*
D35*
G04 #@! TO.P,C2,1*
G04 #@! TO.N,N/C*
X124677000Y-77953000D03*
G04 #@! TO.P,C2,2*
G04 #@! TO.N,GND*
X123127000Y-77953000D03*
G04 #@! TD*
D30*
G04 #@! TO.P,R5,1*
G04 #@! TO.N,Net-(R5-Pad1)*
X104902000Y-68580000D03*
G04 #@! TO.P,R5,2*
G04 #@! TO.N,GND*
X106552000Y-68580000D03*
G04 #@! TD*
D36*
G04 #@! TO.P,L1,1*
G04 #@! TO.N,Net-(C4-Pad2)*
X103551000Y-61722000D03*
G04 #@! TO.P,L1,2*
G04 #@! TO.N,+BATT*
X109601000Y-61722000D03*
G04 #@! TD*
D13*
G04 #@! TO.P,J2,1,Pin_1*
G04 #@! TO.N,N/C*
X122124000Y-94209000D03*
D14*
G04 #@! TO.P,J2,2,Pin_2*
X122124000Y-91669000D03*
G04 #@! TO.P,J2,3,Pin_3*
X119584000Y-94209000D03*
G04 #@! TO.P,J2,4,Pin_4*
X119584000Y-91669000D03*
G04 #@! TO.P,J2,5,Pin_5*
X117044000Y-94209000D03*
G04 #@! TO.P,J2,6,Pin_6*
G04 #@! TO.N,GND*
X117044000Y-91669000D03*
G04 #@! TD*
D35*
G04 #@! TO.P,C3,1*
G04 #@! TO.N,GND*
X127503000Y-94277000D03*
G04 #@! TO.P,C3,2*
G04 #@! TO.N,N/C*
X125953000Y-94277000D03*
G04 #@! TD*
D21*
G04 #@! TO.P,R1,1*
G04 #@! TO.N,N/C*
X127483000Y-62230000D03*
G04 #@! TO.P,R1,2*
X130408000Y-62230000D03*
G04 #@! TD*
D13*
G04 #@! TO.P,J3,1,Pin_1*
G04 #@! TO.N,N/C*
X133325000Y-79756000D03*
D14*
G04 #@! TO.P,J3,2,Pin_2*
X133325000Y-82296000D03*
G04 #@! TO.P,J3,3,Pin_3*
X133325000Y-84836000D03*
G04 #@! TO.P,J3,4,Pin_4*
X133325000Y-87376000D03*
G04 #@! TO.P,J3,5,Pin_5*
X133325000Y-89916000D03*
G04 #@! TO.P,J3,6,Pin_6*
X133325000Y-92456000D03*
G04 #@! TD*
D13*
G04 #@! TO.P,J2,1,Pin_1*
G04 #@! TO.N,N/C*
X113259000Y-79756000D03*
D14*
G04 #@! TO.P,J2,2,Pin_2*
X113259000Y-82296000D03*
G04 #@! TO.P,J2,3,Pin_3*
X113259000Y-84836000D03*
G04 #@! TO.P,J2,4,Pin_4*
G04 #@! TO.N,GND*
X113259000Y-87376000D03*
G04 #@! TO.P,J2,5,Pin_5*
X113259000Y-89916000D03*
G04 #@! TO.P,J2,6,Pin_6*
G04 #@! TO.N,N/C*
X113259000Y-92456000D03*
G04 #@! TD*
D15*
G04 #@! TO.P,R2,1*
G04 #@! TO.N,GND*
X100076000Y-72135000D03*
G04 #@! TO.P,R2,2*
G04 #@! TO.N,Net-(R2-Pad2)*
X100076000Y-70485000D03*
G04 #@! TD*
D19*
G04 #@! TO.P,C1,1*
G04 #@! TO.N,N/C*
X115773000Y-58674000D03*
G04 #@! TO.P,C1,2*
G04 #@! TO.N,GND*
X117323000Y-58674000D03*
G04 #@! TD*
D16*
G04 #@! TO.P,C4,1*
G04 #@! TO.N,N/C*
X107333500Y-85166000D03*
G04 #@! TO.P,C4,2*
G04 #@! TO.N,GND*
X107333500Y-86716000D03*
G04 #@! TD*
D37*
G04 #@! TO.N,*
X116282000Y-86081000D03*
X127483000Y-62230000D03*
X121886034Y-85160989D03*
X124748916Y-85847604D03*
X121616000Y-83541000D03*
X116282000Y-87351000D03*
X119290000Y-64389000D03*
X98570500Y-85192000D03*
X104369000Y-85192000D03*
X120437033Y-85364015D03*
X118314000Y-92685000D03*
X124040000Y-86552192D03*
X98570500Y-88494000D03*
X103269500Y-89129000D03*
X127483000Y-64770000D03*
X119290000Y-62865000D03*
G04 #@! TO.N,GND*
X96774000Y-72644000D03*
X100076000Y-72135010D03*
X99060000Y-62611000D03*
X97790000Y-65024000D03*
X103124000Y-72136000D03*
X123127000Y-77953000D03*
X105029000Y-66802000D03*
X101727000Y-67818000D03*
X122632000Y-82271000D03*
X106553000Y-68580000D03*
X126104000Y-90819000D03*
X123315500Y-89690463D03*
X96901000Y-68072000D03*
X102362000Y-67183000D03*
X120079000Y-77953000D03*
X95123000Y-68072000D03*
X105029000Y-66040000D03*
X99949000Y-62611000D03*
X115799000Y-63246000D03*
G04 #@! TD*
D38*
G04 #@! TO.N,*
X114488020Y-81192000D02*
X113384020Y-82296000D01*
X122124000Y-91669000D02*
X122901974Y-90891026D01*
X123822808Y-86335000D02*
X120454000Y-86335000D01*
X115869489Y-89350511D02*
X115869489Y-93034489D01*
X125686000Y-80053000D02*
X125686000Y-81267282D01*
X118636000Y-83103000D02*
X115117020Y-83103000D01*
X127136000Y-81503000D02*
X126086000Y-81503000D01*
X122486000Y-89999000D02*
X122486000Y-88553000D01*
X117081520Y-88138480D02*
X116282000Y-88938000D01*
X127136000Y-82303000D02*
X126051359Y-82303000D01*
X120454000Y-86335000D02*
X119686000Y-87103000D01*
X124764501Y-86252093D02*
X124748916Y-86236508D01*
X101999500Y-88621000D02*
X101618500Y-89002000D01*
X124886000Y-92251000D02*
X124992000Y-92357000D01*
X125686000Y-88553000D02*
X126038000Y-88553000D01*
X128453500Y-69454000D02*
X128453500Y-67960000D01*
X125217934Y-64262000D02*
X127615934Y-66660000D01*
X118851031Y-76703969D02*
X113384020Y-82170980D01*
X117577000Y-62992000D02*
X119163000Y-62992000D01*
X117081520Y-85207480D02*
X117081520Y-88138480D01*
X129128011Y-67334511D02*
X129128011Y-70079489D01*
X101618500Y-89002000D02*
X101110500Y-89002000D01*
X118472511Y-92843511D02*
X118314000Y-92685000D01*
X130453500Y-70104000D02*
X132945980Y-70104000D01*
X122545233Y-85160989D02*
X121886034Y-85160989D01*
X130252000Y-90894000D02*
X128379000Y-90894000D01*
X122527000Y-65532000D02*
X125852230Y-65532000D01*
X119686000Y-87103000D02*
X118636000Y-87103000D01*
X122836732Y-84869490D02*
X122545233Y-85160989D01*
X124764501Y-86852291D02*
X124764501Y-86252093D01*
X124340099Y-87276693D02*
X124764501Y-86852291D01*
X125979000Y-92644000D02*
X126104000Y-92519000D01*
X130408000Y-62230000D02*
X133199980Y-62230000D01*
X101999500Y-88243000D02*
X101999500Y-88621000D01*
X116282000Y-85890000D02*
X116282000Y-86081000D01*
X98570500Y-88495000D02*
X98570500Y-88494000D01*
X125979000Y-94277000D02*
X125979000Y-92644000D01*
X124677000Y-77953000D02*
X124677000Y-77608924D01*
X126051359Y-82303000D02*
X122468870Y-85885489D01*
X120641126Y-86947874D02*
X123202261Y-86947874D01*
X120086000Y-87503000D02*
X120641126Y-86947874D01*
X100999500Y-89113000D02*
X100999500Y-88243000D01*
X124886000Y-78162000D02*
X124886000Y-80053000D01*
X120086000Y-88553000D02*
X120086000Y-87503000D01*
X116987230Y-70612000D02*
X117577000Y-70612000D01*
X125686000Y-81267282D02*
X123412282Y-83541000D01*
X120949489Y-92843511D02*
X118472511Y-92843511D01*
X122901974Y-90414974D02*
X122486000Y-89999000D01*
X123286000Y-79052372D02*
X123902480Y-78435892D01*
X127615934Y-66660000D02*
X128453500Y-66660000D01*
X117577000Y-64262000D02*
X119163000Y-64262000D01*
X123585852Y-77153480D02*
X122428520Y-77153480D01*
X124086000Y-88553000D02*
X124086000Y-89944577D01*
X124040000Y-86552192D02*
X123822808Y-86335000D01*
X122124000Y-91669000D02*
X120949489Y-92843511D01*
X116282000Y-81192000D02*
X114488020Y-81192000D01*
X121504849Y-85885489D02*
X120983375Y-85364015D01*
X126038000Y-88553000D02*
X128304000Y-90819000D01*
X113500000Y-60211000D02*
X113487000Y-60198000D01*
X123412282Y-83541000D02*
X121616000Y-83541000D01*
X130408000Y-64770000D02*
X133199980Y-64770000D01*
X130453500Y-67310000D02*
X133199980Y-67310000D01*
X123531080Y-87276693D02*
X124340099Y-87276693D01*
X102999500Y-88859000D02*
X103269500Y-89129000D01*
X117586000Y-84703000D02*
X117081520Y-85207480D01*
X116282000Y-88938000D02*
X115869489Y-89350511D01*
X125852230Y-65532000D02*
X128280230Y-67960000D01*
X126086000Y-81503000D02*
X122836732Y-84752268D01*
X123902480Y-78435892D02*
X123902480Y-77470108D01*
X128453500Y-66660000D02*
X129128011Y-67334511D01*
X98570500Y-90145000D02*
X100322500Y-90145000D01*
X102999500Y-88243000D02*
X102999500Y-88859000D01*
X115117020Y-83103000D02*
X113384020Y-84836000D01*
X123286000Y-80053000D02*
X123286000Y-79052372D01*
X124748916Y-86236508D02*
X124748916Y-85847604D01*
X122901974Y-90891026D02*
X122901974Y-90414974D01*
X123902480Y-77470108D02*
X123585852Y-77153480D01*
X124886000Y-88553000D02*
X124886000Y-92251000D01*
X128379000Y-90894000D02*
X128304000Y-90819000D01*
X124992000Y-92357000D02*
X125154000Y-92519000D01*
X122836732Y-84752268D02*
X122836732Y-84869490D01*
X123615603Y-90414974D02*
X122901974Y-90414974D01*
X120983375Y-85364015D02*
X120437033Y-85364015D01*
X122428520Y-77153480D02*
X121629000Y-77953000D01*
X115869489Y-93034489D02*
X117044000Y-94209000D01*
X122468870Y-85885489D02*
X121504849Y-85885489D01*
X128280230Y-67960000D02*
X128453500Y-67960000D01*
X101499500Y-88613000D02*
X101110500Y-89002000D01*
X124086000Y-89944577D02*
X123615603Y-90414974D01*
X123202261Y-86947874D02*
X123531080Y-87276693D01*
X124677000Y-77608924D02*
X123772045Y-76703969D01*
X100322500Y-90145000D02*
X100322500Y-89790000D01*
X101499500Y-88243000D02*
X101499500Y-88613000D01*
X116282000Y-87288000D02*
X116282000Y-87351000D01*
X122527000Y-64262000D02*
X125217934Y-64262000D01*
X118636000Y-84703000D02*
X117586000Y-84703000D01*
X132842000Y-70104000D02*
X133096000Y-69850000D01*
X124677000Y-77953000D02*
X124886000Y-78162000D01*
X119163000Y-62992000D02*
X119290000Y-62865000D01*
X101110500Y-89002000D02*
X100999500Y-89113000D01*
X125154000Y-92519000D02*
X126104000Y-92519000D01*
X123772045Y-76703969D02*
X118851031Y-76703969D01*
X100322500Y-89790000D02*
X100999500Y-89113000D01*
X129128011Y-70079489D02*
X128453500Y-70754000D01*
X132945980Y-70104000D02*
X133199980Y-69850000D01*
X119163000Y-64262000D02*
X119290000Y-64389000D01*
G04 #@! TO.N,GND*
X99065000Y-62616000D02*
X99060000Y-62611000D01*
X118218511Y-90494489D02*
X117044000Y-91669000D01*
X117336000Y-61481000D02*
X117577000Y-61722000D01*
X102030000Y-67515000D02*
X102362000Y-67183000D01*
X127503000Y-94277000D02*
X127503000Y-93320000D01*
X121686000Y-88553000D02*
X121686000Y-87503000D01*
X126104000Y-90823000D02*
X126188000Y-90907000D01*
X126104000Y-90819000D02*
X126104000Y-90823000D01*
X99568000Y-62616000D02*
X99944000Y-62616000D01*
X122486000Y-78594000D02*
X122486000Y-80053000D01*
X102030000Y-67557000D02*
X101988000Y-67557000D01*
D39*
X115019718Y-68562719D02*
X115129000Y-68562719D01*
X115374359Y-68317360D02*
X115374359Y-68317359D01*
D38*
X116857020Y-83903000D02*
X113384020Y-87376000D01*
X122486000Y-80053000D02*
X122486000Y-82125000D01*
X128379000Y-92444000D02*
X128304000Y-92519000D01*
X121686000Y-89603000D02*
X120794511Y-90494489D01*
X97790000Y-64998000D02*
X97790000Y-65024000D01*
X122725947Y-87397385D02*
X122741624Y-87413062D01*
X99944000Y-62616000D02*
X99949000Y-62611000D01*
X121686000Y-88553000D02*
X121686000Y-89603000D01*
X122741624Y-87413062D02*
X122911406Y-87413062D01*
X117336000Y-58687000D02*
X117323000Y-58674000D01*
X117336000Y-60198000D02*
X117336000Y-58687000D01*
X96875000Y-68072000D02*
X96901000Y-68072000D01*
D39*
X115619718Y-68072000D02*
X115729000Y-68072000D01*
D38*
X123286000Y-87787656D02*
X123286000Y-88553000D01*
X117577000Y-61722000D02*
X116602001Y-61722000D01*
X96799500Y-72669500D02*
X96774000Y-72644000D01*
X120794511Y-90494489D02*
X118218511Y-90494489D01*
D39*
X114121020Y-68072000D02*
X114529000Y-68072000D01*
D38*
X96838000Y-72669500D02*
X96799500Y-72669500D01*
D39*
X113359020Y-67310000D02*
X114121020Y-68072000D01*
D38*
X100076000Y-72135000D02*
X100076000Y-72135010D01*
X128304000Y-92519000D02*
X128204000Y-92519000D01*
X105029000Y-66548000D02*
X105029000Y-66040000D01*
X115799000Y-62525001D02*
X115799000Y-63246000D01*
X106552000Y-68580000D02*
X106553000Y-68580000D01*
D39*
X115729000Y-68072000D02*
X117577000Y-68072000D01*
D38*
X117336000Y-60198000D02*
X117336000Y-61481000D01*
X130252000Y-92444000D02*
X128379000Y-92444000D01*
X123286000Y-89660963D02*
X123315500Y-89690463D01*
X118636000Y-83903000D02*
X116857020Y-83903000D01*
X121791615Y-87397385D02*
X122725947Y-87397385D01*
X99568000Y-62616000D02*
X99065000Y-62616000D01*
X105029000Y-66548000D02*
X105029000Y-66802000D01*
X121686000Y-87503000D02*
X121791615Y-87397385D01*
X127503000Y-93320000D02*
X128304000Y-92519000D01*
X101988000Y-67557000D02*
X101727000Y-67818000D01*
X122486000Y-82125000D02*
X122632000Y-82271000D01*
X122911406Y-87413062D02*
X123286000Y-87787656D01*
D39*
X114774359Y-68317359D02*
X114774359Y-68317360D01*
D38*
X128204000Y-92519000D02*
X126504000Y-90819000D01*
X102030000Y-67557000D02*
X102030000Y-67515000D01*
X101999500Y-85443000D02*
X101999500Y-86268000D01*
X126504000Y-90819000D02*
X126104000Y-90819000D01*
X123127000Y-77953000D02*
X122486000Y-78594000D01*
X123286000Y-88553000D02*
X123286000Y-89660963D01*
X116602001Y-61722000D02*
X115799000Y-62525001D01*
D39*
X115374359Y-68317360D02*
G75*
G02*
X115129000Y-68562719I-245359J0D01*
G01*
X115619718Y-68072000D02*
G75*
G03*
X115374359Y-68317359I0J-245359D01*
G01*
X114774359Y-68317359D02*
G75*
G03*
X114529000Y-68072000I-245359J0D01*
G01*
X115019718Y-68562719D02*
G75*
G02*
X114774359Y-68317360I0J245359D01*
G01*
D38*
G04 #@! TO.N,/REGN*
X100674520Y-71209520D02*
X97933030Y-71209520D01*
X99698000Y-67307000D02*
X100592500Y-67307000D01*
X97762980Y-71039470D02*
X97762980Y-68734020D01*
X97933030Y-71209520D02*
X97762980Y-71039470D01*
X97762980Y-68734020D02*
X98425000Y-68072000D01*
X98425000Y-68072000D02*
X98933000Y-68072000D01*
X101600000Y-72135000D02*
X100674520Y-71209520D01*
X98933000Y-68072000D02*
X99698000Y-67307000D01*
G04 #@! TO.N,Net-(C4-Pad1)*
X101346000Y-64643000D02*
X101600000Y-64389000D01*
X101600000Y-64389000D02*
X101780000Y-64569000D01*
X101780000Y-64569000D02*
X101780000Y-66119500D01*
G04 #@! TO.N,+BATT*
X120306000Y-64829856D02*
X120306000Y-62357000D01*
X105697020Y-67779980D02*
X106929000Y-66548000D01*
X103467500Y-67807000D02*
X103494520Y-67779980D01*
X119603856Y-65532000D02*
X120306000Y-64829856D01*
X120306000Y-62357000D02*
X120941000Y-61722000D01*
X115773000Y-60185000D02*
X115786000Y-60198000D01*
X103494520Y-67779980D02*
X105697020Y-67779980D01*
X114229000Y-62230000D02*
X114229000Y-62946000D01*
D39*
X115391020Y-66802000D02*
X113359020Y-64770000D01*
D38*
X115786000Y-60198000D02*
X115786000Y-60673000D01*
X114229000Y-62946000D02*
X116815000Y-65532000D01*
X115786000Y-60673000D02*
X114229000Y-62230000D01*
X120941000Y-61722000D02*
X122527000Y-61722000D01*
D39*
X117577000Y-66802000D02*
X115391020Y-66802000D01*
D38*
X115773000Y-58674000D02*
X115773000Y-60185000D01*
X114229000Y-62230000D02*
X113384020Y-62230000D01*
X117577000Y-65532000D02*
X119603856Y-65532000D01*
X116815000Y-65532000D02*
X117577000Y-65532000D01*
G04 #@! TO.N,/STAT*
X96838000Y-69596000D02*
X96838000Y-71094500D01*
X94613520Y-71094500D02*
X93318020Y-72390000D01*
X96838000Y-71094500D02*
X94613520Y-71094500D01*
G04 #@! TO.N,Net-(R1-Pad2)*
X98488000Y-69596000D02*
X98488000Y-69425964D01*
X100095964Y-67818000D02*
X100581500Y-67818000D01*
X98488000Y-69425964D02*
X100095964Y-67818000D01*
X100581500Y-67818000D02*
X100592500Y-67807000D01*
G04 #@! TO.N,Net-(R2-Pad2)*
X100076000Y-68580000D02*
X100076000Y-70485000D01*
X100349000Y-68307000D02*
X100076000Y-68580000D01*
X100592500Y-68307000D02*
X100349000Y-68307000D01*
X100076000Y-68580000D02*
X100076000Y-68823500D01*
G04 #@! TO.N,Net-(R3-Pad2)*
X102280000Y-69805000D02*
X102280000Y-68994500D01*
X101600000Y-70485000D02*
X102280000Y-69805000D01*
X103124000Y-70486000D02*
X102961000Y-70486000D01*
X102961000Y-70486000D02*
X102280000Y-69805000D01*
G04 #@! TO.N,Net-(R5-Pad1)*
X104629000Y-68307000D02*
X104902000Y-68580000D01*
X103467500Y-68307000D02*
X104629000Y-68307000D01*
G04 #@! TD*
G04 #@! TA.AperFunction,NonConductor*
G36*
X101814621Y-80132002D02*
G01*
X101861114Y-80185658D01*
X101872500Y-80238000D01*
X101872500Y-84504810D01*
X101852498Y-84572931D01*
X101835595Y-84593905D01*
X101618500Y-84811000D01*
X101618500Y-85574000D01*
X101598498Y-85642121D01*
X101544842Y-85688614D01*
X101492500Y-85700000D01*
X101490500Y-85700000D01*
X101422379Y-85679998D01*
X101375886Y-85626342D01*
X101364500Y-85574000D01*
X101364500Y-84938000D01*
X100561612Y-84593905D01*
X99662866Y-84208728D01*
X99608133Y-84163509D01*
X99586500Y-84092916D01*
X99586500Y-80238000D01*
X99606502Y-80169879D01*
X99660158Y-80123386D01*
X99712500Y-80112000D01*
X101746500Y-80112000D01*
X101814621Y-80132002D01*
G37*
G04 #@! TD.AperFunction*
G04 #@! TA.AperFunction,Conductor*
G04 #@! TO.N,Net-(C3-Pad1)*
G36*
X100272121Y-64409002D02*
G01*
X100318614Y-64462658D01*
X100330000Y-64515000D01*
X100330000Y-65151000D01*
X100584000Y-65405000D01*
X101039810Y-65405000D01*
X101107931Y-65425002D01*
X101128905Y-65441905D01*
X101309095Y-65622095D01*
X101343121Y-65684407D01*
X101346000Y-65711190D01*
X101346000Y-66422000D01*
X101325998Y-66490121D01*
X101272342Y-66536614D01*
X101220000Y-66548000D01*
X101185025Y-66548000D01*
X101115024Y-66526765D01*
X101070118Y-66496760D01*
X101072644Y-66492979D01*
X101034328Y-66461492D01*
X100848049Y-66182074D01*
X100838000Y-66167000D01*
X100001190Y-66167000D01*
X99933069Y-66146998D01*
X99912095Y-66130095D01*
X98969905Y-65187905D01*
X98935879Y-65125593D01*
X98933000Y-65098810D01*
X98933000Y-64515000D01*
X98953002Y-64446879D01*
X99006658Y-64400386D01*
X99059000Y-64389000D01*
X100204000Y-64389000D01*
X100272121Y-64409002D01*
G37*
G04 #@! TD.AperFunction*
G04 #@! TD*
G04 #@! TA.AperFunction,Conductor*
G04 #@! TO.N,VBUS*
G36*
X99583931Y-66187002D02*
G01*
X99604905Y-66203905D01*
X99822000Y-66421000D01*
X100658810Y-66421000D01*
X100726931Y-66441002D01*
X100747905Y-66457905D01*
X100928095Y-66638095D01*
X100962121Y-66700407D01*
X100965000Y-66727190D01*
X100965000Y-66803000D01*
X100944998Y-66871121D01*
X100891342Y-66917614D01*
X100839000Y-66929000D01*
X97282000Y-66929000D01*
X97282000Y-66167000D01*
X99515810Y-66167000D01*
X99583931Y-66187002D01*
G37*
G04 #@! TD.AperFunction*
G04 #@! TD*
G04 #@! TA.AperFunction,NonConductor*
G36*
X112265163Y-80874607D02*
G01*
X112441740Y-80891999D01*
X112465957Y-80896815D01*
X112629809Y-80946518D01*
X112652629Y-80955971D01*
X112803631Y-81036683D01*
X112824158Y-81050399D01*
X112956521Y-81159026D01*
X112973974Y-81176479D01*
X113082601Y-81308842D01*
X113096319Y-81329372D01*
X113177029Y-81480371D01*
X113186482Y-81503190D01*
X113236185Y-81667043D01*
X113241002Y-81691263D01*
X113258393Y-81867837D01*
X113259000Y-81880187D01*
X113259000Y-84947813D01*
X113258393Y-84960163D01*
X113245187Y-85094249D01*
X113241002Y-85136737D01*
X113236185Y-85160957D01*
X113186482Y-85324809D01*
X113177029Y-85347629D01*
X113099844Y-85492034D01*
X113096319Y-85498628D01*
X113082601Y-85519158D01*
X112973974Y-85651521D01*
X112956521Y-85668974D01*
X112824158Y-85777601D01*
X112803631Y-85791317D01*
X112761995Y-85813572D01*
X112652629Y-85872029D01*
X112629810Y-85881482D01*
X112465957Y-85931185D01*
X112441740Y-85936001D01*
X112265163Y-85953393D01*
X112252813Y-85954000D01*
X103465224Y-85954000D01*
X103397103Y-85933998D01*
X103360459Y-85898001D01*
X103350947Y-85883765D01*
X103350943Y-85883761D01*
X103344052Y-85873448D01*
X103277731Y-85829133D01*
X103265562Y-85826712D01*
X103265561Y-85826712D01*
X103205568Y-85814779D01*
X103199500Y-85813572D01*
X103072413Y-85813572D01*
X103004292Y-85793570D01*
X102960146Y-85744774D01*
X102919315Y-85664638D01*
X102907133Y-85627146D01*
X102891252Y-85526873D01*
X102890613Y-85492034D01*
X102905332Y-85370334D01*
X102912545Y-85340949D01*
X102956688Y-85224057D01*
X102970698Y-85197241D01*
X103041433Y-85094249D01*
X103061434Y-85071544D01*
X103154684Y-84988384D01*
X103179522Y-84971102D01*
X103296662Y-84908992D01*
X103310455Y-84902710D01*
X104360797Y-84498732D01*
X104371767Y-84495081D01*
X104531458Y-84449959D01*
X104554169Y-84445742D01*
X104719420Y-84430530D01*
X104730970Y-84430000D01*
X105893000Y-84430000D01*
X107660563Y-82652000D01*
X109130500Y-81173383D01*
X109139663Y-81165031D01*
X109277055Y-81051682D01*
X109297631Y-81037869D01*
X109373340Y-80997222D01*
X109449047Y-80956577D01*
X109471938Y-80947056D01*
X109636334Y-80896989D01*
X109660646Y-80892134D01*
X109837884Y-80874611D01*
X109850281Y-80874000D01*
X112252813Y-80874000D01*
X112265163Y-80874607D01*
G37*
G04 #@! TD.AperFunction*
G04 #@! TA.AperFunction,Conductor*
G04 #@! TO.N,VBUS*
G36*
X94216879Y-60973788D02*
G01*
X94280997Y-60981013D01*
X94308505Y-60987292D01*
X94472248Y-61044589D01*
X94497668Y-61056831D01*
X94644557Y-61149127D01*
X94666616Y-61166719D01*
X94789281Y-61289384D01*
X94806873Y-61311443D01*
X94899169Y-61458332D01*
X94911411Y-61483752D01*
X94968708Y-61647495D01*
X94974987Y-61675004D01*
X94995208Y-61854471D01*
X94996000Y-61868578D01*
X94996000Y-64770000D01*
X96139000Y-65913000D01*
X96520000Y-66040000D01*
X97941787Y-66040000D01*
X97966367Y-66042421D01*
X97993358Y-66047790D01*
X98012582Y-66051613D01*
X98058002Y-66070427D01*
X98107500Y-66103500D01*
X98171000Y-66167000D01*
X98171000Y-66929000D01*
X95131383Y-66929000D01*
X95119863Y-66928472D01*
X95051706Y-66922213D01*
X94955007Y-66913333D01*
X94932348Y-66909136D01*
X94778583Y-66865797D01*
X94757075Y-66857547D01*
X94613766Y-66786924D01*
X94594124Y-66774895D01*
X94461432Y-66675890D01*
X94452512Y-66668576D01*
X93927080Y-66195893D01*
X93927079Y-66195893D01*
X93726000Y-66015000D01*
X93460561Y-66019355D01*
X93454943Y-66018533D01*
X93382761Y-66005249D01*
X93336642Y-65986807D01*
X93292530Y-65957982D01*
X93257121Y-65923150D01*
X93227574Y-65879513D01*
X93208379Y-65833703D01*
X93204813Y-65815964D01*
X93195472Y-65769502D01*
X93193000Y-65744669D01*
X93193000Y-61868578D01*
X93193792Y-61854471D01*
X93214013Y-61675004D01*
X93220292Y-61647495D01*
X93277589Y-61483752D01*
X93289831Y-61458332D01*
X93382127Y-61311443D01*
X93399719Y-61289384D01*
X93522384Y-61166719D01*
X93544443Y-61149127D01*
X93691332Y-61056831D01*
X93716752Y-61044589D01*
X93880495Y-60987292D01*
X93908003Y-60981013D01*
X93972121Y-60973788D01*
X94080397Y-60961589D01*
X94108603Y-60961589D01*
X94216879Y-60973788D01*
G37*
G04 #@! TD.AperFunction*
G04 #@! TD*
G04 #@! TA.AperFunction,Conductor*
G04 #@! TO.N,GND*
G36*
X102920351Y-85970033D02*
G01*
X102947946Y-85985469D01*
X102981411Y-85995295D01*
X103011744Y-86004202D01*
X103011748Y-86004203D01*
X103016067Y-86005471D01*
X103020515Y-86006111D01*
X103020522Y-86006112D01*
X103067965Y-86012933D01*
X103067972Y-86012933D01*
X103072413Y-86013572D01*
X103141178Y-86013572D01*
X103209299Y-86033574D01*
X103229476Y-86049687D01*
X103256947Y-86076673D01*
X103340757Y-86125897D01*
X103348187Y-86128079D01*
X103348188Y-86128079D01*
X103404555Y-86144630D01*
X103404559Y-86144631D01*
X103408878Y-86145899D01*
X103413326Y-86146539D01*
X103413333Y-86146540D01*
X103460776Y-86153361D01*
X103460783Y-86153361D01*
X103465224Y-86154000D01*
X112252813Y-86154000D01*
X112253544Y-86153982D01*
X112253549Y-86153982D01*
X112256366Y-86153913D01*
X112262631Y-86153759D01*
X112263424Y-86153720D01*
X112263452Y-86153719D01*
X112269517Y-86153421D01*
X112274981Y-86153152D01*
X112284767Y-86152430D01*
X112285522Y-86152356D01*
X112285541Y-86152354D01*
X112459822Y-86135188D01*
X112459826Y-86135188D01*
X112461344Y-86135038D01*
X112462841Y-86134816D01*
X112462849Y-86134815D01*
X112479233Y-86132385D01*
X112479234Y-86132385D01*
X112480750Y-86132160D01*
X112504967Y-86127344D01*
X112506452Y-86126972D01*
X112506461Y-86126970D01*
X112511759Y-86125643D01*
X112524013Y-86122573D01*
X112659485Y-86081479D01*
X112730477Y-86080846D01*
X112755452Y-86090931D01*
X112803628Y-86116682D01*
X112824158Y-86130399D01*
X112956521Y-86239026D01*
X112973974Y-86256479D01*
X113082601Y-86388842D01*
X113096319Y-86409372D01*
X113177029Y-86560371D01*
X113186482Y-86583190D01*
X113236185Y-86747043D01*
X113241002Y-86771263D01*
X113258393Y-86947837D01*
X113259000Y-86960187D01*
X113259000Y-90154813D01*
X113258393Y-90167163D01*
X113241002Y-90343737D01*
X113236185Y-90367957D01*
X113208111Y-90460506D01*
X113186482Y-90531809D01*
X113177029Y-90554629D01*
X113157934Y-90590353D01*
X113117480Y-90666039D01*
X113096319Y-90705628D01*
X113082601Y-90726158D01*
X112973974Y-90858521D01*
X112956521Y-90875974D01*
X112824158Y-90984601D01*
X112803631Y-90998317D01*
X112711417Y-91047607D01*
X112652629Y-91079029D01*
X112629810Y-91088482D01*
X112465957Y-91138185D01*
X112441740Y-91143001D01*
X112265163Y-91160393D01*
X112252813Y-91161000D01*
X94199187Y-91161000D01*
X94186837Y-91160393D01*
X94010260Y-91143001D01*
X93986043Y-91138185D01*
X93822190Y-91088482D01*
X93799371Y-91079029D01*
X93740583Y-91047607D01*
X93648369Y-90998317D01*
X93627842Y-90984601D01*
X93495479Y-90875974D01*
X93478026Y-90858521D01*
X93369399Y-90726158D01*
X93355681Y-90705628D01*
X93334521Y-90666039D01*
X93294066Y-90590353D01*
X93274971Y-90554629D01*
X93265518Y-90531809D01*
X93243889Y-90460506D01*
X93215815Y-90367957D01*
X93210998Y-90343737D01*
X93193607Y-90167163D01*
X93193000Y-90154813D01*
X93193000Y-89913481D01*
X97895000Y-89913481D01*
X97895001Y-90376518D01*
X97895776Y-90381411D01*
X97895776Y-90381412D01*
X97903232Y-90428488D01*
X97909854Y-90470304D01*
X97914357Y-90479141D01*
X97914357Y-90479142D01*
X97920145Y-90490502D01*
X97967450Y-90583342D01*
X98057158Y-90673050D01*
X98170196Y-90730646D01*
X98179985Y-90732196D01*
X98179987Y-90732197D01*
X98207264Y-90736517D01*
X98263981Y-90745500D01*
X98570438Y-90745500D01*
X98877018Y-90745499D01*
X98881912Y-90744724D01*
X98961006Y-90732198D01*
X98961008Y-90732197D01*
X98970804Y-90730646D01*
X99083842Y-90673050D01*
X99173550Y-90583342D01*
X99195992Y-90539297D01*
X99244740Y-90487682D01*
X99308259Y-90470500D01*
X99581206Y-90470500D01*
X99649327Y-90490502D01*
X99693473Y-90539297D01*
X99748972Y-90648220D01*
X99844280Y-90743528D01*
X99964374Y-90804719D01*
X99974163Y-90806269D01*
X99974165Y-90806270D01*
X100003649Y-90810940D01*
X100064012Y-90820500D01*
X100580988Y-90820500D01*
X100641351Y-90810940D01*
X100670835Y-90806270D01*
X100670837Y-90806269D01*
X100680626Y-90804719D01*
X100800720Y-90743528D01*
X100896028Y-90648220D01*
X100957219Y-90528126D01*
X100973000Y-90428488D01*
X100973000Y-89861512D01*
X100957219Y-89761874D01*
X100949408Y-89746544D01*
X100936304Y-89676767D01*
X100963004Y-89610982D01*
X100972580Y-89600246D01*
X101208421Y-89364405D01*
X101270733Y-89330379D01*
X101297516Y-89327500D01*
X101598790Y-89327500D01*
X101609772Y-89327980D01*
X101636320Y-89330303D01*
X101636322Y-89330303D01*
X101647307Y-89331264D01*
X101683715Y-89321508D01*
X101694442Y-89319130D01*
X101697801Y-89318538D01*
X101731545Y-89312588D01*
X101741090Y-89307077D01*
X101744366Y-89305885D01*
X101747534Y-89304408D01*
X101758184Y-89301554D01*
X101789044Y-89279945D01*
X101798315Y-89274039D01*
X101821406Y-89260707D01*
X101830955Y-89255194D01*
X101855179Y-89226325D01*
X101862606Y-89218220D01*
X101951826Y-89129000D01*
X102663818Y-89129000D01*
X102684456Y-89285762D01*
X102744964Y-89431841D01*
X102841218Y-89557282D01*
X102966659Y-89653536D01*
X103112738Y-89714044D01*
X103120926Y-89715122D01*
X103123729Y-89715491D01*
X103269500Y-89734682D01*
X103277688Y-89733604D01*
X103418074Y-89715122D01*
X103426262Y-89714044D01*
X103572341Y-89653536D01*
X103697782Y-89557282D01*
X103794036Y-89431841D01*
X103854544Y-89285762D01*
X103875182Y-89129000D01*
X103861826Y-89027550D01*
X103855622Y-88980426D01*
X103854544Y-88972238D01*
X103794036Y-88826159D01*
X103697782Y-88700718D01*
X103572341Y-88604464D01*
X103426262Y-88543956D01*
X103418301Y-88542908D01*
X103357768Y-88506013D01*
X103326745Y-88442153D01*
X103325000Y-88421256D01*
X103325000Y-88214525D01*
X103321914Y-88197023D01*
X103320000Y-88175144D01*
X103320000Y-87923252D01*
X103314067Y-87893423D01*
X103310788Y-87876939D01*
X103310788Y-87876938D01*
X103308367Y-87864769D01*
X103264052Y-87798448D01*
X103197731Y-87754133D01*
X103185562Y-87751712D01*
X103185561Y-87751712D01*
X103145316Y-87743707D01*
X103139248Y-87742500D01*
X102859752Y-87742500D01*
X102853684Y-87743707D01*
X102813439Y-87751712D01*
X102813438Y-87751712D01*
X102801269Y-87754133D01*
X102734948Y-87798448D01*
X102690633Y-87864769D01*
X102688212Y-87876938D01*
X102688212Y-87876939D01*
X102684933Y-87893423D01*
X102679000Y-87923252D01*
X102679000Y-88175144D01*
X102677086Y-88197023D01*
X102674000Y-88214525D01*
X102674000Y-88839290D01*
X102673520Y-88850272D01*
X102670236Y-88887807D01*
X102679993Y-88924220D01*
X102682374Y-88934963D01*
X102683011Y-88938579D01*
X102683844Y-88976885D01*
X102677174Y-89027550D01*
X102663818Y-89129000D01*
X101951826Y-89129000D01*
X102215728Y-88865099D01*
X102223832Y-88857673D01*
X102244250Y-88840540D01*
X102252694Y-88833455D01*
X102258204Y-88823912D01*
X102258207Y-88823908D01*
X102271536Y-88800821D01*
X102277441Y-88791551D01*
X102292732Y-88769713D01*
X102299054Y-88760684D01*
X102301907Y-88750036D01*
X102303386Y-88746865D01*
X102304578Y-88743589D01*
X102310088Y-88734045D01*
X102316634Y-88696924D01*
X102319008Y-88686217D01*
X102328763Y-88649807D01*
X102325479Y-88612269D01*
X102325000Y-88601288D01*
X102325000Y-88214525D01*
X102321914Y-88197023D01*
X102320000Y-88175144D01*
X102320000Y-87923252D01*
X102314067Y-87893423D01*
X102310788Y-87876939D01*
X102310788Y-87876938D01*
X102308367Y-87864769D01*
X102264052Y-87798448D01*
X102197731Y-87754133D01*
X102185562Y-87751712D01*
X102185561Y-87751712D01*
X102145316Y-87743707D01*
X102139248Y-87742500D01*
X101859752Y-87742500D01*
X101801269Y-87754133D01*
X101794653Y-87758554D01*
X101727130Y-87765814D01*
X101705870Y-87759571D01*
X101697731Y-87754133D01*
X101639248Y-87742500D01*
X101359752Y-87742500D01*
X101301269Y-87754133D01*
X101294653Y-87758554D01*
X101227130Y-87765814D01*
X101205870Y-87759571D01*
X101197731Y-87754133D01*
X101139248Y-87742500D01*
X100859752Y-87742500D01*
X100853684Y-87743707D01*
X100813439Y-87751712D01*
X100813438Y-87751712D01*
X100801269Y-87754133D01*
X100734948Y-87798448D01*
X100690633Y-87864769D01*
X100688212Y-87876938D01*
X100688212Y-87876939D01*
X100684933Y-87893423D01*
X100679000Y-87923252D01*
X100679000Y-88175144D01*
X100677086Y-88197023D01*
X100674000Y-88214525D01*
X100674000Y-88925984D01*
X100653998Y-88994105D01*
X100637095Y-89015079D01*
X100219579Y-89432595D01*
X100157267Y-89466621D01*
X100130484Y-89469500D01*
X100064012Y-89469500D01*
X100003649Y-89479060D01*
X99974165Y-89483730D01*
X99974163Y-89483731D01*
X99964374Y-89485281D01*
X99844280Y-89546472D01*
X99748972Y-89641780D01*
X99744472Y-89650612D01*
X99693473Y-89750703D01*
X99644725Y-89802318D01*
X99581206Y-89819500D01*
X99308259Y-89819500D01*
X99240138Y-89799498D01*
X99195992Y-89750703D01*
X99178050Y-89715490D01*
X99173550Y-89706658D01*
X99083842Y-89616950D01*
X98970804Y-89559354D01*
X98961015Y-89557804D01*
X98961013Y-89557803D01*
X98933651Y-89553470D01*
X98877019Y-89544500D01*
X98570562Y-89544500D01*
X98263982Y-89544501D01*
X98259089Y-89545276D01*
X98259088Y-89545276D01*
X98179994Y-89557802D01*
X98179992Y-89557803D01*
X98170196Y-89559354D01*
X98057158Y-89616950D01*
X97967450Y-89706658D01*
X97909854Y-89819696D01*
X97895000Y-89913481D01*
X93193000Y-89913481D01*
X93193000Y-88263481D01*
X97895000Y-88263481D01*
X97895001Y-88726518D01*
X97909854Y-88820304D01*
X97967450Y-88933342D01*
X98057158Y-89023050D01*
X98170196Y-89080646D01*
X98179985Y-89082196D01*
X98179987Y-89082197D01*
X98207349Y-89086530D01*
X98263981Y-89095500D01*
X98530476Y-89095500D01*
X98546920Y-89096578D01*
X98570500Y-89099682D01*
X98578687Y-89098604D01*
X98578688Y-89098604D01*
X98594083Y-89096577D01*
X98610531Y-89095499D01*
X98877018Y-89095499D01*
X98881912Y-89094724D01*
X98961006Y-89082198D01*
X98961008Y-89082197D01*
X98970804Y-89080646D01*
X99083842Y-89023050D01*
X99173550Y-88933342D01*
X99231146Y-88820304D01*
X99246000Y-88726519D01*
X99245999Y-88263482D01*
X99238246Y-88214525D01*
X99232698Y-88179494D01*
X99232697Y-88179492D01*
X99231146Y-88169696D01*
X99173550Y-88056658D01*
X99083842Y-87966950D01*
X98970804Y-87909354D01*
X98961015Y-87907804D01*
X98961013Y-87907803D01*
X98933651Y-87903470D01*
X98877019Y-87894500D01*
X98625716Y-87894500D01*
X98609271Y-87893422D01*
X98578689Y-87889396D01*
X98570500Y-87888318D01*
X98531734Y-87893422D01*
X98531726Y-87893423D01*
X98515279Y-87894501D01*
X98263982Y-87894501D01*
X98259089Y-87895276D01*
X98259088Y-87895276D01*
X98179994Y-87907802D01*
X98179992Y-87907803D01*
X98170196Y-87909354D01*
X98057158Y-87966950D01*
X97967450Y-88056658D01*
X97909854Y-88169696D01*
X97895000Y-88263481D01*
X93193000Y-88263481D01*
X93193000Y-86960187D01*
X93193607Y-86947837D01*
X93210998Y-86771263D01*
X93215815Y-86747043D01*
X93265518Y-86583190D01*
X93274971Y-86560371D01*
X93355681Y-86409372D01*
X93369399Y-86388842D01*
X93478026Y-86256479D01*
X93495479Y-86239026D01*
X93627842Y-86130399D01*
X93648372Y-86116682D01*
X93696546Y-86090932D01*
X93766051Y-86076460D01*
X93792513Y-86081478D01*
X93927987Y-86122573D01*
X93940241Y-86125643D01*
X93945539Y-86126970D01*
X93945548Y-86126972D01*
X93947033Y-86127344D01*
X93971250Y-86132160D01*
X93972766Y-86132385D01*
X93972767Y-86132385D01*
X93989151Y-86134815D01*
X93989159Y-86134816D01*
X93990656Y-86135038D01*
X93992174Y-86135188D01*
X93992178Y-86135188D01*
X94166459Y-86152354D01*
X94166478Y-86152356D01*
X94167233Y-86152430D01*
X94177019Y-86153152D01*
X94182483Y-86153421D01*
X94188548Y-86153719D01*
X94188576Y-86153720D01*
X94189369Y-86153759D01*
X94195634Y-86153913D01*
X94198451Y-86153982D01*
X94198456Y-86153982D01*
X94199187Y-86154000D01*
X100533776Y-86154000D01*
X100536990Y-86153669D01*
X100571324Y-86150133D01*
X100571329Y-86150132D01*
X100574545Y-86149801D01*
X100624834Y-86139330D01*
X100634164Y-86134815D01*
X100705348Y-86100365D01*
X100705347Y-86100365D01*
X100712320Y-86096991D01*
X100766796Y-86051463D01*
X100769194Y-86048793D01*
X100831902Y-86015993D01*
X100856481Y-86013572D01*
X100926587Y-86013572D01*
X100930709Y-86013024D01*
X100930714Y-86013024D01*
X100974678Y-86007182D01*
X100978810Y-86006633D01*
X100982824Y-86005547D01*
X100982830Y-86005546D01*
X101040813Y-85989861D01*
X101042329Y-85989451D01*
X101047183Y-85987871D01*
X101053278Y-85985888D01*
X101053280Y-85985887D01*
X101061527Y-85983203D01*
X101068734Y-85978382D01*
X101068738Y-85978380D01*
X101073387Y-85975270D01*
X101143442Y-85954000D01*
X102858842Y-85954000D01*
X102920351Y-85970033D01*
G37*
G04 #@! TD.AperFunction*
G04 #@! TD*
G04 #@! TA.AperFunction,NonConductor*
G36*
X95977099Y-80874586D02*
G01*
X96150765Y-80891401D01*
X96174591Y-80896059D01*
X96322880Y-80940242D01*
X96335936Y-80944132D01*
X96358432Y-80953277D01*
X96507551Y-81031408D01*
X96527876Y-81044700D01*
X96659244Y-81149995D01*
X96676640Y-81166938D01*
X96752126Y-81256183D01*
X96789309Y-81300144D01*
X96796703Y-81309794D01*
X97191591Y-81880187D01*
X98781000Y-84176000D01*
X100688109Y-84903804D01*
X100701939Y-84910061D01*
X100819102Y-84971833D01*
X100844024Y-84989096D01*
X100937307Y-85071981D01*
X100957383Y-85094699D01*
X101003021Y-85160963D01*
X101028159Y-85197463D01*
X101042229Y-85224325D01*
X101086404Y-85341025D01*
X101093648Y-85370470D01*
X101108381Y-85492017D01*
X101107746Y-85526890D01*
X101091867Y-85627147D01*
X101079685Y-85664638D01*
X101038854Y-85744774D01*
X100990106Y-85796390D01*
X100926587Y-85813572D01*
X100799500Y-85813572D01*
X100793432Y-85814779D01*
X100733439Y-85826712D01*
X100733438Y-85826712D01*
X100721269Y-85829133D01*
X100654948Y-85873448D01*
X100648057Y-85883761D01*
X100648053Y-85883765D01*
X100638541Y-85898001D01*
X100584065Y-85943529D01*
X100533776Y-85954000D01*
X94199187Y-85954000D01*
X94186837Y-85953393D01*
X94010260Y-85936001D01*
X93986043Y-85931185D01*
X93822190Y-85881482D01*
X93799371Y-85872029D01*
X93690005Y-85813572D01*
X93648369Y-85791317D01*
X93627842Y-85777601D01*
X93495479Y-85668974D01*
X93478026Y-85651521D01*
X93369399Y-85519158D01*
X93355681Y-85498628D01*
X93352148Y-85492017D01*
X93274971Y-85347629D01*
X93265518Y-85324809D01*
X93230704Y-85210042D01*
X93215815Y-85160957D01*
X93210998Y-85136737D01*
X93193607Y-84960163D01*
X93193000Y-84947813D01*
X93193000Y-81880187D01*
X93193607Y-81867837D01*
X93210998Y-81691263D01*
X93215815Y-81667043D01*
X93265518Y-81503190D01*
X93274971Y-81480371D01*
X93355681Y-81329372D01*
X93369399Y-81308842D01*
X93478026Y-81176479D01*
X93495479Y-81159026D01*
X93627842Y-81050399D01*
X93648369Y-81036683D01*
X93799371Y-80955971D01*
X93822191Y-80946518D01*
X93830057Y-80944132D01*
X93986043Y-80896815D01*
X94010260Y-80891999D01*
X94186837Y-80874607D01*
X94199187Y-80874000D01*
X95964956Y-80874000D01*
X95977099Y-80874586D01*
G37*
G04 #@! TD.AperFunction*
G04 #@! TA.AperFunction,Conductor*
G04 #@! TO.N,+BATT*
G36*
X110589949Y-59944607D02*
G01*
X110766527Y-59961999D01*
X110790744Y-59966815D01*
X110954596Y-60016518D01*
X110977416Y-60025971D01*
X111128412Y-60106680D01*
X111148950Y-60120403D01*
X111286114Y-60232971D01*
X111295275Y-60241275D01*
X112014000Y-60960000D01*
X112628242Y-60960000D01*
X112644688Y-60961078D01*
X112781168Y-60979046D01*
X112812940Y-60987559D01*
X112932426Y-61037052D01*
X112960909Y-61053496D01*
X113063518Y-61132231D01*
X113086769Y-61155482D01*
X113165504Y-61258091D01*
X113181948Y-61286574D01*
X113231441Y-61406060D01*
X113239954Y-61437832D01*
X113257922Y-61574312D01*
X113259000Y-61590758D01*
X113259000Y-65033813D01*
X113258393Y-65046163D01*
X113241002Y-65222737D01*
X113236185Y-65246957D01*
X113202200Y-65358994D01*
X113186482Y-65410809D01*
X113177029Y-65433629D01*
X113132628Y-65516699D01*
X113096319Y-65584628D01*
X113082601Y-65605158D01*
X112973974Y-65737521D01*
X112956521Y-65754974D01*
X112824158Y-65863601D01*
X112803631Y-65877317D01*
X112712363Y-65926101D01*
X112652629Y-65958029D01*
X112629810Y-65967482D01*
X112465957Y-66017185D01*
X112441740Y-66022001D01*
X112265163Y-66039393D01*
X112252813Y-66040000D01*
X108712000Y-66040000D01*
X108000646Y-66929193D01*
X107991248Y-66939677D01*
X107907601Y-67023099D01*
X107847994Y-67082545D01*
X107825952Y-67100081D01*
X107660570Y-67203775D01*
X107635184Y-67215976D01*
X107450899Y-67280341D01*
X107423435Y-67286598D01*
X107247383Y-67306400D01*
X107222417Y-67309208D01*
X107222399Y-67309210D01*
X107208316Y-67310000D01*
X106941079Y-67310000D01*
X106926971Y-67309208D01*
X106778543Y-67292484D01*
X106751037Y-67286206D01*
X106616784Y-67239228D01*
X106591365Y-67226987D01*
X106470918Y-67151306D01*
X106448858Y-67133713D01*
X106348287Y-67033142D01*
X106330694Y-67011082D01*
X106255013Y-66890635D01*
X106242772Y-66865216D01*
X106195795Y-66730965D01*
X106189516Y-66703457D01*
X106172792Y-66555029D01*
X106172000Y-66540921D01*
X106172000Y-66137874D01*
X106172765Y-66124012D01*
X106194671Y-65926101D01*
X106200733Y-65899051D01*
X106263119Y-65717328D01*
X106274951Y-65692256D01*
X106375568Y-65528577D01*
X106392591Y-65506705D01*
X106485885Y-65410809D01*
X106531448Y-65363975D01*
X106541661Y-65354574D01*
X107964028Y-64183213D01*
X107964036Y-64183206D01*
X108331000Y-63881000D01*
X108331000Y-60950187D01*
X108331607Y-60937837D01*
X108336745Y-60885675D01*
X108348999Y-60761260D01*
X108353815Y-60737043D01*
X108403518Y-60573190D01*
X108412971Y-60550371D01*
X108493681Y-60399372D01*
X108507399Y-60378842D01*
X108616026Y-60246479D01*
X108633479Y-60229026D01*
X108765842Y-60120399D01*
X108786369Y-60106683D01*
X108937371Y-60025971D01*
X108960191Y-60016518D01*
X109124043Y-59966815D01*
X109148260Y-59961999D01*
X109324837Y-59944607D01*
X109337187Y-59944000D01*
X110577599Y-59944000D01*
X110589949Y-59944607D01*
G37*
G04 #@! TD.AperFunction*
G04 #@! TD*
G04 #@! TA.AperFunction,Conductor*
G04 #@! TO.N,Net-(C4-Pad2)*
G36*
X104590121Y-59964002D02*
G01*
X104636614Y-60017658D01*
X104648000Y-60070000D01*
X104648000Y-64717810D01*
X104627998Y-64785931D01*
X104611095Y-64806905D01*
X102906905Y-66511095D01*
X102844593Y-66545121D01*
X102817810Y-66548000D01*
X102234000Y-66548000D01*
X102165879Y-66527998D01*
X102119386Y-66474342D01*
X102108000Y-66422000D01*
X102108000Y-64560124D01*
X102108361Y-64551859D01*
X102108302Y-64551180D01*
X102109263Y-64540193D01*
X102109198Y-64539949D01*
X102110096Y-64535480D01*
X102108000Y-64535480D01*
X102108000Y-64008000D01*
X101727000Y-63627000D01*
X101091000Y-63627000D01*
X101022879Y-63606998D01*
X100976386Y-63553342D01*
X100965000Y-63501000D01*
X100965000Y-62610000D01*
X100985002Y-62541879D01*
X101038658Y-62495386D01*
X101091000Y-62484000D01*
X102362000Y-62484000D01*
X102362000Y-60070000D01*
X102382002Y-60001879D01*
X102435658Y-59955386D01*
X102488000Y-59944000D01*
X104522000Y-59944000D01*
X104590121Y-59964002D01*
G37*
G04 #@! TD.AperFunction*
G04 #@! TD*
G04 #@! TA.AperFunction,NonConductor*
G36*
X104354621Y-80132002D02*
G01*
X104401114Y-80185658D01*
X104412500Y-80238000D01*
X104412500Y-84092916D01*
X104392498Y-84161037D01*
X104336134Y-84208728D01*
X103774473Y-84449440D01*
X102634500Y-84938000D01*
X102634500Y-85574000D01*
X102614498Y-85642121D01*
X102560842Y-85688614D01*
X102508500Y-85700000D01*
X102506500Y-85700000D01*
X102438379Y-85679998D01*
X102391886Y-85626342D01*
X102380500Y-85574000D01*
X102380500Y-84811000D01*
X102163405Y-84593905D01*
X102129379Y-84531593D01*
X102126500Y-84504810D01*
X102126500Y-80238000D01*
X102146502Y-80169879D01*
X102200158Y-80123386D01*
X102252500Y-80112000D01*
X104286500Y-80112000D01*
X104354621Y-80132002D01*
G37*
G04 #@! TD.AperFunction*
G04 #@! TA.AperFunction,Conductor*
G04 #@! TO.N,GND*
G36*
X105479121Y-65806002D02*
G01*
X105525614Y-65859658D01*
X105537000Y-65912000D01*
X105537000Y-67003810D01*
X105516998Y-67071931D01*
X105500095Y-67092905D01*
X105192905Y-67400095D01*
X105130593Y-67434121D01*
X105103810Y-67437000D01*
X103250000Y-67437000D01*
X103181879Y-67416998D01*
X103135386Y-67363342D01*
X103124000Y-67311000D01*
X103124000Y-66801000D01*
X103144002Y-66732879D01*
X103197658Y-66686386D01*
X103250000Y-66675000D01*
X104267000Y-66675000D01*
X104521000Y-66421000D01*
X104521000Y-65912000D01*
X104541002Y-65843879D01*
X104594658Y-65797386D01*
X104647000Y-65786000D01*
X105411000Y-65786000D01*
X105479121Y-65806002D01*
G37*
G04 #@! TD.AperFunction*
G04 #@! TD*
M02*
