G04 #@! TF.GenerationSoftware,KiCad,Pcbnew,(5.99.0-11522-g728b160719)*
G04 #@! TF.CreationDate,2021-08-06T10:01:32+10:00*
G04 #@! TF.ProjectId,OLED Deligate,4f4c4544-2044-4656-9c69-676174652e6b,rev?*
G04 #@! TF.SameCoordinates,Original*
G04 #@! TF.FileFunction,Paste,Top*
G04 #@! TF.FilePolarity,Positive*
%FSLAX46Y46*%
G04 Gerber Fmt 4.6, Leading zero omitted, Abs format (unit mm)*
G04 Created by KiCad (PCBNEW (5.99.0-11522-g728b160719)) date 2021-08-06 10:01:32*
%MOMM*%
%LPD*%
G01*
G04 APERTURE LIST*
G04 Aperture macros list*
%AMRoundRect*
0 Rectangle with rounded corners*
0 $1 Rounding radius*
0 $2 $3 $4 $5 $6 $7 $8 $9 X,Y pos of 4 corners*
0 Add a 4 corners polygon primitive as box body*
4,1,4,$2,$3,$4,$5,$6,$7,$8,$9,$2,$3,0*
0 Add four circle primitives for the rounded corners*
1,1,$1+$1,$2,$3*
1,1,$1+$1,$4,$5*
1,1,$1+$1,$6,$7*
1,1,$1+$1,$8,$9*
0 Add four rect primitives between the rounded corners*
20,1,$1+$1,$2,$3,$4,$5,0*
20,1,$1+$1,$4,$5,$6,$7,0*
20,1,$1+$1,$6,$7,$8,$9,0*
20,1,$1+$1,$8,$9,$2,$3,0*%
G04 Aperture macros list end*
G04 #@! TA.AperFunction,Profile*
%ADD10C,0.100000*%
G04 #@! TD*
%ADD11RoundRect,0.200000X0.275000X-0.200000X0.275000X0.200000X-0.275000X0.200000X-0.275000X-0.200000X0*%
%ADD12RoundRect,0.225000X-0.250000X0.225000X-0.250000X-0.225000X0.250000X-0.225000X0.250000X0.225000X0*%
%ADD13R,1.400000X1.200000*%
%ADD14RoundRect,0.200000X-0.275000X0.200000X-0.275000X-0.200000X0.275000X-0.200000X0.275000X0.200000X0*%
%ADD15RoundRect,0.225000X-0.225000X-0.250000X0.225000X-0.250000X0.225000X0.250000X-0.225000X0.250000X0*%
%ADD16RoundRect,0.225000X0.225000X0.250000X-0.225000X0.250000X-0.225000X-0.250000X0.225000X-0.250000X0*%
%ADD17R,0.550000X1.600000*%
%ADD18R,1.600000X0.550000*%
G04 APERTURE END LIST*
D10*
X143027000Y-94107000D02*
X122961000Y-94107000D01*
X122961000Y-94107000D02*
X122961000Y-74041000D01*
X122961000Y-74041000D02*
X143027000Y-74041000D01*
X143027000Y-74041000D02*
X143027000Y-94107000D01*
D11*
G04 #@! TO.C,R3*
X125984000Y-83883000D03*
X125984000Y-82233000D03*
G04 #@! TD*
D12*
G04 #@! TO.C,C4*
X139954000Y-88887000D03*
X139954000Y-90437000D03*
G04 #@! TD*
D13*
G04 #@! TO.C,Y1*
X135806000Y-90512000D03*
X138006000Y-90512000D03*
X138006000Y-88812000D03*
X135806000Y-88812000D03*
G04 #@! TD*
D14*
G04 #@! TO.C,R2*
X125984000Y-79185000D03*
X125984000Y-80835000D03*
G04 #@! TD*
D15*
G04 #@! TO.C,C1*
X129781000Y-75946000D03*
X131331000Y-75946000D03*
G04 #@! TD*
D11*
G04 #@! TO.C,R1*
X125984000Y-86931000D03*
X125984000Y-85281000D03*
G04 #@! TD*
D16*
G04 #@! TO.C,C3*
X137205000Y-92270000D03*
X135655000Y-92270000D03*
G04 #@! TD*
G04 #@! TO.C,C2*
X134379000Y-75946000D03*
X132829000Y-75946000D03*
G04 #@! TD*
D17*
G04 #@! TO.C,U1*
X129788000Y-86546000D03*
X130588000Y-86546000D03*
X131388000Y-86546000D03*
X132188000Y-86546000D03*
X132988000Y-86546000D03*
X133788000Y-86546000D03*
X134588000Y-86546000D03*
X135388000Y-86546000D03*
D18*
X136838000Y-85096000D03*
X136838000Y-84296000D03*
X136838000Y-83496000D03*
X136838000Y-82696000D03*
X136838000Y-81896000D03*
X136838000Y-81096000D03*
X136838000Y-80296000D03*
X136838000Y-79496000D03*
D17*
X135388000Y-78046000D03*
X134588000Y-78046000D03*
X133788000Y-78046000D03*
X132988000Y-78046000D03*
X132188000Y-78046000D03*
X131388000Y-78046000D03*
X130588000Y-78046000D03*
X129788000Y-78046000D03*
D18*
X128338000Y-79496000D03*
X128338000Y-80296000D03*
X128338000Y-81096000D03*
X128338000Y-81896000D03*
X128338000Y-82696000D03*
X128338000Y-83496000D03*
X128338000Y-84296000D03*
X128338000Y-85096000D03*
G04 #@! TD*
M02*
