G04 #@! TF.GenerationSoftware,KiCad,Pcbnew,(5.99.0-11522-g728b160719)*
G04 #@! TF.CreationDate,2021-08-06T10:01:32+10:00*
G04 #@! TF.ProjectId,OLED Deligate,4f4c4544-2044-4656-9c69-676174652e6b,rev?*
G04 #@! TF.SameCoordinates,Original*
G04 #@! TF.FileFunction,Copper,L2,Bot*
G04 #@! TF.FilePolarity,Positive*
%FSLAX46Y46*%
G04 Gerber Fmt 4.6, Leading zero omitted, Abs format (unit mm)*
G04 Created by KiCad (PCBNEW (5.99.0-11522-g728b160719)) date 2021-08-06 10:01:32*
%MOMM*%
%LPD*%
G01*
G04 APERTURE LIST*
G04 #@! TA.AperFunction,Profile*
%ADD10C,0.100000*%
G04 #@! TD*
G04 #@! TA.AperFunction,ComponentPad*
%ADD11R,1.700000X1.700000*%
G04 #@! TD*
G04 #@! TA.AperFunction,ComponentPad*
%ADD12O,1.700000X1.700000*%
G04 #@! TD*
G04 #@! TA.AperFunction,ViaPad*
%ADD13C,0.800000*%
G04 #@! TD*
G04 #@! TA.AperFunction,Conductor*
%ADD14C,0.250000*%
G04 #@! TD*
G04 APERTURE END LIST*
D10*
X143027000Y-94107000D02*
X122961000Y-94107000D01*
X122961000Y-94107000D02*
X122961000Y-74041000D01*
X122961000Y-74041000D02*
X143027000Y-74041000D01*
X143027000Y-74041000D02*
X143027000Y-94107000D01*
D11*
G04 #@! TO.P,J2,1,Pin_1*
G04 #@! TO.N,/ICSP MISO*
X131826000Y-92202000D03*
D12*
G04 #@! TO.P,J2,2,Pin_2*
G04 #@! TO.N,+3V3*
X131826000Y-89662000D03*
G04 #@! TO.P,J2,3,Pin_3*
G04 #@! TO.N,/ICSP SCK*
X129286000Y-92202000D03*
G04 #@! TO.P,J2,4,Pin_4*
G04 #@! TO.N,/ICSP MOSI*
X129286000Y-89662000D03*
G04 #@! TO.P,J2,5,Pin_5*
G04 #@! TO.N,/ICSP RST*
X126746000Y-92202000D03*
G04 #@! TO.P,J2,6,Pin_6*
G04 #@! TO.N,GND*
X126746000Y-89662000D03*
G04 #@! TD*
D11*
G04 #@! TO.P,J3,1,Pin_1*
G04 #@! TO.N,N/C*
X143027000Y-77749000D03*
D12*
G04 #@! TO.P,J3,2,Pin_2*
X143027000Y-80289000D03*
G04 #@! TO.P,J3,3,Pin_3*
G04 #@! TO.N,/OLED SDA*
X143027000Y-82829000D03*
G04 #@! TO.P,J3,4,Pin_4*
G04 #@! TO.N,/OLED SCL*
X143027000Y-85369000D03*
G04 #@! TO.P,J3,5,Pin_5*
G04 #@! TO.N,N/C*
X143027000Y-87909000D03*
G04 #@! TO.P,J3,6,Pin_6*
X143027000Y-90449000D03*
G04 #@! TD*
D11*
G04 #@! TO.P,J1,1,Pin_1*
G04 #@! TO.N,N/C*
X122961000Y-77749000D03*
D12*
G04 #@! TO.P,J1,2,Pin_2*
G04 #@! TO.N,+3V3*
X122961000Y-80289000D03*
G04 #@! TO.P,J1,3,Pin_3*
G04 #@! TO.N,/HOST SDA*
X122961000Y-82829000D03*
G04 #@! TO.P,J1,4,Pin_4*
G04 #@! TO.N,/HOST SCL*
X122961000Y-85369000D03*
G04 #@! TO.P,J1,5,Pin_5*
G04 #@! TO.N,GND*
X122961000Y-87909000D03*
G04 #@! TO.P,J1,6,Pin_6*
G04 #@! TO.N,N/C*
X122961000Y-90449000D03*
G04 #@! TD*
D13*
G04 #@! TO.N,GND*
X133017500Y-87683463D03*
X132334000Y-80264000D03*
X129781000Y-75946000D03*
X132829000Y-75946000D03*
X135806000Y-88812000D03*
G04 #@! TO.N,+3V3*
X125984000Y-85344000D03*
X128016000Y-90678000D03*
X125984000Y-84074000D03*
G04 #@! TO.N,/ICSP MISO*
X131588034Y-83153989D03*
G04 #@! TO.N,/ICSP SCK*
X131318000Y-81534000D03*
G04 #@! TO.N,/ICSP MOSI*
X130139033Y-83357015D03*
G04 #@! TO.N,/OLED SDA*
X134450916Y-83840604D03*
G04 #@! TO.N,/OLED SCL*
X133742000Y-84545192D03*
G04 #@! TD*
D14*
G04 #@! TO.N,GND*
X124714000Y-89662000D02*
X123086020Y-88034020D01*
X132334000Y-80264000D02*
X133017500Y-80947500D01*
X132829000Y-75946000D02*
X129781000Y-75946000D01*
X134146037Y-88812000D02*
X135806000Y-88812000D01*
X126746000Y-89662000D02*
X124714000Y-89662000D01*
X133017500Y-80947500D02*
X133017500Y-87683463D01*
X133017500Y-87683463D02*
X134146037Y-88812000D01*
G04 #@! TO.N,+3V3*
X128016000Y-87376000D02*
X125984000Y-85344000D01*
X125984000Y-84074000D02*
X125984000Y-83186980D01*
X125984000Y-83186980D02*
X123086020Y-80289000D01*
X125984000Y-85344000D02*
X125984000Y-84074000D01*
X128016000Y-90678000D02*
X128016000Y-87376000D01*
G04 #@! TO.N,/ICSP MISO*
X132113190Y-84234894D02*
X131884489Y-84006193D01*
X131884489Y-83450444D02*
X131588034Y-83153989D01*
X133000511Y-91027489D02*
X133000511Y-89058511D01*
X132113190Y-88171190D02*
X132113190Y-84234894D01*
X133000511Y-89058511D02*
X132113190Y-88171190D01*
X131826000Y-92202000D02*
X133000511Y-91027489D01*
X131884489Y-84006193D02*
X131884489Y-83450444D01*
G04 #@! TO.N,/ICSP SCK*
X130460511Y-91027489D02*
X129286000Y-92202000D01*
X130460511Y-89249489D02*
X130460511Y-91027489D01*
X131288363Y-83960003D02*
X131288363Y-88421637D01*
X130863533Y-83535173D02*
X131288363Y-83960003D01*
X131287935Y-81564065D02*
X131287935Y-82429488D01*
X131318000Y-81534000D02*
X131287935Y-81564065D01*
X131287935Y-82429488D02*
X130863533Y-82853890D01*
X131288363Y-88421637D02*
X130460511Y-89249489D01*
X130863533Y-82853890D02*
X130863533Y-83535173D01*
G04 #@! TO.N,/ICSP MOSI*
X129286000Y-84210048D02*
X130139033Y-83357015D01*
X129286000Y-89662000D02*
X129286000Y-84210048D01*
G04 #@! TO.N,/OLED SDA*
X142901980Y-82829000D02*
X135462520Y-82829000D01*
X135462520Y-82829000D02*
X134450916Y-83840604D01*
G04 #@! TO.N,/OLED SCL*
X134565808Y-85369000D02*
X133742000Y-84545192D01*
X142901980Y-85369000D02*
X134565808Y-85369000D01*
G04 #@! TD*
M02*
