M48
; DRILL file {KiCad (5.99.0-11522-g728b160719)} date Fri Aug  6 10:01:32 2021
; FORMAT={-:-/ absolute / metric / decimal}
; #@! TF.CreationDate,2021-08-06T10:01:32+10:00
; #@! TF.GenerationSoftware,Kicad,Pcbnew,(5.99.0-11522-g728b160719)
; #@! TF.FileFunction,MixedPlating,1,2
FMAT,2
METRIC
; #@! TA.AperFunction,Plated,PTH,ViaDrill
T1C0.400
; #@! TA.AperFunction,Plated,PTH,ComponentDrill
T2C1.000
%
G90
G05
T1
X125.984Y-84.074
X125.984Y-85.344
X128.016Y-90.678
X129.781Y-75.946
X130.139Y-83.357
X131.318Y-81.534
X131.588Y-83.154
X132.334Y-80.264
X132.829Y-75.946
X133.017Y-87.683
X133.742Y-84.545
X134.451Y-83.841
X135.806Y-88.812
T2
X122.961Y-77.749
X122.961Y-80.289
X122.961Y-82.829
X122.961Y-85.369
X122.961Y-87.909
X122.961Y-90.449
X126.746Y-89.662
X126.746Y-92.202
X129.286Y-89.662
X129.286Y-92.202
X131.826Y-89.662
X131.826Y-92.202
X143.027Y-77.749
X143.027Y-80.289
X143.027Y-82.829
X143.027Y-85.369
X143.027Y-87.909
X143.027Y-90.449
T0
M30
