G04 #@! TF.GenerationSoftware,KiCad,Pcbnew,(5.99.0-11522-g728b160719)*
G04 #@! TF.CreationDate,2021-08-06T10:01:32+10:00*
G04 #@! TF.ProjectId,OLED Deligate,4f4c4544-2044-4656-9c69-676174652e6b,rev?*
G04 #@! TF.SameCoordinates,Original*
G04 #@! TF.FileFunction,Legend,Top*
G04 #@! TF.FilePolarity,Positive*
%FSLAX46Y46*%
G04 Gerber Fmt 4.6, Leading zero omitted, Abs format (unit mm)*
G04 Created by KiCad (PCBNEW (5.99.0-11522-g728b160719)) date 2021-08-06 10:01:32*
%MOMM*%
%LPD*%
G01*
G04 APERTURE LIST*
G04 #@! TA.AperFunction,Profile*
%ADD10C,0.100000*%
G04 #@! TD*
%ADD11C,0.150000*%
%ADD12C,0.120000*%
G04 APERTURE END LIST*
D10*
X143027000Y-94107000D02*
X122961000Y-94107000D01*
X122961000Y-94107000D02*
X122961000Y-74041000D01*
X122961000Y-74041000D02*
X143027000Y-74041000D01*
X143027000Y-74041000D02*
X143027000Y-94107000D01*
D11*
G04 #@! TO.C,C4*
X140819142Y-87288666D02*
X140866761Y-87336285D01*
X140914380Y-87479142D01*
X140914380Y-87574380D01*
X140866761Y-87717238D01*
X140771523Y-87812476D01*
X140676285Y-87860095D01*
X140485809Y-87907714D01*
X140342952Y-87907714D01*
X140152476Y-87860095D01*
X140057238Y-87812476D01*
X139962000Y-87717238D01*
X139914380Y-87574380D01*
X139914380Y-87479142D01*
X139962000Y-87336285D01*
X140009619Y-87288666D01*
X140247714Y-86431523D02*
X140914380Y-86431523D01*
X139866761Y-86669619D02*
X140581047Y-86907714D01*
X140581047Y-86288666D01*
G04 #@! TO.C,J2*
X133572380Y-93297333D02*
X134286666Y-93297333D01*
X134429523Y-93344952D01*
X134524761Y-93440190D01*
X134572380Y-93583047D01*
X134572380Y-93678285D01*
X133667619Y-92868761D02*
X133620000Y-92821142D01*
X133572380Y-92725904D01*
X133572380Y-92487809D01*
X133620000Y-92392571D01*
X133667619Y-92344952D01*
X133762857Y-92297333D01*
X133858095Y-92297333D01*
X134000952Y-92344952D01*
X134572380Y-92916380D01*
X134572380Y-92297333D01*
G04 #@! TO.C,J3*
X141652666Y-74661380D02*
X141652666Y-75375666D01*
X141605047Y-75518523D01*
X141509809Y-75613761D01*
X141366952Y-75661380D01*
X141271714Y-75661380D01*
X142033619Y-74661380D02*
X142652666Y-74661380D01*
X142319333Y-75042333D01*
X142462190Y-75042333D01*
X142557428Y-75089952D01*
X142605047Y-75137571D01*
X142652666Y-75232809D01*
X142652666Y-75470904D01*
X142605047Y-75566142D01*
X142557428Y-75613761D01*
X142462190Y-75661380D01*
X142176476Y-75661380D01*
X142081238Y-75613761D01*
X142033619Y-75566142D01*
G04 #@! TO.C,Y1*
X138461809Y-87188190D02*
X138461809Y-87664380D01*
X138128476Y-86664380D02*
X138461809Y-87188190D01*
X138795142Y-86664380D01*
X139652285Y-87664380D02*
X139080857Y-87664380D01*
X139366571Y-87664380D02*
X139366571Y-86664380D01*
X139271333Y-86807238D01*
X139176095Y-86902476D01*
X139080857Y-86950095D01*
G04 #@! TO.C,C1*
X127849333Y-76303142D02*
X127801714Y-76350761D01*
X127658857Y-76398380D01*
X127563619Y-76398380D01*
X127420761Y-76350761D01*
X127325523Y-76255523D01*
X127277904Y-76160285D01*
X127230285Y-75969809D01*
X127230285Y-75826952D01*
X127277904Y-75636476D01*
X127325523Y-75541238D01*
X127420761Y-75446000D01*
X127563619Y-75398380D01*
X127658857Y-75398380D01*
X127801714Y-75446000D01*
X127849333Y-75493619D01*
X128801714Y-76398380D02*
X128230285Y-76398380D01*
X128516000Y-76398380D02*
X128516000Y-75398380D01*
X128420761Y-75541238D01*
X128325523Y-75636476D01*
X128230285Y-75684095D01*
G04 #@! TO.C,J1*
X123643666Y-74661380D02*
X123643666Y-75375666D01*
X123596047Y-75518523D01*
X123500809Y-75613761D01*
X123357952Y-75661380D01*
X123262714Y-75661380D01*
X124643666Y-75661380D02*
X124072238Y-75661380D01*
X124357952Y-75661380D02*
X124357952Y-74661380D01*
X124262714Y-74804238D01*
X124167476Y-74899476D01*
X124072238Y-74947095D01*
G04 #@! TO.C,C3*
X138771333Y-92813142D02*
X138723714Y-92860761D01*
X138580857Y-92908380D01*
X138485619Y-92908380D01*
X138342761Y-92860761D01*
X138247523Y-92765523D01*
X138199904Y-92670285D01*
X138152285Y-92479809D01*
X138152285Y-92336952D01*
X138199904Y-92146476D01*
X138247523Y-92051238D01*
X138342761Y-91956000D01*
X138485619Y-91908380D01*
X138580857Y-91908380D01*
X138723714Y-91956000D01*
X138771333Y-92003619D01*
X139104666Y-91908380D02*
X139723714Y-91908380D01*
X139390380Y-92289333D01*
X139533238Y-92289333D01*
X139628476Y-92336952D01*
X139676095Y-92384571D01*
X139723714Y-92479809D01*
X139723714Y-92717904D01*
X139676095Y-92813142D01*
X139628476Y-92860761D01*
X139533238Y-92908380D01*
X139247523Y-92908380D01*
X139152285Y-92860761D01*
X139104666Y-92813142D01*
G04 #@! TO.C,C2*
X135977333Y-76303142D02*
X135929714Y-76350761D01*
X135786857Y-76398380D01*
X135691619Y-76398380D01*
X135548761Y-76350761D01*
X135453523Y-76255523D01*
X135405904Y-76160285D01*
X135358285Y-75969809D01*
X135358285Y-75826952D01*
X135405904Y-75636476D01*
X135453523Y-75541238D01*
X135548761Y-75446000D01*
X135691619Y-75398380D01*
X135786857Y-75398380D01*
X135929714Y-75446000D01*
X135977333Y-75493619D01*
X136358285Y-75493619D02*
X136405904Y-75446000D01*
X136501142Y-75398380D01*
X136739238Y-75398380D01*
X136834476Y-75446000D01*
X136882095Y-75493619D01*
X136929714Y-75588857D01*
X136929714Y-75684095D01*
X136882095Y-75826952D01*
X136310666Y-76398380D01*
X136929714Y-76398380D01*
G04 #@! TO.C,U1*
X125944380Y-78485904D02*
X126753904Y-78485904D01*
X126849142Y-78438285D01*
X126896761Y-78390666D01*
X126944380Y-78295428D01*
X126944380Y-78104952D01*
X126896761Y-78009714D01*
X126849142Y-77962095D01*
X126753904Y-77914476D01*
X125944380Y-77914476D01*
X126944380Y-76914476D02*
X126944380Y-77485904D01*
X126944380Y-77200190D02*
X125944380Y-77200190D01*
X126087238Y-77295428D01*
X126182476Y-77390666D01*
X126230095Y-77485904D01*
D12*
G04 #@! TO.C,R3*
X126506500Y-83295258D02*
X126506500Y-82820742D01*
X125461500Y-83295258D02*
X125461500Y-82820742D01*
G04 #@! TO.C,C4*
X139444000Y-89521420D02*
X139444000Y-89802580D01*
X140464000Y-89521420D02*
X140464000Y-89802580D01*
G04 #@! TO.C,J2*
X133156000Y-93532000D02*
X131826000Y-93532000D01*
X133156000Y-88332000D02*
X133156000Y-90932000D01*
X125416000Y-88332000D02*
X125416000Y-93532000D01*
X133156000Y-88332000D02*
X125416000Y-88332000D01*
X130556000Y-90932000D02*
X130556000Y-93532000D01*
X130556000Y-93532000D02*
X125416000Y-93532000D01*
X133156000Y-90932000D02*
X130556000Y-90932000D01*
X133156000Y-92202000D02*
X133156000Y-93532000D01*
G04 #@! TO.C,J3*
X144357000Y-79019000D02*
X144357000Y-91779000D01*
X141697000Y-79019000D02*
X141697000Y-91779000D01*
X141697000Y-91779000D02*
X144357000Y-91779000D01*
X141697000Y-79019000D02*
X144357000Y-79019000D01*
X143027000Y-76419000D02*
X144357000Y-76419000D01*
X144357000Y-76419000D02*
X144357000Y-77749000D01*
G04 #@! TO.C,Y1*
X134906000Y-88012000D02*
X134906000Y-91312000D01*
X134906000Y-91312000D02*
X138906000Y-91312000D01*
G04 #@! TO.C,R2*
X125461500Y-79772742D02*
X125461500Y-80247258D01*
X126506500Y-79772742D02*
X126506500Y-80247258D01*
G04 #@! TO.C,C1*
X130415420Y-75436000D02*
X130696580Y-75436000D01*
X130415420Y-76456000D02*
X130696580Y-76456000D01*
G04 #@! TO.C,R1*
X125461500Y-86343258D02*
X125461500Y-85868742D01*
X126506500Y-86343258D02*
X126506500Y-85868742D01*
G04 #@! TO.C,J1*
X124291000Y-79019000D02*
X124291000Y-91779000D01*
X124291000Y-76419000D02*
X124291000Y-77749000D01*
X121631000Y-79019000D02*
X121631000Y-91779000D01*
X122961000Y-76419000D02*
X124291000Y-76419000D01*
X121631000Y-91779000D02*
X124291000Y-91779000D01*
X121631000Y-79019000D02*
X124291000Y-79019000D01*
G04 #@! TO.C,C3*
X136570580Y-91760000D02*
X136289420Y-91760000D01*
X136570580Y-92780000D02*
X136289420Y-92780000D01*
G04 #@! TO.C,C2*
X133744580Y-75436000D02*
X133463420Y-75436000D01*
X133744580Y-76456000D02*
X133463420Y-76456000D01*
D11*
G04 #@! TO.C,U1*
X136213000Y-78671000D02*
X136213000Y-78996000D01*
X128963000Y-78671000D02*
X128963000Y-78996000D01*
X136213000Y-78671000D02*
X135888000Y-78671000D01*
X129188000Y-85921000D02*
X129188000Y-87346000D01*
X128963000Y-85921000D02*
X129188000Y-85921000D01*
X136213000Y-85921000D02*
X136213000Y-85596000D01*
X128963000Y-85921000D02*
X128963000Y-85596000D01*
X136213000Y-85921000D02*
X135888000Y-85921000D01*
X128963000Y-78671000D02*
X129288000Y-78671000D01*
G04 #@! TD*
M02*
