G04 #@! TF.GenerationSoftware,KiCad,Pcbnew,(5.99.0-11522-g728b160719)*
G04 #@! TF.CreationDate,2021-08-06T10:01:32+10:00*
G04 #@! TF.ProjectId,OLED Deligate,4f4c4544-2044-4656-9c69-676174652e6b,rev?*
G04 #@! TF.SameCoordinates,Original*
G04 #@! TF.FileFunction,Copper,L1,Top*
G04 #@! TF.FilePolarity,Positive*
%FSLAX46Y46*%
G04 Gerber Fmt 4.6, Leading zero omitted, Abs format (unit mm)*
G04 Created by KiCad (PCBNEW (5.99.0-11522-g728b160719)) date 2021-08-06 10:01:32*
%MOMM*%
%LPD*%
G01*
G04 APERTURE LIST*
G04 Aperture macros list*
%AMRoundRect*
0 Rectangle with rounded corners*
0 $1 Rounding radius*
0 $2 $3 $4 $5 $6 $7 $8 $9 X,Y pos of 4 corners*
0 Add a 4 corners polygon primitive as box body*
4,1,4,$2,$3,$4,$5,$6,$7,$8,$9,$2,$3,0*
0 Add four circle primitives for the rounded corners*
1,1,$1+$1,$2,$3*
1,1,$1+$1,$4,$5*
1,1,$1+$1,$6,$7*
1,1,$1+$1,$8,$9*
0 Add four rect primitives between the rounded corners*
20,1,$1+$1,$2,$3,$4,$5,0*
20,1,$1+$1,$4,$5,$6,$7,0*
20,1,$1+$1,$6,$7,$8,$9,0*
20,1,$1+$1,$8,$9,$2,$3,0*%
G04 Aperture macros list end*
G04 #@! TA.AperFunction,Profile*
%ADD10C,0.100000*%
G04 #@! TD*
G04 #@! TA.AperFunction,SMDPad,CuDef*
%ADD11RoundRect,0.200000X0.275000X-0.200000X0.275000X0.200000X-0.275000X0.200000X-0.275000X-0.200000X0*%
G04 #@! TD*
G04 #@! TA.AperFunction,SMDPad,CuDef*
%ADD12RoundRect,0.225000X-0.250000X0.225000X-0.250000X-0.225000X0.250000X-0.225000X0.250000X0.225000X0*%
G04 #@! TD*
G04 #@! TA.AperFunction,ComponentPad*
%ADD13R,1.700000X1.700000*%
G04 #@! TD*
G04 #@! TA.AperFunction,ComponentPad*
%ADD14O,1.700000X1.700000*%
G04 #@! TD*
G04 #@! TA.AperFunction,SMDPad,CuDef*
%ADD15R,1.400000X1.200000*%
G04 #@! TD*
G04 #@! TA.AperFunction,SMDPad,CuDef*
%ADD16RoundRect,0.200000X-0.275000X0.200000X-0.275000X-0.200000X0.275000X-0.200000X0.275000X0.200000X0*%
G04 #@! TD*
G04 #@! TA.AperFunction,SMDPad,CuDef*
%ADD17RoundRect,0.225000X-0.225000X-0.250000X0.225000X-0.250000X0.225000X0.250000X-0.225000X0.250000X0*%
G04 #@! TD*
G04 #@! TA.AperFunction,SMDPad,CuDef*
%ADD18RoundRect,0.225000X0.225000X0.250000X-0.225000X0.250000X-0.225000X-0.250000X0.225000X-0.250000X0*%
G04 #@! TD*
G04 #@! TA.AperFunction,SMDPad,CuDef*
%ADD19R,0.550000X1.600000*%
G04 #@! TD*
G04 #@! TA.AperFunction,SMDPad,CuDef*
%ADD20R,1.600000X0.550000*%
G04 #@! TD*
G04 #@! TA.AperFunction,ViaPad*
%ADD21C,0.800000*%
G04 #@! TD*
G04 #@! TA.AperFunction,Conductor*
%ADD22C,0.250000*%
G04 #@! TD*
G04 APERTURE END LIST*
D10*
X143027000Y-94107000D02*
X122961000Y-94107000D01*
X122961000Y-94107000D02*
X122961000Y-74041000D01*
X122961000Y-74041000D02*
X143027000Y-74041000D01*
X143027000Y-74041000D02*
X143027000Y-94107000D01*
D11*
G04 #@! TO.P,R3,1*
G04 #@! TO.N,+3V3*
X125984000Y-83883000D03*
G04 #@! TO.P,R3,2*
G04 #@! TO.N,/HOST SCL*
X125984000Y-82233000D03*
G04 #@! TD*
D12*
G04 #@! TO.P,C4,1*
G04 #@! TO.N,/XTAL2*
X139954000Y-88887000D03*
G04 #@! TO.P,C4,2*
G04 #@! TO.N,GND*
X139954000Y-90437000D03*
G04 #@! TD*
D13*
G04 #@! TO.P,J2,1,Pin_1*
G04 #@! TO.N,/ICSP MISO*
X131826000Y-92202000D03*
D14*
G04 #@! TO.P,J2,2,Pin_2*
G04 #@! TO.N,+3V3*
X131826000Y-89662000D03*
G04 #@! TO.P,J2,3,Pin_3*
G04 #@! TO.N,/ICSP SCK*
X129286000Y-92202000D03*
G04 #@! TO.P,J2,4,Pin_4*
G04 #@! TO.N,/ICSP MOSI*
X129286000Y-89662000D03*
G04 #@! TO.P,J2,5,Pin_5*
G04 #@! TO.N,/ICSP RST*
X126746000Y-92202000D03*
G04 #@! TO.P,J2,6,Pin_6*
G04 #@! TO.N,GND*
X126746000Y-89662000D03*
G04 #@! TD*
D13*
G04 #@! TO.P,J3,1,Pin_1*
G04 #@! TO.N,N/C*
X143027000Y-77749000D03*
D14*
G04 #@! TO.P,J3,2,Pin_2*
X143027000Y-80289000D03*
G04 #@! TO.P,J3,3,Pin_3*
G04 #@! TO.N,/OLED SDA*
X143027000Y-82829000D03*
G04 #@! TO.P,J3,4,Pin_4*
G04 #@! TO.N,/OLED SCL*
X143027000Y-85369000D03*
G04 #@! TO.P,J3,5,Pin_5*
G04 #@! TO.N,N/C*
X143027000Y-87909000D03*
G04 #@! TO.P,J3,6,Pin_6*
X143027000Y-90449000D03*
G04 #@! TD*
D15*
G04 #@! TO.P,Y1,1,1*
G04 #@! TO.N,/XTAL1*
X135806000Y-90512000D03*
G04 #@! TO.P,Y1,2,2*
G04 #@! TO.N,GND*
X138006000Y-90512000D03*
G04 #@! TO.P,Y1,3,3*
G04 #@! TO.N,/XTAL2*
X138006000Y-88812000D03*
G04 #@! TO.P,Y1,4,4*
G04 #@! TO.N,GND*
X135806000Y-88812000D03*
G04 #@! TD*
D16*
G04 #@! TO.P,R2,1*
G04 #@! TO.N,+3V3*
X125984000Y-79185000D03*
G04 #@! TO.P,R2,2*
G04 #@! TO.N,/HOST SDA*
X125984000Y-80835000D03*
G04 #@! TD*
D17*
G04 #@! TO.P,C1,1*
G04 #@! TO.N,GND*
X129781000Y-75946000D03*
G04 #@! TO.P,C1,2*
G04 #@! TO.N,Net-(C1-Pad2)*
X131331000Y-75946000D03*
G04 #@! TD*
D11*
G04 #@! TO.P,R1,1*
G04 #@! TO.N,/ICSP RST*
X125984000Y-86931000D03*
G04 #@! TO.P,R1,2*
G04 #@! TO.N,+3V3*
X125984000Y-85281000D03*
G04 #@! TD*
D13*
G04 #@! TO.P,J1,1,Pin_1*
G04 #@! TO.N,N/C*
X122961000Y-77749000D03*
D14*
G04 #@! TO.P,J1,2,Pin_2*
G04 #@! TO.N,+3V3*
X122961000Y-80289000D03*
G04 #@! TO.P,J1,3,Pin_3*
G04 #@! TO.N,/HOST SDA*
X122961000Y-82829000D03*
G04 #@! TO.P,J1,4,Pin_4*
G04 #@! TO.N,/HOST SCL*
X122961000Y-85369000D03*
G04 #@! TO.P,J1,5,Pin_5*
G04 #@! TO.N,GND*
X122961000Y-87909000D03*
G04 #@! TO.P,J1,6,Pin_6*
G04 #@! TO.N,N/C*
X122961000Y-90449000D03*
G04 #@! TD*
D18*
G04 #@! TO.P,C3,1*
G04 #@! TO.N,GND*
X137205000Y-92270000D03*
G04 #@! TO.P,C3,2*
G04 #@! TO.N,/XTAL1*
X135655000Y-92270000D03*
G04 #@! TD*
G04 #@! TO.P,C2,1*
G04 #@! TO.N,+3V3*
X134379000Y-75946000D03*
G04 #@! TO.P,C2,2*
G04 #@! TO.N,GND*
X132829000Y-75946000D03*
G04 #@! TD*
D19*
G04 #@! TO.P,U1,1,PD3*
G04 #@! TO.N,/OLED SDA*
X129788000Y-86546000D03*
G04 #@! TO.P,U1,2,PD4*
G04 #@! TO.N,N/C*
X130588000Y-86546000D03*
G04 #@! TO.P,U1,3,GND*
G04 #@! TO.N,GND*
X131388000Y-86546000D03*
G04 #@! TO.P,U1,4,VCC*
G04 #@! TO.N,+3V3*
X132188000Y-86546000D03*
G04 #@! TO.P,U1,5,GND*
G04 #@! TO.N,GND*
X132988000Y-86546000D03*
G04 #@! TO.P,U1,6,VCC*
G04 #@! TO.N,+3V3*
X133788000Y-86546000D03*
G04 #@! TO.P,U1,7,XTAL1/PB6*
G04 #@! TO.N,/XTAL1*
X134588000Y-86546000D03*
G04 #@! TO.P,U1,8,XTAL2/PB7*
G04 #@! TO.N,/XTAL2*
X135388000Y-86546000D03*
D20*
G04 #@! TO.P,U1,9,PD5*
G04 #@! TO.N,N/C*
X136838000Y-85096000D03*
G04 #@! TO.P,U1,10,PD6*
X136838000Y-84296000D03*
G04 #@! TO.P,U1,11,PD7*
X136838000Y-83496000D03*
G04 #@! TO.P,U1,12,PB0*
X136838000Y-82696000D03*
G04 #@! TO.P,U1,13,PB1*
X136838000Y-81896000D03*
G04 #@! TO.P,U1,14,PB2*
X136838000Y-81096000D03*
G04 #@! TO.P,U1,15,PB3*
G04 #@! TO.N,/ICSP MOSI*
X136838000Y-80296000D03*
G04 #@! TO.P,U1,16,PB4*
G04 #@! TO.N,/ICSP MISO*
X136838000Y-79496000D03*
D19*
G04 #@! TO.P,U1,17,PB5*
G04 #@! TO.N,/ICSP SCK*
X135388000Y-78046000D03*
G04 #@! TO.P,U1,18,AVCC*
G04 #@! TO.N,+3V3*
X134588000Y-78046000D03*
G04 #@! TO.P,U1,19,ADC6*
G04 #@! TO.N,N/C*
X133788000Y-78046000D03*
G04 #@! TO.P,U1,20,AREF*
G04 #@! TO.N,Net-(C1-Pad2)*
X132988000Y-78046000D03*
G04 #@! TO.P,U1,21,GND*
G04 #@! TO.N,GND*
X132188000Y-78046000D03*
G04 #@! TO.P,U1,22,ADC7*
G04 #@! TO.N,N/C*
X131388000Y-78046000D03*
G04 #@! TO.P,U1,23,PC0*
X130588000Y-78046000D03*
G04 #@! TO.P,U1,24,PC1*
X129788000Y-78046000D03*
D20*
G04 #@! TO.P,U1,25,PC2*
X128338000Y-79496000D03*
G04 #@! TO.P,U1,26,PC3*
X128338000Y-80296000D03*
G04 #@! TO.P,U1,27,PC4*
G04 #@! TO.N,/HOST SDA*
X128338000Y-81096000D03*
G04 #@! TO.P,U1,28,PC5*
G04 #@! TO.N,/HOST SCL*
X128338000Y-81896000D03*
G04 #@! TO.P,U1,29,~RESET~/PC6*
G04 #@! TO.N,/ICSP RST*
X128338000Y-82696000D03*
G04 #@! TO.P,U1,30,PD0*
G04 #@! TO.N,N/C*
X128338000Y-83496000D03*
G04 #@! TO.P,U1,31,PD1*
X128338000Y-84296000D03*
G04 #@! TO.P,U1,32,PD2*
G04 #@! TO.N,/OLED SCL*
X128338000Y-85096000D03*
G04 #@! TD*
D21*
G04 #@! TO.N,GND*
X133017500Y-87683463D03*
X132334000Y-80264000D03*
X129781000Y-75946000D03*
X132829000Y-75946000D03*
X135806000Y-88812000D03*
G04 #@! TO.N,+3V3*
X125984000Y-85344000D03*
X128016000Y-90678000D03*
X125984000Y-84074000D03*
G04 #@! TO.N,/ICSP MISO*
X131588034Y-83153989D03*
G04 #@! TO.N,/ICSP SCK*
X131318000Y-81534000D03*
G04 #@! TO.N,/ICSP MOSI*
X130139033Y-83357015D03*
G04 #@! TO.N,/OLED SDA*
X134450916Y-83840604D03*
G04 #@! TO.N,/OLED SCL*
X133742000Y-84545192D03*
G04 #@! TD*
D22*
G04 #@! TO.N,GND*
X131493615Y-85390385D02*
X132427947Y-85390385D01*
X131388000Y-86546000D02*
X131388000Y-85496000D01*
X137906000Y-90512000D02*
X136206000Y-88812000D01*
X132443624Y-85406062D02*
X132613406Y-85406062D01*
X132829000Y-75946000D02*
X132188000Y-76587000D01*
X132988000Y-86546000D02*
X132988000Y-87653963D01*
X131388000Y-85496000D02*
X131493615Y-85390385D01*
X135806000Y-88816000D02*
X135890000Y-88900000D01*
X138006000Y-90512000D02*
X137906000Y-90512000D01*
X132988000Y-87653963D02*
X133017500Y-87683463D01*
X132188000Y-76587000D02*
X132188000Y-78046000D01*
X137205000Y-91313000D02*
X138006000Y-90512000D01*
X132427947Y-85390385D02*
X132443624Y-85406062D01*
X136206000Y-88812000D02*
X135806000Y-88812000D01*
X139954000Y-90437000D02*
X138081000Y-90437000D01*
X131388000Y-86546000D02*
X131388000Y-87596000D01*
X132988000Y-85780656D02*
X132988000Y-86546000D01*
X127920511Y-88487489D02*
X126746000Y-89662000D01*
X131388000Y-87596000D02*
X130496511Y-88487489D01*
X132613406Y-85406062D02*
X132988000Y-85780656D01*
X130496511Y-88487489D02*
X127920511Y-88487489D01*
X137205000Y-92270000D02*
X137205000Y-91313000D01*
X132188000Y-78046000D02*
X132188000Y-80118000D01*
X132188000Y-80118000D02*
X132334000Y-80264000D01*
X138081000Y-90437000D02*
X138006000Y-90512000D01*
X135806000Y-88812000D02*
X135806000Y-88816000D01*
G04 #@! TO.N,Net-(C1-Pad2)*
X132988000Y-77045372D02*
X133604480Y-76428892D01*
X133604480Y-75463108D02*
X133287852Y-75146480D01*
X132988000Y-78046000D02*
X132988000Y-77045372D01*
X133287852Y-75146480D02*
X132130520Y-75146480D01*
X132130520Y-75146480D02*
X131331000Y-75946000D01*
X133604480Y-76428892D02*
X133604480Y-75463108D01*
G04 #@! TO.N,+3V3*
X124190020Y-79185000D02*
X123086020Y-80289000D01*
X131826000Y-89662000D02*
X130651489Y-90836511D01*
X133788000Y-87937577D02*
X133317603Y-88407974D01*
X132603974Y-88884026D02*
X132603974Y-88407974D01*
X134588000Y-76155000D02*
X134588000Y-78046000D01*
X133788000Y-86546000D02*
X133788000Y-87937577D01*
X125984000Y-85281000D02*
X125984000Y-85344000D01*
X133317603Y-88407974D02*
X132603974Y-88407974D01*
X133474045Y-74696969D02*
X128553031Y-74696969D01*
X132188000Y-87992000D02*
X132188000Y-86546000D01*
X125984000Y-83883000D02*
X125984000Y-84074000D01*
X130651489Y-90836511D02*
X128174511Y-90836511D01*
X134379000Y-75946000D02*
X134379000Y-75601924D01*
X134379000Y-75601924D02*
X133474045Y-74696969D01*
X134379000Y-75946000D02*
X134588000Y-76155000D01*
X125984000Y-79185000D02*
X124190020Y-79185000D01*
X128553031Y-74696969D02*
X123086020Y-80163980D01*
X128174511Y-90836511D02*
X128016000Y-90678000D01*
X131826000Y-89662000D02*
X132603974Y-88884026D01*
X132603974Y-88407974D02*
X132188000Y-87992000D01*
G04 #@! TO.N,/XTAL1*
X134694000Y-90350000D02*
X134856000Y-90512000D01*
X134588000Y-90244000D02*
X134694000Y-90350000D01*
X135681000Y-90637000D02*
X135806000Y-90512000D01*
X135681000Y-92270000D02*
X135681000Y-90637000D01*
X134856000Y-90512000D02*
X135806000Y-90512000D01*
X134588000Y-86546000D02*
X134588000Y-90244000D01*
G04 #@! TO.N,/XTAL2*
X139954000Y-88887000D02*
X138081000Y-88887000D01*
X138081000Y-88887000D02*
X138006000Y-88812000D01*
X135388000Y-86546000D02*
X135740000Y-86546000D01*
X135740000Y-86546000D02*
X138006000Y-88812000D01*
G04 #@! TO.N,/HOST SDA*
X124819020Y-81096000D02*
X123086020Y-82829000D01*
X128338000Y-81096000D02*
X124819020Y-81096000D01*
G04 #@! TO.N,/HOST SCL*
X126559020Y-81896000D02*
X123086020Y-85369000D01*
X128338000Y-81896000D02*
X126559020Y-81896000D01*
G04 #@! TO.N,/ICSP MISO*
X132538732Y-82745268D02*
X132538732Y-82862490D01*
X135788000Y-79496000D02*
X132538732Y-82745268D01*
X132538732Y-82862490D02*
X132247233Y-83153989D01*
X136838000Y-79496000D02*
X135788000Y-79496000D01*
X132247233Y-83153989D02*
X131588034Y-83153989D01*
G04 #@! TO.N,/ICSP SCK*
X135388000Y-79260282D02*
X133114282Y-81534000D01*
X133114282Y-81534000D02*
X131318000Y-81534000D01*
X135388000Y-78046000D02*
X135388000Y-79260282D01*
G04 #@! TO.N,/ICSP MOSI*
X135753359Y-80296000D02*
X132170870Y-83878489D01*
X132170870Y-83878489D02*
X131206849Y-83878489D01*
X130685375Y-83357015D02*
X130139033Y-83357015D01*
X131206849Y-83878489D02*
X130685375Y-83357015D01*
X136838000Y-80296000D02*
X135753359Y-80296000D01*
G04 #@! TO.N,/ICSP RST*
X125571489Y-87343511D02*
X125571489Y-91027489D01*
X125571489Y-91027489D02*
X126746000Y-92202000D01*
X127288000Y-82696000D02*
X126783520Y-83200480D01*
X125984000Y-86931000D02*
X125571489Y-87343511D01*
X126783520Y-83200480D02*
X126783520Y-86131480D01*
X128338000Y-82696000D02*
X127288000Y-82696000D01*
X126783520Y-86131480D02*
X125984000Y-86931000D01*
G04 #@! TO.N,/OLED SDA*
X134042099Y-85269693D02*
X134466501Y-84845291D01*
X129788000Y-85496000D02*
X130343126Y-84940874D01*
X130343126Y-84940874D02*
X132904261Y-84940874D01*
X133233080Y-85269693D02*
X134042099Y-85269693D01*
X129788000Y-86546000D02*
X129788000Y-85496000D01*
X134466501Y-84845291D02*
X134466501Y-84245093D01*
X134450916Y-84229508D02*
X134450916Y-83840604D01*
X132904261Y-84940874D02*
X133233080Y-85269693D01*
X134466501Y-84245093D02*
X134450916Y-84229508D01*
G04 #@! TO.N,/OLED SCL*
X133742000Y-84545192D02*
X133524808Y-84328000D01*
X130156000Y-84328000D02*
X129388000Y-85096000D01*
X129388000Y-85096000D02*
X128338000Y-85096000D01*
X133524808Y-84328000D02*
X130156000Y-84328000D01*
G04 #@! TD*
M02*
