G04 #@! TF.GenerationSoftware,KiCad,Pcbnew,(5.99.0-11522-g728b160719)*
G04 #@! TF.CreationDate,2021-08-06T10:01:10+10:00*
G04 #@! TF.ProjectId,Battery charger,42617474-6572-4792-9063-686172676572,0.2*
G04 #@! TF.SameCoordinates,Original*
G04 #@! TF.FileFunction,Soldermask,Top*
G04 #@! TF.FilePolarity,Negative*
%FSLAX46Y46*%
G04 Gerber Fmt 4.6, Leading zero omitted, Abs format (unit mm)*
G04 Created by KiCad (PCBNEW (5.99.0-11522-g728b160719)) date 2021-08-06 10:01:10*
%MOMM*%
%LPD*%
G01*
G04 APERTURE LIST*
G04 Aperture macros list*
%AMRoundRect*
0 Rectangle with rounded corners*
0 $1 Rounding radius*
0 $2 $3 $4 $5 $6 $7 $8 $9 X,Y pos of 4 corners*
0 Add a 4 corners polygon primitive as box body*
4,1,4,$2,$3,$4,$5,$6,$7,$8,$9,$2,$3,0*
0 Add four circle primitives for the rounded corners*
1,1,$1+$1,$2,$3*
1,1,$1+$1,$4,$5*
1,1,$1+$1,$6,$7*
1,1,$1+$1,$8,$9*
0 Add four rect primitives between the rounded corners*
20,1,$1+$1,$2,$3,$4,$5,0*
20,1,$1+$1,$4,$5,$6,$7,0*
20,1,$1+$1,$6,$7,$8,$9,0*
20,1,$1+$1,$8,$9,$2,$3,0*%
G04 Aperture macros list end*
G04 #@! TA.AperFunction,Profile*
%ADD10C,0.100000*%
G04 #@! TD*
%ADD11RoundRect,0.250000X0.250000X0.475000X-0.250000X0.475000X-0.250000X-0.475000X0.250000X-0.475000X0*%
%ADD12RoundRect,0.225000X0.250000X-0.225000X0.250000X0.225000X-0.250000X0.225000X-0.250000X-0.225000X0*%
%ADD13R,1.700000X1.700000*%
%ADD14O,1.700000X1.700000*%
%ADD15RoundRect,0.250000X0.475000X-0.250000X0.475000X0.250000X-0.475000X0.250000X-0.475000X-0.250000X0*%
%ADD16RoundRect,0.200000X0.275000X-0.200000X0.275000X0.200000X-0.275000X0.200000X-0.275000X-0.200000X0*%
%ADD17RoundRect,0.218750X-0.256250X0.218750X-0.256250X-0.218750X0.256250X-0.218750X0.256250X0.218750X0*%
%ADD18RoundRect,0.200000X-0.200000X-0.275000X0.200000X-0.275000X0.200000X0.275000X-0.200000X0.275000X0*%
%ADD19RoundRect,0.200000X-0.275000X0.200000X-0.275000X-0.200000X0.275000X-0.200000X0.275000X0.200000X0*%
%ADD20RoundRect,0.062500X-0.375000X-0.062500X0.375000X-0.062500X0.375000X0.062500X-0.375000X0.062500X0*%
%ADD21RoundRect,0.062500X-0.062500X-0.375000X0.062500X-0.375000X0.062500X0.375000X-0.062500X0.375000X0*%
%ADD22R,1.600000X1.600000*%
%ADD23RoundRect,0.225000X-0.225000X-0.250000X0.225000X-0.250000X0.225000X0.250000X-0.225000X0.250000X0*%
%ADD24RoundRect,0.235000X-0.940000X-1.465000X0.940000X-1.465000X0.940000X1.465000X-0.940000X1.465000X0*%
G04 APERTURE END LIST*
D10*
X113259000Y-76048000D02*
X93193000Y-76048000D01*
X93193000Y-76048000D02*
X93193000Y-55982000D01*
X93193000Y-55982000D02*
X113259000Y-55982000D01*
X113259000Y-55982000D02*
X113259000Y-76048000D01*
D11*
G04 #@! TO.C,C5*
X106929000Y-66548000D03*
X105029000Y-66548000D03*
G04 #@! TD*
D12*
G04 #@! TO.C,C4*
X101346000Y-64643000D03*
X101346000Y-63093000D03*
G04 #@! TD*
D13*
G04 #@! TO.C,J1*
X93193000Y-59690000D03*
D14*
X93193000Y-62230000D03*
X93193000Y-64770000D03*
X93193000Y-67310000D03*
X93193000Y-69850000D03*
X93193000Y-72390000D03*
G04 #@! TD*
D12*
G04 #@! TO.C,C2*
X97790000Y-66548000D03*
X97790000Y-64998000D03*
G04 #@! TD*
D15*
G04 #@! TO.C,C3*
X99568000Y-64516000D03*
X99568000Y-62616000D03*
G04 #@! TD*
D16*
G04 #@! TO.C,R3*
X101600000Y-72135000D03*
X101600000Y-70485000D03*
G04 #@! TD*
D17*
G04 #@! TO.C,D1*
X96838000Y-71094500D03*
X96838000Y-72669500D03*
G04 #@! TD*
D13*
G04 #@! TO.C,J2*
X113284000Y-59690000D03*
D14*
X113284000Y-62230000D03*
X113284000Y-64770000D03*
X113284000Y-67310000D03*
X113284000Y-69850000D03*
X113284000Y-72390000D03*
G04 #@! TD*
D18*
G04 #@! TO.C,R1*
X96838000Y-69596000D03*
X98488000Y-69596000D03*
G04 #@! TD*
D19*
G04 #@! TO.C,R4*
X103124000Y-70486000D03*
X103124000Y-72136000D03*
G04 #@! TD*
D20*
G04 #@! TO.C,U1*
X100592500Y-66807000D03*
X100592500Y-67307000D03*
X100592500Y-67807000D03*
X100592500Y-68307000D03*
D21*
X101280000Y-68994500D03*
X101780000Y-68994500D03*
X102280000Y-68994500D03*
X102780000Y-68994500D03*
D20*
X103467500Y-68307000D03*
X103467500Y-67807000D03*
X103467500Y-67307000D03*
X103467500Y-66807000D03*
D21*
X102780000Y-66119500D03*
X102280000Y-66119500D03*
X101780000Y-66119500D03*
X101280000Y-66119500D03*
D22*
X102030000Y-67557000D03*
G04 #@! TD*
D23*
G04 #@! TO.C,C1*
X96875000Y-68072000D03*
X98425000Y-68072000D03*
G04 #@! TD*
D18*
G04 #@! TO.C,R5*
X104902000Y-68580000D03*
X106552000Y-68580000D03*
G04 #@! TD*
D24*
G04 #@! TO.C,L1*
X103551000Y-61722000D03*
X109601000Y-61722000D03*
G04 #@! TD*
D16*
G04 #@! TO.C,R2*
X100076000Y-72135000D03*
X100076000Y-70485000D03*
G04 #@! TD*
M02*
