G04 #@! TF.GenerationSoftware,KiCad,Pcbnew,(5.99.0-11522-g728b160719)*
G04 #@! TF.CreationDate,2021-08-02T20:46:47+10:00*
G04 #@! TF.ProjectId,Battery charger,42617474-6572-4792-9063-686172676572,0.2*
G04 #@! TF.SameCoordinates,Original*
G04 #@! TF.FileFunction,Copper,L2,Bot*
G04 #@! TF.FilePolarity,Positive*
%FSLAX46Y46*%
G04 Gerber Fmt 4.6, Leading zero omitted, Abs format (unit mm)*
G04 Created by KiCad (PCBNEW (5.99.0-11522-g728b160719)) date 2021-08-02 20:46:47*
%MOMM*%
%LPD*%
G01*
G04 APERTURE LIST*
G04 #@! TA.AperFunction,Profile*
%ADD10C,0.100000*%
G04 #@! TD*
G04 #@! TA.AperFunction,ComponentPad*
%ADD11R,1.700000X1.700000*%
G04 #@! TD*
G04 #@! TA.AperFunction,ComponentPad*
%ADD12O,1.700000X1.700000*%
G04 #@! TD*
G04 #@! TA.AperFunction,ViaPad*
%ADD13C,0.800000*%
G04 #@! TD*
G04 APERTURE END LIST*
D10*
X113259000Y-76048000D02*
X93193000Y-76048000D01*
X93193000Y-76048000D02*
X93193000Y-55982000D01*
X93193000Y-55982000D02*
X113259000Y-55982000D01*
X113259000Y-55982000D02*
X113259000Y-76048000D01*
D11*
G04 #@! TO.P,J1,1,Pin_1*
G04 #@! TO.N,N/C*
X93193000Y-59690000D03*
D12*
G04 #@! TO.P,J1,2,Pin_2*
G04 #@! TO.N,VBUS*
X93193000Y-62230000D03*
G04 #@! TO.P,J1,3,Pin_3*
X93193000Y-64770000D03*
G04 #@! TO.P,J1,4,Pin_4*
G04 #@! TO.N,GND*
X93193000Y-67310000D03*
G04 #@! TO.P,J1,5,Pin_5*
X93193000Y-69850000D03*
G04 #@! TO.P,J1,6,Pin_6*
G04 #@! TO.N,/STAT*
X93193000Y-72390000D03*
G04 #@! TD*
D11*
G04 #@! TO.P,J2,1,Pin_1*
G04 #@! TO.N,N/C*
X113284000Y-59690000D03*
D12*
G04 #@! TO.P,J2,2,Pin_2*
G04 #@! TO.N,+BATT*
X113284000Y-62230000D03*
G04 #@! TO.P,J2,3,Pin_3*
X113284000Y-64770000D03*
G04 #@! TO.P,J2,4,Pin_4*
G04 #@! TO.N,GND*
X113284000Y-67310000D03*
G04 #@! TO.P,J2,5,Pin_5*
X113284000Y-69850000D03*
G04 #@! TO.P,J2,6,Pin_6*
G04 #@! TO.N,N/C*
X113284000Y-72390000D03*
G04 #@! TD*
D13*
G04 #@! TO.N,GND*
X96774000Y-72644000D03*
X100076000Y-72135010D03*
X99060000Y-62611000D03*
X97790000Y-65024000D03*
X103124000Y-72136000D03*
X105029000Y-66802000D03*
X101727000Y-67818000D03*
X106553000Y-68580000D03*
X96901000Y-68072000D03*
X102362000Y-67183000D03*
X95123000Y-68072000D03*
X105029000Y-66040000D03*
X99949000Y-62611000D03*
G04 #@! TD*
G04 #@! TA.AperFunction,Conductor*
G04 #@! TO.N,GND*
G36*
X110004163Y-59817607D02*
G01*
X110180740Y-59834999D01*
X110204957Y-59839815D01*
X110368809Y-59889518D01*
X110391629Y-59898971D01*
X110542631Y-59979683D01*
X110563158Y-59993399D01*
X110695521Y-60102026D01*
X110712974Y-60119479D01*
X110821601Y-60251842D01*
X110835319Y-60272372D01*
X110916029Y-60423371D01*
X110925482Y-60446190D01*
X110975185Y-60610043D01*
X110980002Y-60634263D01*
X110997393Y-60810837D01*
X110998000Y-60823187D01*
X110998000Y-66040000D01*
X112252813Y-66040000D01*
X112265163Y-66040607D01*
X112441740Y-66057999D01*
X112465957Y-66062815D01*
X112629809Y-66112518D01*
X112652629Y-66121971D01*
X112803631Y-66202683D01*
X112824158Y-66216399D01*
X112956521Y-66325026D01*
X112973974Y-66342479D01*
X113082601Y-66474842D01*
X113096319Y-66495372D01*
X113177029Y-66646371D01*
X113186482Y-66669190D01*
X113236185Y-66833043D01*
X113241002Y-66857263D01*
X113258393Y-67033837D01*
X113259000Y-67046187D01*
X113259000Y-70113813D01*
X113258393Y-70126163D01*
X113241002Y-70302737D01*
X113236185Y-70326957D01*
X113186482Y-70490809D01*
X113177029Y-70513629D01*
X113096319Y-70664628D01*
X113082601Y-70685158D01*
X112973974Y-70817521D01*
X112956521Y-70834974D01*
X112824158Y-70943601D01*
X112803631Y-70957317D01*
X112711417Y-71006607D01*
X112652629Y-71038029D01*
X112629810Y-71047482D01*
X112465957Y-71097185D01*
X112441740Y-71102001D01*
X112269945Y-71118922D01*
X112265163Y-71119393D01*
X112252813Y-71120000D01*
X105664000Y-71120000D01*
X104183275Y-72600725D01*
X104174114Y-72609029D01*
X104036950Y-72721597D01*
X104016412Y-72735320D01*
X103865416Y-72816029D01*
X103842597Y-72825482D01*
X103678744Y-72875185D01*
X103654527Y-72880001D01*
X103477949Y-72897393D01*
X103465599Y-72898000D01*
X96432401Y-72898000D01*
X96420051Y-72897393D01*
X96243473Y-72880001D01*
X96219256Y-72875185D01*
X96055403Y-72825482D01*
X96032584Y-72816029D01*
X95881588Y-72735320D01*
X95861050Y-72721597D01*
X95723886Y-72609029D01*
X95714725Y-72600725D01*
X94234000Y-71120000D01*
X93721759Y-71120000D01*
X93705312Y-71118922D01*
X93595231Y-71104429D01*
X93563460Y-71095916D01*
X93468577Y-71056614D01*
X93440091Y-71040168D01*
X93358612Y-70977647D01*
X93335353Y-70954388D01*
X93272832Y-70872909D01*
X93256386Y-70844423D01*
X93217084Y-70749540D01*
X93208571Y-70717769D01*
X93194078Y-70607688D01*
X93193000Y-70591241D01*
X93193000Y-66318910D01*
X93195421Y-66294329D01*
X93208396Y-66229097D01*
X93227210Y-66183676D01*
X93257132Y-66138895D01*
X93291895Y-66104132D01*
X93336676Y-66074210D01*
X93382095Y-66055397D01*
X93455468Y-66040802D01*
X93460326Y-66040000D01*
X93726000Y-66040000D01*
X97492725Y-62273275D01*
X97501886Y-62264971D01*
X97639050Y-62152403D01*
X97659588Y-62138680D01*
X97810584Y-62057971D01*
X97833404Y-62048518D01*
X97997256Y-61998815D01*
X98021473Y-61993999D01*
X98198051Y-61976607D01*
X98210401Y-61976000D01*
X99949000Y-61976000D01*
X101810725Y-60114275D01*
X101819886Y-60105971D01*
X101957050Y-59993403D01*
X101977588Y-59979680D01*
X102128584Y-59898971D01*
X102151404Y-59889518D01*
X102315256Y-59839815D01*
X102339473Y-59834999D01*
X102516051Y-59817607D01*
X102528401Y-59817000D01*
X109991813Y-59817000D01*
X110004163Y-59817607D01*
G37*
G04 #@! TD.AperFunction*
G04 #@! TD*
M02*
