G04 #@! TF.GenerationSoftware,KiCad,Pcbnew,(5.99.0-11522-g728b160719)*
G04 #@! TF.CreationDate,2021-08-02T20:46:47+10:00*
G04 #@! TF.ProjectId,Battery charger,42617474-6572-4792-9063-686172676572,0.2*
G04 #@! TF.SameCoordinates,Original*
G04 #@! TF.FileFunction,Legend,Top*
G04 #@! TF.FilePolarity,Positive*
%FSLAX46Y46*%
G04 Gerber Fmt 4.6, Leading zero omitted, Abs format (unit mm)*
G04 Created by KiCad (PCBNEW (5.99.0-11522-g728b160719)) date 2021-08-02 20:46:47*
%MOMM*%
%LPD*%
G01*
G04 APERTURE LIST*
%ADD10C,0.150000*%
G04 #@! TA.AperFunction,Profile*
%ADD11C,0.100000*%
G04 #@! TD*
%ADD12C,0.120000*%
G04 APERTURE END LIST*
D10*
X104140000Y-70866000D02*
X107950000Y-70866000D01*
X107950000Y-70866000D02*
X107950000Y-72644000D01*
D11*
X113259000Y-76048000D02*
X93193000Y-76048000D01*
X93193000Y-76048000D02*
X93193000Y-55982000D01*
X93193000Y-55982000D02*
X113259000Y-55982000D01*
X113259000Y-55982000D02*
X113259000Y-76048000D01*
D10*
G04 #@! TO.C,C5*
X108545333Y-66905142D02*
X108497714Y-66952761D01*
X108354857Y-67000380D01*
X108259619Y-67000380D01*
X108116761Y-66952761D01*
X108021523Y-66857523D01*
X107973904Y-66762285D01*
X107926285Y-66571809D01*
X107926285Y-66428952D01*
X107973904Y-66238476D01*
X108021523Y-66143238D01*
X108116761Y-66048000D01*
X108259619Y-66000380D01*
X108354857Y-66000380D01*
X108497714Y-66048000D01*
X108545333Y-66095619D01*
X109450095Y-66000380D02*
X108973904Y-66000380D01*
X108926285Y-66476571D01*
X108973904Y-66428952D01*
X109069142Y-66381333D01*
X109307238Y-66381333D01*
X109402476Y-66428952D01*
X109450095Y-66476571D01*
X109497714Y-66571809D01*
X109497714Y-66809904D01*
X109450095Y-66905142D01*
X109402476Y-66952761D01*
X109307238Y-67000380D01*
X109069142Y-67000380D01*
X108973904Y-66952761D01*
X108926285Y-66905142D01*
G04 #@! TO.C,C4*
X101703142Y-61507666D02*
X101750761Y-61555285D01*
X101798380Y-61698142D01*
X101798380Y-61793380D01*
X101750761Y-61936238D01*
X101655523Y-62031476D01*
X101560285Y-62079095D01*
X101369809Y-62126714D01*
X101226952Y-62126714D01*
X101036476Y-62079095D01*
X100941238Y-62031476D01*
X100846000Y-61936238D01*
X100798380Y-61793380D01*
X100798380Y-61698142D01*
X100846000Y-61555285D01*
X100893619Y-61507666D01*
X101131714Y-60650523D02*
X101798380Y-60650523D01*
X100750761Y-60888619D02*
X101465047Y-61126714D01*
X101465047Y-60507666D01*
G04 #@! TO.C,J1*
X93875666Y-56602380D02*
X93875666Y-57316666D01*
X93828047Y-57459523D01*
X93732809Y-57554761D01*
X93589952Y-57602380D01*
X93494714Y-57602380D01*
X94875666Y-57602380D02*
X94304238Y-57602380D01*
X94589952Y-57602380D02*
X94589952Y-56602380D01*
X94494714Y-56745238D01*
X94399476Y-56840476D01*
X94304238Y-56888095D01*
G04 #@! TO.C,C2*
X98147142Y-63285666D02*
X98194761Y-63333285D01*
X98242380Y-63476142D01*
X98242380Y-63571380D01*
X98194761Y-63714238D01*
X98099523Y-63809476D01*
X98004285Y-63857095D01*
X97813809Y-63904714D01*
X97670952Y-63904714D01*
X97480476Y-63857095D01*
X97385238Y-63809476D01*
X97290000Y-63714238D01*
X97242380Y-63571380D01*
X97242380Y-63476142D01*
X97290000Y-63333285D01*
X97337619Y-63285666D01*
X97337619Y-62904714D02*
X97290000Y-62857095D01*
X97242380Y-62761857D01*
X97242380Y-62523761D01*
X97290000Y-62428523D01*
X97337619Y-62380904D01*
X97432857Y-62333285D01*
X97528095Y-62333285D01*
X97670952Y-62380904D01*
X98242380Y-62952333D01*
X98242380Y-62333285D01*
G04 #@! TO.C,C3*
X99925142Y-60999666D02*
X99972761Y-61047285D01*
X100020380Y-61190142D01*
X100020380Y-61285380D01*
X99972761Y-61428238D01*
X99877523Y-61523476D01*
X99782285Y-61571095D01*
X99591809Y-61618714D01*
X99448952Y-61618714D01*
X99258476Y-61571095D01*
X99163238Y-61523476D01*
X99068000Y-61428238D01*
X99020380Y-61285380D01*
X99020380Y-61190142D01*
X99068000Y-61047285D01*
X99115619Y-60999666D01*
X99020380Y-60666333D02*
X99020380Y-60047285D01*
X99401333Y-60380619D01*
X99401333Y-60237761D01*
X99448952Y-60142523D01*
X99496571Y-60094904D01*
X99591809Y-60047285D01*
X99829904Y-60047285D01*
X99925142Y-60094904D01*
X99972761Y-60142523D01*
X100020380Y-60237761D01*
X100020380Y-60523476D01*
X99972761Y-60618714D01*
X99925142Y-60666333D01*
G04 #@! TO.C,R3*
X106370380Y-72048666D02*
X105894190Y-72382000D01*
X106370380Y-72620095D02*
X105370380Y-72620095D01*
X105370380Y-72239142D01*
X105418000Y-72143904D01*
X105465619Y-72096285D01*
X105560857Y-72048666D01*
X105703714Y-72048666D01*
X105798952Y-72096285D01*
X105846571Y-72143904D01*
X105894190Y-72239142D01*
X105894190Y-72620095D01*
X105370380Y-71715333D02*
X105370380Y-71096285D01*
X105751333Y-71429619D01*
X105751333Y-71286761D01*
X105798952Y-71191523D01*
X105846571Y-71143904D01*
X105941809Y-71096285D01*
X106179904Y-71096285D01*
X106275142Y-71143904D01*
X106322761Y-71191523D01*
X106370380Y-71286761D01*
X106370380Y-71572476D01*
X106322761Y-71667714D01*
X106275142Y-71715333D01*
G04 #@! TO.C,D1*
X97290380Y-75160095D02*
X96290380Y-75160095D01*
X96290380Y-74922000D01*
X96338000Y-74779142D01*
X96433238Y-74683904D01*
X96528476Y-74636285D01*
X96718952Y-74588666D01*
X96861809Y-74588666D01*
X97052285Y-74636285D01*
X97147523Y-74683904D01*
X97242761Y-74779142D01*
X97290380Y-74922000D01*
X97290380Y-75160095D01*
X97290380Y-73636285D02*
X97290380Y-74207714D01*
X97290380Y-73922000D02*
X96290380Y-73922000D01*
X96433238Y-74017238D01*
X96528476Y-74112476D01*
X96576095Y-74207714D01*
G04 #@! TO.C,J2*
X111909666Y-56602380D02*
X111909666Y-57316666D01*
X111862047Y-57459523D01*
X111766809Y-57554761D01*
X111623952Y-57602380D01*
X111528714Y-57602380D01*
X112338238Y-56697619D02*
X112385857Y-56650000D01*
X112481095Y-56602380D01*
X112719190Y-56602380D01*
X112814428Y-56650000D01*
X112862047Y-56697619D01*
X112909666Y-56792857D01*
X112909666Y-56888095D01*
X112862047Y-57030952D01*
X112290619Y-57602380D01*
X112909666Y-57602380D01*
G04 #@! TO.C,R1*
X95956380Y-69762666D02*
X95480190Y-70096000D01*
X95956380Y-70334095D02*
X94956380Y-70334095D01*
X94956380Y-69953142D01*
X95004000Y-69857904D01*
X95051619Y-69810285D01*
X95146857Y-69762666D01*
X95289714Y-69762666D01*
X95384952Y-69810285D01*
X95432571Y-69857904D01*
X95480190Y-69953142D01*
X95480190Y-70334095D01*
X95956380Y-68810285D02*
X95956380Y-69381714D01*
X95956380Y-69096000D02*
X94956380Y-69096000D01*
X95099238Y-69191238D01*
X95194476Y-69286476D01*
X95242095Y-69381714D01*
G04 #@! TO.C,R4*
X107640380Y-72048666D02*
X107164190Y-72382000D01*
X107640380Y-72620095D02*
X106640380Y-72620095D01*
X106640380Y-72239142D01*
X106688000Y-72143904D01*
X106735619Y-72096285D01*
X106830857Y-72048666D01*
X106973714Y-72048666D01*
X107068952Y-72096285D01*
X107116571Y-72143904D01*
X107164190Y-72239142D01*
X107164190Y-72620095D01*
X106973714Y-71191523D02*
X107640380Y-71191523D01*
X106592761Y-71429619D02*
X107307047Y-71667714D01*
X107307047Y-71048666D01*
G04 #@! TO.C,U1*
X104394095Y-69556380D02*
X104394095Y-70365904D01*
X104441714Y-70461142D01*
X104489333Y-70508761D01*
X104584571Y-70556380D01*
X104775047Y-70556380D01*
X104870285Y-70508761D01*
X104917904Y-70461142D01*
X104965523Y-70365904D01*
X104965523Y-69556380D01*
X105965523Y-70556380D02*
X105394095Y-70556380D01*
X105679809Y-70556380D02*
X105679809Y-69556380D01*
X105584571Y-69699238D01*
X105489333Y-69794476D01*
X105394095Y-69842095D01*
G04 #@! TO.C,C1*
X95861142Y-67984666D02*
X95908761Y-68032285D01*
X95956380Y-68175142D01*
X95956380Y-68270380D01*
X95908761Y-68413238D01*
X95813523Y-68508476D01*
X95718285Y-68556095D01*
X95527809Y-68603714D01*
X95384952Y-68603714D01*
X95194476Y-68556095D01*
X95099238Y-68508476D01*
X95004000Y-68413238D01*
X94956380Y-68270380D01*
X94956380Y-68175142D01*
X95004000Y-68032285D01*
X95051619Y-67984666D01*
X95956380Y-67032285D02*
X95956380Y-67603714D01*
X95956380Y-67318000D02*
X94956380Y-67318000D01*
X95099238Y-67413238D01*
X95194476Y-67508476D01*
X95242095Y-67603714D01*
G04 #@! TO.C,R5*
X108545333Y-69032380D02*
X108212000Y-68556190D01*
X107973904Y-69032380D02*
X107973904Y-68032380D01*
X108354857Y-68032380D01*
X108450095Y-68080000D01*
X108497714Y-68127619D01*
X108545333Y-68222857D01*
X108545333Y-68365714D01*
X108497714Y-68460952D01*
X108450095Y-68508571D01*
X108354857Y-68556190D01*
X107973904Y-68556190D01*
X109450095Y-68032380D02*
X108973904Y-68032380D01*
X108926285Y-68508571D01*
X108973904Y-68460952D01*
X109069142Y-68413333D01*
X109307238Y-68413333D01*
X109402476Y-68460952D01*
X109450095Y-68508571D01*
X109497714Y-68603809D01*
X109497714Y-68841904D01*
X109450095Y-68937142D01*
X109402476Y-68984761D01*
X109307238Y-69032380D01*
X109069142Y-69032380D01*
X108973904Y-68984761D01*
X108926285Y-68937142D01*
G04 #@! TO.C,L1*
X106259333Y-62428380D02*
X105783142Y-62428380D01*
X105783142Y-61428380D01*
X107116476Y-62428380D02*
X106545047Y-62428380D01*
X106830761Y-62428380D02*
X106830761Y-61428380D01*
X106735523Y-61571238D01*
X106640285Y-61666476D01*
X106545047Y-61714095D01*
G04 #@! TO.C,R2*
X105100380Y-72048666D02*
X104624190Y-72382000D01*
X105100380Y-72620095D02*
X104100380Y-72620095D01*
X104100380Y-72239142D01*
X104148000Y-72143904D01*
X104195619Y-72096285D01*
X104290857Y-72048666D01*
X104433714Y-72048666D01*
X104528952Y-72096285D01*
X104576571Y-72143904D01*
X104624190Y-72239142D01*
X104624190Y-72620095D01*
X104195619Y-71667714D02*
X104148000Y-71620095D01*
X104100380Y-71524857D01*
X104100380Y-71286761D01*
X104148000Y-71191523D01*
X104195619Y-71143904D01*
X104290857Y-71096285D01*
X104386095Y-71096285D01*
X104528952Y-71143904D01*
X105100380Y-71715333D01*
X105100380Y-71096285D01*
D12*
G04 #@! TO.C,C5*
X106240252Y-65813000D02*
X105717748Y-65813000D01*
X106240252Y-67283000D02*
X105717748Y-67283000D01*
G04 #@! TO.C,C4*
X101856000Y-64008580D02*
X101856000Y-63727420D01*
X100836000Y-64008580D02*
X100836000Y-63727420D01*
G04 #@! TO.C,J1*
X94523000Y-60960000D02*
X94523000Y-73720000D01*
X94523000Y-58360000D02*
X94523000Y-59690000D01*
X91863000Y-60960000D02*
X91863000Y-73720000D01*
X93193000Y-58360000D02*
X94523000Y-58360000D01*
X91863000Y-73720000D02*
X94523000Y-73720000D01*
X91863000Y-60960000D02*
X94523000Y-60960000D01*
G04 #@! TO.C,C2*
X98300000Y-65913580D02*
X98300000Y-65632420D01*
X97280000Y-65913580D02*
X97280000Y-65632420D01*
G04 #@! TO.C,C3*
X100303000Y-63827252D02*
X100303000Y-63304748D01*
X98833000Y-63827252D02*
X98833000Y-63304748D01*
G04 #@! TO.C,R3*
X101077500Y-71547258D02*
X101077500Y-71072742D01*
X102122500Y-71547258D02*
X102122500Y-71072742D01*
G04 #@! TO.C,D1*
X97573000Y-70397000D02*
X96103000Y-70397000D01*
X97573000Y-72682000D02*
X97573000Y-70397000D01*
X96103000Y-70397000D02*
X96103000Y-72682000D01*
G04 #@! TO.C,J2*
X114614000Y-60960000D02*
X114614000Y-73720000D01*
X111954000Y-60960000D02*
X111954000Y-73720000D01*
X111954000Y-73720000D02*
X114614000Y-73720000D01*
X111954000Y-60960000D02*
X114614000Y-60960000D01*
X113284000Y-58360000D02*
X114614000Y-58360000D01*
X114614000Y-58360000D02*
X114614000Y-59690000D01*
G04 #@! TO.C,R1*
X97425742Y-69073500D02*
X97900258Y-69073500D01*
X97425742Y-70118500D02*
X97900258Y-70118500D01*
G04 #@! TO.C,R4*
X103646500Y-71073742D02*
X103646500Y-71548258D01*
X102601500Y-71073742D02*
X102601500Y-71548258D01*
G04 #@! TO.C,U1*
X100895000Y-69167000D02*
X100420000Y-69167000D01*
X103640000Y-65947000D02*
X103640000Y-66422000D01*
X103640000Y-69167000D02*
X103640000Y-68692000D01*
X100420000Y-69167000D02*
X100420000Y-68692000D01*
X103165000Y-69167000D02*
X103640000Y-69167000D01*
X100895000Y-65947000D02*
X100420000Y-65947000D01*
X103165000Y-65947000D02*
X103640000Y-65947000D01*
G04 #@! TO.C,C1*
X97509420Y-68582000D02*
X97790580Y-68582000D01*
X97509420Y-67562000D02*
X97790580Y-67562000D01*
G04 #@! TO.C,R5*
X105489742Y-68057500D02*
X105964258Y-68057500D01*
X105489742Y-69102500D02*
X105964258Y-69102500D01*
G04 #@! TO.C,L1*
X102876000Y-65122000D02*
X102876000Y-63622000D01*
X110276000Y-58322000D02*
X102876000Y-58322000D01*
X102876000Y-65122000D02*
X110276000Y-65122000D01*
X110276000Y-65122000D02*
X110276000Y-63622000D01*
X110276000Y-58322000D02*
X110276000Y-59822000D01*
X102876000Y-58322000D02*
X102876000Y-59822000D01*
G04 #@! TO.C,R2*
X100598500Y-71547258D02*
X100598500Y-71072742D01*
X99553500Y-71547258D02*
X99553500Y-71072742D01*
G04 #@! TD*
M02*
