G04 #@! TF.GenerationSoftware,KiCad,Pcbnew,(5.99.0-11522-g728b160719)*
G04 #@! TF.CreationDate,2021-08-06T10:01:10+10:00*
G04 #@! TF.ProjectId,Battery charger,42617474-6572-4792-9063-686172676572,0.2*
G04 #@! TF.SameCoordinates,Original*
G04 #@! TF.FileFunction,Copper,L1,Top*
G04 #@! TF.FilePolarity,Positive*
%FSLAX46Y46*%
G04 Gerber Fmt 4.6, Leading zero omitted, Abs format (unit mm)*
G04 Created by KiCad (PCBNEW (5.99.0-11522-g728b160719)) date 2021-08-06 10:01:10*
%MOMM*%
%LPD*%
G01*
G04 APERTURE LIST*
G04 Aperture macros list*
%AMRoundRect*
0 Rectangle with rounded corners*
0 $1 Rounding radius*
0 $2 $3 $4 $5 $6 $7 $8 $9 X,Y pos of 4 corners*
0 Add a 4 corners polygon primitive as box body*
4,1,4,$2,$3,$4,$5,$6,$7,$8,$9,$2,$3,0*
0 Add four circle primitives for the rounded corners*
1,1,$1+$1,$2,$3*
1,1,$1+$1,$4,$5*
1,1,$1+$1,$6,$7*
1,1,$1+$1,$8,$9*
0 Add four rect primitives between the rounded corners*
20,1,$1+$1,$2,$3,$4,$5,0*
20,1,$1+$1,$4,$5,$6,$7,0*
20,1,$1+$1,$6,$7,$8,$9,0*
20,1,$1+$1,$8,$9,$2,$3,0*%
G04 Aperture macros list end*
G04 #@! TA.AperFunction,Profile*
%ADD10C,0.100000*%
G04 #@! TD*
G04 #@! TA.AperFunction,SMDPad,CuDef*
%ADD11RoundRect,0.250000X0.250000X0.475000X-0.250000X0.475000X-0.250000X-0.475000X0.250000X-0.475000X0*%
G04 #@! TD*
G04 #@! TA.AperFunction,SMDPad,CuDef*
%ADD12RoundRect,0.225000X0.250000X-0.225000X0.250000X0.225000X-0.250000X0.225000X-0.250000X-0.225000X0*%
G04 #@! TD*
G04 #@! TA.AperFunction,ComponentPad*
%ADD13R,1.700000X1.700000*%
G04 #@! TD*
G04 #@! TA.AperFunction,ComponentPad*
%ADD14O,1.700000X1.700000*%
G04 #@! TD*
G04 #@! TA.AperFunction,SMDPad,CuDef*
%ADD15RoundRect,0.250000X0.475000X-0.250000X0.475000X0.250000X-0.475000X0.250000X-0.475000X-0.250000X0*%
G04 #@! TD*
G04 #@! TA.AperFunction,SMDPad,CuDef*
%ADD16RoundRect,0.200000X0.275000X-0.200000X0.275000X0.200000X-0.275000X0.200000X-0.275000X-0.200000X0*%
G04 #@! TD*
G04 #@! TA.AperFunction,SMDPad,CuDef*
%ADD17RoundRect,0.218750X-0.256250X0.218750X-0.256250X-0.218750X0.256250X-0.218750X0.256250X0.218750X0*%
G04 #@! TD*
G04 #@! TA.AperFunction,SMDPad,CuDef*
%ADD18RoundRect,0.200000X-0.200000X-0.275000X0.200000X-0.275000X0.200000X0.275000X-0.200000X0.275000X0*%
G04 #@! TD*
G04 #@! TA.AperFunction,SMDPad,CuDef*
%ADD19RoundRect,0.200000X-0.275000X0.200000X-0.275000X-0.200000X0.275000X-0.200000X0.275000X0.200000X0*%
G04 #@! TD*
G04 #@! TA.AperFunction,SMDPad,CuDef*
%ADD20RoundRect,0.062500X-0.375000X-0.062500X0.375000X-0.062500X0.375000X0.062500X-0.375000X0.062500X0*%
G04 #@! TD*
G04 #@! TA.AperFunction,SMDPad,CuDef*
%ADD21RoundRect,0.062500X-0.062500X-0.375000X0.062500X-0.375000X0.062500X0.375000X-0.062500X0.375000X0*%
G04 #@! TD*
G04 #@! TA.AperFunction,SMDPad,CuDef*
%ADD22R,1.600000X1.600000*%
G04 #@! TD*
G04 #@! TA.AperFunction,SMDPad,CuDef*
%ADD23RoundRect,0.225000X-0.225000X-0.250000X0.225000X-0.250000X0.225000X0.250000X-0.225000X0.250000X0*%
G04 #@! TD*
G04 #@! TA.AperFunction,SMDPad,CuDef*
%ADD24RoundRect,0.235000X-0.940000X-1.465000X0.940000X-1.465000X0.940000X1.465000X-0.940000X1.465000X0*%
G04 #@! TD*
G04 #@! TA.AperFunction,ViaPad*
%ADD25C,0.800000*%
G04 #@! TD*
G04 #@! TA.AperFunction,Conductor*
%ADD26C,0.250000*%
G04 #@! TD*
G04 APERTURE END LIST*
D10*
X113259000Y-76048000D02*
X93193000Y-76048000D01*
X93193000Y-76048000D02*
X93193000Y-55982000D01*
X93193000Y-55982000D02*
X113259000Y-55982000D01*
X113259000Y-55982000D02*
X113259000Y-76048000D01*
D11*
G04 #@! TO.P,C5,1*
G04 #@! TO.N,+BATT*
X106929000Y-66548000D03*
G04 #@! TO.P,C5,2*
G04 #@! TO.N,GND*
X105029000Y-66548000D03*
G04 #@! TD*
D12*
G04 #@! TO.P,C4,1*
G04 #@! TO.N,Net-(C4-Pad1)*
X101346000Y-64643000D03*
G04 #@! TO.P,C4,2*
G04 #@! TO.N,Net-(C4-Pad2)*
X101346000Y-63093000D03*
G04 #@! TD*
D13*
G04 #@! TO.P,J1,1,Pin_1*
G04 #@! TO.N,N/C*
X93193000Y-59690000D03*
D14*
G04 #@! TO.P,J1,2,Pin_2*
G04 #@! TO.N,VBUS*
X93193000Y-62230000D03*
G04 #@! TO.P,J1,3,Pin_3*
X93193000Y-64770000D03*
G04 #@! TO.P,J1,4,Pin_4*
G04 #@! TO.N,GND*
X93193000Y-67310000D03*
G04 #@! TO.P,J1,5,Pin_5*
X93193000Y-69850000D03*
G04 #@! TO.P,J1,6,Pin_6*
G04 #@! TO.N,/STAT*
X93193000Y-72390000D03*
G04 #@! TD*
D12*
G04 #@! TO.P,C2,1*
G04 #@! TO.N,VBUS*
X97790000Y-66548000D03*
G04 #@! TO.P,C2,2*
G04 #@! TO.N,GND*
X97790000Y-64998000D03*
G04 #@! TD*
D15*
G04 #@! TO.P,C3,1*
G04 #@! TO.N,Net-(C3-Pad1)*
X99568000Y-64516000D03*
G04 #@! TO.P,C3,2*
G04 #@! TO.N,GND*
X99568000Y-62616000D03*
G04 #@! TD*
D16*
G04 #@! TO.P,R3,1*
G04 #@! TO.N,/REGN*
X101600000Y-72135000D03*
G04 #@! TO.P,R3,2*
G04 #@! TO.N,Net-(R3-Pad2)*
X101600000Y-70485000D03*
G04 #@! TD*
D17*
G04 #@! TO.P,D1,1,K*
G04 #@! TO.N,/STAT*
X96838000Y-71094500D03*
G04 #@! TO.P,D1,2,A*
G04 #@! TO.N,GND*
X96838000Y-72669500D03*
G04 #@! TD*
D13*
G04 #@! TO.P,J2,1,Pin_1*
G04 #@! TO.N,N/C*
X113284000Y-59690000D03*
D14*
G04 #@! TO.P,J2,2,Pin_2*
G04 #@! TO.N,+BATT*
X113284000Y-62230000D03*
G04 #@! TO.P,J2,3,Pin_3*
X113284000Y-64770000D03*
G04 #@! TO.P,J2,4,Pin_4*
G04 #@! TO.N,GND*
X113284000Y-67310000D03*
G04 #@! TO.P,J2,5,Pin_5*
X113284000Y-69850000D03*
G04 #@! TO.P,J2,6,Pin_6*
G04 #@! TO.N,N/C*
X113284000Y-72390000D03*
G04 #@! TD*
D18*
G04 #@! TO.P,R1,1*
G04 #@! TO.N,/STAT*
X96838000Y-69596000D03*
G04 #@! TO.P,R1,2*
G04 #@! TO.N,Net-(R1-Pad2)*
X98488000Y-69596000D03*
G04 #@! TD*
D19*
G04 #@! TO.P,R4,1*
G04 #@! TO.N,Net-(R3-Pad2)*
X103124000Y-70486000D03*
G04 #@! TO.P,R4,2*
G04 #@! TO.N,GND*
X103124000Y-72136000D03*
G04 #@! TD*
D20*
G04 #@! TO.P,U1,1,VBUS*
G04 #@! TO.N,VBUS*
X100592500Y-66807000D03*
G04 #@! TO.P,U1,2,REGN*
G04 #@! TO.N,/REGN*
X100592500Y-67307000D03*
G04 #@! TO.P,U1,3,STAT*
G04 #@! TO.N,Net-(R1-Pad2)*
X100592500Y-67807000D03*
G04 #@! TO.P,U1,4,ICHG*
G04 #@! TO.N,Net-(R2-Pad2)*
X100592500Y-68307000D03*
D21*
G04 #@! TO.P,U1,5,POL*
G04 #@! TO.N,N/C*
X101280000Y-68994500D03*
G04 #@! TO.P,U1,6,~{EN}*
X101780000Y-68994500D03*
G04 #@! TO.P,U1,7,TS*
G04 #@! TO.N,Net-(R3-Pad2)*
X102280000Y-68994500D03*
G04 #@! TO.P,U1,8,NC*
G04 #@! TO.N,N/C*
X102780000Y-68994500D03*
D20*
G04 #@! TO.P,U1,9,VSET*
G04 #@! TO.N,Net-(R5-Pad1)*
X103467500Y-68307000D03*
G04 #@! TO.P,U1,10,BAT*
G04 #@! TO.N,+BATT*
X103467500Y-67807000D03*
G04 #@! TO.P,U1,11,GND*
G04 #@! TO.N,GND*
X103467500Y-67307000D03*
G04 #@! TO.P,U1,12,GND*
X103467500Y-66807000D03*
D21*
G04 #@! TO.P,U1,13,SW*
G04 #@! TO.N,Net-(C4-Pad2)*
X102780000Y-66119500D03*
G04 #@! TO.P,U1,14,SW*
X102280000Y-66119500D03*
G04 #@! TO.P,U1,15,BTST*
G04 #@! TO.N,Net-(C4-Pad1)*
X101780000Y-66119500D03*
G04 #@! TO.P,U1,16,PMID*
G04 #@! TO.N,Net-(C3-Pad1)*
X101280000Y-66119500D03*
D22*
G04 #@! TO.P,U1,17,Thermal_Pad*
G04 #@! TO.N,GND*
X102030000Y-67557000D03*
G04 #@! TD*
D23*
G04 #@! TO.P,C1,1*
G04 #@! TO.N,GND*
X96875000Y-68072000D03*
G04 #@! TO.P,C1,2*
G04 #@! TO.N,/REGN*
X98425000Y-68072000D03*
G04 #@! TD*
D18*
G04 #@! TO.P,R5,1*
G04 #@! TO.N,Net-(R5-Pad1)*
X104902000Y-68580000D03*
G04 #@! TO.P,R5,2*
G04 #@! TO.N,GND*
X106552000Y-68580000D03*
G04 #@! TD*
D24*
G04 #@! TO.P,L1,1*
G04 #@! TO.N,Net-(C4-Pad2)*
X103551000Y-61722000D03*
G04 #@! TO.P,L1,2*
G04 #@! TO.N,+BATT*
X109601000Y-61722000D03*
G04 #@! TD*
D16*
G04 #@! TO.P,R2,1*
G04 #@! TO.N,GND*
X100076000Y-72135000D03*
G04 #@! TO.P,R2,2*
G04 #@! TO.N,Net-(R2-Pad2)*
X100076000Y-70485000D03*
G04 #@! TD*
D25*
G04 #@! TO.N,GND*
X96774000Y-72644000D03*
X100076000Y-72135010D03*
X99060000Y-62611000D03*
X97790000Y-65024000D03*
X103124000Y-72136000D03*
X105029000Y-66802000D03*
X101727000Y-67818000D03*
X106553000Y-68580000D03*
X96901000Y-68072000D03*
X102362000Y-67183000D03*
X95123000Y-68072000D03*
X105029000Y-66040000D03*
X99949000Y-62611000D03*
G04 #@! TD*
D26*
G04 #@! TO.N,GND*
X99065000Y-62616000D02*
X99060000Y-62611000D01*
X102030000Y-67515000D02*
X102362000Y-67183000D01*
X99568000Y-62616000D02*
X99944000Y-62616000D01*
X102030000Y-67557000D02*
X101988000Y-67557000D01*
X97790000Y-64998000D02*
X97790000Y-65024000D01*
X99944000Y-62616000D02*
X99949000Y-62611000D01*
X96875000Y-68072000D02*
X96901000Y-68072000D01*
X96799500Y-72669500D02*
X96774000Y-72644000D01*
X96838000Y-72669500D02*
X96799500Y-72669500D01*
X100076000Y-72135000D02*
X100076000Y-72135010D01*
X105029000Y-66548000D02*
X105029000Y-66040000D01*
X106552000Y-68580000D02*
X106553000Y-68580000D01*
X99568000Y-62616000D02*
X99065000Y-62616000D01*
X105029000Y-66548000D02*
X105029000Y-66802000D01*
X101988000Y-67557000D02*
X101727000Y-67818000D01*
X102030000Y-67557000D02*
X102030000Y-67515000D01*
G04 #@! TO.N,/REGN*
X100674520Y-71209520D02*
X97933030Y-71209520D01*
X99698000Y-67307000D02*
X100592500Y-67307000D01*
X97762980Y-71039470D02*
X97762980Y-68734020D01*
X97933030Y-71209520D02*
X97762980Y-71039470D01*
X97762980Y-68734020D02*
X98425000Y-68072000D01*
X98425000Y-68072000D02*
X98933000Y-68072000D01*
X101600000Y-72135000D02*
X100674520Y-71209520D01*
X98933000Y-68072000D02*
X99698000Y-67307000D01*
G04 #@! TO.N,Net-(C4-Pad1)*
X101346000Y-64643000D02*
X101600000Y-64389000D01*
X101600000Y-64389000D02*
X101780000Y-64569000D01*
X101780000Y-64569000D02*
X101780000Y-66119500D01*
G04 #@! TO.N,+BATT*
X105697020Y-67779980D02*
X106929000Y-66548000D01*
X103467500Y-67807000D02*
X103494520Y-67779980D01*
X103494520Y-67779980D02*
X105697020Y-67779980D01*
G04 #@! TO.N,/STAT*
X96838000Y-69596000D02*
X96838000Y-71094500D01*
X94613520Y-71094500D02*
X93318020Y-72390000D01*
X96838000Y-71094500D02*
X94613520Y-71094500D01*
G04 #@! TO.N,Net-(R1-Pad2)*
X98488000Y-69596000D02*
X98488000Y-69425964D01*
X100095964Y-67818000D02*
X100581500Y-67818000D01*
X98488000Y-69425964D02*
X100095964Y-67818000D01*
X100581500Y-67818000D02*
X100592500Y-67807000D01*
G04 #@! TO.N,Net-(R2-Pad2)*
X100076000Y-68580000D02*
X100076000Y-70485000D01*
X100349000Y-68307000D02*
X100076000Y-68580000D01*
X100592500Y-68307000D02*
X100349000Y-68307000D01*
X100076000Y-68580000D02*
X100076000Y-68823500D01*
G04 #@! TO.N,Net-(R3-Pad2)*
X102280000Y-69805000D02*
X102280000Y-68994500D01*
X101600000Y-70485000D02*
X102280000Y-69805000D01*
X103124000Y-70486000D02*
X102961000Y-70486000D01*
X102961000Y-70486000D02*
X102280000Y-69805000D01*
G04 #@! TO.N,Net-(R5-Pad1)*
X104629000Y-68307000D02*
X104902000Y-68580000D01*
X103467500Y-68307000D02*
X104629000Y-68307000D01*
G04 #@! TD*
G04 #@! TA.AperFunction,Conductor*
G04 #@! TO.N,Net-(C3-Pad1)*
G36*
X100272121Y-64409002D02*
G01*
X100318614Y-64462658D01*
X100330000Y-64515000D01*
X100330000Y-65151000D01*
X100584000Y-65405000D01*
X101039810Y-65405000D01*
X101107931Y-65425002D01*
X101128905Y-65441905D01*
X101309095Y-65622095D01*
X101343121Y-65684407D01*
X101346000Y-65711190D01*
X101346000Y-66422000D01*
X101325998Y-66490121D01*
X101272342Y-66536614D01*
X101220000Y-66548000D01*
X101185025Y-66548000D01*
X101115024Y-66526765D01*
X101070118Y-66496760D01*
X101072644Y-66492979D01*
X101034328Y-66461492D01*
X100848049Y-66182074D01*
X100838000Y-66167000D01*
X100001190Y-66167000D01*
X99933069Y-66146998D01*
X99912095Y-66130095D01*
X98969905Y-65187905D01*
X98935879Y-65125593D01*
X98933000Y-65098810D01*
X98933000Y-64515000D01*
X98953002Y-64446879D01*
X99006658Y-64400386D01*
X99059000Y-64389000D01*
X100204000Y-64389000D01*
X100272121Y-64409002D01*
G37*
G04 #@! TD.AperFunction*
G04 #@! TD*
G04 #@! TA.AperFunction,Conductor*
G04 #@! TO.N,VBUS*
G36*
X99583931Y-66187002D02*
G01*
X99604905Y-66203905D01*
X99822000Y-66421000D01*
X100658810Y-66421000D01*
X100726931Y-66441002D01*
X100747905Y-66457905D01*
X100928095Y-66638095D01*
X100962121Y-66700407D01*
X100965000Y-66727190D01*
X100965000Y-66803000D01*
X100944998Y-66871121D01*
X100891342Y-66917614D01*
X100839000Y-66929000D01*
X97282000Y-66929000D01*
X97282000Y-66167000D01*
X99515810Y-66167000D01*
X99583931Y-66187002D01*
G37*
G04 #@! TD.AperFunction*
G04 #@! TD*
G04 #@! TA.AperFunction,Conductor*
G04 #@! TO.N,VBUS*
G36*
X94216879Y-60973788D02*
G01*
X94280997Y-60981013D01*
X94308505Y-60987292D01*
X94472248Y-61044589D01*
X94497668Y-61056831D01*
X94644557Y-61149127D01*
X94666616Y-61166719D01*
X94789281Y-61289384D01*
X94806873Y-61311443D01*
X94899169Y-61458332D01*
X94911411Y-61483752D01*
X94968708Y-61647495D01*
X94974987Y-61675004D01*
X94995208Y-61854471D01*
X94996000Y-61868578D01*
X94996000Y-64770000D01*
X96139000Y-65913000D01*
X96520000Y-66040000D01*
X97941787Y-66040000D01*
X97966367Y-66042421D01*
X97993358Y-66047790D01*
X98012582Y-66051613D01*
X98058002Y-66070427D01*
X98107500Y-66103500D01*
X98171000Y-66167000D01*
X98171000Y-66929000D01*
X95131383Y-66929000D01*
X95119863Y-66928472D01*
X95051706Y-66922213D01*
X94955007Y-66913333D01*
X94932348Y-66909136D01*
X94778583Y-66865797D01*
X94757075Y-66857547D01*
X94613766Y-66786924D01*
X94594124Y-66774895D01*
X94461432Y-66675890D01*
X94452512Y-66668576D01*
X93927080Y-66195893D01*
X93927079Y-66195893D01*
X93726000Y-66015000D01*
X93460561Y-66019355D01*
X93454943Y-66018533D01*
X93382761Y-66005249D01*
X93336642Y-65986807D01*
X93292530Y-65957982D01*
X93257121Y-65923150D01*
X93227574Y-65879513D01*
X93208379Y-65833703D01*
X93204813Y-65815964D01*
X93195472Y-65769502D01*
X93193000Y-65744669D01*
X93193000Y-61868578D01*
X93193792Y-61854471D01*
X93214013Y-61675004D01*
X93220292Y-61647495D01*
X93277589Y-61483752D01*
X93289831Y-61458332D01*
X93382127Y-61311443D01*
X93399719Y-61289384D01*
X93522384Y-61166719D01*
X93544443Y-61149127D01*
X93691332Y-61056831D01*
X93716752Y-61044589D01*
X93880495Y-60987292D01*
X93908003Y-60981013D01*
X93972121Y-60973788D01*
X94080397Y-60961589D01*
X94108603Y-60961589D01*
X94216879Y-60973788D01*
G37*
G04 #@! TD.AperFunction*
G04 #@! TD*
G04 #@! TA.AperFunction,Conductor*
G04 #@! TO.N,+BATT*
G36*
X110589949Y-59944607D02*
G01*
X110766527Y-59961999D01*
X110790744Y-59966815D01*
X110954596Y-60016518D01*
X110977416Y-60025971D01*
X111128412Y-60106680D01*
X111148950Y-60120403D01*
X111286114Y-60232971D01*
X111295275Y-60241275D01*
X112014000Y-60960000D01*
X112628242Y-60960000D01*
X112644688Y-60961078D01*
X112781168Y-60979046D01*
X112812940Y-60987559D01*
X112932426Y-61037052D01*
X112960909Y-61053496D01*
X113063518Y-61132231D01*
X113086769Y-61155482D01*
X113165504Y-61258091D01*
X113181948Y-61286574D01*
X113231441Y-61406060D01*
X113239954Y-61437832D01*
X113257922Y-61574312D01*
X113259000Y-61590758D01*
X113259000Y-65033813D01*
X113258393Y-65046163D01*
X113241002Y-65222737D01*
X113236185Y-65246957D01*
X113202200Y-65358994D01*
X113186482Y-65410809D01*
X113177029Y-65433629D01*
X113132628Y-65516699D01*
X113096319Y-65584628D01*
X113082601Y-65605158D01*
X112973974Y-65737521D01*
X112956521Y-65754974D01*
X112824158Y-65863601D01*
X112803631Y-65877317D01*
X112712363Y-65926101D01*
X112652629Y-65958029D01*
X112629810Y-65967482D01*
X112465957Y-66017185D01*
X112441740Y-66022001D01*
X112265163Y-66039393D01*
X112252813Y-66040000D01*
X108712000Y-66040000D01*
X108000646Y-66929193D01*
X107991248Y-66939677D01*
X107907601Y-67023099D01*
X107847994Y-67082545D01*
X107825952Y-67100081D01*
X107660570Y-67203775D01*
X107635184Y-67215976D01*
X107450899Y-67280341D01*
X107423435Y-67286598D01*
X107247383Y-67306400D01*
X107222417Y-67309208D01*
X107222399Y-67309210D01*
X107208316Y-67310000D01*
X106941079Y-67310000D01*
X106926971Y-67309208D01*
X106778543Y-67292484D01*
X106751037Y-67286206D01*
X106616784Y-67239228D01*
X106591365Y-67226987D01*
X106470918Y-67151306D01*
X106448858Y-67133713D01*
X106348287Y-67033142D01*
X106330694Y-67011082D01*
X106255013Y-66890635D01*
X106242772Y-66865216D01*
X106195795Y-66730965D01*
X106189516Y-66703457D01*
X106172792Y-66555029D01*
X106172000Y-66540921D01*
X106172000Y-66137874D01*
X106172765Y-66124012D01*
X106194671Y-65926101D01*
X106200733Y-65899051D01*
X106263119Y-65717328D01*
X106274951Y-65692256D01*
X106375568Y-65528577D01*
X106392591Y-65506705D01*
X106485885Y-65410809D01*
X106531448Y-65363975D01*
X106541661Y-65354574D01*
X107964028Y-64183213D01*
X107964036Y-64183206D01*
X108331000Y-63881000D01*
X108331000Y-60950187D01*
X108331607Y-60937837D01*
X108336745Y-60885675D01*
X108348999Y-60761260D01*
X108353815Y-60737043D01*
X108403518Y-60573190D01*
X108412971Y-60550371D01*
X108493681Y-60399372D01*
X108507399Y-60378842D01*
X108616026Y-60246479D01*
X108633479Y-60229026D01*
X108765842Y-60120399D01*
X108786369Y-60106683D01*
X108937371Y-60025971D01*
X108960191Y-60016518D01*
X109124043Y-59966815D01*
X109148260Y-59961999D01*
X109324837Y-59944607D01*
X109337187Y-59944000D01*
X110577599Y-59944000D01*
X110589949Y-59944607D01*
G37*
G04 #@! TD.AperFunction*
G04 #@! TD*
G04 #@! TA.AperFunction,Conductor*
G04 #@! TO.N,Net-(C4-Pad2)*
G36*
X104590121Y-59964002D02*
G01*
X104636614Y-60017658D01*
X104648000Y-60070000D01*
X104648000Y-64717810D01*
X104627998Y-64785931D01*
X104611095Y-64806905D01*
X102906905Y-66511095D01*
X102844593Y-66545121D01*
X102817810Y-66548000D01*
X102234000Y-66548000D01*
X102165879Y-66527998D01*
X102119386Y-66474342D01*
X102108000Y-66422000D01*
X102108000Y-64560124D01*
X102108361Y-64551859D01*
X102108302Y-64551180D01*
X102109263Y-64540193D01*
X102109198Y-64539949D01*
X102110096Y-64535480D01*
X102108000Y-64535480D01*
X102108000Y-64008000D01*
X101727000Y-63627000D01*
X101091000Y-63627000D01*
X101022879Y-63606998D01*
X100976386Y-63553342D01*
X100965000Y-63501000D01*
X100965000Y-62610000D01*
X100985002Y-62541879D01*
X101038658Y-62495386D01*
X101091000Y-62484000D01*
X102362000Y-62484000D01*
X102362000Y-60070000D01*
X102382002Y-60001879D01*
X102435658Y-59955386D01*
X102488000Y-59944000D01*
X104522000Y-59944000D01*
X104590121Y-59964002D01*
G37*
G04 #@! TD.AperFunction*
G04 #@! TD*
G04 #@! TA.AperFunction,Conductor*
G04 #@! TO.N,GND*
G36*
X105479121Y-65806002D02*
G01*
X105525614Y-65859658D01*
X105537000Y-65912000D01*
X105537000Y-67003810D01*
X105516998Y-67071931D01*
X105500095Y-67092905D01*
X105192905Y-67400095D01*
X105130593Y-67434121D01*
X105103810Y-67437000D01*
X103250000Y-67437000D01*
X103181879Y-67416998D01*
X103135386Y-67363342D01*
X103124000Y-67311000D01*
X103124000Y-66801000D01*
X103144002Y-66732879D01*
X103197658Y-66686386D01*
X103250000Y-66675000D01*
X104267000Y-66675000D01*
X104521000Y-66421000D01*
X104521000Y-65912000D01*
X104541002Y-65843879D01*
X104594658Y-65797386D01*
X104647000Y-65786000D01*
X105411000Y-65786000D01*
X105479121Y-65806002D01*
G37*
G04 #@! TD.AperFunction*
G04 #@! TD*
M02*
