M48
; DRILL file {KiCad (5.99.0-11522-g728b160719)} date Mon Aug  2 20:46:47 2021
; FORMAT={-:-/ absolute / metric / decimal}
; #@! TF.CreationDate,2021-08-02T20:46:47+10:00
; #@! TF.GenerationSoftware,Kicad,Pcbnew,(5.99.0-11522-g728b160719)
; #@! TF.FileFunction,MixedPlating,1,2
FMAT,2
METRIC
; #@! TA.AperFunction,Plated,PTH,ViaDrill
T1C0.400
; #@! TA.AperFunction,Plated,PTH,ComponentDrill
T2C1.000
%
G90
G05
T1
X95.123Y-68.072
X96.774Y-72.644
X96.901Y-68.072
X97.79Y-65.024
X99.06Y-62.611
X99.949Y-62.611
X100.076Y-72.135
X101.727Y-67.818
X102.362Y-67.183
X103.124Y-72.136
X105.029Y-66.04
X105.029Y-66.802
X106.553Y-68.58
T2
X93.193Y-59.69
X93.193Y-62.23
X93.193Y-64.77
X93.193Y-67.31
X93.193Y-69.85
X93.193Y-72.39
X113.284Y-59.69
X113.284Y-62.23
X113.284Y-64.77
X113.284Y-67.31
X113.284Y-69.85
X113.284Y-72.39
T0
M30
