G04 #@! TF.GenerationSoftware,KiCad,Pcbnew,(5.99.0-11749-g6427197962)*
G04 #@! TF.CreationDate,2021-09-04T15:49:30+10:00*
G04 #@! TF.ProjectId,Mainboard,4d61696e-626f-4617-9264-2e6b69636164,rev?*
G04 #@! TF.SameCoordinates,Original*
G04 #@! TF.FileFunction,Legend,Bot*
G04 #@! TF.FilePolarity,Positive*
%FSLAX46Y46*%
G04 Gerber Fmt 4.6, Leading zero omitted, Abs format (unit mm)*
G04 Created by KiCad (PCBNEW (5.99.0-11749-g6427197962)) date 2021-09-04 15:49:30*
%MOMM*%
%LPD*%
G01*
G04 APERTURE LIST*
%ADD10C,0.100000*%
%ADD11C,0.150000*%
G04 #@! TA.AperFunction,Profile*
%ADD12C,0.100000*%
G04 #@! TD*
%ADD13C,0.120000*%
G04 APERTURE END LIST*
D10*
X139446000Y-89408000D02*
X159512000Y-89408000D01*
X159512000Y-89408000D02*
X159512000Y-69342000D01*
X159512000Y-69342000D02*
X139446000Y-69342000D01*
X139446000Y-69342000D02*
X139446000Y-89408000D01*
X99885000Y-90717000D02*
X119951000Y-90717000D01*
X119951000Y-90717000D02*
X119951000Y-70651000D01*
X119951000Y-70651000D02*
X99885000Y-70651000D01*
X99885000Y-70651000D02*
X99885000Y-90717000D01*
X83450000Y-82614000D02*
X63384000Y-82614000D01*
X63384000Y-82614000D02*
X63384000Y-102680000D01*
X63384000Y-102680000D02*
X83450000Y-102680000D01*
X83450000Y-102680000D02*
X83450000Y-82614000D01*
X83350000Y-56223000D02*
X63284000Y-56223000D01*
X63284000Y-56223000D02*
X63284000Y-76289000D01*
X63284000Y-76289000D02*
X83350000Y-76289000D01*
X83350000Y-76289000D02*
X83350000Y-56223000D01*
D11*
X86614000Y-58928000D02*
X103632000Y-58928000D01*
X103632000Y-58928000D02*
X103632000Y-42164000D01*
X103632000Y-42164000D02*
X86614000Y-42164000D01*
X86614000Y-42164000D02*
X86614000Y-58928000D01*
D12*
X239839000Y-159703000D02*
X60261000Y-159703000D01*
X60261000Y-159703000D02*
X60261000Y-41593000D01*
X60261000Y-41593000D02*
X239839000Y-41593000D01*
X239839000Y-41593000D02*
X239839000Y-159703000D01*
D11*
G04 #@! TO.C,U1*
X159477380Y-65687095D02*
X160286904Y-65687095D01*
X160382142Y-65734714D01*
X160429761Y-65782333D01*
X160477380Y-65877571D01*
X160477380Y-66068047D01*
X160429761Y-66163285D01*
X160382142Y-66210904D01*
X160286904Y-66258523D01*
X159477380Y-66258523D01*
X160477380Y-67258523D02*
X160477380Y-66687095D01*
X160477380Y-66972809D02*
X159477380Y-66972809D01*
X159620238Y-66877571D01*
X159715476Y-66782333D01*
X159763095Y-66687095D01*
G04 #@! TO.C,JP4*
X149931333Y-82024380D02*
X149931333Y-82738666D01*
X149978952Y-82881523D01*
X150074190Y-82976761D01*
X150217047Y-83024380D01*
X150312285Y-83024380D01*
X149455142Y-83024380D02*
X149455142Y-82024380D01*
X149074190Y-82024380D01*
X148978952Y-82072000D01*
X148931333Y-82119619D01*
X148883714Y-82214857D01*
X148883714Y-82357714D01*
X148931333Y-82452952D01*
X148978952Y-82500571D01*
X149074190Y-82548190D01*
X149455142Y-82548190D01*
X148026571Y-82357714D02*
X148026571Y-83024380D01*
X148264666Y-81976761D02*
X148502761Y-82691047D01*
X147883714Y-82691047D01*
G04 #@! TO.C,R26*
X73096380Y-73779142D02*
X72620190Y-73445809D01*
X73096380Y-73207714D02*
X72096380Y-73207714D01*
X72096380Y-73588666D01*
X72144000Y-73683904D01*
X72191619Y-73731523D01*
X72286857Y-73779142D01*
X72429714Y-73779142D01*
X72524952Y-73731523D01*
X72572571Y-73683904D01*
X72620190Y-73588666D01*
X72620190Y-73207714D01*
X72191619Y-74160095D02*
X72144000Y-74207714D01*
X72096380Y-74302952D01*
X72096380Y-74541047D01*
X72144000Y-74636285D01*
X72191619Y-74683904D01*
X72286857Y-74731523D01*
X72382095Y-74731523D01*
X72524952Y-74683904D01*
X73096380Y-74112476D01*
X73096380Y-74731523D01*
X72096380Y-75588666D02*
X72096380Y-75398190D01*
X72144000Y-75302952D01*
X72191619Y-75255333D01*
X72334476Y-75160095D01*
X72524952Y-75112476D01*
X72905904Y-75112476D01*
X73001142Y-75160095D01*
X73048761Y-75207714D01*
X73096380Y-75302952D01*
X73096380Y-75493428D01*
X73048761Y-75588666D01*
X73001142Y-75636285D01*
X72905904Y-75683904D01*
X72667809Y-75683904D01*
X72572571Y-75636285D01*
X72524952Y-75588666D01*
X72477333Y-75493428D01*
X72477333Y-75302952D01*
X72524952Y-75207714D01*
X72572571Y-75160095D01*
X72667809Y-75112476D01*
G04 #@! TO.C,R23*
X77668380Y-70414142D02*
X77192190Y-70080809D01*
X77668380Y-69842714D02*
X76668380Y-69842714D01*
X76668380Y-70223666D01*
X76716000Y-70318904D01*
X76763619Y-70366523D01*
X76858857Y-70414142D01*
X77001714Y-70414142D01*
X77096952Y-70366523D01*
X77144571Y-70318904D01*
X77192190Y-70223666D01*
X77192190Y-69842714D01*
X76763619Y-70795095D02*
X76716000Y-70842714D01*
X76668380Y-70937952D01*
X76668380Y-71176047D01*
X76716000Y-71271285D01*
X76763619Y-71318904D01*
X76858857Y-71366523D01*
X76954095Y-71366523D01*
X77096952Y-71318904D01*
X77668380Y-70747476D01*
X77668380Y-71366523D01*
X76668380Y-71699857D02*
X76668380Y-72318904D01*
X77049333Y-71985571D01*
X77049333Y-72128428D01*
X77096952Y-72223666D01*
X77144571Y-72271285D01*
X77239809Y-72318904D01*
X77477904Y-72318904D01*
X77573142Y-72271285D01*
X77620761Y-72223666D01*
X77668380Y-72128428D01*
X77668380Y-71842714D01*
X77620761Y-71747476D01*
X77573142Y-71699857D01*
G04 #@! TO.C,U3*
X95710154Y-55659380D02*
X95710154Y-56468904D01*
X95662535Y-56564142D01*
X95614916Y-56611761D01*
X95519678Y-56659380D01*
X95329202Y-56659380D01*
X95233964Y-56611761D01*
X95186345Y-56564142D01*
X95138726Y-56468904D01*
X95138726Y-55659380D01*
X94757773Y-55659380D02*
X94138726Y-55659380D01*
X94472059Y-56040333D01*
X94329202Y-56040333D01*
X94233964Y-56087952D01*
X94186345Y-56135571D01*
X94138726Y-56230809D01*
X94138726Y-56468904D01*
X94186345Y-56564142D01*
X94233964Y-56611761D01*
X94329202Y-56659380D01*
X94614916Y-56659380D01*
X94710154Y-56611761D01*
X94757773Y-56564142D01*
G04 #@! TO.C,J12*
X83930523Y-74803380D02*
X83930523Y-75517666D01*
X83978142Y-75660523D01*
X84073380Y-75755761D01*
X84216238Y-75803380D01*
X84311476Y-75803380D01*
X82930523Y-75803380D02*
X83501952Y-75803380D01*
X83216238Y-75803380D02*
X83216238Y-74803380D01*
X83311476Y-74946238D01*
X83406714Y-75041476D01*
X83501952Y-75089095D01*
X82549571Y-74898619D02*
X82501952Y-74851000D01*
X82406714Y-74803380D01*
X82168619Y-74803380D01*
X82073380Y-74851000D01*
X82025761Y-74898619D01*
X81978142Y-74993857D01*
X81978142Y-75089095D01*
X82025761Y-75231952D01*
X82597190Y-75803380D01*
X81978142Y-75803380D01*
G04 #@! TO.C,TP2*
X147819904Y-154646380D02*
X147248476Y-154646380D01*
X147534190Y-155646380D02*
X147534190Y-154646380D01*
X146915142Y-155646380D02*
X146915142Y-154646380D01*
X146534190Y-154646380D01*
X146438952Y-154694000D01*
X146391333Y-154741619D01*
X146343714Y-154836857D01*
X146343714Y-154979714D01*
X146391333Y-155074952D01*
X146438952Y-155122571D01*
X146534190Y-155170190D01*
X146915142Y-155170190D01*
X145962761Y-154741619D02*
X145915142Y-154694000D01*
X145819904Y-154646380D01*
X145581809Y-154646380D01*
X145486571Y-154694000D01*
X145438952Y-154741619D01*
X145391333Y-154836857D01*
X145391333Y-154932095D01*
X145438952Y-155074952D01*
X146010380Y-155646380D01*
X145391333Y-155646380D01*
G04 #@! TO.C,Q2*
X99607619Y-56800761D02*
X99560000Y-56705523D01*
X99464761Y-56610285D01*
X99321904Y-56467428D01*
X99274285Y-56372190D01*
X99274285Y-56276952D01*
X99512380Y-56324571D02*
X99464761Y-56229333D01*
X99369523Y-56134095D01*
X99179047Y-56086476D01*
X98845714Y-56086476D01*
X98655238Y-56134095D01*
X98560000Y-56229333D01*
X98512380Y-56324571D01*
X98512380Y-56515047D01*
X98560000Y-56610285D01*
X98655238Y-56705523D01*
X98845714Y-56753142D01*
X99179047Y-56753142D01*
X99369523Y-56705523D01*
X99464761Y-56610285D01*
X99512380Y-56515047D01*
X99512380Y-56324571D01*
X98607619Y-57134095D02*
X98560000Y-57181714D01*
X98512380Y-57276952D01*
X98512380Y-57515047D01*
X98560000Y-57610285D01*
X98607619Y-57657904D01*
X98702857Y-57705523D01*
X98798095Y-57705523D01*
X98940952Y-57657904D01*
X99512380Y-57086476D01*
X99512380Y-57705523D01*
G04 #@! TO.C,C9*
X69445142Y-57491333D02*
X69492761Y-57443714D01*
X69540380Y-57300857D01*
X69540380Y-57205619D01*
X69492761Y-57062761D01*
X69397523Y-56967523D01*
X69302285Y-56919904D01*
X69111809Y-56872285D01*
X68968952Y-56872285D01*
X68778476Y-56919904D01*
X68683238Y-56967523D01*
X68588000Y-57062761D01*
X68540380Y-57205619D01*
X68540380Y-57300857D01*
X68588000Y-57443714D01*
X68635619Y-57491333D01*
X69540380Y-57967523D02*
X69540380Y-58158000D01*
X69492761Y-58253238D01*
X69445142Y-58300857D01*
X69302285Y-58396095D01*
X69111809Y-58443714D01*
X68730857Y-58443714D01*
X68635619Y-58396095D01*
X68588000Y-58348476D01*
X68540380Y-58253238D01*
X68540380Y-58062761D01*
X68588000Y-57967523D01*
X68635619Y-57919904D01*
X68730857Y-57872285D01*
X68968952Y-57872285D01*
X69064190Y-57919904D01*
X69111809Y-57967523D01*
X69159428Y-58062761D01*
X69159428Y-58253238D01*
X69111809Y-58348476D01*
X69064190Y-58396095D01*
X68968952Y-58443714D01*
G04 #@! TO.C,J2*
X67414333Y-98732380D02*
X67414333Y-99446666D01*
X67461952Y-99589523D01*
X67557190Y-99684761D01*
X67700047Y-99732380D01*
X67795285Y-99732380D01*
X66985761Y-98827619D02*
X66938142Y-98780000D01*
X66842904Y-98732380D01*
X66604809Y-98732380D01*
X66509571Y-98780000D01*
X66461952Y-98827619D01*
X66414333Y-98922857D01*
X66414333Y-99018095D01*
X66461952Y-99160952D01*
X67033380Y-99732380D01*
X66414333Y-99732380D01*
G04 #@! TO.C,JP2*
X111132333Y-83231380D02*
X111132333Y-83945666D01*
X111179952Y-84088523D01*
X111275190Y-84183761D01*
X111418047Y-84231380D01*
X111513285Y-84231380D01*
X110656142Y-84231380D02*
X110656142Y-83231380D01*
X110275190Y-83231380D01*
X110179952Y-83279000D01*
X110132333Y-83326619D01*
X110084714Y-83421857D01*
X110084714Y-83564714D01*
X110132333Y-83659952D01*
X110179952Y-83707571D01*
X110275190Y-83755190D01*
X110656142Y-83755190D01*
X109703761Y-83326619D02*
X109656142Y-83279000D01*
X109560904Y-83231380D01*
X109322809Y-83231380D01*
X109227571Y-83279000D01*
X109179952Y-83326619D01*
X109132333Y-83421857D01*
X109132333Y-83517095D01*
X109179952Y-83659952D01*
X109751380Y-84231380D01*
X109132333Y-84231380D01*
G04 #@! TO.C,D2*
X61221380Y-78509904D02*
X60221380Y-78509904D01*
X60221380Y-78748000D01*
X60269000Y-78890857D01*
X60364238Y-78986095D01*
X60459476Y-79033714D01*
X60649952Y-79081333D01*
X60792809Y-79081333D01*
X60983285Y-79033714D01*
X61078523Y-78986095D01*
X61173761Y-78890857D01*
X61221380Y-78748000D01*
X61221380Y-78509904D01*
X60316619Y-79462285D02*
X60269000Y-79509904D01*
X60221380Y-79605142D01*
X60221380Y-79843238D01*
X60269000Y-79938476D01*
X60316619Y-79986095D01*
X60411857Y-80033714D01*
X60507095Y-80033714D01*
X60649952Y-79986095D01*
X61221380Y-79414666D01*
X61221380Y-80033714D01*
G04 #@! TO.C,C5*
X91304916Y-56633142D02*
X91352535Y-56680761D01*
X91495392Y-56728380D01*
X91590630Y-56728380D01*
X91733488Y-56680761D01*
X91828726Y-56585523D01*
X91876345Y-56490285D01*
X91923964Y-56299809D01*
X91923964Y-56156952D01*
X91876345Y-55966476D01*
X91828726Y-55871238D01*
X91733488Y-55776000D01*
X91590630Y-55728380D01*
X91495392Y-55728380D01*
X91352535Y-55776000D01*
X91304916Y-55823619D01*
X90400154Y-55728380D02*
X90876345Y-55728380D01*
X90923964Y-56204571D01*
X90876345Y-56156952D01*
X90781107Y-56109333D01*
X90543011Y-56109333D01*
X90447773Y-56156952D01*
X90400154Y-56204571D01*
X90352535Y-56299809D01*
X90352535Y-56537904D01*
X90400154Y-56633142D01*
X90447773Y-56680761D01*
X90543011Y-56728380D01*
X90781107Y-56728380D01*
X90876345Y-56680761D01*
X90923964Y-56633142D01*
G04 #@! TO.C,SW2*
X76038761Y-118120666D02*
X76086380Y-118263523D01*
X76086380Y-118501619D01*
X76038761Y-118596857D01*
X75991142Y-118644476D01*
X75895904Y-118692095D01*
X75800666Y-118692095D01*
X75705428Y-118644476D01*
X75657809Y-118596857D01*
X75610190Y-118501619D01*
X75562571Y-118311142D01*
X75514952Y-118215904D01*
X75467333Y-118168285D01*
X75372095Y-118120666D01*
X75276857Y-118120666D01*
X75181619Y-118168285D01*
X75134000Y-118215904D01*
X75086380Y-118311142D01*
X75086380Y-118549238D01*
X75134000Y-118692095D01*
X75086380Y-119025428D02*
X76086380Y-119263523D01*
X75372095Y-119454000D01*
X76086380Y-119644476D01*
X75086380Y-119882571D01*
X75181619Y-120215904D02*
X75134000Y-120263523D01*
X75086380Y-120358761D01*
X75086380Y-120596857D01*
X75134000Y-120692095D01*
X75181619Y-120739714D01*
X75276857Y-120787333D01*
X75372095Y-120787333D01*
X75514952Y-120739714D01*
X76086380Y-120168285D01*
X76086380Y-120787333D01*
G04 #@! TO.C,R5*
X66492380Y-82383333D02*
X66016190Y-82050000D01*
X66492380Y-81811904D02*
X65492380Y-81811904D01*
X65492380Y-82192857D01*
X65540000Y-82288095D01*
X65587619Y-82335714D01*
X65682857Y-82383333D01*
X65825714Y-82383333D01*
X65920952Y-82335714D01*
X65968571Y-82288095D01*
X66016190Y-82192857D01*
X66016190Y-81811904D01*
X65492380Y-83288095D02*
X65492380Y-82811904D01*
X65968571Y-82764285D01*
X65920952Y-82811904D01*
X65873333Y-82907142D01*
X65873333Y-83145238D01*
X65920952Y-83240476D01*
X65968571Y-83288095D01*
X66063809Y-83335714D01*
X66301904Y-83335714D01*
X66397142Y-83288095D01*
X66444761Y-83240476D01*
X66492380Y-83145238D01*
X66492380Y-82907142D01*
X66444761Y-82811904D01*
X66397142Y-82764285D01*
G04 #@! TO.C,C10*
X69445142Y-73716142D02*
X69492761Y-73668523D01*
X69540380Y-73525666D01*
X69540380Y-73430428D01*
X69492761Y-73287571D01*
X69397523Y-73192333D01*
X69302285Y-73144714D01*
X69111809Y-73097095D01*
X68968952Y-73097095D01*
X68778476Y-73144714D01*
X68683238Y-73192333D01*
X68588000Y-73287571D01*
X68540380Y-73430428D01*
X68540380Y-73525666D01*
X68588000Y-73668523D01*
X68635619Y-73716142D01*
X69540380Y-74668523D02*
X69540380Y-74097095D01*
X69540380Y-74382809D02*
X68540380Y-74382809D01*
X68683238Y-74287571D01*
X68778476Y-74192333D01*
X68826095Y-74097095D01*
X68540380Y-75287571D02*
X68540380Y-75382809D01*
X68588000Y-75478047D01*
X68635619Y-75525666D01*
X68730857Y-75573285D01*
X68921333Y-75620904D01*
X69159428Y-75620904D01*
X69349904Y-75573285D01*
X69445142Y-75525666D01*
X69492761Y-75478047D01*
X69540380Y-75382809D01*
X69540380Y-75287571D01*
X69492761Y-75192333D01*
X69445142Y-75144714D01*
X69349904Y-75097095D01*
X69159428Y-75049476D01*
X68921333Y-75049476D01*
X68730857Y-75097095D01*
X68635619Y-75144714D01*
X68588000Y-75192333D01*
X68540380Y-75287571D01*
G04 #@! TO.C,J45*
X160321523Y-69732380D02*
X160321523Y-70446666D01*
X160369142Y-70589523D01*
X160464380Y-70684761D01*
X160607238Y-70732380D01*
X160702476Y-70732380D01*
X159416761Y-70065714D02*
X159416761Y-70732380D01*
X159654857Y-69684761D02*
X159892952Y-70399047D01*
X159273904Y-70399047D01*
X158416761Y-69732380D02*
X158892952Y-69732380D01*
X158940571Y-70208571D01*
X158892952Y-70160952D01*
X158797714Y-70113333D01*
X158559619Y-70113333D01*
X158464380Y-70160952D01*
X158416761Y-70208571D01*
X158369142Y-70303809D01*
X158369142Y-70541904D01*
X158416761Y-70637142D01*
X158464380Y-70684761D01*
X158559619Y-70732380D01*
X158797714Y-70732380D01*
X158892952Y-70684761D01*
X158940571Y-70637142D01*
G04 #@! TO.C,J10*
X64093523Y-74803380D02*
X64093523Y-75517666D01*
X64141142Y-75660523D01*
X64236380Y-75755761D01*
X64379238Y-75803380D01*
X64474476Y-75803380D01*
X63093523Y-75803380D02*
X63664952Y-75803380D01*
X63379238Y-75803380D02*
X63379238Y-74803380D01*
X63474476Y-74946238D01*
X63569714Y-75041476D01*
X63664952Y-75089095D01*
X62474476Y-74803380D02*
X62379238Y-74803380D01*
X62284000Y-74851000D01*
X62236380Y-74898619D01*
X62188761Y-74993857D01*
X62141142Y-75184333D01*
X62141142Y-75422428D01*
X62188761Y-75612904D01*
X62236380Y-75708142D01*
X62284000Y-75755761D01*
X62379238Y-75803380D01*
X62474476Y-75803380D01*
X62569714Y-75755761D01*
X62617333Y-75708142D01*
X62664952Y-75612904D01*
X62712571Y-75422428D01*
X62712571Y-75184333D01*
X62664952Y-74993857D01*
X62617333Y-74898619D01*
X62569714Y-74851000D01*
X62474476Y-74803380D01*
G04 #@! TO.C,Q3*
X99607619Y-48926761D02*
X99560000Y-48831523D01*
X99464761Y-48736285D01*
X99321904Y-48593428D01*
X99274285Y-48498190D01*
X99274285Y-48402952D01*
X99512380Y-48450571D02*
X99464761Y-48355333D01*
X99369523Y-48260095D01*
X99179047Y-48212476D01*
X98845714Y-48212476D01*
X98655238Y-48260095D01*
X98560000Y-48355333D01*
X98512380Y-48450571D01*
X98512380Y-48641047D01*
X98560000Y-48736285D01*
X98655238Y-48831523D01*
X98845714Y-48879142D01*
X99179047Y-48879142D01*
X99369523Y-48831523D01*
X99464761Y-48736285D01*
X99512380Y-48641047D01*
X99512380Y-48450571D01*
X98512380Y-49212476D02*
X98512380Y-49831523D01*
X98893333Y-49498190D01*
X98893333Y-49641047D01*
X98940952Y-49736285D01*
X98988571Y-49783904D01*
X99083809Y-49831523D01*
X99321904Y-49831523D01*
X99417142Y-49783904D01*
X99464761Y-49736285D01*
X99512380Y-49641047D01*
X99512380Y-49355333D01*
X99464761Y-49260095D01*
X99417142Y-49212476D01*
G04 #@! TO.C,R17*
X122054857Y-54808380D02*
X122388190Y-54332190D01*
X122626285Y-54808380D02*
X122626285Y-53808380D01*
X122245333Y-53808380D01*
X122150095Y-53856000D01*
X122102476Y-53903619D01*
X122054857Y-53998857D01*
X122054857Y-54141714D01*
X122102476Y-54236952D01*
X122150095Y-54284571D01*
X122245333Y-54332190D01*
X122626285Y-54332190D01*
X121102476Y-54808380D02*
X121673904Y-54808380D01*
X121388190Y-54808380D02*
X121388190Y-53808380D01*
X121483428Y-53951238D01*
X121578666Y-54046476D01*
X121673904Y-54094095D01*
X120769142Y-53808380D02*
X120102476Y-53808380D01*
X120531047Y-54808380D01*
G04 #@! TO.C,R20*
X73096380Y-60317142D02*
X72620190Y-59983809D01*
X73096380Y-59745714D02*
X72096380Y-59745714D01*
X72096380Y-60126666D01*
X72144000Y-60221904D01*
X72191619Y-60269523D01*
X72286857Y-60317142D01*
X72429714Y-60317142D01*
X72524952Y-60269523D01*
X72572571Y-60221904D01*
X72620190Y-60126666D01*
X72620190Y-59745714D01*
X72191619Y-60698095D02*
X72144000Y-60745714D01*
X72096380Y-60840952D01*
X72096380Y-61079047D01*
X72144000Y-61174285D01*
X72191619Y-61221904D01*
X72286857Y-61269523D01*
X72382095Y-61269523D01*
X72524952Y-61221904D01*
X73096380Y-60650476D01*
X73096380Y-61269523D01*
X72096380Y-61888571D02*
X72096380Y-61983809D01*
X72144000Y-62079047D01*
X72191619Y-62126666D01*
X72286857Y-62174285D01*
X72477333Y-62221904D01*
X72715428Y-62221904D01*
X72905904Y-62174285D01*
X73001142Y-62126666D01*
X73048761Y-62079047D01*
X73096380Y-61983809D01*
X73096380Y-61888571D01*
X73048761Y-61793333D01*
X73001142Y-61745714D01*
X72905904Y-61698095D01*
X72715428Y-61650476D01*
X72477333Y-61650476D01*
X72286857Y-61698095D01*
X72191619Y-61745714D01*
X72144000Y-61793333D01*
X72096380Y-61888571D01*
G04 #@! TO.C,J44*
X140509523Y-69732380D02*
X140509523Y-70446666D01*
X140557142Y-70589523D01*
X140652380Y-70684761D01*
X140795238Y-70732380D01*
X140890476Y-70732380D01*
X139604761Y-70065714D02*
X139604761Y-70732380D01*
X139842857Y-69684761D02*
X140080952Y-70399047D01*
X139461904Y-70399047D01*
X138652380Y-70065714D02*
X138652380Y-70732380D01*
X138890476Y-69684761D02*
X139128571Y-70399047D01*
X138509523Y-70399047D01*
G04 #@! TO.C,C8*
X114212666Y-54713142D02*
X114260285Y-54760761D01*
X114403142Y-54808380D01*
X114498380Y-54808380D01*
X114641238Y-54760761D01*
X114736476Y-54665523D01*
X114784095Y-54570285D01*
X114831714Y-54379809D01*
X114831714Y-54236952D01*
X114784095Y-54046476D01*
X114736476Y-53951238D01*
X114641238Y-53856000D01*
X114498380Y-53808380D01*
X114403142Y-53808380D01*
X114260285Y-53856000D01*
X114212666Y-53903619D01*
X113641238Y-54236952D02*
X113736476Y-54189333D01*
X113784095Y-54141714D01*
X113831714Y-54046476D01*
X113831714Y-53998857D01*
X113784095Y-53903619D01*
X113736476Y-53856000D01*
X113641238Y-53808380D01*
X113450761Y-53808380D01*
X113355523Y-53856000D01*
X113307904Y-53903619D01*
X113260285Y-53998857D01*
X113260285Y-54046476D01*
X113307904Y-54141714D01*
X113355523Y-54189333D01*
X113450761Y-54236952D01*
X113641238Y-54236952D01*
X113736476Y-54284571D01*
X113784095Y-54332190D01*
X113831714Y-54427428D01*
X113831714Y-54617904D01*
X113784095Y-54713142D01*
X113736476Y-54760761D01*
X113641238Y-54808380D01*
X113450761Y-54808380D01*
X113355523Y-54760761D01*
X113307904Y-54713142D01*
X113260285Y-54617904D01*
X113260285Y-54427428D01*
X113307904Y-54332190D01*
X113355523Y-54284571D01*
X113450761Y-54236952D01*
G04 #@! TO.C,C6*
X91304916Y-58157142D02*
X91352535Y-58204761D01*
X91495392Y-58252380D01*
X91590630Y-58252380D01*
X91733488Y-58204761D01*
X91828726Y-58109523D01*
X91876345Y-58014285D01*
X91923964Y-57823809D01*
X91923964Y-57680952D01*
X91876345Y-57490476D01*
X91828726Y-57395238D01*
X91733488Y-57300000D01*
X91590630Y-57252380D01*
X91495392Y-57252380D01*
X91352535Y-57300000D01*
X91304916Y-57347619D01*
X90447773Y-57252380D02*
X90638250Y-57252380D01*
X90733488Y-57300000D01*
X90781107Y-57347619D01*
X90876345Y-57490476D01*
X90923964Y-57680952D01*
X90923964Y-58061904D01*
X90876345Y-58157142D01*
X90828726Y-58204761D01*
X90733488Y-58252380D01*
X90543011Y-58252380D01*
X90447773Y-58204761D01*
X90400154Y-58157142D01*
X90352535Y-58061904D01*
X90352535Y-57823809D01*
X90400154Y-57728571D01*
X90447773Y-57680952D01*
X90543011Y-57633333D01*
X90733488Y-57633333D01*
X90828726Y-57680952D01*
X90876345Y-57728571D01*
X90923964Y-57823809D01*
G04 #@! TO.C,R16*
X178950857Y-52776380D02*
X179284190Y-52300190D01*
X179522285Y-52776380D02*
X179522285Y-51776380D01*
X179141333Y-51776380D01*
X179046095Y-51824000D01*
X178998476Y-51871619D01*
X178950857Y-51966857D01*
X178950857Y-52109714D01*
X178998476Y-52204952D01*
X179046095Y-52252571D01*
X179141333Y-52300190D01*
X179522285Y-52300190D01*
X177998476Y-52776380D02*
X178569904Y-52776380D01*
X178284190Y-52776380D02*
X178284190Y-51776380D01*
X178379428Y-51919238D01*
X178474666Y-52014476D01*
X178569904Y-52062095D01*
X177141333Y-51776380D02*
X177331809Y-51776380D01*
X177427047Y-51824000D01*
X177474666Y-51871619D01*
X177569904Y-52014476D01*
X177617523Y-52204952D01*
X177617523Y-52585904D01*
X177569904Y-52681142D01*
X177522285Y-52728761D01*
X177427047Y-52776380D01*
X177236571Y-52776380D01*
X177141333Y-52728761D01*
X177093714Y-52681142D01*
X177046095Y-52585904D01*
X177046095Y-52347809D01*
X177093714Y-52252571D01*
X177141333Y-52204952D01*
X177236571Y-52157333D01*
X177427047Y-52157333D01*
X177522285Y-52204952D01*
X177569904Y-52252571D01*
X177617523Y-52347809D01*
G04 #@! TO.C,J11*
X83822380Y-65484476D02*
X84536666Y-65484476D01*
X84679523Y-65436857D01*
X84774761Y-65341619D01*
X84822380Y-65198761D01*
X84822380Y-65103523D01*
X84822380Y-66484476D02*
X84822380Y-65913047D01*
X84822380Y-66198761D02*
X83822380Y-66198761D01*
X83965238Y-66103523D01*
X84060476Y-66008285D01*
X84108095Y-65913047D01*
X84822380Y-67436857D02*
X84822380Y-66865428D01*
X84822380Y-67151142D02*
X83822380Y-67151142D01*
X83965238Y-67055904D01*
X84060476Y-66960666D01*
X84108095Y-66865428D01*
G04 #@! TO.C,R7*
X98496380Y-51395333D02*
X98020190Y-51062000D01*
X98496380Y-50823904D02*
X97496380Y-50823904D01*
X97496380Y-51204857D01*
X97544000Y-51300095D01*
X97591619Y-51347714D01*
X97686857Y-51395333D01*
X97829714Y-51395333D01*
X97924952Y-51347714D01*
X97972571Y-51300095D01*
X98020190Y-51204857D01*
X98020190Y-50823904D01*
X97496380Y-51728666D02*
X97496380Y-52395333D01*
X98496380Y-51966761D01*
G04 #@! TO.C,J5*
X100447333Y-71041380D02*
X100447333Y-71755666D01*
X100494952Y-71898523D01*
X100590190Y-71993761D01*
X100733047Y-72041380D01*
X100828285Y-72041380D01*
X99494952Y-71041380D02*
X99971142Y-71041380D01*
X100018761Y-71517571D01*
X99971142Y-71469952D01*
X99875904Y-71422333D01*
X99637809Y-71422333D01*
X99542571Y-71469952D01*
X99494952Y-71517571D01*
X99447333Y-71612809D01*
X99447333Y-71850904D01*
X99494952Y-71946142D01*
X99542571Y-71993761D01*
X99637809Y-72041380D01*
X99875904Y-72041380D01*
X99971142Y-71993761D01*
X100018761Y-71946142D01*
G04 #@! TO.C,R24*
X77574380Y-73716142D02*
X77098190Y-73382809D01*
X77574380Y-73144714D02*
X76574380Y-73144714D01*
X76574380Y-73525666D01*
X76622000Y-73620904D01*
X76669619Y-73668523D01*
X76764857Y-73716142D01*
X76907714Y-73716142D01*
X77002952Y-73668523D01*
X77050571Y-73620904D01*
X77098190Y-73525666D01*
X77098190Y-73144714D01*
X76669619Y-74097095D02*
X76622000Y-74144714D01*
X76574380Y-74239952D01*
X76574380Y-74478047D01*
X76622000Y-74573285D01*
X76669619Y-74620904D01*
X76764857Y-74668523D01*
X76860095Y-74668523D01*
X77002952Y-74620904D01*
X77574380Y-74049476D01*
X77574380Y-74668523D01*
X76907714Y-75525666D02*
X77574380Y-75525666D01*
X76526761Y-75287571D02*
X77241047Y-75049476D01*
X77241047Y-75668523D01*
G04 #@! TO.C,U4*
X150113904Y-98049380D02*
X150113904Y-98858904D01*
X150066285Y-98954142D01*
X150018666Y-99001761D01*
X149923428Y-99049380D01*
X149732952Y-99049380D01*
X149637714Y-99001761D01*
X149590095Y-98954142D01*
X149542476Y-98858904D01*
X149542476Y-98049380D01*
X148637714Y-98382714D02*
X148637714Y-99049380D01*
X148875809Y-98001761D02*
X149113904Y-98716047D01*
X148494857Y-98716047D01*
G04 #@! TO.C,U2*
X150176904Y-109458380D02*
X150176904Y-110267904D01*
X150129285Y-110363142D01*
X150081666Y-110410761D01*
X149986428Y-110458380D01*
X149795952Y-110458380D01*
X149700714Y-110410761D01*
X149653095Y-110363142D01*
X149605476Y-110267904D01*
X149605476Y-109458380D01*
X149176904Y-109553619D02*
X149129285Y-109506000D01*
X149034047Y-109458380D01*
X148795952Y-109458380D01*
X148700714Y-109506000D01*
X148653095Y-109553619D01*
X148605476Y-109648857D01*
X148605476Y-109744095D01*
X148653095Y-109886952D01*
X149224523Y-110458380D01*
X148605476Y-110458380D01*
G04 #@! TO.C,JP1*
X111132333Y-76922380D02*
X111132333Y-77636666D01*
X111179952Y-77779523D01*
X111275190Y-77874761D01*
X111418047Y-77922380D01*
X111513285Y-77922380D01*
X110656142Y-77922380D02*
X110656142Y-76922380D01*
X110275190Y-76922380D01*
X110179952Y-76970000D01*
X110132333Y-77017619D01*
X110084714Y-77112857D01*
X110084714Y-77255714D01*
X110132333Y-77350952D01*
X110179952Y-77398571D01*
X110275190Y-77446190D01*
X110656142Y-77446190D01*
X109132333Y-77922380D02*
X109703761Y-77922380D01*
X109418047Y-77922380D02*
X109418047Y-76922380D01*
X109513285Y-77065238D01*
X109608523Y-77160476D01*
X109703761Y-77208095D01*
G04 #@! TO.C,JP3*
X149931333Y-75652380D02*
X149931333Y-76366666D01*
X149978952Y-76509523D01*
X150074190Y-76604761D01*
X150217047Y-76652380D01*
X150312285Y-76652380D01*
X149455142Y-76652380D02*
X149455142Y-75652380D01*
X149074190Y-75652380D01*
X148978952Y-75700000D01*
X148931333Y-75747619D01*
X148883714Y-75842857D01*
X148883714Y-75985714D01*
X148931333Y-76080952D01*
X148978952Y-76128571D01*
X149074190Y-76176190D01*
X149455142Y-76176190D01*
X148550380Y-75652380D02*
X147931333Y-75652380D01*
X148264666Y-76033333D01*
X148121809Y-76033333D01*
X148026571Y-76080952D01*
X147978952Y-76128571D01*
X147931333Y-76223809D01*
X147931333Y-76461904D01*
X147978952Y-76557142D01*
X148026571Y-76604761D01*
X148121809Y-76652380D01*
X148407523Y-76652380D01*
X148502761Y-76604761D01*
X148550380Y-76557142D01*
G04 #@! TO.C,R15*
X145739857Y-112118380D02*
X146073190Y-111642190D01*
X146311285Y-112118380D02*
X146311285Y-111118380D01*
X145930333Y-111118380D01*
X145835095Y-111166000D01*
X145787476Y-111213619D01*
X145739857Y-111308857D01*
X145739857Y-111451714D01*
X145787476Y-111546952D01*
X145835095Y-111594571D01*
X145930333Y-111642190D01*
X146311285Y-111642190D01*
X144787476Y-112118380D02*
X145358904Y-112118380D01*
X145073190Y-112118380D02*
X145073190Y-111118380D01*
X145168428Y-111261238D01*
X145263666Y-111356476D01*
X145358904Y-111404095D01*
X143882714Y-111118380D02*
X144358904Y-111118380D01*
X144406523Y-111594571D01*
X144358904Y-111546952D01*
X144263666Y-111499333D01*
X144025571Y-111499333D01*
X143930333Y-111546952D01*
X143882714Y-111594571D01*
X143835095Y-111689809D01*
X143835095Y-111927904D01*
X143882714Y-112023142D01*
X143930333Y-112070761D01*
X144025571Y-112118380D01*
X144263666Y-112118380D01*
X144358904Y-112070761D01*
X144406523Y-112023142D01*
G04 #@! TO.C,J13*
X64193523Y-101194380D02*
X64193523Y-101908666D01*
X64241142Y-102051523D01*
X64336380Y-102146761D01*
X64479238Y-102194380D01*
X64574476Y-102194380D01*
X63193523Y-102194380D02*
X63764952Y-102194380D01*
X63479238Y-102194380D02*
X63479238Y-101194380D01*
X63574476Y-101337238D01*
X63669714Y-101432476D01*
X63764952Y-101480095D01*
X62860190Y-101194380D02*
X62241142Y-101194380D01*
X62574476Y-101575333D01*
X62431619Y-101575333D01*
X62336380Y-101622952D01*
X62288761Y-101670571D01*
X62241142Y-101765809D01*
X62241142Y-102003904D01*
X62288761Y-102099142D01*
X62336380Y-102146761D01*
X62431619Y-102194380D01*
X62717333Y-102194380D01*
X62812571Y-102146761D01*
X62860190Y-102099142D01*
G04 #@! TO.C,R19*
X114942857Y-52776380D02*
X115276190Y-52300190D01*
X115514285Y-52776380D02*
X115514285Y-51776380D01*
X115133333Y-51776380D01*
X115038095Y-51824000D01*
X114990476Y-51871619D01*
X114942857Y-51966857D01*
X114942857Y-52109714D01*
X114990476Y-52204952D01*
X115038095Y-52252571D01*
X115133333Y-52300190D01*
X115514285Y-52300190D01*
X113990476Y-52776380D02*
X114561904Y-52776380D01*
X114276190Y-52776380D02*
X114276190Y-51776380D01*
X114371428Y-51919238D01*
X114466666Y-52014476D01*
X114561904Y-52062095D01*
X113514285Y-52776380D02*
X113323809Y-52776380D01*
X113228571Y-52728761D01*
X113180952Y-52681142D01*
X113085714Y-52538285D01*
X113038095Y-52347809D01*
X113038095Y-51966857D01*
X113085714Y-51871619D01*
X113133333Y-51824000D01*
X113228571Y-51776380D01*
X113419047Y-51776380D01*
X113514285Y-51824000D01*
X113561904Y-51871619D01*
X113609523Y-51966857D01*
X113609523Y-52204952D01*
X113561904Y-52300190D01*
X113514285Y-52347809D01*
X113419047Y-52395428D01*
X113228571Y-52395428D01*
X113133333Y-52347809D01*
X113085714Y-52300190D01*
X113038095Y-52204952D01*
G04 #@! TO.C,R22*
X79192380Y-60317142D02*
X78716190Y-59983809D01*
X79192380Y-59745714D02*
X78192380Y-59745714D01*
X78192380Y-60126666D01*
X78240000Y-60221904D01*
X78287619Y-60269523D01*
X78382857Y-60317142D01*
X78525714Y-60317142D01*
X78620952Y-60269523D01*
X78668571Y-60221904D01*
X78716190Y-60126666D01*
X78716190Y-59745714D01*
X78287619Y-60698095D02*
X78240000Y-60745714D01*
X78192380Y-60840952D01*
X78192380Y-61079047D01*
X78240000Y-61174285D01*
X78287619Y-61221904D01*
X78382857Y-61269523D01*
X78478095Y-61269523D01*
X78620952Y-61221904D01*
X79192380Y-60650476D01*
X79192380Y-61269523D01*
X78287619Y-61650476D02*
X78240000Y-61698095D01*
X78192380Y-61793333D01*
X78192380Y-62031428D01*
X78240000Y-62126666D01*
X78287619Y-62174285D01*
X78382857Y-62221904D01*
X78478095Y-62221904D01*
X78620952Y-62174285D01*
X79192380Y-61602857D01*
X79192380Y-62221904D01*
G04 #@! TO.C,C7*
X185727246Y-52681142D02*
X185774865Y-52728761D01*
X185917722Y-52776380D01*
X186012960Y-52776380D01*
X186155818Y-52728761D01*
X186251056Y-52633523D01*
X186298675Y-52538285D01*
X186346294Y-52347809D01*
X186346294Y-52204952D01*
X186298675Y-52014476D01*
X186251056Y-51919238D01*
X186155818Y-51824000D01*
X186012960Y-51776380D01*
X185917722Y-51776380D01*
X185774865Y-51824000D01*
X185727246Y-51871619D01*
X185393913Y-51776380D02*
X184727246Y-51776380D01*
X185155818Y-52776380D01*
G04 #@! TO.C,R18*
X186062857Y-54808380D02*
X186396190Y-54332190D01*
X186634285Y-54808380D02*
X186634285Y-53808380D01*
X186253333Y-53808380D01*
X186158095Y-53856000D01*
X186110476Y-53903619D01*
X186062857Y-53998857D01*
X186062857Y-54141714D01*
X186110476Y-54236952D01*
X186158095Y-54284571D01*
X186253333Y-54332190D01*
X186634285Y-54332190D01*
X185110476Y-54808380D02*
X185681904Y-54808380D01*
X185396190Y-54808380D02*
X185396190Y-53808380D01*
X185491428Y-53951238D01*
X185586666Y-54046476D01*
X185681904Y-54094095D01*
X184539047Y-54236952D02*
X184634285Y-54189333D01*
X184681904Y-54141714D01*
X184729523Y-54046476D01*
X184729523Y-53998857D01*
X184681904Y-53903619D01*
X184634285Y-53856000D01*
X184539047Y-53808380D01*
X184348571Y-53808380D01*
X184253333Y-53856000D01*
X184205714Y-53903619D01*
X184158095Y-53998857D01*
X184158095Y-54046476D01*
X184205714Y-54141714D01*
X184253333Y-54189333D01*
X184348571Y-54236952D01*
X184539047Y-54236952D01*
X184634285Y-54284571D01*
X184681904Y-54332190D01*
X184729523Y-54427428D01*
X184729523Y-54617904D01*
X184681904Y-54713142D01*
X184634285Y-54760761D01*
X184539047Y-54808380D01*
X184348571Y-54808380D01*
X184253333Y-54760761D01*
X184205714Y-54713142D01*
X184158095Y-54617904D01*
X184158095Y-54427428D01*
X184205714Y-54332190D01*
X184253333Y-54284571D01*
X184348571Y-54236952D01*
G04 #@! TO.C,R21*
X76334857Y-58110380D02*
X76668190Y-57634190D01*
X76906285Y-58110380D02*
X76906285Y-57110380D01*
X76525333Y-57110380D01*
X76430095Y-57158000D01*
X76382476Y-57205619D01*
X76334857Y-57300857D01*
X76334857Y-57443714D01*
X76382476Y-57538952D01*
X76430095Y-57586571D01*
X76525333Y-57634190D01*
X76906285Y-57634190D01*
X75953904Y-57205619D02*
X75906285Y-57158000D01*
X75811047Y-57110380D01*
X75572952Y-57110380D01*
X75477714Y-57158000D01*
X75430095Y-57205619D01*
X75382476Y-57300857D01*
X75382476Y-57396095D01*
X75430095Y-57538952D01*
X76001523Y-58110380D01*
X75382476Y-58110380D01*
X74430095Y-58110380D02*
X75001523Y-58110380D01*
X74715809Y-58110380D02*
X74715809Y-57110380D01*
X74811047Y-57253238D01*
X74906285Y-57348476D01*
X75001523Y-57396095D01*
G04 #@! TO.C,Q1*
X66135238Y-74461619D02*
X66230476Y-74414000D01*
X66325714Y-74318761D01*
X66468571Y-74175904D01*
X66563809Y-74128285D01*
X66659047Y-74128285D01*
X66611428Y-74366380D02*
X66706666Y-74318761D01*
X66801904Y-74223523D01*
X66849523Y-74033047D01*
X66849523Y-73699714D01*
X66801904Y-73509238D01*
X66706666Y-73414000D01*
X66611428Y-73366380D01*
X66420952Y-73366380D01*
X66325714Y-73414000D01*
X66230476Y-73509238D01*
X66182857Y-73699714D01*
X66182857Y-74033047D01*
X66230476Y-74223523D01*
X66325714Y-74318761D01*
X66420952Y-74366380D01*
X66611428Y-74366380D01*
X65230476Y-74366380D02*
X65801904Y-74366380D01*
X65516190Y-74366380D02*
X65516190Y-73366380D01*
X65611428Y-73509238D01*
X65706666Y-73604476D01*
X65801904Y-73652095D01*
G04 #@! TO.C,R11*
X178950857Y-54808380D02*
X179284190Y-54332190D01*
X179522285Y-54808380D02*
X179522285Y-53808380D01*
X179141333Y-53808380D01*
X179046095Y-53856000D01*
X178998476Y-53903619D01*
X178950857Y-53998857D01*
X178950857Y-54141714D01*
X178998476Y-54236952D01*
X179046095Y-54284571D01*
X179141333Y-54332190D01*
X179522285Y-54332190D01*
X177998476Y-54808380D02*
X178569904Y-54808380D01*
X178284190Y-54808380D02*
X178284190Y-53808380D01*
X178379428Y-53951238D01*
X178474666Y-54046476D01*
X178569904Y-54094095D01*
X177046095Y-54808380D02*
X177617523Y-54808380D01*
X177331809Y-54808380D02*
X177331809Y-53808380D01*
X177427047Y-53951238D01*
X177522285Y-54046476D01*
X177617523Y-54094095D01*
G04 #@! TO.C,TP1*
X153344904Y-154646380D02*
X152773476Y-154646380D01*
X153059190Y-155646380D02*
X153059190Y-154646380D01*
X152440142Y-155646380D02*
X152440142Y-154646380D01*
X152059190Y-154646380D01*
X151963952Y-154694000D01*
X151916333Y-154741619D01*
X151868714Y-154836857D01*
X151868714Y-154979714D01*
X151916333Y-155074952D01*
X151963952Y-155122571D01*
X152059190Y-155170190D01*
X152440142Y-155170190D01*
X150916333Y-155646380D02*
X151487761Y-155646380D01*
X151202047Y-155646380D02*
X151202047Y-154646380D01*
X151297285Y-154789238D01*
X151392523Y-154884476D01*
X151487761Y-154932095D01*
G04 #@! TO.C,U5*
X70512380Y-65215095D02*
X71321904Y-65215095D01*
X71417142Y-65262714D01*
X71464761Y-65310333D01*
X71512380Y-65405571D01*
X71512380Y-65596047D01*
X71464761Y-65691285D01*
X71417142Y-65738904D01*
X71321904Y-65786523D01*
X70512380Y-65786523D01*
X70512380Y-66738904D02*
X70512380Y-66262714D01*
X70988571Y-66215095D01*
X70940952Y-66262714D01*
X70893333Y-66357952D01*
X70893333Y-66596047D01*
X70940952Y-66691285D01*
X70988571Y-66738904D01*
X71083809Y-66786523D01*
X71321904Y-66786523D01*
X71417142Y-66738904D01*
X71464761Y-66691285D01*
X71512380Y-66596047D01*
X71512380Y-66357952D01*
X71464761Y-66262714D01*
X71417142Y-66215095D01*
G04 #@! TO.C,J4*
X198936333Y-42163380D02*
X198936333Y-42877666D01*
X198983952Y-43020523D01*
X199079190Y-43115761D01*
X199222047Y-43163380D01*
X199317285Y-43163380D01*
X198031571Y-42496714D02*
X198031571Y-43163380D01*
X198269666Y-42115761D02*
X198507761Y-42830047D01*
X197888714Y-42830047D01*
G04 #@! TO.C,J6*
X120284333Y-71041380D02*
X120284333Y-71755666D01*
X120331952Y-71898523D01*
X120427190Y-71993761D01*
X120570047Y-72041380D01*
X120665285Y-72041380D01*
X119379571Y-71041380D02*
X119570047Y-71041380D01*
X119665285Y-71089000D01*
X119712904Y-71136619D01*
X119808142Y-71279476D01*
X119855761Y-71469952D01*
X119855761Y-71850904D01*
X119808142Y-71946142D01*
X119760523Y-71993761D01*
X119665285Y-72041380D01*
X119474809Y-72041380D01*
X119379571Y-71993761D01*
X119331952Y-71946142D01*
X119284333Y-71850904D01*
X119284333Y-71612809D01*
X119331952Y-71517571D01*
X119379571Y-71469952D01*
X119474809Y-71422333D01*
X119665285Y-71422333D01*
X119760523Y-71469952D01*
X119808142Y-71517571D01*
X119855761Y-71612809D01*
G04 #@! TO.C,R6*
X98496380Y-53935333D02*
X98020190Y-53602000D01*
X98496380Y-53363904D02*
X97496380Y-53363904D01*
X97496380Y-53744857D01*
X97544000Y-53840095D01*
X97591619Y-53887714D01*
X97686857Y-53935333D01*
X97829714Y-53935333D01*
X97924952Y-53887714D01*
X97972571Y-53840095D01*
X98020190Y-53744857D01*
X98020190Y-53363904D01*
X97496380Y-54792476D02*
X97496380Y-54602000D01*
X97544000Y-54506761D01*
X97591619Y-54459142D01*
X97734476Y-54363904D01*
X97924952Y-54316285D01*
X98305904Y-54316285D01*
X98401142Y-54363904D01*
X98448761Y-54411523D01*
X98496380Y-54506761D01*
X98496380Y-54697238D01*
X98448761Y-54792476D01*
X98401142Y-54840095D01*
X98305904Y-54887714D01*
X98067809Y-54887714D01*
X97972571Y-54840095D01*
X97924952Y-54792476D01*
X97877333Y-54697238D01*
X97877333Y-54506761D01*
X97924952Y-54411523D01*
X97972571Y-54363904D01*
X98067809Y-54316285D01*
G04 #@! TO.C,C4*
X149581666Y-113641142D02*
X149629285Y-113688761D01*
X149772142Y-113736380D01*
X149867380Y-113736380D01*
X150010238Y-113688761D01*
X150105476Y-113593523D01*
X150153095Y-113498285D01*
X150200714Y-113307809D01*
X150200714Y-113164952D01*
X150153095Y-112974476D01*
X150105476Y-112879238D01*
X150010238Y-112784000D01*
X149867380Y-112736380D01*
X149772142Y-112736380D01*
X149629285Y-112784000D01*
X149581666Y-112831619D01*
X148724523Y-113069714D02*
X148724523Y-113736380D01*
X148962619Y-112688761D02*
X149200714Y-113403047D01*
X148581666Y-113403047D01*
G04 #@! TO.C,J1*
X64087333Y-51268380D02*
X64087333Y-51982666D01*
X64134952Y-52125523D01*
X64230190Y-52220761D01*
X64373047Y-52268380D01*
X64468285Y-52268380D01*
X63087333Y-52268380D02*
X63658761Y-52268380D01*
X63373047Y-52268380D02*
X63373047Y-51268380D01*
X63468285Y-51411238D01*
X63563523Y-51506476D01*
X63658761Y-51554095D01*
G04 #@! TO.C,R25*
X73190380Y-70414142D02*
X72714190Y-70080809D01*
X73190380Y-69842714D02*
X72190380Y-69842714D01*
X72190380Y-70223666D01*
X72238000Y-70318904D01*
X72285619Y-70366523D01*
X72380857Y-70414142D01*
X72523714Y-70414142D01*
X72618952Y-70366523D01*
X72666571Y-70318904D01*
X72714190Y-70223666D01*
X72714190Y-69842714D01*
X72285619Y-70795095D02*
X72238000Y-70842714D01*
X72190380Y-70937952D01*
X72190380Y-71176047D01*
X72238000Y-71271285D01*
X72285619Y-71318904D01*
X72380857Y-71366523D01*
X72476095Y-71366523D01*
X72618952Y-71318904D01*
X73190380Y-70747476D01*
X73190380Y-71366523D01*
X72190380Y-72271285D02*
X72190380Y-71795095D01*
X72666571Y-71747476D01*
X72618952Y-71795095D01*
X72571333Y-71890333D01*
X72571333Y-72128428D01*
X72618952Y-72223666D01*
X72666571Y-72271285D01*
X72761809Y-72318904D01*
X72999904Y-72318904D01*
X73095142Y-72271285D01*
X73142761Y-72223666D01*
X73190380Y-72128428D01*
X73190380Y-71890333D01*
X73142761Y-71795095D01*
X73095142Y-71747476D01*
G04 #@! TO.C,R12*
X155646380Y-113403142D02*
X155170190Y-113069809D01*
X155646380Y-112831714D02*
X154646380Y-112831714D01*
X154646380Y-113212666D01*
X154694000Y-113307904D01*
X154741619Y-113355523D01*
X154836857Y-113403142D01*
X154979714Y-113403142D01*
X155074952Y-113355523D01*
X155122571Y-113307904D01*
X155170190Y-113212666D01*
X155170190Y-112831714D01*
X155646380Y-114355523D02*
X155646380Y-113784095D01*
X155646380Y-114069809D02*
X154646380Y-114069809D01*
X154789238Y-113974571D01*
X154884476Y-113879333D01*
X154932095Y-113784095D01*
X154741619Y-114736476D02*
X154694000Y-114784095D01*
X154646380Y-114879333D01*
X154646380Y-115117428D01*
X154694000Y-115212666D01*
X154741619Y-115260285D01*
X154836857Y-115307904D01*
X154932095Y-115307904D01*
X155074952Y-115260285D01*
X155646380Y-114688857D01*
X155646380Y-115307904D01*
G04 #@! TO.C,J14*
X84030523Y-101194380D02*
X84030523Y-101908666D01*
X84078142Y-102051523D01*
X84173380Y-102146761D01*
X84316238Y-102194380D01*
X84411476Y-102194380D01*
X83030523Y-102194380D02*
X83601952Y-102194380D01*
X83316238Y-102194380D02*
X83316238Y-101194380D01*
X83411476Y-101337238D01*
X83506714Y-101432476D01*
X83601952Y-101480095D01*
X82173380Y-101527714D02*
X82173380Y-102194380D01*
X82411476Y-101146761D02*
X82649571Y-101861047D01*
X82030523Y-101861047D01*
G04 #@! TO.C,J9*
X89716333Y-61726380D02*
X89716333Y-62440666D01*
X89763952Y-62583523D01*
X89859190Y-62678761D01*
X90002047Y-62726380D01*
X90097285Y-62726380D01*
X89192523Y-62726380D02*
X89002047Y-62726380D01*
X88906809Y-62678761D01*
X88859190Y-62631142D01*
X88763952Y-62488285D01*
X88716333Y-62297809D01*
X88716333Y-61916857D01*
X88763952Y-61821619D01*
X88811571Y-61774000D01*
X88906809Y-61726380D01*
X89097285Y-61726380D01*
X89192523Y-61774000D01*
X89240142Y-61821619D01*
X89287761Y-61916857D01*
X89287761Y-62154952D01*
X89240142Y-62250190D01*
X89192523Y-62297809D01*
X89097285Y-62345428D01*
X88906809Y-62345428D01*
X88811571Y-62297809D01*
X88763952Y-62250190D01*
X88716333Y-62154952D01*
G04 #@! TO.C,R13*
X122054857Y-52776380D02*
X122388190Y-52300190D01*
X122626285Y-52776380D02*
X122626285Y-51776380D01*
X122245333Y-51776380D01*
X122150095Y-51824000D01*
X122102476Y-51871619D01*
X122054857Y-51966857D01*
X122054857Y-52109714D01*
X122102476Y-52204952D01*
X122150095Y-52252571D01*
X122245333Y-52300190D01*
X122626285Y-52300190D01*
X121102476Y-52776380D02*
X121673904Y-52776380D01*
X121388190Y-52776380D02*
X121388190Y-51776380D01*
X121483428Y-51919238D01*
X121578666Y-52014476D01*
X121673904Y-52062095D01*
X120769142Y-51776380D02*
X120150095Y-51776380D01*
X120483428Y-52157333D01*
X120340571Y-52157333D01*
X120245333Y-52204952D01*
X120197714Y-52252571D01*
X120150095Y-52347809D01*
X120150095Y-52585904D01*
X120197714Y-52681142D01*
X120245333Y-52728761D01*
X120340571Y-52776380D01*
X120626285Y-52776380D01*
X120721523Y-52728761D01*
X120769142Y-52681142D01*
G04 #@! TO.C,R14*
X154122380Y-113403142D02*
X153646190Y-113069809D01*
X154122380Y-112831714D02*
X153122380Y-112831714D01*
X153122380Y-113212666D01*
X153170000Y-113307904D01*
X153217619Y-113355523D01*
X153312857Y-113403142D01*
X153455714Y-113403142D01*
X153550952Y-113355523D01*
X153598571Y-113307904D01*
X153646190Y-113212666D01*
X153646190Y-112831714D01*
X154122380Y-114355523D02*
X154122380Y-113784095D01*
X154122380Y-114069809D02*
X153122380Y-114069809D01*
X153265238Y-113974571D01*
X153360476Y-113879333D01*
X153408095Y-113784095D01*
X153455714Y-115212666D02*
X154122380Y-115212666D01*
X153074761Y-114974571D02*
X153789047Y-114736476D01*
X153789047Y-115355523D01*
D13*
G04 #@! TO.C,U1*
X140295000Y-67119000D02*
X140295000Y-67899000D01*
X158535000Y-48574000D02*
X158915000Y-48574000D01*
X140295000Y-67899000D02*
X141295000Y-67899000D01*
X158535000Y-67899000D02*
X157535000Y-67899000D01*
X158535000Y-42154000D02*
X140295000Y-42154000D01*
X140295000Y-42154000D02*
X140295000Y-48574000D01*
X158535000Y-42154000D02*
X158535000Y-48574000D01*
X158535000Y-67119000D02*
X158535000Y-67899000D01*
G04 #@! TO.C,JP4*
X147698000Y-81772000D02*
X150498000Y-81772000D01*
X147698000Y-79772000D02*
X147698000Y-81772000D01*
X150498000Y-79772000D02*
X147698000Y-79772000D01*
X150498000Y-81772000D02*
X150498000Y-79772000D01*
G04 #@! TO.C,R26*
X73645500Y-74596258D02*
X73645500Y-74121742D01*
X74690500Y-74596258D02*
X74690500Y-74121742D01*
G04 #@! TO.C,R23*
X75169500Y-70819742D02*
X75169500Y-71294258D01*
X76214500Y-70819742D02*
X76214500Y-71294258D01*
G04 #@! TO.C,U3*
X92089250Y-45247000D02*
X90139250Y-45247000D01*
X92089250Y-55367000D02*
X94039250Y-55367000D01*
X92089250Y-55367000D02*
X88639250Y-55367000D01*
X92089250Y-45247000D02*
X94039250Y-45247000D01*
G04 #@! TO.C,J12*
X83121000Y-73911000D02*
X84451000Y-73911000D01*
X81791000Y-71311000D02*
X84451000Y-71311000D01*
X84451000Y-73911000D02*
X84451000Y-72581000D01*
X81791000Y-58551000D02*
X84451000Y-58551000D01*
X84451000Y-71311000D02*
X84451000Y-58551000D01*
X81791000Y-71311000D02*
X81791000Y-58551000D01*
D11*
G04 #@! TO.C,TP2*
X144658000Y-156126000D02*
X144658000Y-158326000D01*
X148458000Y-158326000D02*
X148458000Y-156126000D01*
X148458000Y-156126000D02*
X144658000Y-156126000D01*
X144658000Y-158326000D02*
X148458000Y-158326000D01*
D13*
G04 #@! TO.C,Q2*
X100920000Y-55736000D02*
X102330000Y-55736000D01*
X102330000Y-58056000D02*
X102330000Y-57396000D01*
X102330000Y-56396000D02*
X102330000Y-55736000D01*
X102330000Y-58056000D02*
X100300000Y-58056000D01*
G04 #@! TO.C,C9*
X70102000Y-57454420D02*
X70102000Y-57735580D01*
X71122000Y-57454420D02*
X71122000Y-57735580D01*
G04 #@! TO.C,J2*
X68411000Y-97840000D02*
X68411000Y-96510000D01*
X65751000Y-95240000D02*
X65751000Y-87560000D01*
X65751000Y-87560000D02*
X68411000Y-87560000D01*
X65751000Y-95240000D02*
X68411000Y-95240000D01*
X68411000Y-95240000D02*
X68411000Y-87560000D01*
X67081000Y-97840000D02*
X68411000Y-97840000D01*
G04 #@! TO.C,JP2*
X108899000Y-80979000D02*
X108899000Y-82979000D01*
X111699000Y-80979000D02*
X108899000Y-80979000D01*
X108899000Y-82979000D02*
X111699000Y-82979000D01*
X111699000Y-82979000D02*
X111699000Y-80979000D01*
G04 #@! TO.C,D2*
X61659000Y-81569000D02*
X61659000Y-76169000D01*
X64959000Y-81569000D02*
X64959000Y-76169000D01*
X64959000Y-81569000D02*
X61659000Y-81569000D01*
G04 #@! TO.C,C5*
X88457670Y-56786000D02*
X88738830Y-56786000D01*
X88457670Y-55766000D02*
X88738830Y-55766000D01*
G04 #@! TO.C,SW2*
X74904000Y-113030000D02*
X74594000Y-113030000D01*
X74594000Y-129794000D02*
X74904000Y-129794000D01*
X60960000Y-129794000D02*
X61270000Y-129794000D01*
X60960000Y-113030000D02*
X60960000Y-129794000D01*
X74904000Y-129794000D02*
X74904000Y-113030000D01*
X60960000Y-113030000D02*
X61270000Y-113030000D01*
G04 #@! TO.C,R5*
X65517500Y-79772742D02*
X65517500Y-80247258D01*
X66562500Y-79772742D02*
X66562500Y-80247258D01*
G04 #@! TO.C,C10*
X70102000Y-74499580D02*
X70102000Y-74218420D01*
X71122000Y-74499580D02*
X71122000Y-74218420D01*
G04 #@! TO.C,J45*
X160842000Y-74320000D02*
X158182000Y-74320000D01*
X158182000Y-74320000D02*
X158182000Y-87080000D01*
X160842000Y-87080000D02*
X158182000Y-87080000D01*
X158182000Y-71720000D02*
X158182000Y-73050000D01*
X159512000Y-71720000D02*
X158182000Y-71720000D01*
X160842000Y-74320000D02*
X160842000Y-87080000D01*
G04 #@! TO.C,J10*
X63284000Y-73911000D02*
X64614000Y-73911000D01*
X61954000Y-71311000D02*
X64614000Y-71311000D01*
X64614000Y-71311000D02*
X64614000Y-58551000D01*
X61954000Y-58551000D02*
X64614000Y-58551000D01*
X64614000Y-73911000D02*
X64614000Y-72581000D01*
X61954000Y-71311000D02*
X61954000Y-58551000D01*
G04 #@! TO.C,Q3*
X100920000Y-47862000D02*
X102330000Y-47862000D01*
X102330000Y-48522000D02*
X102330000Y-47862000D01*
X102330000Y-50182000D02*
X100300000Y-50182000D01*
X102330000Y-50182000D02*
X102330000Y-49522000D01*
G04 #@! TO.C,R17*
X121645258Y-56402500D02*
X121170742Y-56402500D01*
X121645258Y-55357500D02*
X121170742Y-55357500D01*
G04 #@! TO.C,R20*
X73645500Y-60659742D02*
X73645500Y-61134258D01*
X74690500Y-60659742D02*
X74690500Y-61134258D01*
G04 #@! TO.C,J44*
X139700000Y-71720000D02*
X138370000Y-71720000D01*
X141030000Y-87080000D02*
X138370000Y-87080000D01*
X141030000Y-74320000D02*
X138370000Y-74320000D01*
X141030000Y-74320000D02*
X141030000Y-87080000D01*
X138370000Y-71720000D02*
X138370000Y-73050000D01*
X138370000Y-74320000D02*
X138370000Y-87080000D01*
G04 #@! TO.C,C8*
X114436580Y-55370000D02*
X114155420Y-55370000D01*
X114436580Y-56390000D02*
X114155420Y-56390000D01*
G04 #@! TO.C,C6*
X88444670Y-57290000D02*
X88725830Y-57290000D01*
X88444670Y-58310000D02*
X88725830Y-58310000D01*
G04 #@! TO.C,R16*
X178070742Y-51322500D02*
X178545258Y-51322500D01*
X178070742Y-50277500D02*
X178545258Y-50277500D01*
G04 #@! TO.C,J11*
X88460000Y-63254000D02*
X88460000Y-64534000D01*
X94680000Y-63954000D02*
X94680000Y-68634000D01*
X86860000Y-62234000D02*
X86860000Y-63254000D01*
X86860000Y-63254000D02*
X88460000Y-63254000D01*
X86860000Y-69334000D02*
X88460000Y-69334000D01*
X88460000Y-69334000D02*
X88460000Y-68054000D01*
X91110000Y-62234000D02*
X86860000Y-62234000D01*
X88460000Y-64534000D02*
X85570000Y-64534000D01*
X91110000Y-70354000D02*
X86860000Y-70354000D01*
X86860000Y-70354000D02*
X86860000Y-69334000D01*
G04 #@! TO.C,R7*
X100364936Y-50652000D02*
X101819064Y-50652000D01*
X100364936Y-52472000D02*
X101819064Y-52472000D01*
G04 #@! TO.C,J5*
X98784000Y-73029000D02*
X98784000Y-74359000D01*
X101444000Y-75629000D02*
X98784000Y-75629000D01*
X101444000Y-88389000D02*
X98784000Y-88389000D01*
X101444000Y-75629000D02*
X101444000Y-88389000D01*
X100114000Y-73029000D02*
X98784000Y-73029000D01*
X98784000Y-75629000D02*
X98784000Y-88389000D01*
G04 #@! TO.C,R24*
X75169500Y-74596258D02*
X75169500Y-74121742D01*
X76214500Y-74596258D02*
X76214500Y-74121742D01*
D11*
G04 #@! TO.C,U4*
X151677000Y-90922000D02*
X151677000Y-90947000D01*
X147027000Y-90922000D02*
X147027000Y-90947000D01*
X145952000Y-97747000D02*
X151677000Y-97747000D01*
X151677000Y-97747000D02*
X151677000Y-97647000D01*
X147027000Y-90922000D02*
X151677000Y-90922000D01*
D13*
G04 #@! TO.C,U2*
X149415000Y-109191000D02*
X151615000Y-109191000D01*
X149415000Y-101121000D02*
X147215000Y-101121000D01*
X149415000Y-101121000D02*
X151615000Y-101121000D01*
X149415000Y-109191000D02*
X145815000Y-109191000D01*
G04 #@! TO.C,JP1*
X108899000Y-80439000D02*
X111699000Y-80439000D01*
X111699000Y-78439000D02*
X108899000Y-78439000D01*
X108899000Y-78439000D02*
X108899000Y-80439000D01*
X111699000Y-80439000D02*
X111699000Y-78439000D01*
G04 #@! TO.C,JP3*
X150498000Y-79232000D02*
X150498000Y-77232000D01*
X150498000Y-77232000D02*
X147698000Y-77232000D01*
X147698000Y-77232000D02*
X147698000Y-79232000D01*
X147698000Y-79232000D02*
X150498000Y-79232000D01*
G04 #@! TO.C,R15*
X144859742Y-109713500D02*
X145334258Y-109713500D01*
X144859742Y-110758500D02*
X145334258Y-110758500D01*
G04 #@! TO.C,J13*
X62054000Y-97702000D02*
X64714000Y-97702000D01*
X63384000Y-100302000D02*
X64714000Y-100302000D01*
X64714000Y-100302000D02*
X64714000Y-98972000D01*
X64714000Y-97702000D02*
X64714000Y-84942000D01*
X62054000Y-84942000D02*
X64714000Y-84942000D01*
X62054000Y-97702000D02*
X62054000Y-84942000D01*
G04 #@! TO.C,R19*
X114058742Y-50277500D02*
X114533258Y-50277500D01*
X114058742Y-51322500D02*
X114533258Y-51322500D01*
G04 #@! TO.C,R22*
X77738500Y-60659742D02*
X77738500Y-61134258D01*
X76693500Y-60659742D02*
X76693500Y-61134258D01*
G04 #@! TO.C,C7*
X185279420Y-50290000D02*
X185560580Y-50290000D01*
X185279420Y-51310000D02*
X185560580Y-51310000D01*
G04 #@! TO.C,R18*
X185657258Y-56402500D02*
X185182742Y-56402500D01*
X185657258Y-55357500D02*
X185182742Y-55357500D01*
G04 #@! TO.C,R21*
X75169500Y-60659742D02*
X75169500Y-61134258D01*
X76214500Y-60659742D02*
X76214500Y-61134258D01*
G04 #@! TO.C,Q1*
X67562000Y-78034000D02*
X67562000Y-77104000D01*
X67562000Y-74874000D02*
X66102000Y-74874000D01*
X67562000Y-74874000D02*
X67562000Y-75804000D01*
X67562000Y-78034000D02*
X65402000Y-78034000D01*
G04 #@! TO.C,R11*
X178070742Y-55357500D02*
X178545258Y-55357500D01*
X178070742Y-56402500D02*
X178545258Y-56402500D01*
D11*
G04 #@! TO.C,TP1*
X150246000Y-158326000D02*
X154046000Y-158326000D01*
X154046000Y-156126000D02*
X150246000Y-156126000D01*
X150246000Y-156126000D02*
X150246000Y-158326000D01*
X154046000Y-158326000D02*
X154046000Y-156126000D01*
G04 #@! TO.C,U5*
X75335000Y-64302000D02*
X75335000Y-67652000D01*
X71985000Y-67652000D02*
X72285000Y-67652000D01*
X72210000Y-64302000D02*
X72210000Y-63077000D01*
X75335000Y-64302000D02*
X75035000Y-64302000D01*
X71985000Y-64302000D02*
X72210000Y-64302000D01*
X71985000Y-64302000D02*
X71985000Y-67652000D01*
X75335000Y-67652000D02*
X75035000Y-67652000D01*
D13*
G04 #@! TO.C,J4*
X197273000Y-44151000D02*
X197273000Y-45481000D01*
X197273000Y-46751000D02*
X197273000Y-64591000D01*
X198603000Y-44151000D02*
X197273000Y-44151000D01*
X199933000Y-64591000D02*
X197273000Y-64591000D01*
X199933000Y-46751000D02*
X197273000Y-46751000D01*
X199933000Y-46751000D02*
X199933000Y-64591000D01*
G04 #@! TO.C,J6*
X118621000Y-75629000D02*
X118621000Y-88389000D01*
X121281000Y-88389000D02*
X118621000Y-88389000D01*
X121281000Y-75629000D02*
X118621000Y-75629000D01*
X121281000Y-75629000D02*
X121281000Y-88389000D01*
X118621000Y-73029000D02*
X118621000Y-74359000D01*
X119951000Y-73029000D02*
X118621000Y-73029000D01*
G04 #@! TO.C,R6*
X100364936Y-53192000D02*
X101819064Y-53192000D01*
X100364936Y-55012000D02*
X101819064Y-55012000D01*
G04 #@! TO.C,C4*
X149555580Y-112270000D02*
X149274420Y-112270000D01*
X149555580Y-111250000D02*
X149274420Y-111250000D01*
G04 #@! TO.C,J1*
X72835000Y-43605000D02*
X72835000Y-41705000D01*
X72835000Y-47505000D02*
X72835000Y-45505000D01*
X63435000Y-41705000D02*
X72835000Y-41705000D01*
X63435000Y-47505000D02*
X63435000Y-45505000D01*
X63435000Y-43605000D02*
X63435000Y-41705000D01*
G04 #@! TO.C,R25*
X73645500Y-70819742D02*
X73645500Y-71294258D01*
X74690500Y-70819742D02*
X74690500Y-71294258D01*
G04 #@! TO.C,R12*
X154671500Y-110760742D02*
X154671500Y-111235258D01*
X155716500Y-110760742D02*
X155716500Y-111235258D01*
G04 #@! TO.C,J14*
X81891000Y-97702000D02*
X84551000Y-97702000D01*
X83221000Y-100302000D02*
X84551000Y-100302000D01*
X84551000Y-100302000D02*
X84551000Y-98972000D01*
X81891000Y-97702000D02*
X81891000Y-84942000D01*
X81891000Y-84942000D02*
X84551000Y-84942000D01*
X84551000Y-97702000D02*
X84551000Y-84942000D01*
G04 #@! TO.C,J9*
X90713000Y-66314000D02*
X90713000Y-68914000D01*
X89383000Y-63714000D02*
X88053000Y-63714000D01*
X88053000Y-63714000D02*
X88053000Y-65044000D01*
X90713000Y-66314000D02*
X88053000Y-66314000D01*
X88053000Y-66314000D02*
X88053000Y-68914000D01*
X90713000Y-68914000D02*
X88053000Y-68914000D01*
G04 #@! TO.C,R13*
X121645258Y-51322500D02*
X121170742Y-51322500D01*
X121645258Y-50277500D02*
X121170742Y-50277500D01*
G04 #@! TO.C,R14*
X154192500Y-110760742D02*
X154192500Y-111235258D01*
X153147500Y-110760742D02*
X153147500Y-111235258D01*
G04 #@! TD*
M02*
