G04 #@! TF.GenerationSoftware,KiCad,Pcbnew,(5.99.0-11749-g6427197962)*
G04 #@! TF.CreationDate,2021-09-04T15:49:30+10:00*
G04 #@! TF.ProjectId,Mainboard,4d61696e-626f-4617-9264-2e6b69636164,rev?*
G04 #@! TF.SameCoordinates,Original*
G04 #@! TF.FileFunction,Paste,Top*
G04 #@! TF.FilePolarity,Positive*
%FSLAX46Y46*%
G04 Gerber Fmt 4.6, Leading zero omitted, Abs format (unit mm)*
G04 Created by KiCad (PCBNEW (5.99.0-11749-g6427197962)) date 2021-09-04 15:49:30*
%MOMM*%
%LPD*%
G01*
G04 APERTURE LIST*
G04 Aperture macros list*
%AMRoundRect*
0 Rectangle with rounded corners*
0 $1 Rounding radius*
0 $2 $3 $4 $5 $6 $7 $8 $9 X,Y pos of 4 corners*
0 Add a 4 corners polygon primitive as box body*
4,1,4,$2,$3,$4,$5,$6,$7,$8,$9,$2,$3,0*
0 Add four circle primitives for the rounded corners*
1,1,$1+$1,$2,$3*
1,1,$1+$1,$4,$5*
1,1,$1+$1,$6,$7*
1,1,$1+$1,$8,$9*
0 Add four rect primitives between the rounded corners*
20,1,$1+$1,$2,$3,$4,$5,0*
20,1,$1+$1,$4,$5,$6,$7,0*
20,1,$1+$1,$6,$7,$8,$9,0*
20,1,$1+$1,$8,$9,$2,$3,0*%
G04 Aperture macros list end*
G04 #@! TA.AperFunction,Profile*
%ADD10C,0.100000*%
G04 #@! TD*
%ADD11RoundRect,0.250000X0.550000X0.575000X-0.550000X0.575000X-0.550000X-0.575000X0.550000X-0.575000X0*%
%ADD12RoundRect,0.200000X-0.200000X-0.275000X0.200000X-0.275000X0.200000X0.275000X-0.200000X0.275000X0*%
%ADD13RoundRect,0.200000X0.200000X0.275000X-0.200000X0.275000X-0.200000X-0.275000X0.200000X-0.275000X0*%
%ADD14RoundRect,0.200000X0.275000X-0.200000X0.275000X0.200000X-0.275000X0.200000X-0.275000X-0.200000X0*%
%ADD15RoundRect,0.200000X-0.275000X0.200000X-0.275000X-0.200000X0.275000X-0.200000X0.275000X0.200000X0*%
%ADD16RoundRect,0.225000X0.225000X0.250000X-0.225000X0.250000X-0.225000X-0.250000X0.225000X-0.250000X0*%
%ADD17R,1.550000X1.300000*%
G04 APERTURE END LIST*
D10*
X239839000Y-159703000D02*
X60261000Y-159703000D01*
X60261000Y-159703000D02*
X60261000Y-41593000D01*
X60261000Y-41593000D02*
X239839000Y-41593000D01*
X239839000Y-41593000D02*
X239839000Y-159703000D01*
D11*
G04 #@! TO.C,D6*
X64262000Y-56388000D03*
X61412000Y-56388000D03*
G04 #@! TD*
D12*
G04 #@! TO.C,R1*
X153416000Y-58166000D03*
X155066000Y-58166000D03*
G04 #@! TD*
D13*
G04 #@! TO.C,R4*
X93281000Y-62992000D03*
X91631000Y-62992000D03*
G04 #@! TD*
D14*
G04 #@! TO.C,R32*
X69850000Y-48386000D03*
X69850000Y-46736000D03*
G04 #@! TD*
D15*
G04 #@! TO.C,R9*
X166878000Y-50737000D03*
X166878000Y-52387000D03*
G04 #@! TD*
D14*
G04 #@! TO.C,R3*
X155752000Y-52578000D03*
X155752000Y-50928000D03*
G04 #@! TD*
D16*
G04 #@! TO.C,C3*
X154241000Y-49467000D03*
X152691000Y-49467000D03*
G04 #@! TD*
G04 #@! TO.C,C1*
X154241000Y-52515000D03*
X152691000Y-52515000D03*
G04 #@! TD*
D11*
G04 #@! TO.C,D5*
X64262000Y-54102000D03*
X61412000Y-54102000D03*
G04 #@! TD*
D16*
G04 #@! TO.C,C2*
X154241000Y-50991000D03*
X152691000Y-50991000D03*
G04 #@! TD*
D11*
G04 #@! TO.C,D1*
X94996000Y-65024000D03*
X92146000Y-65024000D03*
G04 #@! TD*
D15*
G04 #@! TO.C,R8*
X163576000Y-50737000D03*
X163576000Y-52387000D03*
G04 #@! TD*
D17*
G04 #@! TO.C,SW1*
X150850000Y-49757000D03*
X142900000Y-49757000D03*
X142900000Y-54257000D03*
X150850000Y-54257000D03*
G04 #@! TD*
D11*
G04 #@! TO.C,D3*
X64262000Y-51816000D03*
X61412000Y-51816000D03*
G04 #@! TD*
D13*
G04 #@! TO.C,R2*
X156019000Y-56642000D03*
X154369000Y-56642000D03*
G04 #@! TD*
D15*
G04 #@! TO.C,R10*
X165354000Y-50737000D03*
X165354000Y-52387000D03*
G04 #@! TD*
D14*
G04 #@! TO.C,R31*
X66802000Y-48386000D03*
X66802000Y-46736000D03*
G04 #@! TD*
M02*
