G04 #@! TF.GenerationSoftware,KiCad,Pcbnew,(5.99.0-11749-g6427197962)*
G04 #@! TF.CreationDate,2021-09-04T15:49:30+10:00*
G04 #@! TF.ProjectId,Mainboard,4d61696e-626f-4617-9264-2e6b69636164,rev?*
G04 #@! TF.SameCoordinates,Original*
G04 #@! TF.FileFunction,Other,Comment*
%FSLAX46Y46*%
G04 Gerber Fmt 4.6, Leading zero omitted, Abs format (unit mm)*
G04 Created by KiCad (PCBNEW (5.99.0-11749-g6427197962)) date 2021-09-04 15:49:30*
%MOMM*%
%LPD*%
G01*
G04 APERTURE LIST*
G04 #@! TA.AperFunction,Profile*
%ADD10C,0.100000*%
G04 #@! TD*
%ADD11C,0.100000*%
%ADD12C,0.150000*%
G04 APERTURE END LIST*
D10*
X239839000Y-159703000D02*
X60261000Y-159703000D01*
X60261000Y-159703000D02*
X60261000Y-41593000D01*
X60261000Y-41593000D02*
X239839000Y-41593000D01*
X239839000Y-41593000D02*
X239839000Y-159703000D01*
D11*
G04 #@! TO.C,U1*
X141341190Y-39682095D02*
X141341190Y-39920190D01*
X141579285Y-39944000D01*
X141555476Y-39920190D01*
X141531666Y-39872571D01*
X141531666Y-39753523D01*
X141555476Y-39705904D01*
X141579285Y-39682095D01*
X141626904Y-39658285D01*
X141745952Y-39658285D01*
X141793571Y-39682095D01*
X141817380Y-39705904D01*
X141841190Y-39753523D01*
X141841190Y-39872571D01*
X141817380Y-39920190D01*
X141793571Y-39944000D01*
X141841190Y-39063047D02*
X141507857Y-39063047D01*
X141555476Y-39063047D02*
X141531666Y-39039238D01*
X141507857Y-38991619D01*
X141507857Y-38920190D01*
X141531666Y-38872571D01*
X141579285Y-38848761D01*
X141841190Y-38848761D01*
X141579285Y-38848761D02*
X141531666Y-38824952D01*
X141507857Y-38777333D01*
X141507857Y-38705904D01*
X141531666Y-38658285D01*
X141579285Y-38634476D01*
X141841190Y-38634476D01*
X141841190Y-38396380D02*
X141507857Y-38396380D01*
X141555476Y-38396380D02*
X141531666Y-38372571D01*
X141507857Y-38324952D01*
X141507857Y-38253523D01*
X141531666Y-38205904D01*
X141579285Y-38182095D01*
X141841190Y-38182095D01*
X141579285Y-38182095D02*
X141531666Y-38158285D01*
X141507857Y-38110666D01*
X141507857Y-38039238D01*
X141531666Y-37991619D01*
X141579285Y-37967809D01*
X141841190Y-37967809D01*
D12*
X143343571Y-39471380D02*
X143343571Y-38471380D01*
X143915000Y-39471380D02*
X143486428Y-38899952D01*
X143915000Y-38471380D02*
X143343571Y-39042809D01*
X144343571Y-38947571D02*
X144676904Y-38947571D01*
X144819761Y-39471380D02*
X144343571Y-39471380D01*
X144343571Y-38471380D01*
X144819761Y-38471380D01*
X145248333Y-38947571D02*
X145581666Y-38947571D01*
X145724523Y-39471380D02*
X145248333Y-39471380D01*
X145248333Y-38471380D01*
X145724523Y-38471380D01*
X146153095Y-39471380D02*
X146153095Y-38471380D01*
X146534047Y-38471380D01*
X146629285Y-38519000D01*
X146676904Y-38566619D01*
X146724523Y-38661857D01*
X146724523Y-38804714D01*
X146676904Y-38899952D01*
X146629285Y-38947571D01*
X146534047Y-38995190D01*
X146153095Y-38995190D01*
X147153095Y-39090428D02*
X147915000Y-39090428D01*
X148581666Y-38471380D02*
X148772142Y-38471380D01*
X148867380Y-38519000D01*
X148962619Y-38614238D01*
X149010238Y-38804714D01*
X149010238Y-39138047D01*
X148962619Y-39328523D01*
X148867380Y-39423761D01*
X148772142Y-39471380D01*
X148581666Y-39471380D01*
X148486428Y-39423761D01*
X148391190Y-39328523D01*
X148343571Y-39138047D01*
X148343571Y-38804714D01*
X148391190Y-38614238D01*
X148486428Y-38519000D01*
X148581666Y-38471380D01*
X149438809Y-38471380D02*
X149438809Y-39280904D01*
X149486428Y-39376142D01*
X149534047Y-39423761D01*
X149629285Y-39471380D01*
X149819761Y-39471380D01*
X149915000Y-39423761D01*
X149962619Y-39376142D01*
X150010238Y-39280904D01*
X150010238Y-38471380D01*
X150343571Y-38471380D02*
X150915000Y-38471380D01*
X150629285Y-39471380D02*
X150629285Y-38471380D01*
X151915000Y-38471380D02*
X152581666Y-38471380D01*
X151915000Y-39471380D01*
X152581666Y-39471380D01*
X153153095Y-38471380D02*
X153343571Y-38471380D01*
X153438809Y-38519000D01*
X153534047Y-38614238D01*
X153581666Y-38804714D01*
X153581666Y-39138047D01*
X153534047Y-39328523D01*
X153438809Y-39423761D01*
X153343571Y-39471380D01*
X153153095Y-39471380D01*
X153057857Y-39423761D01*
X152962619Y-39328523D01*
X152915000Y-39138047D01*
X152915000Y-38804714D01*
X152962619Y-38614238D01*
X153057857Y-38519000D01*
X153153095Y-38471380D01*
X154010238Y-39471380D02*
X154010238Y-38471380D01*
X154581666Y-39471380D01*
X154581666Y-38471380D01*
X155057857Y-38947571D02*
X155391190Y-38947571D01*
X155534047Y-39471380D02*
X155057857Y-39471380D01*
X155057857Y-38471380D01*
X155534047Y-38471380D01*
D11*
X159876904Y-43370190D02*
X159638809Y-43370190D01*
X159615000Y-43608285D01*
X159638809Y-43584476D01*
X159686428Y-43560666D01*
X159805476Y-43560666D01*
X159853095Y-43584476D01*
X159876904Y-43608285D01*
X159900714Y-43655904D01*
X159900714Y-43774952D01*
X159876904Y-43822571D01*
X159853095Y-43846380D01*
X159805476Y-43870190D01*
X159686428Y-43870190D01*
X159638809Y-43846380D01*
X159615000Y-43822571D01*
X160495952Y-43870190D02*
X160495952Y-43536857D01*
X160495952Y-43584476D02*
X160519761Y-43560666D01*
X160567380Y-43536857D01*
X160638809Y-43536857D01*
X160686428Y-43560666D01*
X160710238Y-43608285D01*
X160710238Y-43870190D01*
X160710238Y-43608285D02*
X160734047Y-43560666D01*
X160781666Y-43536857D01*
X160853095Y-43536857D01*
X160900714Y-43560666D01*
X160924523Y-43608285D01*
X160924523Y-43870190D01*
X161162619Y-43870190D02*
X161162619Y-43536857D01*
X161162619Y-43584476D02*
X161186428Y-43560666D01*
X161234047Y-43536857D01*
X161305476Y-43536857D01*
X161353095Y-43560666D01*
X161376904Y-43608285D01*
X161376904Y-43870190D01*
X161376904Y-43608285D02*
X161400714Y-43560666D01*
X161448333Y-43536857D01*
X161519761Y-43536857D01*
X161567380Y-43560666D01*
X161591190Y-43608285D01*
X161591190Y-43870190D01*
X136876904Y-43370190D02*
X136638809Y-43370190D01*
X136615000Y-43608285D01*
X136638809Y-43584476D01*
X136686428Y-43560666D01*
X136805476Y-43560666D01*
X136853095Y-43584476D01*
X136876904Y-43608285D01*
X136900714Y-43655904D01*
X136900714Y-43774952D01*
X136876904Y-43822571D01*
X136853095Y-43846380D01*
X136805476Y-43870190D01*
X136686428Y-43870190D01*
X136638809Y-43846380D01*
X136615000Y-43822571D01*
X137495952Y-43870190D02*
X137495952Y-43536857D01*
X137495952Y-43584476D02*
X137519761Y-43560666D01*
X137567380Y-43536857D01*
X137638809Y-43536857D01*
X137686428Y-43560666D01*
X137710238Y-43608285D01*
X137710238Y-43870190D01*
X137710238Y-43608285D02*
X137734047Y-43560666D01*
X137781666Y-43536857D01*
X137853095Y-43536857D01*
X137900714Y-43560666D01*
X137924523Y-43608285D01*
X137924523Y-43870190D01*
X138162619Y-43870190D02*
X138162619Y-43536857D01*
X138162619Y-43584476D02*
X138186428Y-43560666D01*
X138234047Y-43536857D01*
X138305476Y-43536857D01*
X138353095Y-43560666D01*
X138376904Y-43608285D01*
X138376904Y-43870190D01*
X138376904Y-43608285D02*
X138400714Y-43560666D01*
X138448333Y-43536857D01*
X138519761Y-43536857D01*
X138567380Y-43560666D01*
X138591190Y-43608285D01*
X138591190Y-43870190D01*
D12*
X146653095Y-45185666D02*
X147129285Y-45185666D01*
X146557857Y-45471380D02*
X146891190Y-44471380D01*
X147224523Y-45471380D01*
X147557857Y-44804714D02*
X147557857Y-45471380D01*
X147557857Y-44899952D02*
X147605476Y-44852333D01*
X147700714Y-44804714D01*
X147843571Y-44804714D01*
X147938809Y-44852333D01*
X147986428Y-44947571D01*
X147986428Y-45471380D01*
X148319761Y-44804714D02*
X148700714Y-44804714D01*
X148462619Y-44471380D02*
X148462619Y-45328523D01*
X148510238Y-45423761D01*
X148605476Y-45471380D01*
X148700714Y-45471380D01*
X149415000Y-45423761D02*
X149319761Y-45471380D01*
X149129285Y-45471380D01*
X149034047Y-45423761D01*
X148986428Y-45328523D01*
X148986428Y-44947571D01*
X149034047Y-44852333D01*
X149129285Y-44804714D01*
X149319761Y-44804714D01*
X149415000Y-44852333D01*
X149462619Y-44947571D01*
X149462619Y-45042809D01*
X148986428Y-45138047D01*
X149891190Y-44804714D02*
X149891190Y-45471380D01*
X149891190Y-44899952D02*
X149938809Y-44852333D01*
X150034047Y-44804714D01*
X150176904Y-44804714D01*
X150272142Y-44852333D01*
X150319761Y-44947571D01*
X150319761Y-45471380D01*
X150795952Y-44804714D02*
X150795952Y-45471380D01*
X150795952Y-44899952D02*
X150843571Y-44852333D01*
X150938809Y-44804714D01*
X151081666Y-44804714D01*
X151176904Y-44852333D01*
X151224523Y-44947571D01*
X151224523Y-45471380D01*
X152129285Y-45471380D02*
X152129285Y-44947571D01*
X152081666Y-44852333D01*
X151986428Y-44804714D01*
X151795952Y-44804714D01*
X151700714Y-44852333D01*
X152129285Y-45423761D02*
X152034047Y-45471380D01*
X151795952Y-45471380D01*
X151700714Y-45423761D01*
X151653095Y-45328523D01*
X151653095Y-45233285D01*
X151700714Y-45138047D01*
X151795952Y-45090428D01*
X152034047Y-45090428D01*
X152129285Y-45042809D01*
G04 #@! TO.C,H4*
X239438580Y-156095299D02*
G75*
G03*
X239438580Y-156095299I-3200000J0D01*
G01*
G04 #@! TO.C,H1*
X81283422Y-45212000D02*
G75*
G03*
X81283422Y-45212000I-3200000J0D01*
G01*
G04 #@! TO.C,H2*
X239420000Y-45212000D02*
G75*
G03*
X239420000Y-45212000I-3200000J0D01*
G01*
G04 #@! TO.C,H3*
X67064320Y-156096379D02*
G75*
G03*
X67064320Y-156096379I-3200000J0D01*
G01*
D11*
G04 #@! TO.C,U1*
X141015000Y-42019000D02*
X141215000Y-41819000D01*
X141015000Y-37419000D02*
X141215000Y-37619000D01*
X158615000Y-44144000D02*
X158815000Y-44344000D01*
X140215000Y-44144000D02*
X140015000Y-43944000D01*
X141015000Y-42019000D02*
X141015000Y-37419000D01*
X163215000Y-44144000D02*
X163015000Y-44344000D01*
X140215000Y-44144000D02*
X135615000Y-44144000D01*
X163215000Y-44144000D02*
X163015000Y-43944000D01*
X135615000Y-44144000D02*
X135815000Y-43944000D01*
X140215000Y-44144000D02*
X140015000Y-44344000D01*
X135615000Y-44144000D02*
X135815000Y-44344000D01*
X141015000Y-37419000D02*
X140815000Y-37619000D01*
X158615000Y-44144000D02*
X158815000Y-43944000D01*
X141015000Y-42019000D02*
X140815000Y-41819000D01*
X163215000Y-44144000D02*
X158615000Y-44144000D01*
G04 #@! TD*
M02*
