G04 #@! TF.GenerationSoftware,KiCad,Pcbnew,(5.99.0-11749-g6427197962)*
G04 #@! TF.CreationDate,2021-09-04T15:49:30+10:00*
G04 #@! TF.ProjectId,Mainboard,4d61696e-626f-4617-9264-2e6b69636164,rev?*
G04 #@! TF.SameCoordinates,Original*
G04 #@! TF.FileFunction,Paste,Bot*
G04 #@! TF.FilePolarity,Positive*
%FSLAX46Y46*%
G04 Gerber Fmt 4.6, Leading zero omitted, Abs format (unit mm)*
G04 Created by KiCad (PCBNEW (5.99.0-11749-g6427197962)) date 2021-09-04 15:49:30*
%MOMM*%
%LPD*%
G01*
G04 APERTURE LIST*
G04 Aperture macros list*
%AMRoundRect*
0 Rectangle with rounded corners*
0 $1 Rounding radius*
0 $2 $3 $4 $5 $6 $7 $8 $9 X,Y pos of 4 corners*
0 Add a 4 corners polygon primitive as box body*
4,1,4,$2,$3,$4,$5,$6,$7,$8,$9,$2,$3,0*
0 Add four circle primitives for the rounded corners*
1,1,$1+$1,$2,$3*
1,1,$1+$1,$4,$5*
1,1,$1+$1,$6,$7*
1,1,$1+$1,$8,$9*
0 Add four rect primitives between the rounded corners*
20,1,$1+$1,$2,$3,$4,$5,0*
20,1,$1+$1,$4,$5,$6,$7,0*
20,1,$1+$1,$6,$7,$8,$9,0*
20,1,$1+$1,$8,$9,$2,$3,0*%
G04 Aperture macros list end*
G04 #@! TA.AperFunction,Profile*
%ADD10C,0.100000*%
G04 #@! TD*
%ADD11R,2.000000X0.900000*%
%ADD12R,0.900000X2.000000*%
%ADD13R,5.000000X5.000000*%
%ADD14RoundRect,0.200000X0.275000X-0.200000X0.275000X0.200000X-0.275000X0.200000X-0.275000X-0.200000X0*%
%ADD15RoundRect,0.200000X-0.275000X0.200000X-0.275000X-0.200000X0.275000X-0.200000X0.275000X0.200000X0*%
%ADD16RoundRect,0.150000X-0.825000X-0.150000X0.825000X-0.150000X0.825000X0.150000X-0.825000X0.150000X0*%
%ADD17R,1.700000X1.700000*%
%ADD18O,1.700000X1.700000*%
%ADD19R,3.400000X1.800000*%
%ADD20R,0.700000X0.450000*%
%ADD21RoundRect,0.225000X-0.250000X0.225000X-0.250000X-0.225000X0.250000X-0.225000X0.250000X0.225000X0*%
%ADD22R,1.800000X2.500000*%
%ADD23RoundRect,0.225000X-0.225000X-0.250000X0.225000X-0.250000X0.225000X0.250000X-0.225000X0.250000X0*%
%ADD24RoundRect,0.225000X0.250000X-0.225000X0.250000X0.225000X-0.250000X0.225000X-0.250000X-0.225000X0*%
%ADD25RoundRect,0.200000X0.200000X0.275000X-0.200000X0.275000X-0.200000X-0.275000X0.200000X-0.275000X0*%
%ADD26RoundRect,0.225000X0.225000X0.250000X-0.225000X0.250000X-0.225000X-0.250000X0.225000X-0.250000X0*%
%ADD27RoundRect,0.200000X-0.200000X-0.275000X0.200000X-0.275000X0.200000X0.275000X-0.200000X0.275000X0*%
%ADD28RoundRect,0.250000X-1.500000X0.250000X-1.500000X-0.250000X1.500000X-0.250000X1.500000X0.250000X0*%
%ADD29RoundRect,0.250001X-1.449999X0.499999X-1.449999X-0.499999X1.449999X-0.499999X1.449999X0.499999X0*%
%ADD30RoundRect,0.250000X-0.312500X-0.625000X0.312500X-0.625000X0.312500X0.625000X-0.312500X0.625000X0*%
%ADD31R,1.000000X0.400000*%
%ADD32RoundRect,0.100000X-0.637500X-0.100000X0.637500X-0.100000X0.637500X0.100000X-0.637500X0.100000X0*%
%ADD33R,0.900000X0.800000*%
%ADD34R,0.300000X1.400000*%
%ADD35R,0.600000X1.450000*%
%ADD36R,0.300000X1.450000*%
G04 APERTURE END LIST*
D10*
X239839000Y-159703000D02*
X60261000Y-159703000D01*
X60261000Y-159703000D02*
X60261000Y-41593000D01*
X60261000Y-41593000D02*
X239839000Y-41593000D01*
X239839000Y-41593000D02*
X239839000Y-159703000D01*
D11*
G04 #@! TO.C,U1*
X157915000Y-49764000D03*
X157915000Y-51034000D03*
X157915000Y-52304000D03*
X157915000Y-53574000D03*
X157915000Y-54844000D03*
X157915000Y-56114000D03*
X157915000Y-57384000D03*
X157915000Y-58654000D03*
X157915000Y-59924000D03*
X157915000Y-61194000D03*
X157915000Y-62464000D03*
X157915000Y-63734000D03*
X157915000Y-65004000D03*
X157915000Y-66274000D03*
D12*
X155130000Y-67274000D03*
X153860000Y-67274000D03*
X152590000Y-67274000D03*
X151320000Y-67274000D03*
X150050000Y-67274000D03*
X148780000Y-67274000D03*
X147510000Y-67274000D03*
X146240000Y-67274000D03*
X144970000Y-67274000D03*
X143700000Y-67274000D03*
D11*
X140915000Y-66274000D03*
X140915000Y-65004000D03*
X140915000Y-63734000D03*
X140915000Y-62464000D03*
X140915000Y-61194000D03*
X140915000Y-59924000D03*
X140915000Y-58654000D03*
X140915000Y-57384000D03*
X140915000Y-56114000D03*
X140915000Y-54844000D03*
X140915000Y-53574000D03*
X140915000Y-52304000D03*
X140915000Y-51034000D03*
X140915000Y-49764000D03*
D13*
X150415000Y-57264000D03*
G04 #@! TD*
D14*
G04 #@! TO.C,R26*
X74168000Y-75184000D03*
X74168000Y-73534000D03*
G04 #@! TD*
D15*
G04 #@! TO.C,R23*
X75692000Y-70232000D03*
X75692000Y-71882000D03*
G04 #@! TD*
D16*
G04 #@! TO.C,U3*
X89614250Y-54752000D03*
X89614250Y-53482000D03*
X89614250Y-52212000D03*
X89614250Y-50942000D03*
X89614250Y-49672000D03*
X89614250Y-48402000D03*
X89614250Y-47132000D03*
X89614250Y-45862000D03*
X94564250Y-45862000D03*
X94564250Y-47132000D03*
X94564250Y-48402000D03*
X94564250Y-49672000D03*
X94564250Y-50942000D03*
X94564250Y-52212000D03*
X94564250Y-53482000D03*
X94564250Y-54752000D03*
G04 #@! TD*
D17*
G04 #@! TO.C,J12*
X83121000Y-72581000D03*
D18*
X83121000Y-70041000D03*
X83121000Y-67501000D03*
X83121000Y-64961000D03*
X83121000Y-62421000D03*
X83121000Y-59881000D03*
G04 #@! TD*
D19*
G04 #@! TO.C,TP2*
X146558000Y-157226000D03*
G04 #@! TD*
D20*
G04 #@! TO.C,Q2*
X100600000Y-57546000D03*
X100600000Y-56246000D03*
X102600000Y-56896000D03*
G04 #@! TD*
D21*
G04 #@! TO.C,C9*
X70612000Y-56820000D03*
X70612000Y-58370000D03*
G04 #@! TD*
D22*
G04 #@! TO.C,D2*
X63309000Y-80169000D03*
X63309000Y-76169000D03*
G04 #@! TD*
D23*
G04 #@! TO.C,C5*
X87823250Y-56276000D03*
X89373250Y-56276000D03*
G04 #@! TD*
D15*
G04 #@! TO.C,R5*
X66040000Y-79185000D03*
X66040000Y-80835000D03*
G04 #@! TD*
D24*
G04 #@! TO.C,C10*
X70612000Y-75134000D03*
X70612000Y-73584000D03*
G04 #@! TD*
D17*
G04 #@! TO.C,J45*
X159512000Y-73050000D03*
D18*
X159512000Y-75590000D03*
X159512000Y-78130000D03*
X159512000Y-80670000D03*
X159512000Y-83210000D03*
X159512000Y-85750000D03*
G04 #@! TD*
D17*
G04 #@! TO.C,J10*
X63284000Y-72581000D03*
D18*
X63284000Y-70041000D03*
X63284000Y-67501000D03*
X63284000Y-64961000D03*
X63284000Y-62421000D03*
X63284000Y-59881000D03*
G04 #@! TD*
D20*
G04 #@! TO.C,Q3*
X100600000Y-49672000D03*
X100600000Y-48372000D03*
X102600000Y-49022000D03*
G04 #@! TD*
D25*
G04 #@! TO.C,R17*
X122233000Y-55880000D03*
X120583000Y-55880000D03*
G04 #@! TD*
D15*
G04 #@! TO.C,R20*
X74168000Y-60072000D03*
X74168000Y-61722000D03*
G04 #@! TD*
D17*
G04 #@! TO.C,J44*
X139700000Y-73050000D03*
D18*
X139700000Y-75590000D03*
X139700000Y-78130000D03*
X139700000Y-80670000D03*
X139700000Y-83210000D03*
X139700000Y-85750000D03*
G04 #@! TD*
D26*
G04 #@! TO.C,C8*
X115071000Y-55880000D03*
X113521000Y-55880000D03*
G04 #@! TD*
D23*
G04 #@! TO.C,C6*
X87810250Y-57800000D03*
X89360250Y-57800000D03*
G04 #@! TD*
D27*
G04 #@! TO.C,R16*
X177483000Y-50800000D03*
X179133000Y-50800000D03*
G04 #@! TD*
D28*
G04 #@! TO.C,J11*
X87320000Y-65294000D03*
X87320000Y-67294000D03*
D29*
X93070000Y-62944000D03*
X93070000Y-69644000D03*
G04 #@! TD*
D30*
G04 #@! TO.C,R7*
X99629500Y-51562000D03*
X102554500Y-51562000D03*
G04 #@! TD*
D17*
G04 #@! TO.C,J5*
X100114000Y-74359000D03*
D18*
X100114000Y-76899000D03*
X100114000Y-79439000D03*
X100114000Y-81979000D03*
X100114000Y-84519000D03*
X100114000Y-87059000D03*
G04 #@! TD*
D14*
G04 #@! TO.C,R24*
X75692000Y-75184000D03*
X75692000Y-73534000D03*
G04 #@! TD*
D31*
G04 #@! TO.C,U4*
X146452000Y-97222000D03*
X146452000Y-96572000D03*
X146452000Y-95922000D03*
X146452000Y-95272000D03*
X146452000Y-94622000D03*
X146452000Y-93972000D03*
X146452000Y-93322000D03*
X146452000Y-92672000D03*
X146452000Y-92022000D03*
X146452000Y-91372000D03*
X152252000Y-91372000D03*
X152252000Y-92022000D03*
X152252000Y-92672000D03*
X152252000Y-93322000D03*
X152252000Y-93972000D03*
X152252000Y-94622000D03*
X152252000Y-95272000D03*
X152252000Y-95922000D03*
X152252000Y-96572000D03*
X152252000Y-97222000D03*
G04 #@! TD*
D32*
G04 #@! TO.C,U2*
X146552500Y-108731000D03*
X146552500Y-108081000D03*
X146552500Y-107431000D03*
X146552500Y-106781000D03*
X146552500Y-106131000D03*
X146552500Y-105481000D03*
X146552500Y-104831000D03*
X146552500Y-104181000D03*
X146552500Y-103531000D03*
X146552500Y-102881000D03*
X146552500Y-102231000D03*
X146552500Y-101581000D03*
X152277500Y-101581000D03*
X152277500Y-102231000D03*
X152277500Y-102881000D03*
X152277500Y-103531000D03*
X152277500Y-104181000D03*
X152277500Y-104831000D03*
X152277500Y-105481000D03*
X152277500Y-106131000D03*
X152277500Y-106781000D03*
X152277500Y-107431000D03*
X152277500Y-108081000D03*
X152277500Y-108731000D03*
G04 #@! TD*
D27*
G04 #@! TO.C,R15*
X144272000Y-110236000D03*
X145922000Y-110236000D03*
G04 #@! TD*
D17*
G04 #@! TO.C,J13*
X63384000Y-98972000D03*
D18*
X63384000Y-96432000D03*
X63384000Y-93892000D03*
X63384000Y-91352000D03*
X63384000Y-88812000D03*
X63384000Y-86272000D03*
G04 #@! TD*
D27*
G04 #@! TO.C,R19*
X113471000Y-50800000D03*
X115121000Y-50800000D03*
G04 #@! TD*
D15*
G04 #@! TO.C,R22*
X77216000Y-60072000D03*
X77216000Y-61722000D03*
G04 #@! TD*
D23*
G04 #@! TO.C,C7*
X184645000Y-50800000D03*
X186195000Y-50800000D03*
G04 #@! TD*
D25*
G04 #@! TO.C,R18*
X186245000Y-55880000D03*
X184595000Y-55880000D03*
G04 #@! TD*
D15*
G04 #@! TO.C,R21*
X75692000Y-60072000D03*
X75692000Y-61722000D03*
G04 #@! TD*
D33*
G04 #@! TO.C,Q1*
X65802000Y-77404000D03*
X65802000Y-75504000D03*
X67802000Y-76454000D03*
G04 #@! TD*
D27*
G04 #@! TO.C,R11*
X177483000Y-55880000D03*
X179133000Y-55880000D03*
G04 #@! TD*
D19*
G04 #@! TO.C,TP1*
X152146000Y-157226000D03*
G04 #@! TD*
D34*
G04 #@! TO.C,U5*
X72660000Y-63777000D03*
X73160000Y-63777000D03*
X73660000Y-63777000D03*
X74160000Y-63777000D03*
X74660000Y-63777000D03*
X74660000Y-68177000D03*
X74160000Y-68177000D03*
X73660000Y-68177000D03*
X73160000Y-68177000D03*
X72660000Y-68177000D03*
G04 #@! TD*
D17*
G04 #@! TO.C,J6*
X119951000Y-74359000D03*
D18*
X119951000Y-76899000D03*
X119951000Y-79439000D03*
X119951000Y-81979000D03*
X119951000Y-84519000D03*
X119951000Y-87059000D03*
G04 #@! TD*
D30*
G04 #@! TO.C,R6*
X99629500Y-54102000D03*
X102554500Y-54102000D03*
G04 #@! TD*
D26*
G04 #@! TO.C,C4*
X150190000Y-111760000D03*
X148640000Y-111760000D03*
G04 #@! TD*
D35*
G04 #@! TO.C,J1*
X64885000Y-49650000D03*
X65685000Y-49650000D03*
D36*
X66885000Y-49650000D03*
X67885000Y-49650000D03*
X68385000Y-49650000D03*
X69385000Y-49650000D03*
D35*
X70585000Y-49650000D03*
X71385000Y-49650000D03*
X71385000Y-49650000D03*
X70585000Y-49650000D03*
D36*
X69885000Y-49650000D03*
X68885000Y-49650000D03*
X67385000Y-49650000D03*
X66385000Y-49650000D03*
D35*
X65685000Y-49650000D03*
X64885000Y-49650000D03*
G04 #@! TD*
D15*
G04 #@! TO.C,R25*
X74168000Y-70232000D03*
X74168000Y-71882000D03*
G04 #@! TD*
G04 #@! TO.C,R12*
X155194000Y-110173000D03*
X155194000Y-111823000D03*
G04 #@! TD*
D17*
G04 #@! TO.C,J14*
X83221000Y-98972000D03*
D18*
X83221000Y-96432000D03*
X83221000Y-93892000D03*
X83221000Y-91352000D03*
X83221000Y-88812000D03*
X83221000Y-86272000D03*
G04 #@! TD*
D25*
G04 #@! TO.C,R13*
X122233000Y-50800000D03*
X120583000Y-50800000D03*
G04 #@! TD*
D15*
G04 #@! TO.C,R14*
X153670000Y-110173000D03*
X153670000Y-111823000D03*
G04 #@! TD*
M02*
