M48
; DRILL file {KiCad (5.99.0-11749-g6427197962)} date Sat Sep  4 15:49:30 2021
; FORMAT={-:-/ absolute / metric / decimal}
; #@! TF.CreationDate,2021-09-04T15:49:30+10:00
; #@! TF.GenerationSoftware,Kicad,Pcbnew,(5.99.0-11749-g6427197962)
; #@! TF.FileFunction,MixedPlating,1,2
FMAT,2
METRIC
; #@! TA.AperFunction,Plated,PTH,ViaDrill
T1C0.400
; #@! TA.AperFunction,Plated,PTH,ComponentDrill
T2C0.600
; #@! TA.AperFunction,Plated,PTH,ComponentDrill
T3C1.000
; #@! TA.AperFunction,Plated,PTH,ComponentDrill
T4C1.350
; #@! TA.AperFunction,Plated,PTH,ComponentDrill
T5C1.500
; #@! TA.AperFunction,Plated,PTH,ComponentDrill
T6C1.600
; #@! TA.AperFunction,NonPlated,NPTH,ComponentDrill
T7C0.650
; #@! TA.AperFunction,NonPlated,NPTH,ComponentDrill
T8C3.200
%
G90
G05
T1
X63.246Y-62.484
X63.246Y-65.024
X63.284Y-67.501
X63.284Y-70.041
X63.309Y-75.184
X63.309Y-76.169
X63.384Y-88.812
X63.384Y-91.352
X65.802Y-77.404
X66.04Y-79.185
X66.624Y-56.82
X66.759Y-48.364
X67.31Y-80.264
X69.85Y-48.386
X70.612Y-58.42
X70.612Y-59.69
X70.612Y-60.96
X70.612Y-62.23
X70.612Y-63.5
X70.612Y-64.77
X70.612Y-65.977
X70.612Y-73.584
X71.882Y-65.977
X73.152Y-65.977
X74.168Y-58.928
X74.168Y-70.232
X74.168Y-73.534
X74.168Y-75.121
X75.692Y-58.928
X75.692Y-70.232
X75.692Y-75.121
X76.454Y-63.754
X76.454Y-64.77
X76.454Y-65.786
X77.216Y-58.928
X77.978Y-63.754
X77.978Y-64.77
X77.978Y-65.786
X83.121Y-62.421
X83.121Y-64.961
X83.221Y-88.812
X83.221Y-91.352
X83.221Y-93.892
X83.221Y-96.432
X87.823Y-52.353
X91.182Y-51.05
X93.218Y-54.826
X100.076Y-84.582
X100.114Y-76.899
X100.114Y-79.439
X100.114Y-81.979
X102.554Y-54.102
X103.124Y-58.928
X103.632Y-49.022
X103.886Y-56.896
X106.934Y-48.26
X108.649Y-81.979
X111.951Y-81.979
X119.951Y-74.359
X126.746Y-95.504
X126.746Y-98.044
X127.0Y-92.964
X127.0Y-100.584
X133.858Y-65.024
X139.192Y-66.294
X142.988Y-70.843
X143.002Y-49.784
X143.764Y-72.644
X144.526Y-97.282
X145.034Y-76.962
X145.109Y-61.214
X145.109Y-62.484
X145.109Y-63.754
X145.288Y-101.506
X145.522Y-96.54
X145.537Y-95.255
X145.796Y-76.2
X146.558Y-60.452
X146.66Y-78.13
X147.315Y-56.352
X147.574Y-60.452
X147.676Y-80.67
X148.082Y-94.742
X148.086Y-108.97
X148.59Y-111.76
X148.844Y-55.626
X148.844Y-57.126
X148.844Y-58.626
X148.844Y-106.68
X149.864Y-107.954
X150.344Y-55.626
X150.344Y-57.126
X150.344Y-58.626
X150.47Y-78.13
X150.876Y-49.784
X150.876Y-107.505
X151.282Y-80.67
X151.844Y-55.626
X151.844Y-57.126
X151.844Y-58.626
X152.691Y-49.467
X153.214Y-48.44
X153.67Y-111.823
X154.56Y-64.606
X155.066Y-58.166
X155.503Y-65.056
X155.752Y-50.928
X155.752Y-52.578
X156.21Y-65.786
X156.21Y-67.31
X160.274Y-50.8
X161.798Y-60.96
X163.317Y-61.456
X163.322Y-63.607
X163.351Y-62.455
X163.576Y-49.727
X167.894Y-60.96
X173.228Y-92.964
X173.228Y-95.504
X173.228Y-98.044
X173.228Y-100.584
X180.086Y-50.8
X189.738Y-58.166
T3
X67.081Y-88.89
X67.081Y-91.43
X67.081Y-93.97
X67.081Y-96.51
X69.469Y-53.252
X69.469Y-80.264
X69.469Y-107.188
X69.469Y-134.112
X72.009Y-53.252
X72.009Y-80.264
X72.009Y-107.188
X72.009Y-134.112
X74.549Y-53.252
X74.549Y-80.264
X74.549Y-107.188
X74.549Y-134.112
X77.089Y-53.252
X77.089Y-80.264
X77.089Y-107.188
X77.089Y-134.112
X88.201Y-70.549
X88.201Y-97.473
X88.201Y-124.397
X88.201Y-151.321
X89.383Y-65.044
X89.383Y-67.584
X100.076Y-44.171
X102.616Y-44.171
X105.156Y-44.171
X107.696Y-44.171
X110.602Y-50.84
X110.602Y-55.84
X125.102Y-50.84
X125.102Y-53.34
X125.102Y-55.84
X128.333Y-68.771
X128.333Y-71.311
X128.333Y-73.851
X128.333Y-76.391
X128.333Y-78.931
X128.333Y-81.471
X128.333Y-84.011
X128.333Y-86.551
X128.333Y-89.091
X128.333Y-91.631
X128.333Y-94.171
X128.333Y-96.711
X128.333Y-99.251
X128.333Y-101.791
X128.333Y-104.331
X128.333Y-106.871
X128.333Y-109.411
X128.333Y-111.951
X128.333Y-114.491
X128.333Y-117.031
X128.333Y-119.571
X128.333Y-122.111
X128.333Y-124.651
X128.333Y-127.191
X128.333Y-129.731
X128.333Y-132.271
X128.333Y-134.811
X128.333Y-137.351
X128.333Y-139.891
X128.333Y-142.431
X128.333Y-144.971
X128.333Y-147.511
X128.333Y-150.051
X128.333Y-152.591
X128.333Y-155.131
X128.333Y-157.671
X130.873Y-68.771
X130.873Y-71.311
X130.873Y-73.851
X130.873Y-76.391
X130.873Y-78.931
X130.873Y-81.471
X130.873Y-84.011
X130.873Y-86.551
X130.873Y-89.091
X130.873Y-91.631
X130.873Y-94.171
X130.873Y-96.711
X130.873Y-99.251
X130.873Y-101.791
X130.873Y-104.331
X130.873Y-106.871
X130.873Y-109.411
X130.873Y-111.951
X130.873Y-114.491
X130.873Y-117.031
X130.873Y-119.571
X130.873Y-122.111
X130.873Y-124.651
X130.873Y-127.191
X130.873Y-129.731
X130.873Y-132.271
X130.873Y-134.811
X130.873Y-137.351
X130.873Y-139.891
X130.873Y-142.431
X130.873Y-144.971
X130.873Y-147.511
X130.873Y-150.051
X130.873Y-152.591
X130.873Y-155.131
X130.873Y-157.671
X134.16Y-51.562
X134.16Y-54.102
X134.16Y-56.642
X134.16Y-59.182
X168.973Y-68.771
X168.973Y-71.311
X168.973Y-73.851
X168.973Y-76.391
X168.973Y-78.931
X168.973Y-81.471
X168.973Y-84.011
X168.973Y-86.551
X168.973Y-89.091
X168.973Y-91.631
X168.973Y-94.171
X168.973Y-96.711
X168.973Y-99.251
X168.973Y-101.791
X168.973Y-104.331
X168.973Y-106.871
X168.973Y-109.411
X168.973Y-111.951
X168.973Y-114.491
X168.973Y-117.031
X168.973Y-119.571
X168.973Y-122.111
X168.973Y-124.651
X168.973Y-127.191
X168.973Y-129.731
X168.973Y-132.271
X168.973Y-134.811
X168.973Y-137.351
X168.973Y-139.891
X168.973Y-142.431
X168.973Y-144.971
X168.973Y-147.511
X168.973Y-150.051
X168.973Y-152.591
X168.973Y-155.131
X168.973Y-157.671
X171.513Y-68.771
X171.513Y-71.311
X171.513Y-73.851
X171.513Y-76.391
X171.513Y-78.931
X171.513Y-81.471
X171.513Y-84.011
X171.513Y-86.551
X171.513Y-89.091
X171.513Y-91.631
X171.513Y-94.171
X171.513Y-96.711
X171.513Y-99.251
X171.513Y-101.791
X171.513Y-104.331
X171.513Y-106.871
X171.513Y-109.411
X171.513Y-111.951
X171.513Y-114.491
X171.513Y-117.031
X171.513Y-119.571
X171.513Y-122.111
X171.513Y-124.651
X171.513Y-127.191
X171.513Y-129.731
X171.513Y-132.271
X171.513Y-134.811
X171.513Y-137.351
X171.513Y-139.891
X171.513Y-142.431
X171.513Y-144.971
X171.513Y-147.511
X171.513Y-150.051
X171.513Y-152.591
X171.513Y-155.131
X171.513Y-157.671
X174.553Y-50.901
X174.553Y-53.401
X174.553Y-55.901
X189.053Y-50.901
X189.053Y-55.901
X198.603Y-45.481
X198.603Y-48.021
X198.603Y-50.561
X198.603Y-53.101
X198.603Y-55.641
X198.603Y-58.181
X198.603Y-60.721
X198.603Y-63.261
X211.899Y-70.549
X211.899Y-97.473
X211.899Y-124.397
X211.899Y-151.321
X223.065Y-75.023
X223.065Y-101.947
X223.065Y-128.871
X223.065Y-155.795
X225.605Y-75.023
X225.605Y-101.947
X225.605Y-128.871
X225.605Y-155.795
X228.145Y-75.023
X228.145Y-101.947
X228.145Y-128.871
X228.145Y-155.795
X230.685Y-75.023
X230.685Y-101.947
X230.685Y-128.871
X230.685Y-155.795
T4
X165.544Y-43.434
X165.544Y-48.514
X170.624Y-43.434
X170.624Y-48.514
T5
X63.444Y-114.762
X63.444Y-128.062
T6
X72.644Y-116.644
X72.644Y-121.444
X72.644Y-126.244
T7
X65.245Y-48.205
X71.025Y-48.205
T8
X63.864Y-156.096
X78.083Y-45.212
X236.22Y-45.212
X236.239Y-156.095
T2
X63.815Y-44.255G85X63.815Y-44.855
G05
X63.815Y-48.185G85X63.815Y-49.285
G05
X72.455Y-44.255G85X72.455Y-44.855
G05
X72.455Y-48.185G85X72.455Y-49.285
G05
T5
X118.252Y-47.74G85X116.952Y-47.74
G05
X118.252Y-58.94G85X116.952Y-58.94
G05
X181.403Y-47.801G85X182.703Y-47.801
G05
X181.403Y-59.001G85X182.703Y-59.001
G05
T0
M30
