M48
; DRILL file {KiCad (5.99.0-11522-g728b160719)} date Sun Jul 25 14:13:55 2021
; FORMAT={-:-/ absolute / metric / decimal}
; #@! TF.CreationDate,2021-07-25T14:13:55+10:00
; #@! TF.GenerationSoftware,Kicad,Pcbnew,(5.99.0-11522-g728b160719)
; #@! TF.FileFunction,MixedPlating,1,2
FMAT,2
METRIC
; #@! TA.AperFunction,Plated,PTH,ViaDrill
T1C0.400
; #@! TA.AperFunction,Plated,PTH,ComponentDrill
T2C1.000
%
G90
G05
T1
X140.716Y-89.408
X143.953Y-90.551
X143.953Y-92.075
X152.146Y-89.916
X152.146Y-92.456
T2
X129.54Y-84.836
X129.54Y-87.376
X129.54Y-89.916
X129.54Y-92.456
X129.54Y-94.996
X129.54Y-97.536
X129.54Y-100.076
X129.54Y-102.616
X159.537Y-84.836
X159.537Y-87.376
X159.537Y-89.916
X159.537Y-92.456
X159.537Y-94.996
X159.537Y-97.536
X159.537Y-100.076
X159.537Y-102.616
T0
M30
