G04 #@! TF.GenerationSoftware,KiCad,Pcbnew,(5.99.0-11522-g728b160719)*
G04 #@! TF.CreationDate,2021-07-25T14:13:55+10:00*
G04 #@! TF.ProjectId,USB-TTL,5553422d-5454-44c2-9e6b-696361645f70,rev?*
G04 #@! TF.SameCoordinates,Original*
G04 #@! TF.FileFunction,Copper,L1,Top*
G04 #@! TF.FilePolarity,Positive*
%FSLAX46Y46*%
G04 Gerber Fmt 4.6, Leading zero omitted, Abs format (unit mm)*
G04 Created by KiCad (PCBNEW (5.99.0-11522-g728b160719)) date 2021-07-25 14:13:55*
%MOMM*%
%LPD*%
G01*
G04 APERTURE LIST*
G04 Aperture macros list*
%AMRoundRect*
0 Rectangle with rounded corners*
0 $1 Rounding radius*
0 $2 $3 $4 $5 $6 $7 $8 $9 X,Y pos of 4 corners*
0 Add a 4 corners polygon primitive as box body*
4,1,4,$2,$3,$4,$5,$6,$7,$8,$9,$2,$3,0*
0 Add four circle primitives for the rounded corners*
1,1,$1+$1,$2,$3*
1,1,$1+$1,$4,$5*
1,1,$1+$1,$6,$7*
1,1,$1+$1,$8,$9*
0 Add four rect primitives between the rounded corners*
20,1,$1+$1,$2,$3,$4,$5,0*
20,1,$1+$1,$4,$5,$6,$7,0*
20,1,$1+$1,$6,$7,$8,$9,0*
20,1,$1+$1,$8,$9,$2,$3,0*%
G04 Aperture macros list end*
G04 #@! TA.AperFunction,Profile*
%ADD10C,0.100000*%
G04 #@! TD*
G04 #@! TA.AperFunction,ComponentPad*
%ADD11R,1.700000X1.700000*%
G04 #@! TD*
G04 #@! TA.AperFunction,ComponentPad*
%ADD12O,1.700000X1.700000*%
G04 #@! TD*
G04 #@! TA.AperFunction,SMDPad,CuDef*
%ADD13RoundRect,0.150000X-0.825000X-0.150000X0.825000X-0.150000X0.825000X0.150000X-0.825000X0.150000X0*%
G04 #@! TD*
G04 #@! TA.AperFunction,SMDPad,CuDef*
%ADD14RoundRect,0.250000X-0.312500X-0.625000X0.312500X-0.625000X0.312500X0.625000X-0.312500X0.625000X0*%
G04 #@! TD*
G04 #@! TA.AperFunction,SMDPad,CuDef*
%ADD15R,0.700000X0.450000*%
G04 #@! TD*
G04 #@! TA.AperFunction,ViaPad*
%ADD16C,0.800000*%
G04 #@! TD*
G04 #@! TA.AperFunction,Conductor*
%ADD17C,0.250000*%
G04 #@! TD*
G04 #@! TA.AperFunction,Conductor*
%ADD18C,0.200000*%
G04 #@! TD*
G04 APERTURE END LIST*
D10*
X129540000Y-78740000D02*
X159512000Y-78740000D01*
X159512000Y-78740000D02*
X159512000Y-108712000D01*
X159512000Y-108712000D02*
X129540000Y-108712000D01*
X129540000Y-108712000D02*
X129540000Y-78740000D01*
D11*
G04 #@! TO.P,J1,1,Pin_1*
G04 #@! TO.N,N/C*
X129540000Y-84836000D03*
D12*
G04 #@! TO.P,J1,2,Pin_2*
X129540000Y-87376000D03*
G04 #@! TO.P,J1,3,Pin_3*
G04 #@! TO.N,+3V3*
X129540000Y-89916000D03*
G04 #@! TO.P,J1,4,Pin_4*
G04 #@! TO.N,USB D+*
X129540000Y-92456000D03*
G04 #@! TO.P,J1,5,Pin_5*
G04 #@! TO.N,USB D-*
X129540000Y-94996000D03*
G04 #@! TO.P,J1,6,Pin_6*
G04 #@! TO.N,GND*
X129540000Y-97536000D03*
G04 #@! TO.P,J1,7,Pin_7*
G04 #@! TO.N,N/C*
X129540000Y-100076000D03*
G04 #@! TO.P,J1,8,Pin_8*
X129540000Y-102616000D03*
G04 #@! TD*
D13*
G04 #@! TO.P,U1,1,GND*
G04 #@! TO.N,GND*
X142240000Y-89408000D03*
G04 #@! TO.P,U1,2,TXD*
G04 #@! TO.N,Net-(R1-Pad1)*
X142240000Y-90678000D03*
G04 #@! TO.P,U1,3,RXD*
G04 #@! TO.N,Net-(R2-Pad1)*
X142240000Y-91948000D03*
G04 #@! TO.P,U1,4,V3*
G04 #@! TO.N,+3V3*
X142240000Y-93218000D03*
G04 #@! TO.P,U1,5,UD+*
G04 #@! TO.N,USB D+*
X142240000Y-94488000D03*
G04 #@! TO.P,U1,6,UD-*
G04 #@! TO.N,USB D-*
X142240000Y-95758000D03*
G04 #@! TO.P,U1,7,NC*
G04 #@! TO.N,N/C*
X142240000Y-97028000D03*
G04 #@! TO.P,U1,8,NC*
X142240000Y-98298000D03*
G04 #@! TO.P,U1,9,~{CTS}*
X147190000Y-98298000D03*
G04 #@! TO.P,U1,10,~{DSR}*
X147190000Y-97028000D03*
G04 #@! TO.P,U1,11,~{RI}*
X147190000Y-95758000D03*
G04 #@! TO.P,U1,12,~{DCD}*
X147190000Y-94488000D03*
G04 #@! TO.P,U1,13,~{DTR}*
G04 #@! TO.N,/~{DTR}*
X147190000Y-93218000D03*
G04 #@! TO.P,U1,14,~{RTS}*
G04 #@! TO.N,/~{RTS}*
X147190000Y-91948000D03*
G04 #@! TO.P,U1,15,R232*
G04 #@! TO.N,N/C*
X147190000Y-90678000D03*
G04 #@! TO.P,U1,16,VCC*
G04 #@! TO.N,+3V3*
X147190000Y-89408000D03*
G04 #@! TD*
D14*
G04 #@! TO.P,R2,1*
G04 #@! TO.N,Net-(R2-Pad1)*
X152146000Y-92456000D03*
G04 #@! TO.P,R2,2*
G04 #@! TO.N,TTL RX*
X155071000Y-92456000D03*
G04 #@! TD*
G04 #@! TO.P,R1,1*
G04 #@! TO.N,Net-(R1-Pad1)*
X152146000Y-89916000D03*
G04 #@! TO.P,R1,2*
G04 #@! TO.N,TTL TX*
X155071000Y-89916000D03*
G04 #@! TD*
D15*
G04 #@! TO.P,Q1,1,B*
G04 #@! TO.N,/~{DTR}*
X153116500Y-97140000D03*
G04 #@! TO.P,Q1,2,E*
G04 #@! TO.N,/~{RTS}*
X153116500Y-98440000D03*
G04 #@! TO.P,Q1,3,C*
G04 #@! TO.N,EN*
X155116500Y-97790000D03*
G04 #@! TD*
D11*
G04 #@! TO.P,J2,1,Pin_1*
G04 #@! TO.N,N/C*
X159537000Y-84836000D03*
D12*
G04 #@! TO.P,J2,2,Pin_2*
X159537000Y-87376000D03*
G04 #@! TO.P,J2,3,Pin_3*
G04 #@! TO.N,TTL TX*
X159537000Y-89916000D03*
G04 #@! TO.P,J2,4,Pin_4*
G04 #@! TO.N,TTL RX*
X159537000Y-92456000D03*
G04 #@! TO.P,J2,5,Pin_5*
G04 #@! TO.N,IO0*
X159537000Y-94996000D03*
G04 #@! TO.P,J2,6,Pin_6*
G04 #@! TO.N,EN*
X159537000Y-97536000D03*
G04 #@! TO.P,J2,7,Pin_7*
G04 #@! TO.N,N/C*
X159537000Y-100076000D03*
G04 #@! TO.P,J2,8,Pin_8*
X159537000Y-102616000D03*
G04 #@! TD*
D15*
G04 #@! TO.P,Q2,1,B*
G04 #@! TO.N,/~{RTS}*
X153116500Y-94346000D03*
G04 #@! TO.P,Q2,2,E*
G04 #@! TO.N,/~{DTR}*
X153116500Y-95646000D03*
G04 #@! TO.P,Q2,3,C*
G04 #@! TO.N,IO0*
X155116500Y-94996000D03*
G04 #@! TD*
D16*
G04 #@! TO.N,GND*
X140716000Y-89408000D03*
G04 #@! TO.N,Net-(R1-Pad1)*
X143953000Y-90551000D03*
X152146000Y-89916000D03*
G04 #@! TO.N,Net-(R2-Pad1)*
X152146000Y-92456000D03*
X143953000Y-92075000D03*
G04 #@! TD*
D17*
G04 #@! TO.N,GND*
X142240000Y-89408000D02*
X140716000Y-89408000D01*
G04 #@! TO.N,+3V3*
X142240000Y-93218000D02*
X144266856Y-93218000D01*
X144969000Y-90043000D02*
X145604000Y-89408000D01*
X142240000Y-93218000D02*
X141265000Y-93218000D01*
X144969000Y-92515856D02*
X144969000Y-90043000D01*
X141265000Y-93218000D02*
X137963000Y-89916000D01*
X145604000Y-89408000D02*
X147190000Y-89408000D01*
X137963000Y-89916000D02*
X129665020Y-89916000D01*
X144266856Y-93218000D02*
X144969000Y-92515856D01*
D18*
G04 #@! TO.N,USB D+*
X137131306Y-91919306D02*
X137068000Y-91919306D01*
X136468000Y-92456000D02*
X129640020Y-92456000D01*
X142240000Y-94488000D02*
X139954000Y-94488000D01*
X137922000Y-92456000D02*
X137668000Y-92456000D01*
X136531306Y-92456000D02*
X136468000Y-92456000D01*
X139954000Y-94488000D02*
X137922000Y-92456000D01*
X136531306Y-92456000D02*
G75*
G03*
X136799653Y-92187653I0J268347D01*
G01*
X137131306Y-91919306D02*
G75*
G02*
X137399653Y-92187653I0J-268347D01*
G01*
X136799653Y-92187653D02*
G75*
G02*
X137068000Y-91919306I268347J0D01*
G01*
X137399653Y-92187653D02*
G75*
G03*
X137668000Y-92456000I268347J0D01*
G01*
G04 #@! TO.N,USB D-*
X137114000Y-94696000D02*
X137114000Y-94496281D01*
X136214000Y-94996000D02*
X135318987Y-94996000D01*
X137922000Y-94996000D02*
X137414000Y-94996000D01*
X136514000Y-94496281D02*
X136514000Y-94696000D01*
X138684000Y-95758000D02*
X137922000Y-94996000D01*
X142240000Y-95758000D02*
X138684000Y-95758000D01*
X135318987Y-94996000D02*
X129640020Y-94996000D01*
X136514000Y-94496281D02*
G75*
G02*
X136814000Y-94196281I300000J0D01*
G01*
X136214000Y-94996000D02*
G75*
G03*
X136514000Y-94696000I0J300000D01*
G01*
X137114000Y-94696000D02*
G75*
G03*
X137414000Y-94996000I300000J0D01*
G01*
X136814000Y-94196281D02*
G75*
G02*
X137114000Y-94496281I0J-300000D01*
G01*
D17*
G04 #@! TO.N,TTL TX*
X155071000Y-89916000D02*
X159386980Y-89916000D01*
G04 #@! TO.N,TTL RX*
X155071000Y-92456000D02*
X159386980Y-92456000D01*
G04 #@! TO.N,IO0*
X155116500Y-94996000D02*
X159386980Y-94996000D01*
G04 #@! TO.N,EN*
X159386980Y-97536000D02*
X159132980Y-97790000D01*
X155116500Y-97790000D02*
X159283000Y-97790000D01*
X159386980Y-97686020D02*
X159386980Y-97536000D01*
X159283000Y-97790000D02*
X159386980Y-97686020D01*
G04 #@! TO.N,/~{DTR}*
X153116500Y-97140000D02*
X153116500Y-95646000D01*
X147190000Y-93218000D02*
X150515230Y-93218000D01*
X152943230Y-95646000D02*
X153116500Y-95646000D01*
X150515230Y-93218000D02*
X152943230Y-95646000D01*
G04 #@! TO.N,/~{RTS}*
X152278934Y-94346000D02*
X153116500Y-94346000D01*
X147190000Y-91948000D02*
X149880934Y-91948000D01*
X153116500Y-94346000D02*
X153791011Y-95020511D01*
X149880934Y-91948000D02*
X152278934Y-94346000D01*
X153791011Y-95020511D02*
X153791011Y-97765489D01*
X153791011Y-97765489D02*
X153116500Y-98440000D01*
G04 #@! TO.N,Net-(R1-Pad1)*
X142240000Y-90678000D02*
X143826000Y-90678000D01*
X143826000Y-90678000D02*
X143953000Y-90551000D01*
G04 #@! TO.N,Net-(R2-Pad1)*
X143826000Y-91948000D02*
X143953000Y-92075000D01*
X142240000Y-91948000D02*
X143826000Y-91948000D01*
G04 #@! TO.N,unconnected-(U1-Pad8)*
X141650230Y-98298000D02*
X142240000Y-98298000D01*
G04 #@! TD*
M02*
