G04 #@! TF.GenerationSoftware,KiCad,Pcbnew,(5.99.0-11522-g728b160719)*
G04 #@! TF.CreationDate,2021-07-25T14:13:55+10:00*
G04 #@! TF.ProjectId,USB-TTL,5553422d-5454-44c2-9e6b-696361645f70,rev?*
G04 #@! TF.SameCoordinates,Original*
G04 #@! TF.FileFunction,Copper,L2,Bot*
G04 #@! TF.FilePolarity,Positive*
%FSLAX46Y46*%
G04 Gerber Fmt 4.6, Leading zero omitted, Abs format (unit mm)*
G04 Created by KiCad (PCBNEW (5.99.0-11522-g728b160719)) date 2021-07-25 14:13:55*
%MOMM*%
%LPD*%
G01*
G04 APERTURE LIST*
G04 #@! TA.AperFunction,Profile*
%ADD10C,0.100000*%
G04 #@! TD*
G04 #@! TA.AperFunction,ComponentPad*
%ADD11R,1.700000X1.700000*%
G04 #@! TD*
G04 #@! TA.AperFunction,ComponentPad*
%ADD12O,1.700000X1.700000*%
G04 #@! TD*
G04 #@! TA.AperFunction,ViaPad*
%ADD13C,0.800000*%
G04 #@! TD*
G04 #@! TA.AperFunction,Conductor*
%ADD14C,0.250000*%
G04 #@! TD*
G04 APERTURE END LIST*
D10*
X129540000Y-78740000D02*
X159512000Y-78740000D01*
X159512000Y-78740000D02*
X159512000Y-108712000D01*
X159512000Y-108712000D02*
X129540000Y-108712000D01*
X129540000Y-108712000D02*
X129540000Y-78740000D01*
D11*
G04 #@! TO.P,J1,1,Pin_1*
G04 #@! TO.N,N/C*
X129540000Y-84836000D03*
D12*
G04 #@! TO.P,J1,2,Pin_2*
X129540000Y-87376000D03*
G04 #@! TO.P,J1,3,Pin_3*
G04 #@! TO.N,+3V3*
X129540000Y-89916000D03*
G04 #@! TO.P,J1,4,Pin_4*
G04 #@! TO.N,USB D+*
X129540000Y-92456000D03*
G04 #@! TO.P,J1,5,Pin_5*
G04 #@! TO.N,USB D-*
X129540000Y-94996000D03*
G04 #@! TO.P,J1,6,Pin_6*
G04 #@! TO.N,GND*
X129540000Y-97536000D03*
G04 #@! TO.P,J1,7,Pin_7*
G04 #@! TO.N,N/C*
X129540000Y-100076000D03*
G04 #@! TO.P,J1,8,Pin_8*
X129540000Y-102616000D03*
G04 #@! TD*
D11*
G04 #@! TO.P,J2,1,Pin_1*
G04 #@! TO.N,N/C*
X159537000Y-84836000D03*
D12*
G04 #@! TO.P,J2,2,Pin_2*
X159537000Y-87376000D03*
G04 #@! TO.P,J2,3,Pin_3*
G04 #@! TO.N,TTL TX*
X159537000Y-89916000D03*
G04 #@! TO.P,J2,4,Pin_4*
G04 #@! TO.N,TTL RX*
X159537000Y-92456000D03*
G04 #@! TO.P,J2,5,Pin_5*
G04 #@! TO.N,IO0*
X159537000Y-94996000D03*
G04 #@! TO.P,J2,6,Pin_6*
G04 #@! TO.N,EN*
X159537000Y-97536000D03*
G04 #@! TO.P,J2,7,Pin_7*
G04 #@! TO.N,N/C*
X159537000Y-100076000D03*
G04 #@! TO.P,J2,8,Pin_8*
X159537000Y-102616000D03*
G04 #@! TD*
D13*
G04 #@! TO.N,GND*
X140716000Y-89408000D03*
G04 #@! TO.N,Net-(R1-Pad1)*
X143953000Y-90551000D03*
X152146000Y-89916000D03*
G04 #@! TO.N,Net-(R2-Pad1)*
X152146000Y-92456000D03*
X143953000Y-92075000D03*
G04 #@! TD*
D14*
G04 #@! TO.N,GND*
X132588000Y-97536000D02*
X129665020Y-97536000D01*
X140716000Y-89408000D02*
X132588000Y-97536000D01*
G04 #@! TO.N,Net-(R1-Pad1)*
X151511000Y-90551000D02*
X152146000Y-89916000D01*
X143953000Y-90551000D02*
X151511000Y-90551000D01*
G04 #@! TO.N,Net-(R2-Pad1)*
X151765000Y-92075000D02*
X152146000Y-92456000D01*
X143953000Y-92075000D02*
X151765000Y-92075000D01*
G04 #@! TD*
M02*
