G04 #@! TF.GenerationSoftware,KiCad,Pcbnew,(5.99.0-11522-g728b160719)*
G04 #@! TF.CreationDate,2021-07-25T14:13:55+10:00*
G04 #@! TF.ProjectId,USB-TTL,5553422d-5454-44c2-9e6b-696361645f70,rev?*
G04 #@! TF.SameCoordinates,Original*
G04 #@! TF.FileFunction,Legend,Top*
G04 #@! TF.FilePolarity,Positive*
%FSLAX46Y46*%
G04 Gerber Fmt 4.6, Leading zero omitted, Abs format (unit mm)*
G04 Created by KiCad (PCBNEW (5.99.0-11522-g728b160719)) date 2021-07-25 14:13:55*
%MOMM*%
%LPD*%
G01*
G04 APERTURE LIST*
G04 #@! TA.AperFunction,Profile*
%ADD10C,0.100000*%
G04 #@! TD*
%ADD11C,0.150000*%
%ADD12C,0.200000*%
%ADD13C,0.120000*%
G04 APERTURE END LIST*
D10*
X129540000Y-78740000D02*
X159512000Y-78740000D01*
X159512000Y-78740000D02*
X159512000Y-108712000D01*
X159512000Y-108712000D02*
X129540000Y-108712000D01*
X129540000Y-108712000D02*
X129540000Y-78740000D01*
D11*
X132032476Y-105116380D02*
X132365809Y-106116380D01*
X132699142Y-105116380D01*
X133556285Y-106116380D02*
X132984857Y-106116380D01*
X133270571Y-106116380D02*
X133270571Y-105116380D01*
X133175333Y-105259238D01*
X133080095Y-105354476D01*
X132984857Y-105402095D01*
D12*
X131787142Y-102810571D02*
X131787142Y-104024857D01*
X131858571Y-104167714D01*
X131930000Y-104239142D01*
X132072857Y-104310571D01*
X132358571Y-104310571D01*
X132501428Y-104239142D01*
X132572857Y-104167714D01*
X132644285Y-104024857D01*
X132644285Y-102810571D01*
X133287142Y-104239142D02*
X133501428Y-104310571D01*
X133858571Y-104310571D01*
X134001428Y-104239142D01*
X134072857Y-104167714D01*
X134144285Y-104024857D01*
X134144285Y-103882000D01*
X134072857Y-103739142D01*
X134001428Y-103667714D01*
X133858571Y-103596285D01*
X133572857Y-103524857D01*
X133430000Y-103453428D01*
X133358571Y-103382000D01*
X133287142Y-103239142D01*
X133287142Y-103096285D01*
X133358571Y-102953428D01*
X133430000Y-102882000D01*
X133572857Y-102810571D01*
X133930000Y-102810571D01*
X134144285Y-102882000D01*
X135287142Y-103524857D02*
X135501428Y-103596285D01*
X135572857Y-103667714D01*
X135644285Y-103810571D01*
X135644285Y-104024857D01*
X135572857Y-104167714D01*
X135501428Y-104239142D01*
X135358571Y-104310571D01*
X134787142Y-104310571D01*
X134787142Y-102810571D01*
X135287142Y-102810571D01*
X135430000Y-102882000D01*
X135501428Y-102953428D01*
X135572857Y-103096285D01*
X135572857Y-103239142D01*
X135501428Y-103382000D01*
X135430000Y-103453428D01*
X135287142Y-103524857D01*
X134787142Y-103524857D01*
X137430000Y-103310571D02*
X138572857Y-103739142D01*
X137430000Y-104167714D01*
X139287142Y-103310571D02*
X140430000Y-103739142D01*
X139287142Y-104167714D01*
X142072857Y-102810571D02*
X142930000Y-102810571D01*
X142501428Y-104310571D02*
X142501428Y-102810571D01*
X143215714Y-102810571D02*
X144072857Y-102810571D01*
X143644285Y-104310571D02*
X143644285Y-102810571D01*
X145287142Y-104310571D02*
X144572857Y-104310571D01*
X144572857Y-102810571D01*
D11*
G04 #@! TO.C,J1*
X130222666Y-81748380D02*
X130222666Y-82462666D01*
X130175047Y-82605523D01*
X130079809Y-82700761D01*
X129936952Y-82748380D01*
X129841714Y-82748380D01*
X131222666Y-82748380D02*
X130651238Y-82748380D01*
X130936952Y-82748380D02*
X130936952Y-81748380D01*
X130841714Y-81891238D01*
X130746476Y-81986476D01*
X130651238Y-82034095D01*
G04 #@! TO.C,U1*
X143953095Y-87405380D02*
X143953095Y-88214904D01*
X144000714Y-88310142D01*
X144048333Y-88357761D01*
X144143571Y-88405380D01*
X144334047Y-88405380D01*
X144429285Y-88357761D01*
X144476904Y-88310142D01*
X144524523Y-88214904D01*
X144524523Y-87405380D01*
X145524523Y-88405380D02*
X144953095Y-88405380D01*
X145238809Y-88405380D02*
X145238809Y-87405380D01*
X145143571Y-87548238D01*
X145048333Y-87643476D01*
X144953095Y-87691095D01*
G04 #@! TO.C,R2*
X151012880Y-92622666D02*
X150536690Y-92956000D01*
X151012880Y-93194095D02*
X150012880Y-93194095D01*
X150012880Y-92813142D01*
X150060500Y-92717904D01*
X150108119Y-92670285D01*
X150203357Y-92622666D01*
X150346214Y-92622666D01*
X150441452Y-92670285D01*
X150489071Y-92717904D01*
X150536690Y-92813142D01*
X150536690Y-93194095D01*
X150108119Y-92241714D02*
X150060500Y-92194095D01*
X150012880Y-92098857D01*
X150012880Y-91860761D01*
X150060500Y-91765523D01*
X150108119Y-91717904D01*
X150203357Y-91670285D01*
X150298595Y-91670285D01*
X150441452Y-91717904D01*
X151012880Y-92289333D01*
X151012880Y-91670285D01*
G04 #@! TO.C,R1*
X151012880Y-90082666D02*
X150536690Y-90416000D01*
X151012880Y-90654095D02*
X150012880Y-90654095D01*
X150012880Y-90273142D01*
X150060500Y-90177904D01*
X150108119Y-90130285D01*
X150203357Y-90082666D01*
X150346214Y-90082666D01*
X150441452Y-90130285D01*
X150489071Y-90177904D01*
X150536690Y-90273142D01*
X150536690Y-90654095D01*
X151012880Y-89130285D02*
X151012880Y-89701714D01*
X151012880Y-89416000D02*
X150012880Y-89416000D01*
X150155738Y-89511238D01*
X150250976Y-89606476D01*
X150298595Y-89701714D01*
G04 #@! TO.C,Q1*
X152124119Y-97885238D02*
X152076500Y-97980476D01*
X151981261Y-98075714D01*
X151838404Y-98218571D01*
X151790785Y-98313809D01*
X151790785Y-98409047D01*
X152028880Y-98361428D02*
X151981261Y-98456666D01*
X151886023Y-98551904D01*
X151695547Y-98599523D01*
X151362214Y-98599523D01*
X151171738Y-98551904D01*
X151076500Y-98456666D01*
X151028880Y-98361428D01*
X151028880Y-98170952D01*
X151076500Y-98075714D01*
X151171738Y-97980476D01*
X151362214Y-97932857D01*
X151695547Y-97932857D01*
X151886023Y-97980476D01*
X151981261Y-98075714D01*
X152028880Y-98170952D01*
X152028880Y-98361428D01*
X152028880Y-96980476D02*
X152028880Y-97551904D01*
X152028880Y-97266190D02*
X151028880Y-97266190D01*
X151171738Y-97361428D01*
X151266976Y-97456666D01*
X151314595Y-97551904D01*
G04 #@! TO.C,J2*
X158162666Y-81748380D02*
X158162666Y-82462666D01*
X158115047Y-82605523D01*
X158019809Y-82700761D01*
X157876952Y-82748380D01*
X157781714Y-82748380D01*
X158591238Y-81843619D02*
X158638857Y-81796000D01*
X158734095Y-81748380D01*
X158972190Y-81748380D01*
X159067428Y-81796000D01*
X159115047Y-81843619D01*
X159162666Y-81938857D01*
X159162666Y-82034095D01*
X159115047Y-82176952D01*
X158543619Y-82748380D01*
X159162666Y-82748380D01*
G04 #@! TO.C,Q2*
X152124119Y-95091238D02*
X152076500Y-95186476D01*
X151981261Y-95281714D01*
X151838404Y-95424571D01*
X151790785Y-95519809D01*
X151790785Y-95615047D01*
X152028880Y-95567428D02*
X151981261Y-95662666D01*
X151886023Y-95757904D01*
X151695547Y-95805523D01*
X151362214Y-95805523D01*
X151171738Y-95757904D01*
X151076500Y-95662666D01*
X151028880Y-95567428D01*
X151028880Y-95376952D01*
X151076500Y-95281714D01*
X151171738Y-95186476D01*
X151362214Y-95138857D01*
X151695547Y-95138857D01*
X151886023Y-95186476D01*
X151981261Y-95281714D01*
X152028880Y-95376952D01*
X152028880Y-95567428D01*
X151124119Y-94757904D02*
X151076500Y-94710285D01*
X151028880Y-94615047D01*
X151028880Y-94376952D01*
X151076500Y-94281714D01*
X151124119Y-94234095D01*
X151219357Y-94186476D01*
X151314595Y-94186476D01*
X151457452Y-94234095D01*
X152028880Y-94805523D01*
X152028880Y-94186476D01*
D13*
G04 #@! TO.C,J1*
X129540000Y-83506000D02*
X130870000Y-83506000D01*
X128210000Y-86106000D02*
X130870000Y-86106000D01*
X128210000Y-103946000D02*
X130870000Y-103946000D01*
X128210000Y-86106000D02*
X128210000Y-103946000D01*
X130870000Y-83506000D02*
X130870000Y-84836000D01*
X130870000Y-86106000D02*
X130870000Y-103946000D01*
G04 #@! TO.C,U1*
X144715000Y-98913000D02*
X142765000Y-98913000D01*
X144715000Y-88793000D02*
X146665000Y-88793000D01*
X144715000Y-88793000D02*
X141265000Y-88793000D01*
X144715000Y-98913000D02*
X146665000Y-98913000D01*
G04 #@! TO.C,R2*
X152881436Y-93366000D02*
X154335564Y-93366000D01*
X152881436Y-91546000D02*
X154335564Y-91546000D01*
G04 #@! TO.C,R1*
X152881436Y-90826000D02*
X154335564Y-90826000D01*
X152881436Y-89006000D02*
X154335564Y-89006000D01*
G04 #@! TO.C,Q1*
X153436500Y-98950000D02*
X154846500Y-98950000D01*
X154846500Y-96630000D02*
X154846500Y-97290000D01*
X154846500Y-98290000D02*
X154846500Y-98950000D01*
X154846500Y-96630000D02*
X152816500Y-96630000D01*
G04 #@! TO.C,J2*
X158207000Y-86106000D02*
X160867000Y-86106000D01*
X158207000Y-86106000D02*
X158207000Y-103946000D01*
X160867000Y-83506000D02*
X160867000Y-84836000D01*
X158207000Y-103946000D02*
X160867000Y-103946000D01*
X159537000Y-83506000D02*
X160867000Y-83506000D01*
X160867000Y-86106000D02*
X160867000Y-103946000D01*
G04 #@! TO.C,Q2*
X153436500Y-96156000D02*
X154846500Y-96156000D01*
X154846500Y-95496000D02*
X154846500Y-96156000D01*
X154846500Y-93836000D02*
X152816500Y-93836000D01*
X154846500Y-93836000D02*
X154846500Y-94496000D01*
G04 #@! TD*
M02*
