G04 #@! TF.GenerationSoftware,KiCad,Pcbnew,(5.99.0-11522-g728b160719)*
G04 #@! TF.CreationDate,2021-08-06T10:01:23+10:00*
G04 #@! TF.ProjectId,Rotary Encoder,526f7461-7279-4204-956e-636f6465722e,rev?*
G04 #@! TF.SameCoordinates,Original*
G04 #@! TF.FileFunction,Legend,Top*
G04 #@! TF.FilePolarity,Positive*
%FSLAX46Y46*%
G04 Gerber Fmt 4.6, Leading zero omitted, Abs format (unit mm)*
G04 Created by KiCad (PCBNEW (5.99.0-11522-g728b160719)) date 2021-08-06 10:01:23*
%MOMM*%
%LPD*%
G01*
G04 APERTURE LIST*
G04 #@! TA.AperFunction,Profile*
%ADD10C,0.100000*%
G04 #@! TD*
%ADD11C,0.150000*%
%ADD12C,0.120000*%
G04 APERTURE END LIST*
D10*
X86868000Y-54356000D02*
X108966000Y-54356000D01*
X108966000Y-54356000D02*
X108966000Y-76454000D01*
X108966000Y-76454000D02*
X86868000Y-76454000D01*
X86868000Y-76454000D02*
X86868000Y-54356000D01*
D11*
G04 #@! TO.C,SW1*
X105052761Y-62293333D02*
X105100380Y-62150476D01*
X105100380Y-61912380D01*
X105052761Y-61817142D01*
X105005142Y-61769523D01*
X104909904Y-61721904D01*
X104814666Y-61721904D01*
X104719428Y-61769523D01*
X104671809Y-61817142D01*
X104624190Y-61912380D01*
X104576571Y-62102857D01*
X104528952Y-62198095D01*
X104481333Y-62245714D01*
X104386095Y-62293333D01*
X104290857Y-62293333D01*
X104195619Y-62245714D01*
X104148000Y-62198095D01*
X104100380Y-62102857D01*
X104100380Y-61864761D01*
X104148000Y-61721904D01*
X104100380Y-61388571D02*
X105100380Y-61150476D01*
X104386095Y-60960000D01*
X105100380Y-60769523D01*
X104100380Y-60531428D01*
X105100380Y-59626666D02*
X105100380Y-60198095D01*
X105100380Y-59912380D02*
X104100380Y-59912380D01*
X104243238Y-60007619D01*
X104338476Y-60102857D01*
X104386095Y-60198095D01*
G04 #@! TO.C,J1*
X106346666Y-61682380D02*
X106346666Y-62396666D01*
X106299047Y-62539523D01*
X106203809Y-62634761D01*
X106060952Y-62682380D01*
X105965714Y-62682380D01*
X107346666Y-62682380D02*
X106775238Y-62682380D01*
X107060952Y-62682380D02*
X107060952Y-61682380D01*
X106965714Y-61825238D01*
X106870476Y-61920476D01*
X106775238Y-61968095D01*
G04 #@! TO.C,R2*
X106624380Y-56808666D02*
X106148190Y-57142000D01*
X106624380Y-57380095D02*
X105624380Y-57380095D01*
X105624380Y-56999142D01*
X105672000Y-56903904D01*
X105719619Y-56856285D01*
X105814857Y-56808666D01*
X105957714Y-56808666D01*
X106052952Y-56856285D01*
X106100571Y-56903904D01*
X106148190Y-56999142D01*
X106148190Y-57380095D01*
X105719619Y-56427714D02*
X105672000Y-56380095D01*
X105624380Y-56284857D01*
X105624380Y-56046761D01*
X105672000Y-55951523D01*
X105719619Y-55903904D01*
X105814857Y-55856285D01*
X105910095Y-55856285D01*
X106052952Y-55903904D01*
X106624380Y-56475333D01*
X106624380Y-55856285D01*
G04 #@! TO.C,R3*
X106624380Y-74588666D02*
X106148190Y-74922000D01*
X106624380Y-75160095D02*
X105624380Y-75160095D01*
X105624380Y-74779142D01*
X105672000Y-74683904D01*
X105719619Y-74636285D01*
X105814857Y-74588666D01*
X105957714Y-74588666D01*
X106052952Y-74636285D01*
X106100571Y-74683904D01*
X106148190Y-74779142D01*
X106148190Y-75160095D01*
X105624380Y-74255333D02*
X105624380Y-73636285D01*
X106005333Y-73969619D01*
X106005333Y-73826761D01*
X106052952Y-73731523D01*
X106100571Y-73683904D01*
X106195809Y-73636285D01*
X106433904Y-73636285D01*
X106529142Y-73683904D01*
X106576761Y-73731523D01*
X106624380Y-73826761D01*
X106624380Y-74112476D01*
X106576761Y-74207714D01*
X106529142Y-74255333D01*
G04 #@! TO.C,R1*
X108402380Y-56808666D02*
X107926190Y-57142000D01*
X108402380Y-57380095D02*
X107402380Y-57380095D01*
X107402380Y-56999142D01*
X107450000Y-56903904D01*
X107497619Y-56856285D01*
X107592857Y-56808666D01*
X107735714Y-56808666D01*
X107830952Y-56856285D01*
X107878571Y-56903904D01*
X107926190Y-56999142D01*
X107926190Y-57380095D01*
X108402380Y-55856285D02*
X108402380Y-56427714D01*
X108402380Y-56142000D02*
X107402380Y-56142000D01*
X107545238Y-56237238D01*
X107640476Y-56332476D01*
X107688095Y-56427714D01*
G04 #@! TO.C,C1*
X106529142Y-68238666D02*
X106576761Y-68286285D01*
X106624380Y-68429142D01*
X106624380Y-68524380D01*
X106576761Y-68667238D01*
X106481523Y-68762476D01*
X106386285Y-68810095D01*
X106195809Y-68857714D01*
X106052952Y-68857714D01*
X105862476Y-68810095D01*
X105767238Y-68762476D01*
X105672000Y-68667238D01*
X105624380Y-68524380D01*
X105624380Y-68429142D01*
X105672000Y-68286285D01*
X105719619Y-68238666D01*
X106624380Y-67286285D02*
X106624380Y-67857714D01*
X106624380Y-67572000D02*
X105624380Y-67572000D01*
X105767238Y-67667238D01*
X105862476Y-67762476D01*
X105910095Y-67857714D01*
G04 #@! TO.C,J2*
X89328666Y-61428380D02*
X89328666Y-62142666D01*
X89281047Y-62285523D01*
X89185809Y-62380761D01*
X89042952Y-62428380D01*
X88947714Y-62428380D01*
X89757238Y-61523619D02*
X89804857Y-61476000D01*
X89900095Y-61428380D01*
X90138190Y-61428380D01*
X90233428Y-61476000D01*
X90281047Y-61523619D01*
X90328666Y-61618857D01*
X90328666Y-61714095D01*
X90281047Y-61856952D01*
X89709619Y-62428380D01*
X90328666Y-62428380D01*
D12*
G04 #@! TO.C,SW1*
X98417000Y-65655000D02*
X97417000Y-65655000D01*
X92017000Y-63655000D02*
X92017000Y-59555000D01*
X92017000Y-71755000D02*
X92017000Y-67655000D01*
X101717000Y-58155000D02*
X102017000Y-57855000D01*
X103817000Y-63655000D02*
X103817000Y-59555000D01*
X99217000Y-71755000D02*
X96617000Y-71755000D01*
X94417000Y-71755000D02*
X92017000Y-71755000D01*
X103817000Y-67655000D02*
X103817000Y-71755000D01*
X103817000Y-59555000D02*
X92017000Y-59555000D01*
X97917000Y-65155000D02*
X97917000Y-66155000D01*
X102017000Y-58455000D02*
X101717000Y-58155000D01*
X102017000Y-57855000D02*
X102017000Y-58455000D01*
X103817000Y-71755000D02*
X101417000Y-71755000D01*
X100917000Y-65655000D02*
G75*
G03*
X100917000Y-65655000I-3000000J0D01*
G01*
G04 #@! TO.C,J1*
X110321000Y-64150000D02*
X110321000Y-69290000D01*
X107661000Y-69290000D02*
X110321000Y-69290000D01*
X107661000Y-64150000D02*
X107661000Y-69290000D01*
X107661000Y-64150000D02*
X110321000Y-64150000D01*
X108991000Y-61550000D02*
X110321000Y-61550000D01*
X110321000Y-61550000D02*
X110321000Y-62880000D01*
G04 #@! TO.C,R2*
X106694500Y-58944742D02*
X106694500Y-59419258D01*
X105649500Y-58944742D02*
X105649500Y-59419258D01*
G04 #@! TO.C,R3*
X106694500Y-72119258D02*
X106694500Y-71644742D01*
X105649500Y-72119258D02*
X105649500Y-71644742D01*
G04 #@! TO.C,R1*
X107427500Y-58944742D02*
X107427500Y-59419258D01*
X108472500Y-58944742D02*
X108472500Y-59419258D01*
G04 #@! TO.C,C1*
X105662000Y-65391420D02*
X105662000Y-65672580D01*
X106682000Y-65391420D02*
X106682000Y-65672580D01*
G04 #@! TO.C,J2*
X88223000Y-64150000D02*
X88223000Y-69290000D01*
X85563000Y-64150000D02*
X85563000Y-69290000D01*
X88223000Y-61550000D02*
X88223000Y-62880000D01*
X85563000Y-69290000D02*
X88223000Y-69290000D01*
X85563000Y-64150000D02*
X88223000Y-64150000D01*
X86893000Y-61550000D02*
X88223000Y-61550000D01*
G04 #@! TD*
M02*
