G04 #@! TF.GenerationSoftware,KiCad,Pcbnew,(5.99.0-11522-g728b160719)*
G04 #@! TF.CreationDate,2021-08-06T10:01:23+10:00*
G04 #@! TF.ProjectId,Rotary Encoder,526f7461-7279-4204-956e-636f6465722e,rev?*
G04 #@! TF.SameCoordinates,Original*
G04 #@! TF.FileFunction,Copper,L1,Top*
G04 #@! TF.FilePolarity,Positive*
%FSLAX46Y46*%
G04 Gerber Fmt 4.6, Leading zero omitted, Abs format (unit mm)*
G04 Created by KiCad (PCBNEW (5.99.0-11522-g728b160719)) date 2021-08-06 10:01:23*
%MOMM*%
%LPD*%
G01*
G04 APERTURE LIST*
G04 Aperture macros list*
%AMRoundRect*
0 Rectangle with rounded corners*
0 $1 Rounding radius*
0 $2 $3 $4 $5 $6 $7 $8 $9 X,Y pos of 4 corners*
0 Add a 4 corners polygon primitive as box body*
4,1,4,$2,$3,$4,$5,$6,$7,$8,$9,$2,$3,0*
0 Add four circle primitives for the rounded corners*
1,1,$1+$1,$2,$3*
1,1,$1+$1,$4,$5*
1,1,$1+$1,$6,$7*
1,1,$1+$1,$8,$9*
0 Add four rect primitives between the rounded corners*
20,1,$1+$1,$2,$3,$4,$5,0*
20,1,$1+$1,$4,$5,$6,$7,0*
20,1,$1+$1,$6,$7,$8,$9,0*
20,1,$1+$1,$8,$9,$2,$3,0*%
G04 Aperture macros list end*
G04 #@! TA.AperFunction,Profile*
%ADD10C,0.100000*%
G04 #@! TD*
G04 #@! TA.AperFunction,ComponentPad*
%ADD11R,2.000000X2.000000*%
G04 #@! TD*
G04 #@! TA.AperFunction,ComponentPad*
%ADD12C,2.000000*%
G04 #@! TD*
G04 #@! TA.AperFunction,ComponentPad*
%ADD13R,2.000000X3.200000*%
G04 #@! TD*
G04 #@! TA.AperFunction,ComponentPad*
%ADD14R,1.700000X1.700000*%
G04 #@! TD*
G04 #@! TA.AperFunction,ComponentPad*
%ADD15O,1.700000X1.700000*%
G04 #@! TD*
G04 #@! TA.AperFunction,SMDPad,CuDef*
%ADD16RoundRect,0.200000X-0.275000X0.200000X-0.275000X-0.200000X0.275000X-0.200000X0.275000X0.200000X0*%
G04 #@! TD*
G04 #@! TA.AperFunction,SMDPad,CuDef*
%ADD17RoundRect,0.200000X0.275000X-0.200000X0.275000X0.200000X-0.275000X0.200000X-0.275000X-0.200000X0*%
G04 #@! TD*
G04 #@! TA.AperFunction,SMDPad,CuDef*
%ADD18RoundRect,0.225000X-0.250000X0.225000X-0.250000X-0.225000X0.250000X-0.225000X0.250000X0.225000X0*%
G04 #@! TD*
G04 #@! TA.AperFunction,ViaPad*
%ADD19C,0.800000*%
G04 #@! TD*
G04 #@! TA.AperFunction,Conductor*
%ADD20C,0.250000*%
G04 #@! TD*
G04 APERTURE END LIST*
D10*
X86868000Y-54356000D02*
X108966000Y-54356000D01*
X108966000Y-54356000D02*
X108966000Y-76454000D01*
X108966000Y-76454000D02*
X86868000Y-76454000D01*
X86868000Y-76454000D02*
X86868000Y-54356000D01*
D11*
G04 #@! TO.P,SW1,A,A*
G04 #@! TO.N,/A*
X100417000Y-58155000D03*
D12*
G04 #@! TO.P,SW1,B,B*
G04 #@! TO.N,/B*
X95417000Y-58155000D03*
G04 #@! TO.P,SW1,C,C*
G04 #@! TO.N,GND*
X97917000Y-58155000D03*
D13*
G04 #@! TO.P,SW1,MP*
G04 #@! TO.N,N/C*
X103517000Y-65655000D03*
X92317000Y-65655000D03*
D12*
G04 #@! TO.P,SW1,S1,S1*
G04 #@! TO.N,/SW*
X95417000Y-72655000D03*
G04 #@! TO.P,SW1,S2,S2*
G04 #@! TO.N,GND*
X100417000Y-72655000D03*
G04 #@! TD*
D14*
G04 #@! TO.P,J1,1,Pin_1*
G04 #@! TO.N,+3V3*
X108991000Y-62880000D03*
D15*
G04 #@! TO.P,J1,2,Pin_2*
G04 #@! TO.N,unconnected-(J1-Pad2)*
X108991000Y-65420000D03*
G04 #@! TO.P,J1,3,Pin_3*
G04 #@! TO.N,GND*
X108991000Y-67960000D03*
G04 #@! TD*
D16*
G04 #@! TO.P,R2,1*
G04 #@! TO.N,/A*
X106172000Y-58357000D03*
G04 #@! TO.P,R2,2*
G04 #@! TO.N,+3V3*
X106172000Y-60007000D03*
G04 #@! TD*
D17*
G04 #@! TO.P,R3,1*
G04 #@! TO.N,/SW*
X106172000Y-72707000D03*
G04 #@! TO.P,R3,2*
G04 #@! TO.N,+3V3*
X106172000Y-71057000D03*
G04 #@! TD*
D16*
G04 #@! TO.P,R1,1*
G04 #@! TO.N,/B*
X107950000Y-58357000D03*
G04 #@! TO.P,R1,2*
G04 #@! TO.N,+3V3*
X107950000Y-60007000D03*
G04 #@! TD*
D18*
G04 #@! TO.P,C1,1*
G04 #@! TO.N,+3V3*
X106172000Y-64757000D03*
G04 #@! TO.P,C1,2*
G04 #@! TO.N,GND*
X106172000Y-66307000D03*
G04 #@! TD*
D14*
G04 #@! TO.P,J2,1,Pin_1*
G04 #@! TO.N,/A*
X86893000Y-62880000D03*
D15*
G04 #@! TO.P,J2,2,Pin_2*
G04 #@! TO.N,/SW*
X86893000Y-65420000D03*
G04 #@! TO.P,J2,3,Pin_3*
G04 #@! TO.N,/B*
X86893000Y-67960000D03*
G04 #@! TD*
D19*
G04 #@! TO.N,+3V3*
X106172000Y-63500000D03*
X106172000Y-69850000D03*
G04 #@! TD*
D20*
G04 #@! TO.N,+3V3*
X107950000Y-60007000D02*
X107950000Y-61989020D01*
X106172000Y-69850000D02*
X106172000Y-71057000D01*
X107950000Y-60007000D02*
X106172000Y-60007000D01*
X107950000Y-61989020D02*
X108840980Y-62880000D01*
X106172000Y-63500000D02*
X106172000Y-64757000D01*
G04 #@! TO.N,GND*
X100838000Y-59690000D02*
X105156000Y-64008000D01*
X106172000Y-66900000D02*
X100417000Y-72655000D01*
X105156000Y-64008000D02*
X105156000Y-65291000D01*
X97917000Y-58155000D02*
X99452000Y-59690000D01*
X99452000Y-59690000D02*
X100838000Y-59690000D01*
X106172000Y-66307000D02*
X106172000Y-66900000D01*
X107187980Y-66307000D02*
X108840980Y-67960000D01*
X105156000Y-65291000D02*
X106172000Y-66307000D01*
X106172000Y-66307000D02*
X107187980Y-66307000D01*
G04 #@! TO.N,/B*
X107376489Y-56830489D02*
X96741511Y-56830489D01*
X107950000Y-58357000D02*
X107950000Y-57404000D01*
X88758000Y-67960000D02*
X86993020Y-67960000D01*
X107950000Y-57404000D02*
X107376489Y-56830489D01*
X89916000Y-63656000D02*
X89916000Y-66802000D01*
X89916000Y-66802000D02*
X88758000Y-67960000D01*
X95417000Y-58155000D02*
X89916000Y-63656000D01*
X96741511Y-56830489D02*
X95417000Y-58155000D01*
G04 #@! TO.N,/A*
X106172000Y-58357000D02*
X100619000Y-58357000D01*
X100619000Y-58357000D02*
X100417000Y-58155000D01*
G04 #@! TO.N,/SW*
X95417000Y-72655000D02*
X96741511Y-73979511D01*
X104899489Y-73979511D02*
X106172000Y-72707000D01*
X96741511Y-73979511D02*
X104899489Y-73979511D01*
G04 #@! TD*
M02*
