M48
; DRILL file {KiCad (5.99.0-11522-g728b160719)} date Sun Jul 25 13:21:19 2021
; FORMAT={-:-/ absolute / metric / decimal}
; #@! TF.CreationDate,2021-07-25T13:21:19+10:00
; #@! TF.GenerationSoftware,Kicad,Pcbnew,(5.99.0-11522-g728b160719)
; #@! TF.FileFunction,MixedPlating,1,2
FMAT,2
METRIC
; #@! TA.AperFunction,Plated,PTH,ComponentDrill
T1C0.200
; #@! TA.AperFunction,Plated,PTH,ViaDrill
T2C0.400
; #@! TA.AperFunction,Plated,PTH,ComponentDrill
T3C1.000
%
G90
G05
T1
X97.264Y-63.881
X98.215Y-63.306
X98.215Y-64.456
X99.164Y-63.881
T2
X94.785Y-62.23
X94.785Y-65.532
X99.484Y-66.167
X100.584Y-62.23
T3
X84.303Y-54.102
X84.303Y-56.642
X84.303Y-59.182
X84.303Y-61.722
X84.303Y-64.262
X84.303Y-66.802
X84.303Y-69.342
X84.303Y-71.882
X114.3Y-54.102
X114.3Y-56.642
X114.3Y-59.182
X114.3Y-61.722
X114.3Y-64.262
X114.3Y-66.802
X114.3Y-69.342
X114.3Y-71.882
T0
M30
