G04 #@! TF.GenerationSoftware,KiCad,Pcbnew,(5.99.0-11522-g728b160719)*
G04 #@! TF.CreationDate,2021-08-02T20:57:02+10:00*
G04 #@! TF.ProjectId,USB-TTL,5553422d-5454-44c2-9e6b-696361645f70,rev?*
G04 #@! TF.SameCoordinates,Original*
G04 #@! TF.FileFunction,Copper,L1,Top*
G04 #@! TF.FilePolarity,Positive*
%FSLAX46Y46*%
G04 Gerber Fmt 4.6, Leading zero omitted, Abs format (unit mm)*
G04 Created by KiCad (PCBNEW (5.99.0-11522-g728b160719)) date 2021-08-02 20:57:02*
%MOMM*%
%LPD*%
G01*
G04 APERTURE LIST*
G04 Aperture macros list*
%AMRoundRect*
0 Rectangle with rounded corners*
0 $1 Rounding radius*
0 $2 $3 $4 $5 $6 $7 $8 $9 X,Y pos of 4 corners*
0 Add a 4 corners polygon primitive as box body*
4,1,4,$2,$3,$4,$5,$6,$7,$8,$9,$2,$3,0*
0 Add four circle primitives for the rounded corners*
1,1,$1+$1,$2,$3*
1,1,$1+$1,$4,$5*
1,1,$1+$1,$6,$7*
1,1,$1+$1,$8,$9*
0 Add four rect primitives between the rounded corners*
20,1,$1+$1,$2,$3,$4,$5,0*
20,1,$1+$1,$4,$5,$6,$7,0*
20,1,$1+$1,$6,$7,$8,$9,0*
20,1,$1+$1,$8,$9,$2,$3,0*%
G04 Aperture macros list end*
G04 #@! TA.AperFunction,Profile*
%ADD10C,0.100000*%
G04 #@! TD*
G04 #@! TA.AperFunction,ComponentPad*
%ADD11R,1.700000X1.700000*%
G04 #@! TD*
G04 #@! TA.AperFunction,ComponentPad*
%ADD12O,1.700000X1.700000*%
G04 #@! TD*
G04 #@! TA.AperFunction,SMDPad,CuDef*
%ADD13RoundRect,0.150000X-0.825000X-0.150000X0.825000X-0.150000X0.825000X0.150000X-0.825000X0.150000X0*%
G04 #@! TD*
G04 #@! TA.AperFunction,SMDPad,CuDef*
%ADD14RoundRect,0.250000X-0.312500X-0.625000X0.312500X-0.625000X0.312500X0.625000X-0.312500X0.625000X0*%
G04 #@! TD*
G04 #@! TA.AperFunction,SMDPad,CuDef*
%ADD15RoundRect,0.225000X-0.225000X-0.250000X0.225000X-0.250000X0.225000X0.250000X-0.225000X0.250000X0*%
G04 #@! TD*
G04 #@! TA.AperFunction,SMDPad,CuDef*
%ADD16R,0.700000X0.450000*%
G04 #@! TD*
G04 #@! TA.AperFunction,ViaPad*
%ADD17C,0.800000*%
G04 #@! TD*
G04 #@! TA.AperFunction,Conductor*
%ADD18C,0.250000*%
G04 #@! TD*
G04 #@! TA.AperFunction,Conductor*
%ADD19C,0.200000*%
G04 #@! TD*
G04 APERTURE END LIST*
D10*
X157988000Y-103734000D02*
X137922000Y-103734000D01*
X137922000Y-103734000D02*
X137922000Y-83668000D01*
X137922000Y-83668000D02*
X157988000Y-83668000D01*
X157988000Y-83668000D02*
X157988000Y-103734000D01*
D11*
G04 #@! TO.P,J1,1,Pin_1*
G04 #@! TO.N,N/C*
X137922000Y-87376000D03*
D12*
G04 #@! TO.P,J1,2,Pin_2*
G04 #@! TO.N,+3V3*
X137922000Y-89916000D03*
G04 #@! TO.P,J1,3,Pin_3*
G04 #@! TO.N,USB D+*
X137922000Y-92456000D03*
G04 #@! TO.P,J1,4,Pin_4*
G04 #@! TO.N,USB D-*
X137922000Y-94996000D03*
G04 #@! TO.P,J1,5,Pin_5*
G04 #@! TO.N,GND*
X137922000Y-97536000D03*
G04 #@! TO.P,J1,6,Pin_6*
G04 #@! TO.N,N/C*
X137922000Y-100076000D03*
G04 #@! TD*
D13*
G04 #@! TO.P,U1,1,GND*
G04 #@! TO.N,GND*
X142240000Y-89408000D03*
G04 #@! TO.P,U1,2,TXD*
G04 #@! TO.N,Net-(R1-Pad1)*
X142240000Y-90678000D03*
G04 #@! TO.P,U1,3,RXD*
G04 #@! TO.N,Net-(R2-Pad1)*
X142240000Y-91948000D03*
G04 #@! TO.P,U1,4,V3*
G04 #@! TO.N,+3V3*
X142240000Y-93218000D03*
G04 #@! TO.P,U1,5,UD+*
G04 #@! TO.N,USB D+*
X142240000Y-94488000D03*
G04 #@! TO.P,U1,6,UD-*
G04 #@! TO.N,USB D-*
X142240000Y-95758000D03*
G04 #@! TO.P,U1,7,NC*
G04 #@! TO.N,N/C*
X142240000Y-97028000D03*
G04 #@! TO.P,U1,8,NC*
X142240000Y-98298000D03*
G04 #@! TO.P,U1,9,~{CTS}*
X147190000Y-98298000D03*
G04 #@! TO.P,U1,10,~{DSR}*
X147190000Y-97028000D03*
G04 #@! TO.P,U1,11,~{RI}*
X147190000Y-95758000D03*
G04 #@! TO.P,U1,12,~{DCD}*
X147190000Y-94488000D03*
G04 #@! TO.P,U1,13,~{DTR}*
G04 #@! TO.N,/~{DTR}*
X147190000Y-93218000D03*
G04 #@! TO.P,U1,14,~{RTS}*
G04 #@! TO.N,/~{RTS}*
X147190000Y-91948000D03*
G04 #@! TO.P,U1,15,R232*
G04 #@! TO.N,N/C*
X147190000Y-90678000D03*
G04 #@! TO.P,U1,16,VCC*
G04 #@! TO.N,+3V3*
X147190000Y-89408000D03*
G04 #@! TD*
D14*
G04 #@! TO.P,R2,1*
G04 #@! TO.N,Net-(R2-Pad1)*
X152146000Y-92456000D03*
G04 #@! TO.P,R2,2*
G04 #@! TO.N,TTL RX*
X155071000Y-92456000D03*
G04 #@! TD*
G04 #@! TO.P,R1,1*
G04 #@! TO.N,Net-(R1-Pad1)*
X152146000Y-89916000D03*
G04 #@! TO.P,R1,2*
G04 #@! TO.N,TTL TX*
X155071000Y-89916000D03*
G04 #@! TD*
D15*
G04 #@! TO.P,C2,1*
G04 #@! TO.N,+3V3*
X140449000Y-87884000D03*
G04 #@! TO.P,C2,2*
G04 #@! TO.N,GND*
X141999000Y-87884000D03*
G04 #@! TD*
D16*
G04 #@! TO.P,Q1,1,B*
G04 #@! TO.N,/~{DTR}*
X153116500Y-97140000D03*
G04 #@! TO.P,Q1,2,E*
G04 #@! TO.N,/~{RTS}*
X153116500Y-98440000D03*
G04 #@! TO.P,Q1,3,C*
G04 #@! TO.N,EN*
X155116500Y-97790000D03*
G04 #@! TD*
D15*
G04 #@! TO.P,C1,1*
G04 #@! TO.N,+3V3*
X140436000Y-86360000D03*
G04 #@! TO.P,C1,2*
G04 #@! TO.N,GND*
X141986000Y-86360000D03*
G04 #@! TD*
D11*
G04 #@! TO.P,J2,1,Pin_1*
G04 #@! TO.N,N/C*
X157988000Y-87376000D03*
D12*
G04 #@! TO.P,J2,2,Pin_2*
G04 #@! TO.N,TTL TX*
X157988000Y-89916000D03*
G04 #@! TO.P,J2,3,Pin_3*
G04 #@! TO.N,TTL RX*
X157988000Y-92456000D03*
G04 #@! TO.P,J2,4,Pin_4*
G04 #@! TO.N,IO0*
X157988000Y-94996000D03*
G04 #@! TO.P,J2,5,Pin_5*
G04 #@! TO.N,EN*
X157988000Y-97536000D03*
G04 #@! TO.P,J2,6,Pin_6*
G04 #@! TO.N,N/C*
X157988000Y-100076000D03*
G04 #@! TD*
D16*
G04 #@! TO.P,Q2,1,B*
G04 #@! TO.N,/~{RTS}*
X153116500Y-94346000D03*
G04 #@! TO.P,Q2,2,E*
G04 #@! TO.N,/~{DTR}*
X153116500Y-95646000D03*
G04 #@! TO.P,Q2,3,C*
G04 #@! TO.N,IO0*
X155116500Y-94996000D03*
G04 #@! TD*
D17*
G04 #@! TO.N,GND*
X140462000Y-90932000D03*
G04 #@! TO.N,Net-(R1-Pad1)*
X143953000Y-90551000D03*
X152146000Y-89916000D03*
G04 #@! TO.N,Net-(R2-Pad1)*
X152146000Y-92456000D03*
X143953000Y-92075000D03*
G04 #@! TD*
D18*
G04 #@! TO.N,GND*
X141999000Y-87884000D02*
X141999000Y-86373000D01*
X140462000Y-90211001D02*
X140462000Y-90932000D01*
X141999000Y-86373000D02*
X141986000Y-86360000D01*
X141999000Y-89167000D02*
X142240000Y-89408000D01*
X141265001Y-89408000D02*
X140462000Y-90211001D01*
X141999000Y-87884000D02*
X141999000Y-89167000D01*
X142240000Y-89408000D02*
X141265001Y-89408000D01*
G04 #@! TO.N,+3V3*
X138163000Y-87897000D02*
X138150000Y-87884000D01*
X138892000Y-89916000D02*
X138047020Y-89916000D01*
X141478000Y-93218000D02*
X142240000Y-93218000D01*
X142240000Y-93218000D02*
X144266856Y-93218000D01*
X138892000Y-89916000D02*
X138892000Y-90632000D01*
X144969000Y-90043000D02*
X145604000Y-89408000D01*
X140449000Y-88359000D02*
X138892000Y-89916000D01*
X140436000Y-86360000D02*
X140436000Y-87871000D01*
X140436000Y-87871000D02*
X140449000Y-87884000D01*
X138892000Y-90632000D02*
X141478000Y-93218000D01*
X144969000Y-92515856D02*
X144969000Y-90043000D01*
X140449000Y-87884000D02*
X140449000Y-88359000D01*
X145604000Y-89408000D02*
X147190000Y-89408000D01*
X144266856Y-93218000D02*
X144969000Y-92515856D01*
D19*
G04 #@! TO.N,USB D+*
X142240000Y-94488000D02*
X140054020Y-94488000D01*
X140054020Y-94488000D02*
X138022020Y-92456000D01*
G04 #@! TO.N,USB D-*
X140392000Y-95758000D02*
X142240000Y-95758000D01*
X138022020Y-94996000D02*
X138784020Y-95758000D01*
X139437359Y-96003359D02*
X139437359Y-96003360D01*
X139682718Y-96248719D02*
X139792000Y-96248719D01*
X140282718Y-95758000D02*
X140392000Y-95758000D01*
X138784020Y-95758000D02*
X139192000Y-95758000D01*
X140037359Y-96003360D02*
X140037359Y-96003359D01*
X139437359Y-96003359D02*
G75*
G03*
X139192000Y-95758000I-245359J0D01*
G01*
X140037359Y-96003360D02*
G75*
G02*
X139792000Y-96248719I-245359J0D01*
G01*
X139682718Y-96248719D02*
G75*
G02*
X139437359Y-96003360I0J245359D01*
G01*
X140282718Y-95758000D02*
G75*
G03*
X140037359Y-96003359I0J-245359D01*
G01*
D18*
G04 #@! TO.N,TTL TX*
X155071000Y-89916000D02*
X157862980Y-89916000D01*
G04 #@! TO.N,TTL RX*
X155071000Y-92456000D02*
X157862980Y-92456000D01*
G04 #@! TO.N,IO0*
X155116500Y-94996000D02*
X157862980Y-94996000D01*
G04 #@! TO.N,EN*
X155116500Y-97790000D02*
X157608980Y-97790000D01*
X157608980Y-97790000D02*
X157862980Y-97536000D01*
X157505000Y-97790000D02*
X157759000Y-97536000D01*
G04 #@! TO.N,/~{DTR}*
X153116500Y-97140000D02*
X153116500Y-95646000D01*
X147190000Y-93218000D02*
X150515230Y-93218000D01*
X152943230Y-95646000D02*
X153116500Y-95646000D01*
X150515230Y-93218000D02*
X152943230Y-95646000D01*
G04 #@! TO.N,/~{RTS}*
X152278934Y-94346000D02*
X153116500Y-94346000D01*
X147190000Y-91948000D02*
X149880934Y-91948000D01*
X153116500Y-94346000D02*
X153791011Y-95020511D01*
X149880934Y-91948000D02*
X152278934Y-94346000D01*
X153791011Y-95020511D02*
X153791011Y-97765489D01*
X153791011Y-97765489D02*
X153116500Y-98440000D01*
G04 #@! TO.N,Net-(R1-Pad1)*
X142240000Y-90678000D02*
X143826000Y-90678000D01*
X143826000Y-90678000D02*
X143953000Y-90551000D01*
G04 #@! TO.N,Net-(R2-Pad1)*
X143826000Y-91948000D02*
X143953000Y-92075000D01*
X142240000Y-91948000D02*
X143826000Y-91948000D01*
G04 #@! TO.N,unconnected-(U1-Pad8)*
X141650230Y-98298000D02*
X142240000Y-98298000D01*
G04 #@! TD*
M02*
