G04 #@! TF.GenerationSoftware,KiCad,Pcbnew,(5.99.0-11522-g728b160719)*
G04 #@! TF.CreationDate,2021-08-06T10:01:41+10:00*
G04 #@! TF.ProjectId,USB-TTL,5553422d-5454-44c2-9e6b-696361645f70,rev?*
G04 #@! TF.SameCoordinates,Original*
G04 #@! TF.FileFunction,Soldermask,Top*
G04 #@! TF.FilePolarity,Negative*
%FSLAX46Y46*%
G04 Gerber Fmt 4.6, Leading zero omitted, Abs format (unit mm)*
G04 Created by KiCad (PCBNEW (5.99.0-11522-g728b160719)) date 2021-08-06 10:01:41*
%MOMM*%
%LPD*%
G01*
G04 APERTURE LIST*
G04 Aperture macros list*
%AMRoundRect*
0 Rectangle with rounded corners*
0 $1 Rounding radius*
0 $2 $3 $4 $5 $6 $7 $8 $9 X,Y pos of 4 corners*
0 Add a 4 corners polygon primitive as box body*
4,1,4,$2,$3,$4,$5,$6,$7,$8,$9,$2,$3,0*
0 Add four circle primitives for the rounded corners*
1,1,$1+$1,$2,$3*
1,1,$1+$1,$4,$5*
1,1,$1+$1,$6,$7*
1,1,$1+$1,$8,$9*
0 Add four rect primitives between the rounded corners*
20,1,$1+$1,$2,$3,$4,$5,0*
20,1,$1+$1,$4,$5,$6,$7,0*
20,1,$1+$1,$6,$7,$8,$9,0*
20,1,$1+$1,$8,$9,$2,$3,0*%
G04 Aperture macros list end*
G04 #@! TA.AperFunction,Profile*
%ADD10C,0.100000*%
G04 #@! TD*
%ADD11R,1.700000X1.700000*%
%ADD12O,1.700000X1.700000*%
%ADD13RoundRect,0.150000X-0.825000X-0.150000X0.825000X-0.150000X0.825000X0.150000X-0.825000X0.150000X0*%
%ADD14RoundRect,0.250000X-0.312500X-0.625000X0.312500X-0.625000X0.312500X0.625000X-0.312500X0.625000X0*%
%ADD15RoundRect,0.225000X-0.225000X-0.250000X0.225000X-0.250000X0.225000X0.250000X-0.225000X0.250000X0*%
%ADD16R,0.700000X0.450000*%
G04 APERTURE END LIST*
D10*
X157988000Y-103734000D02*
X137922000Y-103734000D01*
X137922000Y-103734000D02*
X137922000Y-83668000D01*
X137922000Y-83668000D02*
X157988000Y-83668000D01*
X157988000Y-83668000D02*
X157988000Y-103734000D01*
D11*
G04 #@! TO.C,J1*
X137922000Y-87376000D03*
D12*
X137922000Y-89916000D03*
X137922000Y-92456000D03*
X137922000Y-94996000D03*
X137922000Y-97536000D03*
X137922000Y-100076000D03*
G04 #@! TD*
D13*
G04 #@! TO.C,U1*
X142240000Y-89408000D03*
X142240000Y-90678000D03*
X142240000Y-91948000D03*
X142240000Y-93218000D03*
X142240000Y-94488000D03*
X142240000Y-95758000D03*
X142240000Y-97028000D03*
X142240000Y-98298000D03*
X147190000Y-98298000D03*
X147190000Y-97028000D03*
X147190000Y-95758000D03*
X147190000Y-94488000D03*
X147190000Y-93218000D03*
X147190000Y-91948000D03*
X147190000Y-90678000D03*
X147190000Y-89408000D03*
G04 #@! TD*
D14*
G04 #@! TO.C,R2*
X152146000Y-92456000D03*
X155071000Y-92456000D03*
G04 #@! TD*
G04 #@! TO.C,R1*
X152146000Y-89916000D03*
X155071000Y-89916000D03*
G04 #@! TD*
D15*
G04 #@! TO.C,C2*
X140449000Y-87884000D03*
X141999000Y-87884000D03*
G04 #@! TD*
D16*
G04 #@! TO.C,Q1*
X153116500Y-97140000D03*
X153116500Y-98440000D03*
X155116500Y-97790000D03*
G04 #@! TD*
D15*
G04 #@! TO.C,C1*
X140436000Y-86360000D03*
X141986000Y-86360000D03*
G04 #@! TD*
D11*
G04 #@! TO.C,J2*
X157988000Y-87376000D03*
D12*
X157988000Y-89916000D03*
X157988000Y-92456000D03*
X157988000Y-94996000D03*
X157988000Y-97536000D03*
X157988000Y-100076000D03*
G04 #@! TD*
D16*
G04 #@! TO.C,Q2*
X153116500Y-94346000D03*
X153116500Y-95646000D03*
X155116500Y-94996000D03*
G04 #@! TD*
M02*
