G04 #@! TF.GenerationSoftware,KiCad,Pcbnew,(5.99.0-11522-g728b160719)*
G04 #@! TF.CreationDate,2021-07-25T18:34:51+10:00*
G04 #@! TF.ProjectId,Rotary Encoder,526f7461-7279-4204-956e-636f6465722e,rev?*
G04 #@! TF.SameCoordinates,Original*
G04 #@! TF.FileFunction,Copper,L1,Top*
G04 #@! TF.FilePolarity,Positive*
%FSLAX46Y46*%
G04 Gerber Fmt 4.6, Leading zero omitted, Abs format (unit mm)*
G04 Created by KiCad (PCBNEW (5.99.0-11522-g728b160719)) date 2021-07-25 18:34:51*
%MOMM*%
%LPD*%
G01*
G04 APERTURE LIST*
G04 Aperture macros list*
%AMRoundRect*
0 Rectangle with rounded corners*
0 $1 Rounding radius*
0 $2 $3 $4 $5 $6 $7 $8 $9 X,Y pos of 4 corners*
0 Add a 4 corners polygon primitive as box body*
4,1,4,$2,$3,$4,$5,$6,$7,$8,$9,$2,$3,0*
0 Add four circle primitives for the rounded corners*
1,1,$1+$1,$2,$3*
1,1,$1+$1,$4,$5*
1,1,$1+$1,$6,$7*
1,1,$1+$1,$8,$9*
0 Add four rect primitives between the rounded corners*
20,1,$1+$1,$2,$3,$4,$5,0*
20,1,$1+$1,$4,$5,$6,$7,0*
20,1,$1+$1,$6,$7,$8,$9,0*
20,1,$1+$1,$8,$9,$2,$3,0*%
G04 Aperture macros list end*
G04 #@! TA.AperFunction,Profile*
%ADD10C,0.100000*%
G04 #@! TD*
G04 #@! TA.AperFunction,ComponentPad*
%ADD11R,2.000000X2.000000*%
G04 #@! TD*
G04 #@! TA.AperFunction,ComponentPad*
%ADD12C,2.000000*%
G04 #@! TD*
G04 #@! TA.AperFunction,ComponentPad*
%ADD13R,2.000000X3.200000*%
G04 #@! TD*
G04 #@! TA.AperFunction,ComponentPad*
%ADD14R,1.700000X1.700000*%
G04 #@! TD*
G04 #@! TA.AperFunction,ComponentPad*
%ADD15O,1.700000X1.700000*%
G04 #@! TD*
G04 #@! TA.AperFunction,SMDPad,CuDef*
%ADD16RoundRect,0.200000X0.275000X-0.200000X0.275000X0.200000X-0.275000X0.200000X-0.275000X-0.200000X0*%
G04 #@! TD*
G04 #@! TA.AperFunction,SMDPad,CuDef*
%ADD17RoundRect,0.200000X-0.275000X0.200000X-0.275000X-0.200000X0.275000X-0.200000X0.275000X0.200000X0*%
G04 #@! TD*
G04 #@! TA.AperFunction,SMDPad,CuDef*
%ADD18RoundRect,0.225000X0.250000X-0.225000X0.250000X0.225000X-0.250000X0.225000X-0.250000X-0.225000X0*%
G04 #@! TD*
G04 #@! TA.AperFunction,ViaPad*
%ADD19C,0.800000*%
G04 #@! TD*
G04 #@! TA.AperFunction,Conductor*
%ADD20C,0.250000*%
G04 #@! TD*
G04 APERTURE END LIST*
D10*
X155702000Y-112522000D02*
X133604000Y-112522000D01*
X133604000Y-112522000D02*
X133604000Y-90424000D01*
X133604000Y-90424000D02*
X155702000Y-90424000D01*
X155702000Y-90424000D02*
X155702000Y-112522000D01*
D11*
G04 #@! TO.P,SW1,A,A*
G04 #@! TO.N,/A*
X142153000Y-108723000D03*
D12*
G04 #@! TO.P,SW1,B,B*
G04 #@! TO.N,/B*
X147153000Y-108723000D03*
G04 #@! TO.P,SW1,C,C*
G04 #@! TO.N,GND*
X144653000Y-108723000D03*
D13*
G04 #@! TO.P,SW1,MP*
G04 #@! TO.N,N/C*
X139053000Y-101223000D03*
X150253000Y-101223000D03*
D12*
G04 #@! TO.P,SW1,S1,S1*
G04 #@! TO.N,/SW*
X147153000Y-94223000D03*
G04 #@! TO.P,SW1,S2,S2*
G04 #@! TO.N,GND*
X142153000Y-94223000D03*
G04 #@! TD*
D14*
G04 #@! TO.P,J1,1,Pin_1*
G04 #@! TO.N,+3V3*
X133579000Y-103998000D03*
D15*
G04 #@! TO.P,J1,2,Pin_2*
G04 #@! TO.N,unconnected-(J1-Pad2)*
X133579000Y-101458000D03*
G04 #@! TO.P,J1,3,Pin_3*
G04 #@! TO.N,GND*
X133579000Y-98918000D03*
G04 #@! TD*
D16*
G04 #@! TO.P,R2,1*
G04 #@! TO.N,/A*
X136398000Y-108521000D03*
G04 #@! TO.P,R2,2*
G04 #@! TO.N,+3V3*
X136398000Y-106871000D03*
G04 #@! TD*
D17*
G04 #@! TO.P,R3,1*
G04 #@! TO.N,/SW*
X136398000Y-94171000D03*
G04 #@! TO.P,R3,2*
G04 #@! TO.N,+3V3*
X136398000Y-95821000D03*
G04 #@! TD*
D16*
G04 #@! TO.P,R1,1*
G04 #@! TO.N,/B*
X134620000Y-108521000D03*
G04 #@! TO.P,R1,2*
G04 #@! TO.N,+3V3*
X134620000Y-106871000D03*
G04 #@! TD*
D18*
G04 #@! TO.P,C1,1*
G04 #@! TO.N,+3V3*
X136398000Y-102121000D03*
G04 #@! TO.P,C1,2*
G04 #@! TO.N,GND*
X136398000Y-100571000D03*
G04 #@! TD*
D14*
G04 #@! TO.P,J2,1,Pin_1*
G04 #@! TO.N,/A*
X155727000Y-98948000D03*
D15*
G04 #@! TO.P,J2,2,Pin_2*
G04 #@! TO.N,/SW*
X155727000Y-101488000D03*
G04 #@! TO.P,J2,3,Pin_3*
G04 #@! TO.N,/B*
X155727000Y-104028000D03*
G04 #@! TD*
D19*
G04 #@! TO.N,+3V3*
X136398000Y-103378000D03*
X136398000Y-97028000D03*
G04 #@! TD*
D20*
G04 #@! TO.N,+3V3*
X134620000Y-106871000D02*
X134620000Y-104888980D01*
X136398000Y-97028000D02*
X136398000Y-95821000D01*
X134620000Y-106871000D02*
X136398000Y-106871000D01*
X134620000Y-104888980D02*
X133729020Y-103998000D01*
X136398000Y-103378000D02*
X136398000Y-102121000D01*
G04 #@! TO.N,GND*
X141732000Y-107188000D02*
X137414000Y-102870000D01*
X136398000Y-99978000D02*
X142153000Y-94223000D01*
X137414000Y-102870000D02*
X137414000Y-101587000D01*
X144653000Y-108723000D02*
X143118000Y-107188000D01*
X143118000Y-107188000D02*
X141732000Y-107188000D01*
X136398000Y-100571000D02*
X136398000Y-99978000D01*
X135382020Y-100571000D02*
X133729020Y-98918000D01*
X137414000Y-101587000D02*
X136398000Y-100571000D01*
X136398000Y-100571000D02*
X135382020Y-100571000D01*
G04 #@! TO.N,/B*
X135193511Y-110047511D02*
X145828489Y-110047511D01*
X134620000Y-108521000D02*
X134620000Y-109474000D01*
X134620000Y-109474000D02*
X135193511Y-110047511D01*
X151848000Y-104028000D02*
X155576980Y-104028000D01*
X147153000Y-108723000D02*
X151848000Y-104028000D01*
X145828489Y-110047511D02*
X147153000Y-108723000D01*
G04 #@! TO.N,/A*
X136398000Y-108521000D02*
X141951000Y-108521000D01*
X141951000Y-108521000D02*
X142153000Y-108723000D01*
G04 #@! TO.N,/SW*
X147153000Y-94223000D02*
X145828489Y-92898489D01*
X137670511Y-92898489D02*
X136398000Y-94171000D01*
X147153000Y-94223000D02*
X154418000Y-101488000D01*
X145828489Y-92898489D02*
X137670511Y-92898489D01*
X154418000Y-101488000D02*
X155576980Y-101488000D01*
G04 #@! TD*
M02*
