G04 #@! TF.GenerationSoftware,KiCad,Pcbnew,(5.99.0-11522-g728b160719)*
G04 #@! TF.CreationDate,2021-08-02T20:29:41+10:00*
G04 #@! TF.ProjectId,DC-DC,44432d44-432e-46b6-9963-61645f706362,0.2*
G04 #@! TF.SameCoordinates,Original*
G04 #@! TF.FileFunction,Copper,L1,Top*
G04 #@! TF.FilePolarity,Positive*
%FSLAX46Y46*%
G04 Gerber Fmt 4.6, Leading zero omitted, Abs format (unit mm)*
G04 Created by KiCad (PCBNEW (5.99.0-11522-g728b160719)) date 2021-08-02 20:29:41*
%MOMM*%
%LPD*%
G01*
G04 APERTURE LIST*
G04 Aperture macros list*
%AMRoundRect*
0 Rectangle with rounded corners*
0 $1 Rounding radius*
0 $2 $3 $4 $5 $6 $7 $8 $9 X,Y pos of 4 corners*
0 Add a 4 corners polygon primitive as box body*
4,1,4,$2,$3,$4,$5,$6,$7,$8,$9,$2,$3,0*
0 Add four circle primitives for the rounded corners*
1,1,$1+$1,$2,$3*
1,1,$1+$1,$4,$5*
1,1,$1+$1,$6,$7*
1,1,$1+$1,$8,$9*
0 Add four rect primitives between the rounded corners*
20,1,$1+$1,$2,$3,$4,$5,0*
20,1,$1+$1,$4,$5,$6,$7,0*
20,1,$1+$1,$6,$7,$8,$9,0*
20,1,$1+$1,$8,$9,$2,$3,0*%
%AMFreePoly0*
4,1,21,-0.125000,1.200000,0.125000,1.200000,0.125000,1.700000,0.375000,1.700000,0.375000,1.200000,0.825000,1.200000,0.825000,-1.200000,0.375000,-1.200000,0.375000,-1.700000,0.125000,-1.700000,0.125000,-1.200000,-0.125000,-1.200000,-0.125000,-1.700000,-0.375000,-1.700000,-0.375000,-1.200000,-0.825000,-1.200000,-0.825000,1.200000,-0.375000,1.200000,-0.375000,1.700000,-0.125000,1.700000,
-0.125000,1.200000,-0.125000,1.200000,$1*%
G04 Aperture macros list end*
G04 #@! TA.AperFunction,Profile*
%ADD10C,0.100000*%
G04 #@! TD*
G04 #@! TA.AperFunction,SMDPad,CuDef*
%ADD11RoundRect,0.225000X-0.250000X0.225000X-0.250000X-0.225000X0.250000X-0.225000X0.250000X0.225000X0*%
G04 #@! TD*
G04 #@! TA.AperFunction,ComponentPad*
%ADD12R,1.700000X1.700000*%
G04 #@! TD*
G04 #@! TA.AperFunction,ComponentPad*
%ADD13O,1.700000X1.700000*%
G04 #@! TD*
G04 #@! TA.AperFunction,SMDPad,CuDef*
%ADD14RoundRect,0.200000X0.275000X-0.200000X0.275000X0.200000X-0.275000X0.200000X-0.275000X-0.200000X0*%
G04 #@! TD*
G04 #@! TA.AperFunction,SMDPad,CuDef*
%ADD15R,0.240000X0.600000*%
G04 #@! TD*
G04 #@! TA.AperFunction,ComponentPad*
%ADD16C,0.500000*%
G04 #@! TD*
G04 #@! TA.AperFunction,SMDPad,CuDef*
%ADD17FreePoly0,270.000000*%
G04 #@! TD*
G04 #@! TA.AperFunction,SMDPad,CuDef*
%ADD18R,0.980000X3.400000*%
G04 #@! TD*
G04 #@! TA.AperFunction,SMDPad,CuDef*
%ADD19RoundRect,0.225000X-0.225000X-0.250000X0.225000X-0.250000X0.225000X0.250000X-0.225000X0.250000X0*%
G04 #@! TD*
G04 #@! TA.AperFunction,ViaPad*
%ADD20C,0.800000*%
G04 #@! TD*
G04 #@! TA.AperFunction,Conductor*
%ADD21C,0.250000*%
G04 #@! TD*
G04 APERTURE END LIST*
D10*
X109474000Y-73152000D02*
X89408000Y-73152000D01*
X89408000Y-73152000D02*
X89408000Y-53086000D01*
X89408000Y-53086000D02*
X109474000Y-53086000D01*
X109474000Y-53086000D02*
X109474000Y-73152000D01*
D11*
G04 #@! TO.P,C3,1*
G04 #@! TO.N,+3V3*
X101643500Y-62204000D03*
G04 #@! TO.P,C3,2*
G04 #@! TO.N,GND*
X101643500Y-63754000D03*
G04 #@! TD*
G04 #@! TO.P,C1,1*
G04 #@! TO.N,VSS*
X94785500Y-62230000D03*
G04 #@! TO.P,C1,2*
G04 #@! TO.N,GND*
X94785500Y-63780000D03*
G04 #@! TD*
D12*
G04 #@! TO.P,J2,1,Pin_1*
G04 #@! TO.N,N/C*
X109245000Y-56794000D03*
D13*
G04 #@! TO.P,J2,2,Pin_2*
G04 #@! TO.N,+3V3*
X109245000Y-59334000D03*
G04 #@! TO.P,J2,3,Pin_3*
X109245000Y-61874000D03*
G04 #@! TO.P,J2,4,Pin_4*
G04 #@! TO.N,GND*
X109245000Y-64414000D03*
G04 #@! TO.P,J2,5,Pin_5*
X109245000Y-66954000D03*
G04 #@! TO.P,J2,6,Pin_6*
G04 #@! TO.N,N/C*
X109245000Y-69494000D03*
G04 #@! TD*
D12*
G04 #@! TO.P,J1,1,Pin_1*
G04 #@! TO.N,N/C*
X89408000Y-56794000D03*
D13*
G04 #@! TO.P,J1,2,Pin_2*
G04 #@! TO.N,VSS*
X89408000Y-59334000D03*
G04 #@! TO.P,J1,3,Pin_3*
X89408000Y-61874000D03*
G04 #@! TO.P,J1,4,Pin_4*
G04 #@! TO.N,GND*
X89408000Y-64414000D03*
G04 #@! TO.P,J1,5,Pin_5*
X89408000Y-66954000D03*
G04 #@! TO.P,J1,6,Pin_6*
G04 #@! TO.N,N/C*
X89408000Y-69494000D03*
G04 #@! TD*
D14*
G04 #@! TO.P,R2,1*
G04 #@! TO.N,Net-(C2-Pad1)*
X94785500Y-67183000D03*
G04 #@! TO.P,R2,2*
G04 #@! TO.N,VSS*
X94785500Y-65533000D03*
G04 #@! TD*
D15*
G04 #@! TO.P,U1,1,VOUT*
G04 #@! TO.N,+3V3*
X99214500Y-62481000D03*
G04 #@! TO.P,U1,2,L2*
G04 #@! TO.N,Net-(L1-Pad2)*
X98714500Y-62481000D03*
G04 #@! TO.P,U1,3,PGND*
G04 #@! TO.N,GND*
X98214500Y-62481000D03*
G04 #@! TO.P,U1,4,L1*
G04 #@! TO.N,Net-(L1-Pad1)*
X97714500Y-62481000D03*
G04 #@! TO.P,U1,5,VIN*
G04 #@! TO.N,VSS*
X97214500Y-62481000D03*
G04 #@! TO.P,U1,6,EN*
G04 #@! TO.N,Net-(C2-Pad1)*
X97214500Y-65281000D03*
G04 #@! TO.P,U1,7,PS/SYNC*
X97714500Y-65281000D03*
G04 #@! TO.P,U1,8,VINA*
X98214500Y-65281000D03*
G04 #@! TO.P,U1,9,GND*
G04 #@! TO.N,GND*
X98714500Y-65281000D03*
G04 #@! TO.P,U1,10,FB*
G04 #@! TO.N,+3V3*
X99214500Y-65281000D03*
D16*
G04 #@! TO.P,U1,11,PGND*
G04 #@! TO.N,GND*
X99164500Y-63881000D03*
X98214500Y-64456000D03*
X98214500Y-63306000D03*
D17*
X98214500Y-63881000D03*
D16*
X97264500Y-63881000D03*
G04 #@! TD*
D11*
G04 #@! TO.P,C4,1*
G04 #@! TO.N,+3V3*
X103548500Y-62204000D03*
G04 #@! TO.P,C4,2*
G04 #@! TO.N,GND*
X103548500Y-63754000D03*
G04 #@! TD*
D18*
G04 #@! TO.P,L1,1*
G04 #@! TO.N,Net-(L1-Pad1)*
X97029500Y-59388000D03*
G04 #@! TO.P,L1,2*
G04 #@! TO.N,Net-(L1-Pad2)*
X99399500Y-59388000D03*
G04 #@! TD*
D19*
G04 #@! TO.P,C2,1*
G04 #@! TO.N,Net-(C2-Pad1)*
X96537500Y-67183000D03*
G04 #@! TO.P,C2,2*
G04 #@! TO.N,GND*
X98087500Y-67183000D03*
G04 #@! TD*
D20*
G04 #@! TO.N,+3V3*
X99484500Y-66167000D03*
X100584000Y-62230000D03*
G04 #@! TO.N,VSS*
X94785500Y-65532000D03*
X94785500Y-62230000D03*
G04 #@! TD*
D21*
G04 #@! TO.N,GND*
X98214500Y-62481000D02*
X98214500Y-63306000D01*
G04 #@! TO.N,Net-(C2-Pad1)*
X97714500Y-65281000D02*
X97714500Y-65651000D01*
X97714500Y-65651000D02*
X97325500Y-66040000D01*
X97833500Y-66040000D02*
X97325500Y-66040000D01*
X97214500Y-66151000D02*
X97214500Y-65281000D01*
X96537500Y-66828000D02*
X97214500Y-66151000D01*
X94785500Y-67183000D02*
X96537500Y-67183000D01*
X98214500Y-65281000D02*
X98214500Y-65659000D01*
X96537500Y-67183000D02*
X96537500Y-66828000D01*
X97325500Y-66040000D02*
X97214500Y-66151000D01*
X98214500Y-65659000D02*
X97833500Y-66040000D01*
G04 #@! TO.N,+3V3*
X99214500Y-65897000D02*
X99484500Y-66167000D01*
X99214500Y-65281000D02*
X99214500Y-65897000D01*
G04 #@! TO.N,VSS*
X94785500Y-65533000D02*
X94785500Y-65532000D01*
G04 #@! TD*
G04 #@! TA.AperFunction,Conductor*
G04 #@! TO.N,VSS*
G36*
X92192099Y-57912586D02*
G01*
X92365765Y-57929401D01*
X92389591Y-57934059D01*
X92537880Y-57978242D01*
X92550936Y-57982132D01*
X92573432Y-57991277D01*
X92722551Y-58069408D01*
X92742876Y-58082700D01*
X92874244Y-58187995D01*
X92891640Y-58204938D01*
X92967126Y-58294183D01*
X93004309Y-58338144D01*
X93011703Y-58347794D01*
X93406591Y-58918187D01*
X94996000Y-61214000D01*
X96903109Y-61941804D01*
X96916939Y-61948061D01*
X97034102Y-62009833D01*
X97059024Y-62027096D01*
X97152307Y-62109981D01*
X97172383Y-62132699D01*
X97218021Y-62198963D01*
X97243159Y-62235463D01*
X97257229Y-62262325D01*
X97301404Y-62379025D01*
X97308648Y-62408470D01*
X97323381Y-62530017D01*
X97322746Y-62564890D01*
X97306867Y-62665147D01*
X97294685Y-62702638D01*
X97253854Y-62782774D01*
X97205106Y-62834390D01*
X97141587Y-62851572D01*
X97014500Y-62851572D01*
X97008432Y-62852779D01*
X96948439Y-62864712D01*
X96948438Y-62864712D01*
X96936269Y-62867133D01*
X96869948Y-62911448D01*
X96863057Y-62921761D01*
X96863053Y-62921765D01*
X96853541Y-62936001D01*
X96799065Y-62981529D01*
X96748776Y-62992000D01*
X90414187Y-62992000D01*
X90401837Y-62991393D01*
X90225260Y-62974001D01*
X90201043Y-62969185D01*
X90037190Y-62919482D01*
X90014371Y-62910029D01*
X89905005Y-62851572D01*
X89863369Y-62829317D01*
X89842842Y-62815601D01*
X89710479Y-62706974D01*
X89693026Y-62689521D01*
X89584399Y-62557158D01*
X89570681Y-62536628D01*
X89567148Y-62530017D01*
X89489971Y-62385629D01*
X89480518Y-62362809D01*
X89445704Y-62248042D01*
X89430815Y-62198957D01*
X89425998Y-62174737D01*
X89408607Y-61998163D01*
X89408000Y-61985813D01*
X89408000Y-58918187D01*
X89408607Y-58905837D01*
X89425998Y-58729263D01*
X89430815Y-58705043D01*
X89480518Y-58541190D01*
X89489971Y-58518371D01*
X89570681Y-58367372D01*
X89584399Y-58346842D01*
X89693026Y-58214479D01*
X89710479Y-58197026D01*
X89842842Y-58088399D01*
X89863369Y-58074683D01*
X90014371Y-57993971D01*
X90037191Y-57984518D01*
X90045057Y-57982132D01*
X90201043Y-57934815D01*
X90225260Y-57929999D01*
X90401837Y-57912607D01*
X90414187Y-57912000D01*
X92179956Y-57912000D01*
X92192099Y-57912586D01*
G37*
G04 #@! TD.AperFunction*
G04 #@! TD*
G04 #@! TA.AperFunction,Conductor*
G04 #@! TO.N,GND*
G36*
X99135351Y-63008033D02*
G01*
X99162946Y-63023469D01*
X99196411Y-63033295D01*
X99226744Y-63042202D01*
X99226748Y-63042203D01*
X99231067Y-63043471D01*
X99235515Y-63044111D01*
X99235522Y-63044112D01*
X99282965Y-63050933D01*
X99282972Y-63050933D01*
X99287413Y-63051572D01*
X99356178Y-63051572D01*
X99424299Y-63071574D01*
X99444476Y-63087687D01*
X99471947Y-63114673D01*
X99555757Y-63163897D01*
X99563187Y-63166079D01*
X99563188Y-63166079D01*
X99619555Y-63182630D01*
X99619559Y-63182631D01*
X99623878Y-63183899D01*
X99628326Y-63184539D01*
X99628333Y-63184540D01*
X99675776Y-63191361D01*
X99675783Y-63191361D01*
X99680224Y-63192000D01*
X108467813Y-63192000D01*
X108468544Y-63191982D01*
X108468549Y-63191982D01*
X108471366Y-63191913D01*
X108477631Y-63191759D01*
X108478424Y-63191720D01*
X108478452Y-63191719D01*
X108484517Y-63191421D01*
X108489981Y-63191152D01*
X108499767Y-63190430D01*
X108500522Y-63190356D01*
X108500541Y-63190354D01*
X108674822Y-63173188D01*
X108674826Y-63173188D01*
X108676344Y-63173038D01*
X108677841Y-63172816D01*
X108677849Y-63172815D01*
X108694233Y-63170385D01*
X108694234Y-63170385D01*
X108695750Y-63170160D01*
X108719967Y-63165344D01*
X108721452Y-63164972D01*
X108721461Y-63164970D01*
X108726759Y-63163643D01*
X108739013Y-63160573D01*
X108874485Y-63119479D01*
X108945477Y-63118846D01*
X108970452Y-63128931D01*
X109018628Y-63154682D01*
X109039158Y-63168399D01*
X109171521Y-63277026D01*
X109188974Y-63294479D01*
X109297601Y-63426842D01*
X109311319Y-63447372D01*
X109392029Y-63598371D01*
X109401482Y-63621190D01*
X109451185Y-63785043D01*
X109456002Y-63809263D01*
X109473393Y-63985837D01*
X109474000Y-63998187D01*
X109474000Y-67192813D01*
X109473393Y-67205163D01*
X109456002Y-67381737D01*
X109451185Y-67405957D01*
X109423111Y-67498506D01*
X109401482Y-67569809D01*
X109392029Y-67592629D01*
X109372934Y-67628353D01*
X109332480Y-67704039D01*
X109311319Y-67743628D01*
X109297601Y-67764158D01*
X109188974Y-67896521D01*
X109171521Y-67913974D01*
X109039158Y-68022601D01*
X109018631Y-68036317D01*
X108926417Y-68085607D01*
X108867629Y-68117029D01*
X108844810Y-68126482D01*
X108680957Y-68176185D01*
X108656740Y-68181001D01*
X108480163Y-68198393D01*
X108467813Y-68199000D01*
X90414187Y-68199000D01*
X90401837Y-68198393D01*
X90225260Y-68181001D01*
X90201043Y-68176185D01*
X90037190Y-68126482D01*
X90014371Y-68117029D01*
X89955583Y-68085607D01*
X89863369Y-68036317D01*
X89842842Y-68022601D01*
X89710479Y-67913974D01*
X89693026Y-67896521D01*
X89584399Y-67764158D01*
X89570681Y-67743628D01*
X89549521Y-67704039D01*
X89509066Y-67628353D01*
X89489971Y-67592629D01*
X89480518Y-67569809D01*
X89458889Y-67498506D01*
X89430815Y-67405957D01*
X89425998Y-67381737D01*
X89408607Y-67205163D01*
X89408000Y-67192813D01*
X89408000Y-66951481D01*
X94110000Y-66951481D01*
X94110001Y-67414518D01*
X94110776Y-67419411D01*
X94110776Y-67419412D01*
X94118232Y-67466488D01*
X94124854Y-67508304D01*
X94129357Y-67517141D01*
X94129357Y-67517142D01*
X94135145Y-67528502D01*
X94182450Y-67621342D01*
X94272158Y-67711050D01*
X94385196Y-67768646D01*
X94394985Y-67770196D01*
X94394987Y-67770197D01*
X94422264Y-67774517D01*
X94478981Y-67783500D01*
X94785438Y-67783500D01*
X95092018Y-67783499D01*
X95096912Y-67782724D01*
X95176006Y-67770198D01*
X95176008Y-67770197D01*
X95185804Y-67768646D01*
X95298842Y-67711050D01*
X95388550Y-67621342D01*
X95410992Y-67577297D01*
X95459740Y-67525682D01*
X95523259Y-67508500D01*
X95796206Y-67508500D01*
X95864327Y-67528502D01*
X95908473Y-67577297D01*
X95963972Y-67686220D01*
X96059280Y-67781528D01*
X96179374Y-67842719D01*
X96189163Y-67844269D01*
X96189165Y-67844270D01*
X96218649Y-67848940D01*
X96279012Y-67858500D01*
X96795988Y-67858500D01*
X96856351Y-67848940D01*
X96885835Y-67844270D01*
X96885837Y-67844269D01*
X96895626Y-67842719D01*
X97015720Y-67781528D01*
X97111028Y-67686220D01*
X97172219Y-67566126D01*
X97188000Y-67466488D01*
X97188000Y-66899512D01*
X97172219Y-66799874D01*
X97164408Y-66784544D01*
X97151304Y-66714767D01*
X97178004Y-66648982D01*
X97187580Y-66638246D01*
X97423421Y-66402405D01*
X97485733Y-66368379D01*
X97512516Y-66365500D01*
X97813790Y-66365500D01*
X97824772Y-66365980D01*
X97851320Y-66368303D01*
X97851322Y-66368303D01*
X97862307Y-66369264D01*
X97898715Y-66359508D01*
X97909442Y-66357130D01*
X97912801Y-66356538D01*
X97946545Y-66350588D01*
X97956090Y-66345077D01*
X97959366Y-66343885D01*
X97962534Y-66342408D01*
X97973184Y-66339554D01*
X98004044Y-66317945D01*
X98013315Y-66312039D01*
X98036406Y-66298707D01*
X98045955Y-66293194D01*
X98070179Y-66264325D01*
X98077606Y-66256220D01*
X98166826Y-66167000D01*
X98878818Y-66167000D01*
X98899456Y-66323762D01*
X98959964Y-66469841D01*
X99056218Y-66595282D01*
X99181659Y-66691536D01*
X99327738Y-66752044D01*
X99335926Y-66753122D01*
X99338729Y-66753491D01*
X99484500Y-66772682D01*
X99492688Y-66771604D01*
X99633074Y-66753122D01*
X99641262Y-66752044D01*
X99787341Y-66691536D01*
X99912782Y-66595282D01*
X100009036Y-66469841D01*
X100069544Y-66323762D01*
X100090182Y-66167000D01*
X100076826Y-66065550D01*
X100070622Y-66018426D01*
X100069544Y-66010238D01*
X100009036Y-65864159D01*
X99912782Y-65738718D01*
X99787341Y-65642464D01*
X99641262Y-65581956D01*
X99633301Y-65580908D01*
X99572768Y-65544013D01*
X99541745Y-65480153D01*
X99540000Y-65459256D01*
X99540000Y-65252525D01*
X99536914Y-65235023D01*
X99535000Y-65213144D01*
X99535000Y-64961252D01*
X99529067Y-64931423D01*
X99525788Y-64914939D01*
X99525788Y-64914938D01*
X99523367Y-64902769D01*
X99479052Y-64836448D01*
X99412731Y-64792133D01*
X99400562Y-64789712D01*
X99400561Y-64789712D01*
X99360316Y-64781707D01*
X99354248Y-64780500D01*
X99074752Y-64780500D01*
X99068684Y-64781707D01*
X99028439Y-64789712D01*
X99028438Y-64789712D01*
X99016269Y-64792133D01*
X98949948Y-64836448D01*
X98905633Y-64902769D01*
X98903212Y-64914938D01*
X98903212Y-64914939D01*
X98899933Y-64931423D01*
X98894000Y-64961252D01*
X98894000Y-65213144D01*
X98892086Y-65235023D01*
X98889000Y-65252525D01*
X98889000Y-65877290D01*
X98888520Y-65888272D01*
X98885236Y-65925807D01*
X98894993Y-65962220D01*
X98897374Y-65972963D01*
X98898011Y-65976579D01*
X98898844Y-66014885D01*
X98892174Y-66065550D01*
X98878818Y-66167000D01*
X98166826Y-66167000D01*
X98430728Y-65903099D01*
X98438832Y-65895673D01*
X98459250Y-65878540D01*
X98467694Y-65871455D01*
X98473204Y-65861912D01*
X98473207Y-65861908D01*
X98486536Y-65838821D01*
X98492441Y-65829551D01*
X98507732Y-65807713D01*
X98514054Y-65798684D01*
X98516907Y-65788036D01*
X98518386Y-65784865D01*
X98519578Y-65781589D01*
X98525088Y-65772045D01*
X98531634Y-65734924D01*
X98534008Y-65724217D01*
X98543763Y-65687807D01*
X98540479Y-65650269D01*
X98540000Y-65639288D01*
X98540000Y-65252525D01*
X98536914Y-65235023D01*
X98535000Y-65213144D01*
X98535000Y-64961252D01*
X98529067Y-64931423D01*
X98525788Y-64914939D01*
X98525788Y-64914938D01*
X98523367Y-64902769D01*
X98479052Y-64836448D01*
X98412731Y-64792133D01*
X98400562Y-64789712D01*
X98400561Y-64789712D01*
X98360316Y-64781707D01*
X98354248Y-64780500D01*
X98074752Y-64780500D01*
X98016269Y-64792133D01*
X98009653Y-64796554D01*
X97942130Y-64803814D01*
X97920870Y-64797571D01*
X97912731Y-64792133D01*
X97854248Y-64780500D01*
X97574752Y-64780500D01*
X97516269Y-64792133D01*
X97509653Y-64796554D01*
X97442130Y-64803814D01*
X97420870Y-64797571D01*
X97412731Y-64792133D01*
X97354248Y-64780500D01*
X97074752Y-64780500D01*
X97068684Y-64781707D01*
X97028439Y-64789712D01*
X97028438Y-64789712D01*
X97016269Y-64792133D01*
X96949948Y-64836448D01*
X96905633Y-64902769D01*
X96903212Y-64914938D01*
X96903212Y-64914939D01*
X96899933Y-64931423D01*
X96894000Y-64961252D01*
X96894000Y-65213144D01*
X96892086Y-65235023D01*
X96889000Y-65252525D01*
X96889000Y-65963984D01*
X96868998Y-66032105D01*
X96852095Y-66053079D01*
X96434579Y-66470595D01*
X96372267Y-66504621D01*
X96345484Y-66507500D01*
X96279012Y-66507500D01*
X96218649Y-66517060D01*
X96189165Y-66521730D01*
X96189163Y-66521731D01*
X96179374Y-66523281D01*
X96059280Y-66584472D01*
X95963972Y-66679780D01*
X95959472Y-66688612D01*
X95908473Y-66788703D01*
X95859725Y-66840318D01*
X95796206Y-66857500D01*
X95523259Y-66857500D01*
X95455138Y-66837498D01*
X95410992Y-66788703D01*
X95393050Y-66753490D01*
X95388550Y-66744658D01*
X95298842Y-66654950D01*
X95185804Y-66597354D01*
X95176015Y-66595804D01*
X95176013Y-66595803D01*
X95148651Y-66591470D01*
X95092019Y-66582500D01*
X94785562Y-66582500D01*
X94478982Y-66582501D01*
X94474089Y-66583276D01*
X94474088Y-66583276D01*
X94394994Y-66595802D01*
X94394992Y-66595803D01*
X94385196Y-66597354D01*
X94272158Y-66654950D01*
X94182450Y-66744658D01*
X94124854Y-66857696D01*
X94110000Y-66951481D01*
X89408000Y-66951481D01*
X89408000Y-65301481D01*
X94110000Y-65301481D01*
X94110001Y-65764518D01*
X94124854Y-65858304D01*
X94182450Y-65971342D01*
X94272158Y-66061050D01*
X94385196Y-66118646D01*
X94394985Y-66120196D01*
X94394987Y-66120197D01*
X94422349Y-66124530D01*
X94478981Y-66133500D01*
X94745476Y-66133500D01*
X94761920Y-66134578D01*
X94785500Y-66137682D01*
X94793687Y-66136604D01*
X94793688Y-66136604D01*
X94809083Y-66134577D01*
X94825531Y-66133499D01*
X95092018Y-66133499D01*
X95096912Y-66132724D01*
X95176006Y-66120198D01*
X95176008Y-66120197D01*
X95185804Y-66118646D01*
X95298842Y-66061050D01*
X95388550Y-65971342D01*
X95446146Y-65858304D01*
X95461000Y-65764519D01*
X95460999Y-65301482D01*
X95453246Y-65252525D01*
X95447698Y-65217494D01*
X95447697Y-65217492D01*
X95446146Y-65207696D01*
X95388550Y-65094658D01*
X95298842Y-65004950D01*
X95185804Y-64947354D01*
X95176015Y-64945804D01*
X95176013Y-64945803D01*
X95148651Y-64941470D01*
X95092019Y-64932500D01*
X94840716Y-64932500D01*
X94824271Y-64931422D01*
X94793689Y-64927396D01*
X94785500Y-64926318D01*
X94746734Y-64931422D01*
X94746726Y-64931423D01*
X94730279Y-64932501D01*
X94478982Y-64932501D01*
X94474089Y-64933276D01*
X94474088Y-64933276D01*
X94394994Y-64945802D01*
X94394992Y-64945803D01*
X94385196Y-64947354D01*
X94272158Y-65004950D01*
X94182450Y-65094658D01*
X94124854Y-65207696D01*
X94110000Y-65301481D01*
X89408000Y-65301481D01*
X89408000Y-63998187D01*
X89408607Y-63985837D01*
X89425998Y-63809263D01*
X89430815Y-63785043D01*
X89480518Y-63621190D01*
X89489971Y-63598371D01*
X89570681Y-63447372D01*
X89584399Y-63426842D01*
X89693026Y-63294479D01*
X89710479Y-63277026D01*
X89842842Y-63168399D01*
X89863372Y-63154682D01*
X89911546Y-63128932D01*
X89981051Y-63114460D01*
X90007513Y-63119478D01*
X90142987Y-63160573D01*
X90155241Y-63163643D01*
X90160539Y-63164970D01*
X90160548Y-63164972D01*
X90162033Y-63165344D01*
X90186250Y-63170160D01*
X90187766Y-63170385D01*
X90187767Y-63170385D01*
X90204151Y-63172815D01*
X90204159Y-63172816D01*
X90205656Y-63173038D01*
X90207174Y-63173188D01*
X90207178Y-63173188D01*
X90381459Y-63190354D01*
X90381478Y-63190356D01*
X90382233Y-63190430D01*
X90392019Y-63191152D01*
X90397483Y-63191421D01*
X90403548Y-63191719D01*
X90403576Y-63191720D01*
X90404369Y-63191759D01*
X90410634Y-63191913D01*
X90413451Y-63191982D01*
X90413456Y-63191982D01*
X90414187Y-63192000D01*
X96748776Y-63192000D01*
X96751990Y-63191669D01*
X96786324Y-63188133D01*
X96786329Y-63188132D01*
X96789545Y-63187801D01*
X96839834Y-63177330D01*
X96849164Y-63172815D01*
X96920348Y-63138365D01*
X96920347Y-63138365D01*
X96927320Y-63134991D01*
X96981796Y-63089463D01*
X96984194Y-63086793D01*
X97046902Y-63053993D01*
X97071481Y-63051572D01*
X97141587Y-63051572D01*
X97145709Y-63051024D01*
X97145714Y-63051024D01*
X97189678Y-63045182D01*
X97193810Y-63044633D01*
X97197824Y-63043547D01*
X97197830Y-63043546D01*
X97255813Y-63027861D01*
X97257329Y-63027451D01*
X97262183Y-63025871D01*
X97268278Y-63023888D01*
X97268280Y-63023887D01*
X97276527Y-63021203D01*
X97283734Y-63016382D01*
X97283738Y-63016380D01*
X97288387Y-63013270D01*
X97358442Y-62992000D01*
X99073842Y-62992000D01*
X99135351Y-63008033D01*
G37*
G04 #@! TD.AperFunction*
G04 #@! TD*
G04 #@! TA.AperFunction,Conductor*
G04 #@! TO.N,+3V3*
G36*
X108480163Y-57912607D02*
G01*
X108656740Y-57929999D01*
X108680957Y-57934815D01*
X108844809Y-57984518D01*
X108867629Y-57993971D01*
X109018631Y-58074683D01*
X109039158Y-58088399D01*
X109171521Y-58197026D01*
X109188974Y-58214479D01*
X109297601Y-58346842D01*
X109311319Y-58367372D01*
X109392029Y-58518371D01*
X109401482Y-58541190D01*
X109451185Y-58705043D01*
X109456002Y-58729263D01*
X109473393Y-58905837D01*
X109474000Y-58918187D01*
X109474000Y-61985813D01*
X109473393Y-61998163D01*
X109460187Y-62132249D01*
X109456002Y-62174737D01*
X109451185Y-62198957D01*
X109401482Y-62362809D01*
X109392029Y-62385629D01*
X109314844Y-62530034D01*
X109311319Y-62536628D01*
X109297601Y-62557158D01*
X109188974Y-62689521D01*
X109171521Y-62706974D01*
X109039158Y-62815601D01*
X109018631Y-62829317D01*
X108976995Y-62851572D01*
X108867629Y-62910029D01*
X108844810Y-62919482D01*
X108680957Y-62969185D01*
X108656740Y-62974001D01*
X108480163Y-62991393D01*
X108467813Y-62992000D01*
X99680224Y-62992000D01*
X99612103Y-62971998D01*
X99575459Y-62936001D01*
X99565947Y-62921765D01*
X99565943Y-62921761D01*
X99559052Y-62911448D01*
X99492731Y-62867133D01*
X99480562Y-62864712D01*
X99480561Y-62864712D01*
X99420568Y-62852779D01*
X99414500Y-62851572D01*
X99287413Y-62851572D01*
X99219292Y-62831570D01*
X99175146Y-62782774D01*
X99134315Y-62702638D01*
X99122133Y-62665146D01*
X99106252Y-62564873D01*
X99105613Y-62530034D01*
X99120332Y-62408334D01*
X99127545Y-62378949D01*
X99171688Y-62262057D01*
X99185698Y-62235241D01*
X99256433Y-62132249D01*
X99276434Y-62109544D01*
X99369684Y-62026384D01*
X99394522Y-62009102D01*
X99511662Y-61946992D01*
X99525455Y-61940710D01*
X100575797Y-61536732D01*
X100586767Y-61533081D01*
X100746458Y-61487959D01*
X100769169Y-61483742D01*
X100934420Y-61468530D01*
X100945970Y-61468000D01*
X102108000Y-61468000D01*
X103875563Y-59690000D01*
X105345500Y-58211383D01*
X105354663Y-58203031D01*
X105492055Y-58089682D01*
X105512631Y-58075869D01*
X105588340Y-58035222D01*
X105664047Y-57994577D01*
X105686938Y-57985056D01*
X105851334Y-57934989D01*
X105875646Y-57930134D01*
X106052884Y-57912611D01*
X106065281Y-57912000D01*
X108467813Y-57912000D01*
X108480163Y-57912607D01*
G37*
G04 #@! TD.AperFunction*
G04 #@! TD*
G04 #@! TA.AperFunction,Conductor*
G04 #@! TO.N,Net-(L1-Pad1)*
G36*
X98029621Y-57170002D02*
G01*
X98076114Y-57223658D01*
X98087500Y-57276000D01*
X98087500Y-61542810D01*
X98067498Y-61610931D01*
X98050595Y-61631905D01*
X97833500Y-61849000D01*
X97833500Y-62612000D01*
X97813498Y-62680121D01*
X97759842Y-62726614D01*
X97707500Y-62738000D01*
X97705500Y-62738000D01*
X97637379Y-62717998D01*
X97590886Y-62664342D01*
X97579500Y-62612000D01*
X97579500Y-61976000D01*
X96776612Y-61631905D01*
X95877866Y-61246728D01*
X95823133Y-61201509D01*
X95801500Y-61130916D01*
X95801500Y-57276000D01*
X95821502Y-57207879D01*
X95875158Y-57161386D01*
X95927500Y-57150000D01*
X97961500Y-57150000D01*
X98029621Y-57170002D01*
G37*
G04 #@! TD.AperFunction*
G04 #@! TD*
G04 #@! TA.AperFunction,Conductor*
G04 #@! TO.N,Net-(L1-Pad2)*
G36*
X100569621Y-57170002D02*
G01*
X100616114Y-57223658D01*
X100627500Y-57276000D01*
X100627500Y-61130916D01*
X100607498Y-61199037D01*
X100551134Y-61246728D01*
X99989473Y-61487440D01*
X98849500Y-61976000D01*
X98849500Y-62612000D01*
X98829498Y-62680121D01*
X98775842Y-62726614D01*
X98723500Y-62738000D01*
X98721500Y-62738000D01*
X98653379Y-62717998D01*
X98606886Y-62664342D01*
X98595500Y-62612000D01*
X98595500Y-61849000D01*
X98378405Y-61631905D01*
X98344379Y-61569593D01*
X98341500Y-61542810D01*
X98341500Y-57276000D01*
X98361502Y-57207879D01*
X98415158Y-57161386D01*
X98467500Y-57150000D01*
X100501500Y-57150000D01*
X100569621Y-57170002D01*
G37*
G04 #@! TD.AperFunction*
G04 #@! TD*
M02*
