G04 #@! TF.GenerationSoftware,KiCad,Pcbnew,(5.99.0-11522-g728b160719)*
G04 #@! TF.CreationDate,2021-08-02T20:29:41+10:00*
G04 #@! TF.ProjectId,DC-DC,44432d44-432e-46b6-9963-61645f706362,0.2*
G04 #@! TF.SameCoordinates,Original*
G04 #@! TF.FileFunction,Legend,Top*
G04 #@! TF.FilePolarity,Positive*
%FSLAX46Y46*%
G04 Gerber Fmt 4.6, Leading zero omitted, Abs format (unit mm)*
G04 Created by KiCad (PCBNEW (5.99.0-11522-g728b160719)) date 2021-08-02 20:29:41*
%MOMM*%
%LPD*%
G01*
G04 APERTURE LIST*
G04 #@! TA.AperFunction,Profile*
%ADD10C,0.100000*%
G04 #@! TD*
%ADD11C,0.150000*%
%ADD12C,0.120000*%
G04 APERTURE END LIST*
D10*
X109474000Y-73152000D02*
X89408000Y-73152000D01*
X89408000Y-73152000D02*
X89408000Y-53086000D01*
X89408000Y-53086000D02*
X109474000Y-53086000D01*
X109474000Y-53086000D02*
X109474000Y-73152000D01*
D11*
G04 #@! TO.C,C3*
X102084142Y-60618666D02*
X102131761Y-60666285D01*
X102179380Y-60809142D01*
X102179380Y-60904380D01*
X102131761Y-61047238D01*
X102036523Y-61142476D01*
X101941285Y-61190095D01*
X101750809Y-61237714D01*
X101607952Y-61237714D01*
X101417476Y-61190095D01*
X101322238Y-61142476D01*
X101227000Y-61047238D01*
X101179380Y-60904380D01*
X101179380Y-60809142D01*
X101227000Y-60666285D01*
X101274619Y-60618666D01*
X101179380Y-60285333D02*
X101179380Y-59666285D01*
X101560333Y-59999619D01*
X101560333Y-59856761D01*
X101607952Y-59761523D01*
X101655571Y-59713904D01*
X101750809Y-59666285D01*
X101988904Y-59666285D01*
X102084142Y-59713904D01*
X102131761Y-59761523D01*
X102179380Y-59856761D01*
X102179380Y-60142476D01*
X102131761Y-60237714D01*
X102084142Y-60285333D01*
G04 #@! TO.C,C1*
X93829142Y-62396666D02*
X93876761Y-62444285D01*
X93924380Y-62587142D01*
X93924380Y-62682380D01*
X93876761Y-62825238D01*
X93781523Y-62920476D01*
X93686285Y-62968095D01*
X93495809Y-63015714D01*
X93352952Y-63015714D01*
X93162476Y-62968095D01*
X93067238Y-62920476D01*
X92972000Y-62825238D01*
X92924380Y-62682380D01*
X92924380Y-62587142D01*
X92972000Y-62444285D01*
X93019619Y-62396666D01*
X93924380Y-61444285D02*
X93924380Y-62015714D01*
X93924380Y-61730000D02*
X92924380Y-61730000D01*
X93067238Y-61825238D01*
X93162476Y-61920476D01*
X93210095Y-62015714D01*
G04 #@! TO.C,J2*
X107870666Y-53706380D02*
X107870666Y-54420666D01*
X107823047Y-54563523D01*
X107727809Y-54658761D01*
X107584952Y-54706380D01*
X107489714Y-54706380D01*
X108299238Y-53801619D02*
X108346857Y-53754000D01*
X108442095Y-53706380D01*
X108680190Y-53706380D01*
X108775428Y-53754000D01*
X108823047Y-53801619D01*
X108870666Y-53896857D01*
X108870666Y-53992095D01*
X108823047Y-54134952D01*
X108251619Y-54706380D01*
X108870666Y-54706380D01*
G04 #@! TO.C,J1*
X90090666Y-53706380D02*
X90090666Y-54420666D01*
X90043047Y-54563523D01*
X89947809Y-54658761D01*
X89804952Y-54706380D01*
X89709714Y-54706380D01*
X91090666Y-54706380D02*
X90519238Y-54706380D01*
X90804952Y-54706380D02*
X90804952Y-53706380D01*
X90709714Y-53849238D01*
X90614476Y-53944476D01*
X90519238Y-53992095D01*
G04 #@! TO.C,R2*
X93924380Y-67222666D02*
X93448190Y-67556000D01*
X93924380Y-67794095D02*
X92924380Y-67794095D01*
X92924380Y-67413142D01*
X92972000Y-67317904D01*
X93019619Y-67270285D01*
X93114857Y-67222666D01*
X93257714Y-67222666D01*
X93352952Y-67270285D01*
X93400571Y-67317904D01*
X93448190Y-67413142D01*
X93448190Y-67794095D01*
X93019619Y-66841714D02*
X92972000Y-66794095D01*
X92924380Y-66698857D01*
X92924380Y-66460761D01*
X92972000Y-66365523D01*
X93019619Y-66317904D01*
X93114857Y-66270285D01*
X93210095Y-66270285D01*
X93352952Y-66317904D01*
X93924380Y-66889333D01*
X93924380Y-66270285D01*
G04 #@! TO.C,U1*
X100330095Y-64984380D02*
X100330095Y-65793904D01*
X100377714Y-65889142D01*
X100425333Y-65936761D01*
X100520571Y-65984380D01*
X100711047Y-65984380D01*
X100806285Y-65936761D01*
X100853904Y-65889142D01*
X100901523Y-65793904D01*
X100901523Y-64984380D01*
X101901523Y-65984380D02*
X101330095Y-65984380D01*
X101615809Y-65984380D02*
X101615809Y-64984380D01*
X101520571Y-65127238D01*
X101425333Y-65222476D01*
X101330095Y-65270095D01*
G04 #@! TO.C,C4*
X103862142Y-60618666D02*
X103909761Y-60666285D01*
X103957380Y-60809142D01*
X103957380Y-60904380D01*
X103909761Y-61047238D01*
X103814523Y-61142476D01*
X103719285Y-61190095D01*
X103528809Y-61237714D01*
X103385952Y-61237714D01*
X103195476Y-61190095D01*
X103100238Y-61142476D01*
X103005000Y-61047238D01*
X102957380Y-60904380D01*
X102957380Y-60809142D01*
X103005000Y-60666285D01*
X103052619Y-60618666D01*
X103290714Y-59761523D02*
X103957380Y-59761523D01*
X102909761Y-59999619D02*
X103624047Y-60237714D01*
X103624047Y-59618666D01*
G04 #@! TO.C,L1*
X101433333Y-58364380D02*
X100957142Y-58364380D01*
X100957142Y-57364380D01*
X102290476Y-58364380D02*
X101719047Y-58364380D01*
X102004761Y-58364380D02*
X102004761Y-57364380D01*
X101909523Y-57507238D01*
X101814285Y-57602476D01*
X101719047Y-57650095D01*
G04 #@! TO.C,C2*
X99909333Y-67667142D02*
X99861714Y-67714761D01*
X99718857Y-67762380D01*
X99623619Y-67762380D01*
X99480761Y-67714761D01*
X99385523Y-67619523D01*
X99337904Y-67524285D01*
X99290285Y-67333809D01*
X99290285Y-67190952D01*
X99337904Y-67000476D01*
X99385523Y-66905238D01*
X99480761Y-66810000D01*
X99623619Y-66762380D01*
X99718857Y-66762380D01*
X99861714Y-66810000D01*
X99909333Y-66857619D01*
X100290285Y-66857619D02*
X100337904Y-66810000D01*
X100433142Y-66762380D01*
X100671238Y-66762380D01*
X100766476Y-66810000D01*
X100814095Y-66857619D01*
X100861714Y-66952857D01*
X100861714Y-67048095D01*
X100814095Y-67190952D01*
X100242666Y-67762380D01*
X100861714Y-67762380D01*
D12*
G04 #@! TO.C,C3*
X102153500Y-62838420D02*
X102153500Y-63119580D01*
X101133500Y-62838420D02*
X101133500Y-63119580D01*
G04 #@! TO.C,C1*
X94275500Y-62864420D02*
X94275500Y-63145580D01*
X95295500Y-62864420D02*
X95295500Y-63145580D01*
G04 #@! TO.C,J2*
X110575000Y-58064000D02*
X110575000Y-70824000D01*
X107915000Y-58064000D02*
X107915000Y-70824000D01*
X107915000Y-70824000D02*
X110575000Y-70824000D01*
X107915000Y-58064000D02*
X110575000Y-58064000D01*
X109245000Y-55464000D02*
X110575000Y-55464000D01*
X110575000Y-55464000D02*
X110575000Y-56794000D01*
G04 #@! TO.C,J1*
X90738000Y-58064000D02*
X90738000Y-70824000D01*
X90738000Y-55464000D02*
X90738000Y-56794000D01*
X88078000Y-58064000D02*
X88078000Y-70824000D01*
X89408000Y-55464000D02*
X90738000Y-55464000D01*
X88078000Y-70824000D02*
X90738000Y-70824000D01*
X88078000Y-58064000D02*
X90738000Y-58064000D01*
G04 #@! TO.C,R2*
X94263000Y-66595258D02*
X94263000Y-66120742D01*
X95308000Y-66595258D02*
X95308000Y-66120742D01*
G04 #@! TO.C,U1*
X96834500Y-65491000D02*
X96604500Y-65491000D01*
X96604500Y-62271000D02*
X96604500Y-63246000D01*
X99824500Y-64516000D02*
X99824500Y-65491000D01*
X99824500Y-65491000D02*
X99594500Y-65491000D01*
X96834500Y-62271000D02*
X96604500Y-62271000D01*
X96604500Y-64516000D02*
X96604500Y-65491000D01*
X99824500Y-62241000D02*
X99824500Y-63246000D01*
G04 #@! TO.C,C4*
X104058500Y-62838420D02*
X104058500Y-63119580D01*
X103038500Y-62838420D02*
X103038500Y-63119580D01*
G04 #@! TO.C,L1*
X96060500Y-57234000D02*
X100368500Y-57234000D01*
X100368500Y-61542000D02*
X96060500Y-61542000D01*
G04 #@! TO.C,C2*
X97171920Y-67693000D02*
X97453080Y-67693000D01*
X97171920Y-66673000D02*
X97453080Y-66673000D01*
G04 #@! TD*
M02*
